<svg xmlns="http://www.w3.org/2000/svg" xmlns:xlink="http://www.w3.org/1999/xlink" x="0px" y="0px" viewBox="0 0 100 100" style="enable-background:new 0 0 100 100;" xml:space="preserve">
<path fill-rule="evenodd" clip-rule="evenodd" d="M16.2,69.4v4.7l31.4,11.8c1.2,0.4,3.7,0.4,4.8,0l31.4-11.8v-4.7c-8,4.4-20.2,7.2-33.8,7.2  C36.3,76.6,24.2,73.8,16.2,69.4L16.2,69.4z M54.8,18.6c1.3,0,2.4,1.1,2.4,2.4c0,1.3-1.1,2.4-2.4,2.4c-1.3,0-2.4-1.1-2.4-2.4  C52.4,19.7,53.5,18.6,54.8,18.6L54.8,18.6z M61.3,21c1.3,0,2.4,1.1,2.4,2.4c0,1.3-1.1,2.4-2.4,2.4c-1.3,0-2.4-1.1-2.4-2.4  C58.9,22.1,60,21,61.3,21L61.3,21z M50,23.4c1.3,0,2.4,1.1,2.4,2.4c0,1.3-1.1,2.4-2.4,2.4c-1.3,0-2.4-1.1-2.4-2.4  C47.6,24.5,48.7,23.4,50,23.4L50,23.4z M6.5,70.5c1.5-0.3,3.1-0.6,4.8-0.9v7c0,0.6,0.6,1.1,1.7,1.5l32.8,12.3c2.3,0.8,5.9,0.8,8.2,0  L87,78.1c1.1-0.4,1.7-1,1.7-1.5v-7c1.7,0.3,3.3,0.6,4.8,0.9l-3.6-5.6c2.3-2.4,3.6-4.9,3.6-7.7c0-1.7-0.5-3.4-1.5-5  c2.3-0.9,4.2-2.6,5.3-4.9c0.6-1.2,1.6-2.1,2.7-2.5v-5.2l-11.3-4.3v-12c0-0.6-0.6-1.1-1.7-1.5L54.1,9.6c-2.3-0.8-6-0.8-8.2,0L13,21.9  c-1.1,0.4-1.7,1-1.7,1.5v12L0,39.7v5.2c1.2,0.4,2.2,1.3,2.7,2.5c1.1,2.4,3,4.1,5.3,4.9c-1,1.6-1.5,3.3-1.5,5c0,2.7,1.3,5.3,3.6,7.7  L6.5,70.5L6.5,70.5z M24.1,68c7.9-0.7,16.7-1.1,25.4-1.1c0.3,0,0.6,0,0.9,0c8.7,0,17.5,0.4,25.4,1.1C69,70.3,60,71.7,50,71.7  C40,71.7,31,70.3,24.1,68L24.1,68z M87.4,61l-6-9.3c0.4-0.1,0.8-0.1,1.2-0.1c0.7,0,1.3,0.2,1.9,0.5c0.8,0.3,1.5,0.6,2.3,0.7  c1.2,1.4,1.9,2.9,1.9,4.5C88.7,58.5,88.2,59.8,87.4,61L87.4,61z M77.7,54.9l5.8,9.1c-3.2-0.4-6.4-0.7-9.6-1  c-5.2-0.4-10.4-0.7-15.6-0.8c0.2-0.3,0.3-0.6,0.4-0.8c1.1-2.4,4-3.5,6.4-2.3C69.8,61.2,75.3,59.3,77.7,54.9L77.7,54.9z M50,62.1  c-0.6,0-1.1-0.1-1.7-0.3c-1.2-0.4-2.2-1.3-2.7-2.5c-2.3-4.8-8-6.9-12.8-4.7c-2.4,1.1-5.3,0.1-6.4-2.3c-2.3-4.8-8-6.9-12.8-4.7  c-2.4,1.1-5.3,0.1-6.4-2.3c-0.4-0.9-1-1.8-1.7-2.5l8.2-3.1l32.2,12.1c2.3,0.8,5.9,0.8,8.2,0l32.2-12.1l8.2,3.1  c-0.7,0.7-1.2,1.6-1.7,2.5c-1.1,2.4-4,3.5-6.4,2.3c-4.8-2.3-10.6-0.2-12.8,4.7c-1.1,2.4-4,3.5-6.4,2.3c-4.8-2.3-10.6-0.2-12.8,4.7  c-0.5,1-1.3,1.8-2.2,2.3c-0.3,0.2-0.7,0.3-1.1,0.4C50.7,62,50.4,62.1,50,62.1L50,62.1z M41.7,62.2c-5.2,0.1-10.4,0.4-15.6,0.8  c-3.2,0.3-6.4,0.6-9.6,1l5.8-9.1c2.4,4.4,7.9,6.3,12.6,4.1c2.4-1.1,5.3-0.1,6.4,2.3C41.4,61.6,41.5,61.9,41.7,62.2L41.7,62.2z   M18.6,51.6l-6,9.3c-0.8-1.2-1.3-2.4-1.3-3.7c0-1.6,0.7-3.1,1.9-4.5c0.8-0.1,1.5-0.4,2.3-0.7c0.5-0.2,1.1-0.4,1.6-0.4  C17.7,51.5,18.1,51.5,18.6,51.6L18.6,51.6z M83.8,35.5v-9.3L54.1,37.3c-2.3,0.8-6,0.8-8.2,0L16.2,26.1v9.3l31.4,11.8  c1.2,0.4,3.7,0.4,4.8,0L83.8,35.5L83.8,35.5z M22.7,23.4l24.9,9.3c1.2,0.4,3.7,0.4,4.8,0l24.9-9.3l-24.9-9.3c-1.2-0.4-3.7-0.4-4.8,0  L22.7,23.4L22.7,23.4z"></path>
</svg>