<svg xmlns="http://www.w3.org/2000/svg" viewBox="0 0 100 100"><path fill-rule="evenodd" d="M10.6 2.7H100v63.1H89.3v10.5L84 81.6v5.3h-5.3v-7.4l5.3-5.3V62.8l-2.2-2.2-5.3-5.3h-8.3V39.5c0-1.4-1.2-2.6-2.6-2.6-1.4 0-2.6 1.2-2.6 2.6v17l-4.6 9.3 4.6 9.3v11.8h-5.3V76.3l-5.3-10.5H31.6V71l-5.3 5.3v10.5H21V74.1l5.3-5.3v-6.6l1.5-1.7 2.1-2.5.1-.1c1.2-1.3 2-2.9.9-4.5-1.4-2.1-3.8-2-5.5-.3L18 60.5h-7.5v-8.3l-5.3 5.3v16.7l5.3 5.3v7.4H5.3v-5.3L0 76.3v-21l10.5-10.5V2.7h.1zM82 45.4l7.4-7.4v-7.4L82 23.1l-3.7 3.7 7.4 7.4-7.4 7.4 3.7 3.8zM21.1 29h31.5v-5.3H21.1V29zm0-10.5h47.3v-5.3H21.1v5.3zm36.7 78.8h31.5V92H57.8v5.3zm-52.5 0h26.3V92H5.3v5.3zm29.5-36.8h20.4l2.6-5.3V39.5c0-4.4 3.5-7.9 7.9-7.9s7.9 3.5 7.9 7.9V50h5.3l10.5 10.5h5.3V8H15.8v47.3l5.9-5.8c7.9-8 19.7 2.2 13.1 11z" clip-rule="evenodd"/></svg>