<svg xmlns="http://www.w3.org/2000/svg" viewBox="0 0 100 100"><path fill="#f7db95" fill-rule="evenodd" d="M2.5 73.5s.6-11.4 6.9-16.1c0 0 4-4.7 18.6-1.7 0 0 23 3.4 25-23.3 0 0 3.4-10.2 9.3-18.1 6.3-8 15.7-9.9 26.7-.7 0 0 12.5 11 7.2 33 0 0-.8 15.6-22.2 24.4 0 0-7.8.7-16.7 8.1 0 0-10.6 12.5-33.3 13.4-.1 0-19 .1-21.5-19z" clip-rule="evenodd" opacity=".4"/><path fill="#797085" d="M11.4 82.5c-.8.1-1.6-.5-1.7-1.4l-8.2-50c-.1-.9.4-1.7 1.2-1.9L55 20.6c.8-.1 1.6.5 1.7 1.4l8.2 50c.1.9-.4 1.7-1.2 1.9l-52.3 8.6z"/><path fill="#fff2e9" d="M16.2 75.2c-.8.1-1.6-.6-1.7-1.6L7.7 32.7c-.2-1 .3-2 1.1-2.1L49.4 24c.8-.1 1.6.6 1.7 1.6l6.7 40.8c.2 1-.3 2-1.1 2.1l-40.5 6.7z"/><path fill="#fafaff" d="M51 24.7c-.9.1-1.7-.4-1.8-1.3-.1-.9.4-1.7 1.3-1.8.9-.1 1.7.4 1.8 1.3.1.8-.5 1.6-1.3 1.8zM44.8 25.7c-.9.1-1.7-.4-1.8-1.3-.1-.9.4-1.7 1.3-1.8.9-.1 1.7.4 1.8 1.3.1.8-.5 1.6-1.3 1.8zM38.6 26.7c-.9.1-1.7-.4-1.8-1.3-.1-.9.4-1.7 1.3-1.8.9-.1 1.7.4 1.8 1.3.1.8-.5 1.6-1.3 1.8zM32.4 27.7c-.9.1-1.7-.4-1.8-1.3-.1-.9.4-1.7 1.3-1.8.9-.1 1.7.4 1.8 1.3.1.8-.5 1.6-1.3 1.8zM26.2 28.7c-.9.1-1.7-.4-1.8-1.3-.1-.9.4-1.7 1.3-1.8.9-.1 1.7.4 1.8 1.3.1.8-.5 1.6-1.3 1.8zM20 29.7c-.9.1-1.7-.4-1.8-1.3-.1-.9.4-1.7 1.3-1.8.9-.1 1.7.4 1.8 1.3.1.8-.5 1.6-1.3 1.8zM13.7 30.7c-.9.1-1.7-.4-1.8-1.3-.1-.9.4-1.7 1.3-1.8.9-.1 1.7.4 1.8 1.3.2.8-.4 1.6-1.3 1.8zM7.5 31.7c-.9.1-1.7-.4-1.8-1.3s.4-1.7 1.3-1.8c.9-.1 1.7.4 1.8 1.3.2.8-.4 1.6-1.3 1.8z"/><path fill="#1e2222" d="M50.8 23.7c-.6.1-1.1-.2-1.2-.7l-.6-3.5c-.1-.5.3-1 .9-1.1.6-.1 1.1.2 1.2.7l.6 3.5c.1.5-.3 1-.9 1.1zM44.6 24.7c-.6.1-1.1-.2-1.2-.7l-.6-3.5c-.1-.5.3-1 .9-1.1.6-.1 1.1.2 1.2.7l.6 3.5c.1.6-.3 1-.9 1.1zM38.4 25.8c-.6.1-1.1-.2-1.2-.7l-.6-3.5c-.1-.5.3-1 .9-1.1.6-.1 1.1.2 1.2.7l.6 3.5c.1.5-.3 1-.9 1.1zM32.2 26.8c-.6.1-1.1-.2-1.2-.7l-.6-3.5c-.1-.5.3-1 .9-1.1.6-.1 1.1.2 1.2.7l.6 3.5c.1.5-.3 1-.9 1.1zM26 27.8c-.6.1-1.1-.2-1.2-.7l-.6-3.5c-.1-.5.3-1 .9-1.1.6-.1 1.1.2 1.2.7l.6 3.5c.1.5-.3 1-.9 1.1zM19.8 28.8c-.6.1-1.1-.2-1.2-.7l-.6-3.5c-.1-.5.3-1 .9-1.1.6-.1 1.1.2 1.2.7l.6 3.5c.1.5-.3 1-.9 1.1zM13.6 29.8c-.6.1-1.1-.2-1.2-.7l-.6-3.5c-.1-.5.3-1 .9-1.1.6-.1 1.1.2 1.2.7l.6 3.5c.1.6-.3 1-.9 1.1zM7.4 30.9c-.6.1-1.1-.2-1.2-.7l-.6-3.5c-.1-.5.3-1 .9-1.1.6-.1 1.1.2 1.2.7l.6 3.5c.1.5-.3 1-.9 1.1z"/><g opacity=".5"><path fill="#c6794d" d="M8.3 36.5l-.1-.1 43.4-7.2.1.2zM8.89 40.26l43.41-7.12.02.1L8.9 40.36zM9.48 44.06l43.42-7.12.02.1L9.5 44.16zM10.2 48v-.1l43.4-7.1v.1zM10.77 51.7l43.44-7 .02.1-43.44 7zM11.47 55.49l43.44-7 .01.1-43.44 7zM12.07 59.4l43.44-7 .02.1-43.44 7zM12.76 63.2l43.44-7.02.02.1-43.44 7.02zM13.37 67.1l43.34-7 .02.1-43.34 7zM13.97 70.9l43.34-6.99.01.1L14 71z"/></g><path fill="#c6794d" d="M15.3 39.3c-.7 1.4-1.2 2.9-1.9 4.3.1 0 .1 0 .2 0 .3-1.7 1.2-3.3 2.4-4.5-.1 0-.1 0-.2 0-.5 1-.7 2.1-.7 3.1 0 .1.1 0 .1 0 1.4-.6 2.4-2 2.7-3.4 0-.1-.1 0-.2 0-.4.6-.8 1.2-.8 2 0 .4.1.9.4 1.1.3.2.6.2.9 0 .5-.3.7-1 .8-1.6 0-.1-.1 0-.2 0-.2.2-.4.5-.5.8-.1.3-.1.6-.2.9.7.1 1.6-.2 1.9-.8.1-.2.1-.4-.1-.5-.3-.1-.8.1-1.1.2 0 0-.1.1 0 .1.5.2 1.1.3 1.6.2.7-.2 1.2-.7 1.7-1.1 0 0-.1 0-.1 0-.5.5-.5 1.1-.7 1.7 0 .1.1 0 .2 0 .3-.3.6-.6 1-1-.1 0-.1 0-.2 0 .4.3.9.5 1.4.3.5-.2.9-.6 1.1-1 .7-1.1 1.1-2.5 1.7-3.7-.1 0-.1 0-.2 0-.3 1-.7 1.9-1 2.9-.3.8-.5 1.8-.2 2.6 0 .1.2 0 .2 0 0-.3.1-1.1-.3-1.3-.1-.1-.3-.1-.5 0-.3 0-.7.1-1 .1 0 0-.2 0-.1.1.8 1 2.2.8 3.2.1.3-.2.5-.4.7-.7.1-.1.3-.3.1-.3-.3 0-.6.4-.8.6-.1.1.1.1.1 0 .5-.4 1-.8 1.4-1.2-.1 0-.1 0-.2 0 0 .4-.2.8-.2 1.2 0 .1.1 0 .2 0 .6-.6 1.3-.9 1.9-1.4-.1 0-.1 0-.2 0-.1.4-.2.8-.2 1.2 0 .1.1 0 .2 0 .2-.2.5-.4.7-.6 0 0 .5-.4.3-.5 0 0-.1 0-.1.1-.5 1.8-.5 3.7-.7 5.5.1 0 .1 0 .2 0-.4-.4-.9-.9-.7-1.5.2-.7 1.2-.9 1.8-1 .1 0 .1-.1 0-.1-.7.1-1.5.3-1.9.9-.4.7.1 1.4.6 1.8 0 0 .2 0 .2 0 .3-1.8.2-3.7.7-5.5 0 0-.1 0-.1.1 0 0-.2.2-.2.2-.1.1-.2.2-.3.3-.2.1-.3.3-.5.4.1 0 .1 0 .2 0 .1-.4.2-.8.2-1.2 0-.1-.1 0-.2 0-.6.6-1.3.9-1.9 1.4.1 0 .1 0 .2 0 0-.4.2-.8.2-1.2 0-.1-.1 0-.2 0-.4.4-1 .8-1.4 1.2 0 0 .1 0 .1 0 .2-.2.3-.3.5-.5.1-.1-.1.1-.1.2-.1.1-.2.2-.3.3-.2.2-.4.3-.6.5-.9.5-2 .5-2.6-.3 0 0-.1.1-.1.1.4 0 .9-.1 1.3 0s.3.9.3 1.2c.1 0 .1 0 .2 0-.2-.9 0-1.8.3-2.7.3-.9.7-1.8.9-2.8 0-.1-.1 0-.2 0-.6 1-.9 2.1-1.5 3.2-.3.5-.6 1-1 1.3-.5.3-1 .2-1.5-.2 0 0-.1 0-.2 0-.3.3-.6.6-1 1 .1 0 .1 0 .2 0 .3-.6.3-1.2.7-1.7.1-.1-.1-.1-.1 0-.4.4-.9.8-1.4 1.1-.5.2-1.1.1-1.6-.1 0 0 0 .1 0 .1.2-.1 1-.5 1-.1.1.3-.3.6-.5.7-.2.1-.4.2-.6.2-.1 0-.2 0-.4.1-.2 0-.3 0-.2-.2.1-.2.1-.4.1-.6.1-.3.3-.6.5-.8-.1 0-.1 0-.2 0-.1.5-.3 1.1-.7 1.5-.3.3-.6.2-.9-.1-.7-.8 0-2.2.6-2.8-.1 0-.1 0-.2 0-.3 1.4-1.3 2.8-2.6 3.3 0 0 .1 0 .1 0 0-1.1.2-2.1.7-3.1 0-.1-.1 0-.2 0a7.93 7.93 0 00-2.4 4.6c0 .1.1 0 .2 0 .7-1.4 1.2-2.9 1.9-4.3.3-.5.1-.5.1-.4z"/><path fill="#c6794d" d="M28.8 38.1c0 .1 0 .2 0 .2 0 .1.2.1.2 0s0-.2 0-.2c0-.1-.2-.1-.2 0zM28.7 39.6c.2 0 .2.3.2.4 0 .1.2 0 .2 0 0-.2 0-.5-.3-.5-.1 0-.2 0-.1.1-.1 0-.1 0 0 0zM17.4 47.2c-.3 1.2-.8 2.4-1.7 3.3 0 0 .1 0 .2 0 .8-1.1 1.2-2.4 1.9-3.6-.1 0-.1 0-.2 0-.2.4-.3.8-.3 1.2 0 .4.1.8.1 1.2 0 0 .1 0 .1 0 1.3-.3 2.2-1.3 2.7-2.5 0-.1-.1 0-.2 0-.3.5-.5 1-.5 1.5s0 1.1 0 1.6c0 .1.2 0 .2 0 0-.5-.1-1 0-1.5 0-.6.2-1.1.5-1.6-.1 0-.1 0-.2 0-.5 1.1-1.3 2.1-2.6 2.3 0 0 .1 0 .1 0 0-.4-.1-.8-.1-1.2 0-.4.1-.8.3-1.2 0-.1-.1 0-.2 0-.7 1.2-1.1 2.5-1.9 3.6 0 .1.1 0 .2 0 .9-.9 1.4-2.1 1.7-3.4.1.2 0 .3-.1.3zM21.9 48.4c-.1-.2.2-.4.2-.5 0-.2-.4-.2-.5-.2-.2 0-.5.5-.6.7-.2.3-.3.7-.3 1.1 0 .1.1 0 .2 0 .3-.2.7-.4 1-.6.4-.3.5-.9.7-1.3 0-.1-.1 0-.2 0-.2.3-.4.6-.4.9 0 .4.2.8.2 1.2 0 0 .1 0 .1 0 .5-.3 1-.7 1.3-1.3.3-.6.4-1.2.4-1.9-.1 0-.1 0-.2 0 0 .4 0 .8.1 1.1 0 .2.1.5.1.7 0 .1.1.3 0 .3 0 0 0 0 0 .1s.3.1.4.2c.1 0 .2 0 .3 0 .1 0 0 0 .1 0 0 0 .1 0 .2 0 .1-.1.1-.2.1-.3 0-.1 0-.4.1-.4-.1 0-.1 0-.2 0 .1 0 .1 0 .2-.1-.5-.2-1.1-.5-1.7-.5 0 0 0 .1 0 .1.9-.2 1.9-.2 2.8-.2 0 0 .1 0 .1-.1s0-.2 0-.2c0-.1-.1 0-.2 0-.4.4-.6.8-1 1.2.6.1 1.2 0 1.7-.5s.8-1.3.9-2c0-.1-.2 0-.2 0-.2.7-.2 1.4-.2 2.2 0 0 .1 0 .1 0 .7-.5 1.7-.5 2.4-1 .1-.1-.1-.1-.1 0-.7.5-1.7.5-2.4 1 0 0 .1 0 .1 0 0-.7 0-1.4.2-2.1-.1 0-.1 0-.2 0-.1.8-.4 1.8-1.2 2.2-.2.1-.5.2-.7.2-.1 0-.3 0-.2-.1.1-.1.1-.1.2-.2.2-.3.5-.6.7-.9-.1 0-.1 0-.2 0 0 .1 0 .2 0 .2s.1 0 .1-.1c-1 0-2 0-2.9.2-.1 0-.1.1 0 .1.5 0 1.2.2 1.6.5 0 0 .2 0 .2-.1 0 0-.1 0-.2 0-.1.1-.1.2-.1.3 0 .1 0 .4-.1.4.1 0 .1 0 .2 0 0 0 0 0-.1 0s-.3 0-.4 0c-.1 0-.2 0-.3-.1 0 0 0-.3 0-.3 0-.4-.1-.7-.2-1.1 0-.3-.1-.6-.1-.9 0 0-.2 0-.2 0 0 .6-.1 1.2-.3 1.7-.3.6-.8 1-1.3 1.4 0 0 .1 0 .1 0 0-.4-.1-.7-.1-1.1-.1-.4.1-.7.4-1-.1 0-.1 0-.2 0-.1.4-.3 1-.7 1.3-.3.2-.7.4-1 .6.1 0 .1 0 .2 0 0-.7.3-1.2.7-1.7 0 0-.1 0-.1 0 .8 0-.1.4.2.7.3.3.5.2.4.2z"/><path fill="#6ea5ba" d="M33.1 57.9L20.6 70.7l53.8 1.9-4.6-14.7z"/><path fill="#2b4f68" d="M20.6 70.6s48.4-.3 52.2.7c2.8.7 3 8.2 3 8.2s-.2 8.7-3.3 9c-3.1.3-52.1.1-52.1.1s3-4.5 3.1-8.6c-.1-4.1-2.9-9.4-2.9-9.4z"/><path fill="#fff2e9" d="M21.3 72.1s44.7-.3 48.2.6c2.7.6 2.8 6.8 2.8 6.8s-.2 7.3-3.1 7.5c-2.9.2-48.1.1-48.1.1s1.2-2.5 1.2-7.5c.1-5.4-1-7.5-1-7.5z"/><path fill="#e8e1ef" d="M29 68c-2.8 1-5.8 1.4-8.4 2.7 1 1.9 1.6 4.5 1.5 7.1 0 0 18-3.1 29.9-3.6 9.9-.4 17.4-2.3 22.3-.7.3-2-1.3-4-2.4-5.5H29z"/><path fill="#c6794d" d="M31.1 75.9s.6 0 1.6 0c.5 0 1.2 0 1.9 0 .4 0 .8 0 1.2 0 .4 0 .8 0 1.3 0 .9 0 1.9 0 2.9 0s2.1 0 3.2 0c.6 0 1.1 0 1.7 0 .3 0 .6 0 .9 0 .3 0 .6 0 .9 0 .6 0 1.2 0 1.8 0 .1 0 .3 0 .4 0h.4c.3 0 .6 0 .9 0 1.2 0 2.4.1 3.6.1 1.2.1 2.3.1 3.4.1.3 0 .6 0 .8 0 .3 0 .5 0 .8 0 .5 0 1.1 0 1.6 0 1 0 2 0 2.9 0 .9 0 1.7 0 2.4 0s1.4 0 1.9 0c1 0 1.6 0 1.6 0s-.6 0-1.6.1c-.5 0-1.2 0-1.9.1-.7 0-1.5 0-2.4.1-.9 0-1.9 0-2.9 0-.5 0-1 0-1.6 0-.5 0-1.1 0-1.6 0-1.1 0-2.3 0-3.5-.1-1.2 0-2.4-.1-3.6-.1-.3 0-.6 0-.9 0h-.4c-.1 0-.3 0-.4 0-.6 0-1.2 0-1.8 0-.3 0-.6 0-.9 0-.3 0-.6 0-.9 0-.6 0-1.1 0-1.7 0-.3 0-.6 0-.8 0-.3 0-.5 0-.8 0-.5 0-1.1 0-1.6 0-1 0-2 0-2.9 0-.9 0-1.7 0-2.4 0s-1.4 0-1.9 0c-1-.3-1.6-.3-1.6-.3zM24.6 78.3s.7 0 1.8 0c.6 0 1.3 0 2.1 0s1.7 0 2.7 0c1 0 2.1 0 3.2 0s2.3 0 3.6 0c1.2 0 2.5 0 3.8 0 1.3 0 2.6 0 3.9 0 2.6 0 5.3 0 7.8 0s4.8 0 6.8 0c4 0 6.6 0 6.6 0s-2.6 0-6.6 0c-2 0-4.3 0-6.8 0s-5.1 0-7.8 0c-1.3 0-2.6 0-3.9 0-1.3 0-2.6 0-3.8 0-2.5 0-4.8 0-6.8 0-1 0-1.9 0-2.7 0-.8 0-1.5 0-2.1 0-1.1 0-1.8 0-1.8 0zM30.1 79.2s2.4 0 6.1 0c.9 0 1.9 0 2.9 0s2.1 0 3.3 0c2.3 0 4.7 0 7.1 0 2.4 0 4.8 0 7.1 0s4.4 0 6.2 0c3.6 0 6.1 0 6.1 0s-2.4 0-6.1 0c-1.8 0-3.9 0-6.2 0-2.3 0-4.7 0-7.1 0-9.7 0-19.4 0-19.4 0z"/><path fill="#a33c00" d="M93.4 58.9l-1-4.8-4.7 1 2.3 7.5z"/><path fill="#fcc107" d="M89.2 60.2s-.3 13.7-11.1 19.2c-12.2 6.2-28.7-.6-29.8-.1-1.1.5-2.6 2-2 2.9.6.9 3.1 6.9 13.6 10.6 10.6 3.7 37.2.7 38.7-23.1.5-7.5-5.6-11.6-5.6-11.6l-3.8 2.1z"/><path fill="#f2a718" d="M46.6 80.8c-.6.6-.6.9-.3 1.4.6.9 3.1 6.8 13.6 10.5 10.6 3.7 37.2.7 38.6-23 .4-7.4-5.6-11.5-5.6-11.5l-1.4.8s8.2 18.5-10.9 28.1c-16.6 8.5-33.6-6.7-34-6.3z"/><path fill="#ffdd01" d="M75.7 83.2c-.8-1.9-4.3.9-9.6 1-5.2.1-8.3-.5-8.3-.5s4.2 1.9 7.9 2.6c6 1.1 11.2-.4 10-3.1z"/><path fill="#a44aa0" d="M77.8 70.5l5.5-7.9s.2-1.9.2-4.8c0-2.8-.7-5.4-.7-5.4l-6.1 8.7 1.1 9.4z"/><path fill="#a44aa0" d="M27.7 60.8s46.8-.2 49 .4c1.7.4 1.8 4.9 1.8 4.9s-.1 5.2-2 5.4c-1.9.2-48.8.1-48.8.1s0 0 1.3-5.4c.6-2.4-1.3-5.4-1.3-5.4z"/><path fill="#ffe7d4" d="M27.7 61.7s45-.1 47.2.4c1.6.4 1.7 4 1.7 4s-.1 4.3-1.9 4.5c-1.7.1-47 0-47 0s1-1.3 1.3-4.4c.3-3.6-1.3-4.5-1.3-4.5z"/><path fill="#cc75cc" d="M27.7 60.8l17.1-8.4 38.1.1-6.1 8.7z"/><path fill="#e3b0ea" d="M76.8 61.2l6.1-8.7-1.8-.1-6.4 8.7z"/><path fill="#c6794d" d="M36.5 64.8s.6 0 1.6 0c.5 0 1.2 0 1.9 0 .4 0 .8 0 1.2 0 .4 0 .8 0 1.3 0 .9 0 1.9 0 2.9 0s2.1 0 3.2 0c.6 0 1.1 0 1.7 0 .3 0 .6 0 .9 0 .3 0 .6 0 .9 0 .6 0 1.2 0 1.8 0 .1 0 .3 0 .4 0h.4c.3 0 .6 0 .9 0 1.2 0 2.4.1 3.6.1 1.2.1 2.3.1 3.4.1.3 0 .6 0 .8 0 .3 0 .5 0 .8 0 .5 0 1.1 0 1.6 0 1 0 2 0 2.9 0 .9 0 1.7 0 2.4 0s1.4 0 1.9 0c1 0 1.6 0 1.6 0s-.6 0-1.6.1c-.5 0-1.2 0-1.9.1-.7 0-1.5 0-2.4.1-.9 0-1.9 0-2.9 0-.5 0-1 0-1.6 0-.5 0-1.1 0-1.6 0-1.1 0-2.3 0-3.5-.1-1.2 0-2.4-.1-3.6-.1-.3 0-.6 0-.9 0h-.4c-.1 0-.3 0-.4 0-.6 0-1.2 0-1.8 0-.3 0-.6 0-.9 0-.3 0-.6 0-.9 0-.6 0-1.1 0-1.7 0-.3 0-.6 0-.8 0-.3 0-.5 0-.8 0-.5 0-1.1 0-1.6 0-1 0-2 0-2.9 0-.9 0-1.7 0-2.4 0s-1.4 0-1.9 0c-1-.4-1.6-.3-1.6-.3zM30 67.1s.7 0 1.8 0c.6 0 1.3 0 2.1 0s1.7 0 2.7 0c1 0 2.1 0 3.2 0s2.3 0 3.6 0c1.2 0 2.5 0 3.8 0 1.3 0 2.6 0 3.9 0 2.6 0 5.3 0 7.8 0s4.8 0 6.8 0c4 0 6.6 0 6.6 0s-2.6 0-6.6 0c-2 0-4.3 0-6.8 0s-5.1 0-7.8 0c-1.3 0-2.6 0-3.9 0-1.3 0-2.6 0-3.8 0-2.5 0-4.8 0-6.8 0-1 0-1.9 0-2.7 0-.8 0-1.5 0-2.1 0-1.1 0-1.8 0-1.8 0zM35.5 68s2.4 0 6.1 0c.9 0 1.9 0 2.9 0s2.1 0 3.3 0c2.3 0 4.7 0 7.1 0 2.4 0 4.8 0 7.1 0s4.4 0 6.2 0c3.6 0 6.1 0 6.1 0s-2.4 0-6.1 0c-1.8 0-3.9 0-6.2 0-2.3 0-4.7 0-7.1 0-9.7 0-19.4 0-19.4 0zM74.9 61.9c.8 2.7 1.4 6.3-.1 8.8 1.1-.2 1.5-2.4 1.7-3.4.2-1.5.1-3.4-.6-4.6-.3-.2-1-.8-1-.8z"/><path fill="#6ea5ba" d="M36.3 75.8c-1 .9-3.3 5.6-2.2 8.2.2-.3 1.2-.7 1.5-1 .4.3 2.1.7 2.5 1-1-3.4 1.2-7.7 2.2-8.3h-4z"/><path fill="#530254" d="M37.8 83.9c-.1-4-.2-5.5 2.3-7.9-.3-.1-1-.3-1.3-.2-1.4 2.6-2.1 5.2-1.3 7.8l.3.3z" opacity=".2"/><path fill="#ed8707" d="M44.1 55.5c12.3.1 29.5 0 29.5 0l7.5-3.1-28.8.5-8.2 2.6z" opacity=".3"/><path fill="#e8e1ef" d="M46.7 49.6l-2.8 5.8.8.4 4.3-4.4zM71.2 49.6l2.8 5.8-.7.4-4.4-4.4z"/><path fill="#797085" d="M44.4 55.5l3.1-4.9 1.5.8-4.3 4.4zM73.6 55.5l-3.1-4.9-1.5.8 4.3 4.4z" opacity=".4"/><path fill="#797085" d="M58.5 14.4h.8V18h-.8z"/><path fill="#797085" d="M61 15c0 .4-.4.8-.8.8h-2.6c-.4 0-.8-.4-.8-.8s.4-.8.8-.8h2.6c.4-.1.8.3.8.8z"/><circle cx="59" cy="36" r="19" fill="#2b4f68" transform="rotate(-76.898 58.947 36.038)"/><path fill="#e8e1ef" d="M76 35.8c0 9.3-7.6 16.9-16.9 16.9s-16.9-7.6-16.9-16.9c0-9.3 7.6-16.9 16.9-16.9S76 26.5 76 35.8z"/><circle cx="59" cy="36" r="14.7" fill="#fff2e9" transform="rotate(-76.856 58.951 36.04)"/><path fill="#fff" d="M68.7 19.7s4.9 3.6 6.1 5.9c1.3 2.3 2.6 6.1 2.6 6.1L51.2 53.4s-5.4-3.3-7-5.4c-1.7-2.2-3.4-6.4-3.4-6.4l27.9-21.9z" opacity=".3"/><path fill="#530254" d="M72.6 35.8c0 .4-.3.7-.7.7-.4 0-.7-.3-.7-.7 0-.4.3-.7.7-.7.4 0 .7.3.7.7zM47 35.8c0 .4-.3.7-.7.7-.4 0-.7-.3-.7-.7 0-.4.3-.7.7-.7.4 0 .7.3.7.7zM59.1 22.8c.4 0 .7.3.7.7 0 .4-.3.7-.7.7-.4 0-.7-.3-.7-.7 0-.4.3-.7.7-.7zM59.1 48.3c.4 0 .7.3.7.7 0 .4-.3.7-.7.7-.4 0-.7-.3-.7-.7 0-.4.3-.7.7-.7zM65.8 24.4c.2.3.2.7-.1.9-.3.2-.7.2-.9-.1-.2-.3-.2-.7.1-.9.3-.3.7-.2.9.1zM53.2 46.6c.2.3.2.7-.1.9-.3.2-.7.2-.9-.1-.2-.3-.2-.7.1-.9.3-.2.7-.2.9.1zM48.6 41.8c.2.3.2.7-.1.9-.3.2-.7.2-.9-.1-.2-.3-.2-.7.1-.9.2-.2.6-.2.9.1zM65.9 46.6c.2.3.2.7-.1.9-.3.2-.7.2-.9-.1-.2-.3-.2-.7.1-.9.3-.3.7-.2.9.1zM70.7 41.8c.2.3.2.7-.1.9-.3.2-.7.2-.9-.1-.2-.3-.2-.7.1-.9.2-.2.6-.2.9.1zM70.7 29c.2.3.2.7-.1.9-.3.2-.7.2-.9-.1s-.2-.7.1-.9c.2-.2.6-.2.9.1zM53.2 24.4c.2.3.2.7-.1.9s-.7.2-.9-.1c-.2-.3-.2-.7.1-.9.3-.3.7-.2.9.1zM48.6 29c.2.3.2.7-.1.9-.3.2-.7.2-.9-.1s-.2-.7.1-.9c.2-.2.6-.2.9.1z"/><path fill="#a44aa0" d="M58.3 34.9s-.5-6.6-.5-8.1c0-.9 1-2.6 1-2.6s1.1 1.3 1.1 2.6-.6 8.1-.6 8.1h-1z"/><path fill="#fff2e9" d="M58.7 33.9s-.2-6.3-.2-7.1c0-.6.4-1.6.4-1.6s.4.8.4 1.6-.2 7.1-.2 7.1h-.4z"/><path fill="#a44aa0" d="M58 36.5s-4.8.4-6.2.4c-.9 0-2.6-1-2.6-1s1.3-1.1 2.6-1.1 6.2.7 6.2.7v1z"/><path fill="#fff2e9" d="M58.1 36.3s-4.5.2-5.6.2c-.7 0-2-.6-2-.6s1-.7 2-.7 5.6.4 5.6.4v.7z"/><path fill="#a44aa0" d="M60.7 36c0 1-.8 1.8-1.8 1.8s-1.8-.8-1.8-1.8.8-1.8 1.8-1.8c1 .1 1.8.9 1.8 1.8z"/><path fill="#cc75cc" d="M60.1 36c0 .6-.5 1.1-1.1 1.1-.6 0-1.1-.5-1.1-1.1 0-.6.5-1.1 1.1-1.1.6 0 1.1.5 1.1 1.1z"/><path fill="#3f6d77" d="M45.1 13.8s2.8-1 3.8-2.3c1.5-2 2-3.3 3.2-4.1 1.5-.9 4-1.5 6.9-1.4 2.8.1 7.3.6 8.4 1.9 1.1 1.3 1.1 2.1 1.9 3.4.8 1.4 2.5 2.6 2.5 2.6l-.3.7s-1.9-1.7-2.4-2.5c-.8-1.2-.8-3.3-2.8-4.2-2-1-5.6-1-7.4-1-1.7 0-4.7.1-6.4 1.1-2.1 1.3-1.5 2.1-3.3 3.8-1.1 1.1-3.5 2.3-3.5 2.3l-.6-.3z"/><path fill="#797085" d="M45.5 12.6c-.5.2-.7.8-.5 1.2l1.7-.8c-.1-.4-.7-.6-1.2-.4z"/><path fill="#797085" d="M48 13c.2.4.1.8-.3 1l-2.1 1.2c-.4.2-.8.1-1-.3-.2-.4-.1-.8.3-1l2.1-1.2c.3-.2.8 0 1 .3zM72.6 12.7c-.4-.3-1-.2-1.3.2l1.5 1.1c.3-.5.2-1-.2-1.3z"/><path fill="#797085" d="M73.4 15c-.2.4-.7.5-1 .3L70.3 14c-.4-.2-.5-.7-.3-1 .2-.4.7-.5 1-.3l2.1 1.2c.4.2.6.7.3 1.1z"/><path fill="#6ea5ba" d="M47.9 12.8l-3.1 1.7c-2.8 1.5-3.8 5-2.3 7.8 0 0 2.5-.8 6.7-3.1 4.3-2.3 6.4-4 6.4-4-1.5-2.9-5-3.9-7.7-2.4z"/><path fill="#3f6d77" d="M47.9 12.8l-.7.4c2.1-.3 2.9 2.1 2.2 3.5-.9 1.9-4.6 3.9-7.4 4.6.1.3.3.7.4 1 0 0 2.5-.8 6.7-3.1 4.3-2.3 6.4-4 6.4-4a5.48 5.48 0 00-7.6-2.4z" opacity=".4"/><path fill="#fff" d="M47.2 14.4c-1.2-.4-2.9.9-3.6 1.9-.6.8-1.2 2.6.4 2.3 1.1-.2 2.1-1.2 2.9-1.9.4-.3 1.5-1.9.3-2.3z" opacity=".5"/><path fill="#6ea5ba" d="M73.2 14.3l-3.1-1.7c-2.8-1.5-6.2-.5-7.7 2.3 0 0 2 1.6 6.3 3.9s6.9 3.2 6.9 3.2c1.4-2.7.3-6.2-2.4-7.7z"/><path fill="#3f6d77" d="M73.2 14.3l-.7-.4c1.4 1.6-.2 3.6-1.7 3.8-2 .3-5.8-1.8-7.8-3.7-.2.3-.4.6-.6.9 0 0 2 1.6 6.3 3.9s6.9 3.2 6.9 3.2c1.4-2.8.3-6.2-2.4-7.7z" opacity=".4"/><path fill="#fff" d="M71.5 14.7c-.3-1.2-2.3-1.9-3.6-2-1-.1-2.8.4-1.7 1.6.7.8 2.2 1.2 3.2 1.4.5.1 2.4.2 2.1-1z" opacity=".5"/><path fill="#ffcf9c" d="M22.6 58.4l5.9 1.1h.8v-2.7h-.8l-5.9 1.1z"/><path fill="#ecba84" d="M22.6 58.4l6.7.6v-1.6l-6.7.5z"/><path fill="#c6794d" d="M29.1 58.8l-5.4-.5-1.1.2 6.1 1.1.4-.1z"/><path fill="#a44aa0" d="M23.8 58.6l-2.6-.4 3.5-.7-.5.6z"/><path fill="#530254" d="M21.2 58.2l2.8.2-.1.3z"/><path fill="#c499c8" d="M21.2 58.1l3.3-.3.2-.3z"/><path fill="#ffd26f" d="M29.1 59.5v-2.1s-.6 0-.6-.3.6-.3.6-.3H64l.6.6v1.3l-.6.8H29.1z"/><path fill="#ffb901" d="M64.6 57.4v1.3H29s-.7-.1-.8-.6c0-.6.7-.7.7-.7h35.7z"/><path fill="#f59100" d="M64 59.5l.6-.8H29s-.6 0-.6.4.6.4.6.4h35z"/></svg>