<svg xmlns="http://www.w3.org/2000/svg" viewBox="0 0 100 100" enable-background="new 0 0 100 100"><path fill="#ED8707" d="M36.5 47.9c0 1.5-5.2 2.7-11.7 2.7-6.5 0-11.7-1.2-11.7-2.7 0-1.5 5.2-2.7 11.7-2.7 6.4.1 11.7 1.3 11.7 2.7z"/><path fill="#FFBD33" d="M14.2 48.9c0-1.8 8.7-2.5 11.1-2.5 3.3 0 10 1.4 10.6 2.3 1-1 .4-1.5-.9-2.1-2.2-1-5.5-1.4-9.7-1.5-3.8-.1-10.9.8-11.9 2.2-.2.3-.2 1.2-.2 1.2l1 .4z"/><path fill="#682D21" d="M16.9 43.3c.8 1.8 4.1 6.9 4.5 8.5.3 1.4.3 3.1.3 3.1l-.7.3s.2-1.4-.3-3.4c-.7-2.8-5.4-10.2-6.3-11.9-1.9-3.5-6.4-8.2-6.4-8.2s2 1.6 3.4 3.3c1.4 1.7 4.6 6.5 5.5 8.3z"/><path fill="#F5952E" d="M13.1 43.7c2.7-.2 4 .8 4 .8s-1.9 2.1-5 2.4c-2.8.2-4.4-1-4.4-1s2.8-2 5.4-2.2z"/><path fill="#CF4809" d="M17 44.5s0 0-.1 0-.2 0-.3 0c-.1 0-.1 0-.2 0s-.2 0-.3 0c-.2 0-.4 0-.6 0-.1 0-.1 0-.2 0s-.1 0-.2 0-.2 0-.4 0c-.1 0-.1 0-.2 0s-.1 0-.2 0-.3 0-.4 0c-.1 0-.3 0-.4 0-.1 0-.1 0-.2 0 0 0-.1 0-.1 0s-.1 0-.1 0c-.1 0-.1 0-.2 0s-.1 0-.2 0-.1 0-.2 0h-.2c-.1 0-.3.1-.4.1-.1 0-.3.1-.4.1-.3.1-.6.1-.8.2-.3.1-.5.1-.8.2-.2.1-.5.1-.7.2-.9.2-1.5.4-1.5.4s0 0 .1 0 .2 0 .3-.1c.1 0 .3-.1.5-.1s.4-.1.6-.2c.2-.1.5-.1.7-.2.2-.1.5-.1.8-.2.1 0 .3-.1.4-.1.1 0 .1 0 .2 0s.1 0 .2 0 .3-.1.4-.1c.1 0 .3-.1.4-.1h.2c.1 0 .1 0 .2 0s.1 0 .2 0 .1 0 .2 0c0 0 .1 0 .1 0s.1 0 .1 0c.1 0 .1 0 .2 0s.3 0 .4 0c.1 0 .3 0 .4 0 .1 0 .1 0 .2 0s.1 0 .2 0 .3 0 .4 0c.1 0 .1 0 .2 0s.1 0 .2 0 .2 0 .3 0c0 0 .1 0 .1 0s0 0 .1 0c0 0 .1 0 .1 0 .1 0 .2 0 .3 0 .1 0 .2 0 .2 0 .1 0 .2 0 .3 0 .1-.1.1-.1.1-.1z"/><path fill="#FFBD33" d="M11.2 40.3c2.7-.1 3.9 1 3.9 1s-1.9 2-5 2.2c-2.8.1-4.4-1.2-4.4-1.2s3-1.9 5.5-2z"/><path fill="#CF4809" d="M15.1 41.3s0 0-.1 0-.2 0-.3 0c-.1 0-.1 0-.2 0s-.2 0-.3 0c-.2 0-.4 0-.6 0-.1 0-.1 0-.2 0s-.1 0-.2 0-.2 0-.4 0c-.1 0-.1 0-.2 0s-.1 0-.2 0-.3 0-.4 0c-.1 0-.3 0-.4 0-.1 0-.1 0-.2 0 0 0-.1 0-.1 0s-.1 0-.1 0c-.1 0-.1 0-.2 0s-.1 0-.2 0-.1 0-.2 0h-.2c-.1 0-.3 0-.4.1-.1 0-.3 0-.4.1-.3.1-.6.1-.8.2-.3.1-.5.1-.8.1-.3 0-.5.1-.7.1-.9.2-1.5.3-1.5.3s0 0 .1 0 .2 0 .3-.1c.1 0 .3-.1.5-.1s.4-.1.6-.1c.2 0 .5-.1.7-.2.3-.1.5-.1.8-.2.1 0 .3-.1.4-.1.1 0 .1 0 .2 0s.1 0 .2 0 .3-.1.4-.1c.1 0 .3 0 .4-.1h.2c.1 0 .1 0 .2 0s.1 0 .2 0 .1 0 .2 0c0 0 .1 0 .1 0s.1 0 .1 0c.1 0 .1 0 .2 0s.3 0 .4 0c.1 0 .3 0 .4 0 .1 0 .1 0 .2 0s.1 0 .2 0 .3 0 .4 0c.1 0 .1 0 .2 0s.1 0 .2 0 .2 0 .3 0c0 0 .1 0 .1 0s0 0 .1 0c0 0 .1 0 .1 0 .1 0 .2 0 .3 0 .1 0 .2 0 .2 0 .1 0 .2 0 .3 0 0 .1.1.1.1.1z"/><path fill="#DF6409" d="M9.3 36.8c2.8.1 4 1.4 4 1.4s-2.2 2-5.4 1.8c-2.9-.2-4.5-1.6-4.5-1.6s3.2-1.7 5.9-1.6z"/><path fill="#CF4809" d="M13.2 38.2s-.1 0-.1 0c-.1 0-.2 0-.3-.1-.1 0-.1 0-.2 0s-.2 0-.3 0c-.2 0-.4-.1-.6-.1-.1 0-.1 0-.2 0s-.1 0-.2 0-.3 0-.4 0c-.1 0-.1 0-.2 0s-.1 0-.2 0-.3 0-.4 0c-.1 0-.3 0-.4 0-.1 0-.1 0-.2 0 0 0-.1 0-.1 0s-.1 0-.1 0c-.1 0-.2 0-.2 0-.1 0-.2 0-.2 0-.1 0-.2 0-.2 0h-.4c-.1 0-.2 0-.2 0-.1 0-.2 0-.2 0-.1 0-.2 0-.2 0-.3 0-.6.1-.9.1-.3 0-.6.1-.8.1-.3 0-.5.1-.7.1-.9.1-1.5.2-1.5.2s0 0 .1 0 .2 0 .3 0c.1 0 .3 0 .5-.1.2 0 .4-.1.6-.1.2 0 .5-.1.7-.1-.1-.2.2-.2.5-.2.1 0 .3 0 .4 0 .1 0 .1 0 .2 0s.2 0 .2 0c.1 0 .2 0 .2 0 .1 0 .2 0 .2 0 .1 0 .2 0 .2 0h.4c.1 0 .2 0 .2 0 .1 0 .2 0 .2 0 .1 0 .2 0 .2 0s.1 0 .1 0 .1 0 .1 0c.1 0 .2 0 .2 0 .2 0 .3 0 .4 0 .1 0 .3 0 .4 0 .1 0 .1 0 .2 0s.1 0 .2 0 .3 0 .4 0c.1 0 .1 0 .2 0s.1 0 .2 0 .2 0 .3 0c0 0 .1 0 .1 0s.1 0 .1 0 .1 0 .1 0c.1 0 .2 0 .3 0 .1 0 .2 0 .2 0 .1 0 .2.1.3.1.5.1.5.1.5.1z"/><path fill="#F5952E" d="M7.8 33.2c2.5.9 3.3 2.3 3.3 2.3s-2.4 1.2-5.3.2C3.2 34.8 2.1 33 2.1 33s3.4-.6 5.7.2z"/><path fill="#CF4809" d="M11.1 35.6s0-.1 0 0c-.2-.1-.2-.1-.4-.2-.1 0-.1-.1-.2-.1s-.1-.1-.2-.1-.2-.1-.3-.1c0-.1-.1-.1-.2-.2-.1 0-.1 0-.2-.1-.1 0-.1 0-.2-.1-.1 0-.2-.1-.3-.1 0 0-.1 0-.1 0s-.1 0-.1 0c-.1 0-.1 0-.2-.1-.1 0-.3-.1-.4-.1-.1 0-.3-.1-.4-.1-.1 0-.1 0-.2-.1 0 0-.1 0-.1 0s-.1 0-.1 0c-.1 0-.1 0-.2-.1-.1 0-.1 0-.2-.1-.1 0-.1 0-.2-.1h-.4c-.1 0-.1 0-.2 0s-.1 0-.2 0-.1 0-.2 0c-.3-.1-.6-.1-.8-.2-.3 0-.5-.1-.8-.1-.2 0-.5-.1-.7-.1-.9-.1-1.4-.2-1.4-.2s0 0 .1 0 .2 0 .3 0c.1 0 .3 0 .5.1.2 0 .4.1.6.1.2 0 .5.1.7.1.2 0 .5.1.8.1.1 0 .3 0 .4.1.1 0 .3.1.4.1.1 0 .1 0 .2 0s.1 0 .2 0 .1 0 .2 0H7c0 .1.1.1.2.1s.1 0 .2.1c.1 0 .1 0 .2.1 0 0 .1 0 .1 0s.1 0 .1 0c.1 0 .1 0 .2.1.1 0 .3.1.4.1.1 0 .3.1.4.1.1 0 .1 0 .2.1 0 0 .1 0 .1 0s.1 0 .1 0c.1 0 .2.1.3.1.1 0 .1 0 .2.1.1 0 .1 0 .2.1.1 0 .2.1.3.1.1 0 .2.1.3.1.1 0 .2.1.2.1.1 0 .1.1.2.1 0 .1.1.2.2.3 0-.1 0 0 0 0z"/><path fill="#F5952E" d="M6.6 28.8C8.8 30.6 9 32.5 9 32.5s-2.8.5-5.3-1.6C1.4 29 1 26.7 1 26.7s3.6.4 5.6 2.1zM12 25.8s1.4 3.3 1.2 6c-.2 2.9-1.2 4-1.2 4s-1.6-2.2-1.4-5.5c.1-2.9 1.4-4.5 1.4-4.5z"/><path fill="#CF4809" d="M12 35.9s0 0 0-.1 0-.2 0-.3c0-.1 0-.1 0-.2s0-.2 0-.3c0-.2 0-.4.1-.6 0-.1 0-.1 0-.2s0-.1 0-.2 0-.3 0-.4c0-.1 0-.1 0-.2s0-.1 0-.2 0-.3 0-.4c0-.1 0-.3 0-.4 0-.1 0-.2 0-.2s0-.1 0-.1 0-.1 0-.1c0-.2 0-.3 0-.5 0-.1 0-.2 0-.2v-.2c0-.2 0-.3 0-.5 0-.1 0-.2 0-.2 0-.1 0-.2 0-.2 0-.3 0-.6-.1-.9 0-.3 0-.6-.1-.8 0-.3 0-.5-.1-.8.2-1.2.2-1.9.2-1.9s0 0 0 .1 0 .2 0 .3c0 .1 0 .3.1.5 0 .2 0 .4.1.6 0 .2 0 .5.1.8 0 .3 0 .6.1.8 0 .1 0 .3 0 .4 0 .2 0 .3 0 .5 0 .1 0 .2 0 .2 0 .1 0 .2 0 .2 0 .2 0 .3 0 .5v.2c0 .1 0 .2 0 .2 0 .2 0 .3 0 .5 0 0 0 .1 0 .1s0 .1 0 .1c0 .1 0 .2 0 .2 0 .2 0 .3 0 .5 0 .1 0 .3 0 .4 0 .1 0 .1 0 .2s0 .1 0 .2 0 .3 0 .4c0 .1 0 .1 0 .2s0 .1 0 .2 0 .2 0 .3c0 .1 0 .2 0 .3 0 .1 0 .2 0 .3 0 .1 0 .2 0 .2 0 .1 0 .2-.1.3-.3.3-.3.4-.3.4z"/><path fill="#F5952E" d="M17.7 29.1s-.1 3.7-1.3 6c-1.3 2.5-2.7 3.1-2.7 3.1s-.6-2.8.9-5.6c1.4-2.6 3.1-3.5 3.1-3.5z"/><path fill="#CF4809" d="M13.7 38.2s.1 0 0 0c.1-.2.2-.2.2-.4 0-.1.1-.1.1-.2s.1-.1.1-.2c.1-.2.2-.3.3-.6 0-.1.1-.1.1-.2s.1-.1.1-.2c.1-.1.1-.2.2-.3.1-.1.1-.2.2-.4.1-.1.1-.3.2-.4.1-.1.1-.3.2-.4 0-.1.1-.1.1-.2 0 0 0-.1 0-.1s0-.1 0-.1c.1-.1.1-.3.2-.4 0-.1.1-.1.1-.2l.1-.2c.1-.1.1-.3.2-.4 0-.1.1-.1.1-.2s.1-.1.1-.2c.1-.3.2-.6.3-.8.1-.3.2-.5.3-.8.1-.3.2-.5.3-.7.3-.9.5-1.5.5-1.5s0 0 0 .1-.1.2-.1.3c0 .1-.1.3-.1.5-.1.2-.1.4-.2.6-.1.2-.2.5-.2.7-.1.3-.2.5-.3.8 0 .1-.1.3-.1.4-.1.1-.1.3-.2.4 0 .1-.1.1-.1.2s-.1.1-.1.2c-.1.1-.1.3-.2.4l-.1.3c0 .1-.1.1-.1.2-.1.1-.1.3-.2.4 0 0 0 .1 0 .1s0 .1 0 .1c0 .1-.1.1-.1.2-.1.1-.1.3-.2.4-.1.1-.1.3-.2.4-.1.2-.2.3-.2.4-.1.1-.1.2-.2.3 0 .1-.1.1-.1.2s-.1.1-.1.2c-.1.1-.1.2-.2.3-.1.1-.1.2-.2.3-.1.1-.1.2-.1.2 0 .1-.1.1-.1.2-.1.1-.2.2-.3.3.1 0 0 0 0 0z"/><path fill="#F5952E" d="M17.2 35.5c1.8-2.3 3.9-2.7 3.9-2.7s-.5 3.7-2.1 5.8c-1.7 2.2-3.4 2.4-3.4 2.4s-.4-2.9 1.6-5.5z"/><path fill="#CF4809" d="M15.6 41.1s0-.1 0 0c0-.1 0-.1 0 0 .1-.1.2-.2.3-.3 0 0 .1-.1.2-.2s.1-.1.2-.2.3-.3.4-.5c0 0 .1-.1.1-.1s.1-.1.1-.1c.1-.1.2-.2.2-.3 0-.1.1-.1.1-.2s.1-.1.1-.2c.1-.1.2-.2.3-.3.1-.1.2-.2.3-.4 0-.1.1-.1.1-.2 0 0 0-.1.1-.1 0 0 0-.1.1-.1 0-.1.1-.1.1-.2s.1-.1.1-.2.1-.1.1-.2l.1-.2c.1-.1.2-.3.2-.4.1-.1.2-.3.2-.4.1-.1.1-.3.2-.4.1-.1.1-.3.2-.4.1-.3.3-.5.4-.7.1-.2.2-.5.4-.7.4-.8.7-1.4.7-1.4s0 0 0 .1-.1.2-.1.3c-.1.1-.1.3-.2.4-.1.2-.2.4-.3.6-.1.2-.2.4-.3.7-.1.2-.3.5-.4.7-.1.1-.1.3-.2.4 0 .1-.1.1-.1.2s-.1.1-.1.2c-.1.1-.2.3-.2.4-.1.1-.2.3-.2.4l-.1.2c0 .1-.1.1-.1.2s-.1.1-.1.2-.1.1-.1.2c0 0 0 .1-.1.1 0 0 0 .1-.1.1 0 .1-.1.1-.1.2-.1.1-.2.2-.3.4-.1.1-.2.2-.3.3 0 .1-.1.1-.1.2s-.1.1-.1.2c-.1.1-.2.2-.3.3 0 0-.1.1-.1.1s-.1.1-.1.1c-.1.1-.2.2-.2.2s0 0-.1.1c0 0 0 0-.1.1 0 0-.1.1-.1.1-.1.1-.1.1-.2.2s-.1.1-.2.2-.2.1-.3.3c0-.1 0-.1 0 0 0-.1 0 0 0 0z"/><path fill="#F5952E" d="M22.6 36.5S22 40 20.5 42c-1.6 2.2-3.1 2.5-3.1 2.5s-.1-2.7 1.7-5.2c1.7-2.3 3.5-2.8 3.5-2.8z"/><path fill="#CF4809" d="M17.5 44.5c.1-.1.2-.2.3-.3 0 0 .1-.1.1-.2s.1-.1.2-.2.1-.1.2-.2.1-.2.2-.2c.1-.2.3-.3.4-.5 0 0 .1-.1.1-.1 0-.1.1-.1.1-.2.1-.1.2-.2.2-.3 0 0 0-.1.1-.1 0 0 0-.1.1-.1 0-.1.1-.1.1-.2.1-.1.2-.2.2-.3 0-.1.1-.1.1-.2s.1-.1.1-.2c.1-.1.1-.2.2-.4.1-.1.1-.2.2-.4.1-.1.1-.2.2-.4.1-.1.1-.2.2-.4.1-.1.1-.2.2-.4s.2-.5.4-.7c.1-.2.2-.4.3-.6.1-.2.2-.4.3-.5.1-.2.1-.3.2-.4.1-.2.2-.3.2-.3s0 0 0 .1-.1.2-.1.3c-.1.1-.1.3-.2.4-.1.2-.2.3-.3.5-.1.2-.2.4-.3.6-.1.1-.1.2-.2.3-.1.1-.1.2-.2.4-.1.1-.1.2-.2.4-.1.1-.1.2-.2.4s-.3.5-.4.7c-.1.1-.1.2-.2.4 0 .1-.1.1-.1.2s-.1.1-.1.2c-.1.1-.2.2-.2.3 0 .1-.1.1-.1.2 0 0 0 .1-.1.1 0 0 0 .1-.1.1-.1.1-.2.2-.2.3 0 .1-.1.1-.1.2s-.1.1-.1.1c-.2.2-.3.4-.4.5-.1.1-.1.2-.2.2-.1.1-.1.1-.2.2s-.1.1-.2.2-.1.1-.1.1c-.2.2-.3.3-.4.4z"/><path fill="#F5952E" d="M23 41.2s-.1 2.8-1.2 4.5c-1.1 1.8-2.4 2.1-2.4 2.1s-.4-2.2.9-4.3c1.2-1.8 2.7-2.3 2.7-2.3z"/><path fill="#CF4809" d="M19.4 47.9s.1-.1.2-.3c0 0 .1-.1.1-.1 0-.1.1-.1.1-.2.1-.1.2-.3.3-.4 0 0 .1-.1.1-.1s.1-.1.1-.1c.1-.1.1-.2.2-.2 0 0 .1-.1.1-.1s.1-.1.1-.1c.1-.1.1-.2.2-.3.1-.1.1-.2.2-.3 0 0 .1-.1.1-.1s0-.1 0-.1v-.1c.1-.1.1-.2.2-.3 0-.1.1-.1.1-.2l.1-.2c.1-.1.1-.2.2-.3 0-.1.1-.1.1-.2s0-.1.1-.2c.1-.2.2-.4.3-.6.1-.2.2-.4.3-.6.1-.2.2-.4.2-.5.3-.7.5-1.1.5-1.1s0 0 0 .1 0 .1-.1.2c0 .1-.1.2-.1.4-.1.1-.1.3-.2.5s-.1.3-.2.5-.2.4-.2.6c0 .1-.1.2-.1.3 0 .1-.1.2-.1.3 0 .1 0 .1-.1.2 0 .1-.1.1-.1.2-.1.1-.1.2-.2.3l-.1.2c0 .1-.1.1-.1.2-.1.1-.1.2-.2.3v.1s0 .1 0 .1c0 .1-.1.1-.1.1-.1.1-.1.2-.2.3-.1.1-.1.2-.2.3 0 0-.1.1-.1.1s-.1.1-.1.1c-.1.1-.1.2-.2.2 0 0-.1.1-.1.1s-.1.1-.1.1c-.1.1-.1.1-.2.2 0 .1-.1.1-.1.2s-.1.1-.1.2c0 0-.1.1-.1.1-.3 0-.4.1-.5.2.1-.1 0 0 0 0zM8.8 32.4s0-.1 0 0c-.1-.1-.2-.2-.3-.3 0 0-.1-.1-.1-.2-.1-.1-.1-.1-.2-.2s-.1-.1-.2-.2-.1-.1-.2-.2c0 0-.1-.1-.1-.1s-.1-.1-.1-.1c-.1-.1-.2-.2-.3-.2 0 0 0 0-.1-.1 0 0 0 0-.1-.1 0 0-.1-.1-.1-.1-.1-.1-.2-.2-.3-.3-.1-.1-.2-.2-.3-.3-.1 0-.1-.1-.2-.1 0 0-.1 0-.1-.1 0 0-.1 0-.1-.1-.1 0-.1-.1-.2-.1s-.1-.1-.2-.1-.1-.1-.2-.1l-.2-.1-.2-.1c-.1 0-.1-.1-.2-.1s-.1-.1-.2-.1-.1-.1-.2-.1c-.2-.2-.5-.3-.7-.5-.2-.1-.5-.3-.7-.4-.2-.1-.4-.3-.6-.4-.8-.5-1.3-.8-1.3-.8s0 0 .1.1c.1 0 .1.1.3.1.1.1.2.1.4.2s.3.2.5.3c.2.1.4.2.6.4.2.1.4.3.7.4.1.1.2.1.4.2.1.1.2.2.4.2.1 0 .1.1.2.1s.1.1.2.1c.1.1.2.1.3.2l.2.1.2.1c.1 0 .1.1.2.1s.1.1.2.1.1.1.2.1c0 0 .1 0 .1.1 0 0 .1 0 .1.1.1 0 .1.1.2.1.1.1.2.2.3.3.1.1.2.2.3.3 0 0 .1.1.1.1s0 0 .1.1c0 0 0 0 .1.1s.2.2.3.3c0 0 .1.1.1.1s.1.1.1.1c.1.1.2.2.2.2.1.1.1.1.2.2s.1.1.2.2c-.1.1-.1.1 0 .2 0 .1.1.1.2.3 0-.1 0 0 0 0z"/><path fill="#FAFAFF" d="M25.5 64.2c.3 0 .5.3.5.6l-.2 3c0 .3-.3.5-.6.5l-1.2-.1c-.3 0-.5-.3-.5-.6l.2-3c0-.3.3-.5.6-.5l1.2.1z"/><path fill="#2FAFB7" d="M23.54 67.1l1.87-34.75 2.4.13-1.86 34.75z"/><path fill="#ECBA84" d="M25.4 32.3l1.3-3.3 1.1 3.4z"/><path d="M26.3 30.1h.8l-.4-1.1z" opacity=".9"/><path fill="#14737C" d="M24.7 67.16l1.87-34.75 1.2.08-1.87 34.75z"/><path d="M23.6 65.34l.05-.7 2.4.13-.04.7z" opacity=".9"/><path fill="#913916" d="M31.8 24.7l-5.9 26.1c-.1.3-.5 3.6-.2 3.7.4.1 1.4-3.1 1.5-3.4l6.2-26-1.6-.4z"/><path fill="#B0ABBA" d="M33.3 18.2l1.8.1-1.7 6.8-1.6-.4z"/><path d="M34.6 18.4s-2 .1-2.4-1.5c-.5-2.1 2.1-3.5 1.5-6.1-.3-1.3-.8-1.6.8-.3 3.7 3.1 2.6 6.5 1.6 7.2-1.2.8-1.5.7-1.5.7z"/><path fill="#fff" d="M33.8 18.3h.1l-1.3 6.6-.6-.1z" opacity=".7"/><path fill="#913916" d="M18.4 34.5L21.5 61c0 .3.7 3.6 1 3.5.4 0 .3-3.4.3-3.7l-2.7-26.6-1.7.3z"/><path fill="#B0ABBA" d="M17.6 27.8l1.8-.5.7 7-1.7.2z"/><path d="M18.9 27.5s-1.9.8-2.7-.7c-1.1-1.8.9-4-.6-6.3-.7-1.1-1.2-1.3.6-.5 4.5 1.7 4.6 5.2 3.9 6.3-.8 1.3-1.2 1.2-1.2 1.2z"/><path fill="#fff" d="M18.3 27.5h.2l.9 6.6-.6.1z" opacity=".5"/><path fill="#C9BED1" d="M24 60c.2.7-.2 1.4-.9 1.7-.7.2-1.5-.1-1.7-.8-.2-.7.2-1.4.9-1.7.7-.2 1.5.1 1.7.8z"/><path fill="#797085" d="M22.3 59.3l.8 2.4c.7-.2 1.1-1 .9-1.7-.2-.6-1-1-1.7-.7z"/><path fill="#1E2222" d="M17.66 49.73l2.66-.9 3.6 10.7-2.65.9zM13.94 38.1l2.27-.77 7.67 22.75-2.27.76z"/><path fill="#797085" d="M13.9 38.12l1.15-.38 7.66 22.74-1.13.4z"/><path fill="#1E2222" d="M21.38 60.33l2.46-.83.16.48-2.47.82z"/><path fill="#C9BED1" d="M16.2 37.3l-2.5-3.5.2 4.3z"/><path fill="#797085" d="M15 37.7l1.2-.4-2.5-3.5z"/><path d="M14.3 34.5l-.6.2v-.8zM17.67 49.18l2.28-.76.15.47-2.27.76zM22.4 60l-1.4.5c-.2.1-.4-.1-.5-.3L17.4 51l-.4.1 3.3 9.7c.1.2.3.4.5.3l1.7-.6-.1-.5z" opacity=".9"/><path fill="#797085" d="M17.65 49.8l1.33-.43 3.6 10.7-1.32.45z"/><path fill="#C9BED1" d="M37.9 33.4c.2-.7-.3-1.4-1-1.6-.7-.2-1.5.2-1.7.9-.2.7.3 1.4 1 1.6.8.2 1.6-.2 1.7-.9z"/><path fill="#797085" d="M36.3 34.3l.7-2.5c.7.2 1.2.9 1 1.6-.2.7-1 1.1-1.7.9z"/><path fill="#1E2222" d="M32.24 44.02l2.96-10.9 2.7.72-2.96 10.9zM29.24 55.9l6.28-23.17 2.32.63-6.28 23.17z"/><path fill="#797085" d="M29.2 55.92l6.28-23.17 1.16.32-6.28 23.16z"/><path fill="#1E2222" d="M35.3 33.2l.13-.48 2.5.68-.12.48z"/><path fill="#C9BED1" d="M31.5 56.5l-2.2 3.7-.1-4.3z"/><path fill="#797085" d="M30.3 56.2l1.2.3-2.2 3.7z"/><path d="M29.8 59.4l-.6-.1.1.8zM32.3 44.6l.13-.48 2.32.63-.13.48zM36.4 33.5l-1.4-.4c-.2 0-.4.1-.4.3L32 42.9l-.4-.1 2.7-9.9c.1-.2.3-.4.4-.3l1.8.5-.1.4z" opacity=".9"/><path fill="#797085" d="M32.22 44.04l2.95-10.9 1.36.36-2.96 10.9z"/><path fill="#FFCF9C" d="M22.8 35.6l-1.3 4.1v.6h3.2v-.6l-1.2-4.1z"/><path fill="#ECBA84" d="M22.8 35.6l-.6 4.7H24l-.5-4.7z"/><path fill="#C6794D" d="M22.4 40.1l.6-3.8-.2-.7-1.3 4.3v.3z"/><path fill="#83B520" d="M22.6 36.4l.6-2.3.8 2.9-.8-.3z"/><path fill="#43771E" d="M23.1 34.3l-.2 2.3-.4-.1z"/><path fill="#BBDF67" d="M23.2 34.2l.4 2.7.3.1zM21.5 40.1H24s0-.8.4-.8c.3 0 .4.8.4.8v24.1l-.8.8h-1.6l-.9-.8V40.1z"/><path fill="#83B520" d="M24 65h-1.6V40.1s.2-.9.8-.9c.7 0 .8.9.8.9V65z"/><path fill="#43771E" d="M21.5 64.2l.9.8V40.1s0-.7-.4-.8c-.5 0-.5.8-.5.8v24.1z"/><path fill="#FFBD33" d="M32.5 72.5c0 1.2-3.4 2.2-7.7 2.2-4.2 0-7.7-1-7.7-2.2 0-1.2 3.4-2.2 7.7-2.2 4.2.1 7.7 1 7.7 2.2zM14.5 50.6L17 72.4h15.5L35 50.6z"/><path fill="#FFD833" d="M16.1 52.8l2 18.3 7.1 1V54.4s-2.8-.3-5-.7c-3.4-.4-4.1-.9-4.1-.9z" opacity=".3"/><path fill="#ED8707" d="M29.2 50.9s.5 18.1-.6 19.9c-1.9 3.3-10.8.9-10.8.9s-.3.7 0 .9c4 2.7 14.5 1.5 14.8-1.1 1.1-10.5 2.4-21 2.4-21l-5.8.4z" opacity=".5"/><path fill="#ED8707" d="M14.8 52.2s5.1 1.6 10.4 1.6c4.5 0 9.5-.9 9.5-.9s.2-2.3 0-2c-2.5.3-6.7 1.2-9.1 1.1-3-.2-9.1-.7-11-1.3l.2 1.5z"/><path fill="#FFD833" d="M24.8 50.6c-9.9.1-11.7-2.7-11.7-2.7V50c0 1.5 5.2 2.7 11.7 2.7 6.5 0 11.7-1.2 11.7-2.7v-2.1s-1.9 2.6-11.7 2.7z"/><path fill="#C9BED1" d="M34.1 11.5s2.4 4.4.3 5c-.9.2-1.3-.4-.3-2 .7-1.5 0-3 0-3zM16 20.2s3.4 2.8 1.9 3.9c-.7.5-1.2.1-1-1.5.2-1.4-.9-2.4-.9-2.4z" opacity=".4"/><path fill="#FFE783" d="M34.5 46.4c.1 0 .2.1.3.1.2.1.5.2.9.4.2.1.4.2.6.4.1.1.2.2.2.4 0 0 0 .1 0 .1s0 .1 0 .1 0 0 0 .1c0 0 0 0 0 .1v.1c0 .2-.1.3-.3.4-.1.1-.2.2-.4.3-.3.2-.6.4-.9.5-.7.3-1.4.5-2.2.7-.8.2-1.7.3-2.6.4-.9.1-1.8.2-2.8.3-.9.1-1.9.1-2.9.1s-1.9 0-2.9-.1c-.2 0-.5 0-.7-.1-.2 0-.5 0-.7-.1-.5 0-.9-.1-1.4-.2-.9-.1-1.7-.3-2.5-.5s-1.6-.4-2.2-.8c-.3-.2-.6-.3-.9-.6-.1-.1-.1-.1-.2-.2s-.1-.2-.1-.2c0-.1 0-.2 0-.3 0 0 0 0 0-.1 0 0 0 0 0-.1 0 0 0 0 0-.1.1-.2.2-.3.3-.4.1-.1.2-.2.3-.3.2-.1.4-.2.6-.3.4-.2.7-.3.9-.3.1 0 .2-.1.2-.1.1 0 .1 0 .1 0s-.1 0-.3.1c-.2.1-.5.2-.9.4-.2.1-.4.2-.6.4-.1.1-.2.2-.3.3-.1.1-.2.2-.2.3 0 0 0 .1 0 .1 0 .1 0 .1 0 .2s.1.1.1.2.1.1.1.2c.2.2.5.4.8.5.3.1.7.3 1 .4.4.1.7.2 1.1.3.8.2 1.6.3 2.5.4.9.1 1.8.2 2.7.2.9.1 1.9.1 2.8.1.9 0 1.9 0 2.8-.1.5 0 .9 0 1.4-.1.5 0 .9-.1 1.3-.1.9-.1 1.7-.2 2.5-.4.4-.1.8-.2 1.1-.3.4-.1.7-.2 1-.3.3-.1.6-.3.9-.4.1-.1.3-.2.4-.3.1-.1.2-.2.2-.3 0 0 0-.1 0-.1s0-.1 0-.1c0-.1-.1-.2-.2-.3-.2-.2-.3-.3-.5-.4-.3-.2-.6-.4-.9-.4.7-.1.6-.1.5-.2z"/><path fill="#6EA5BA" d="M46.1 44.8L33.7 57.4l53.1 1.8-4.5-14.4z"/><path fill="#2B4F68" d="M33.7 57.3s47.7-.3 51.5.7c2.8.7 2.9 8.1 2.9 8.1s-.2 8.6-3.3 8.9c-3.1.3-51.4.1-51.4.1s3-4.4 3-8.5c.1-4.1-2.7-9.3-2.7-9.3z"/><path fill="#FFF2E9" d="M34.5 58.8s44.1-.3 47.6.6c2.6.6 2.8 6.7 2.8 6.7s-.2 7.2-3.1 7.4c-2.9.2-47.4.1-47.4.1s1.2-2.4 1.2-7.4c-.1-5.4-1.1-7.4-1.1-7.4z"/><path fill="#E8E1EF" d="M42.1 54.7c-2.7 1-5.7 1.4-8.3 2.7 1 1.9 1.6 4.5 1.5 7 0 0 17.8-3.1 29.5-3.6 9.8-.4 17.1-2.3 22-.7L85.2 58l-43.1-3.3z"/><path fill="#C6794D" d="M44.1 62.6s.6 0 1.6 0c.5 0 1.1 0 1.9 0 .4 0 .7 0 1.1 0 .4 0 .8 0 1.3 0 .9 0 1.8 0 2.9 0 1 0 2.1 0 3.2 0 .6 0 1.1 0 1.7 0 .3 0 .6 0 .9 0 .3 0 .6 0 .9 0 .6 0 1.2 0 1.8 0 .1 0 .3 0 .4 0h.4c.3 0 .6 0 .9 0 1.2 0 2.4.1 3.5.1 1.2.1 2.3.1 3.4.1.3 0 .6 0 .8 0 .3 0 .5 0 .8 0 .5 0 1.1 0 1.6 0 1 0 2 0 2.9 0 .9 0 1.7 0 2.4 0s1.3 0 1.9 0c1 0 1.6 0 1.6 0s-.6 0-1.6.1c-.5 0-1.1 0-1.9.1-.7 0-1.5 0-2.4.1-.9 0-1.8 0-2.9 0-.5 0-1 0-1.6 0-.5 0-1.1 0-1.6 0-1.1 0-2.2 0-3.4-.1-1.2 0-2.3-.1-3.5-.1-.3 0-.6 0-.9 0h-.4c-.1 0-.3 0-.4 0-.6 0-1.2 0-1.8 0-.3 0-.6 0-.9 0-.3 0-.6 0-.9 0-.6 0-1.1 0-1.7 0-.3 0-.5 0-.8 0-.3 0-.5 0-.8 0-.5 0-1.1 0-1.6 0-1 0-2 0-2.9 0-.9 0-1.7 0-2.4 0s-1.3 0-1.9 0c-1-.3-1.6-.3-1.6-.3zM37.7 64.9s.7 0 1.8 0c.6 0 1.3 0 2.1 0s1.7 0 2.7 0c1 0 2 0 3.2 0 1.1 0 2.3 0 3.5 0 1.2 0 2.5 0 3.8 0 1.3 0 2.6 0 3.9 0 2.6 0 5.2 0 7.7 0 2.4 0 4.7 0 6.7 0 3.9 0 6.5 0 6.5 0s-2.6 0-6.5 0c-2 0-4.2 0-6.7 0-2.4 0-5.1 0-7.7 0-1.3 0-2.6 0-3.9 0-1.3 0-2.5 0-3.8 0-2.4 0-4.7 0-6.7 0-1 0-1.9 0-2.7 0-.8 0-1.5 0-2.1 0-1.1 0-1.8 0-1.8 0zM43.1 65.8s2.4 0 6 0c.9 0 1.9 0 2.9 0s2.1 0 3.2 0c2.2 0 4.6 0 7 0 2.4 0 4.8 0 7 0s4.3 0 6.1 0c3.6 0 6 0 6 0s-2.4 0-6 0c-1.8 0-3.9 0-6.1 0-2.2 0-4.6 0-7 0-9.5 0-19.1 0-19.1 0z" opacity=".3"/><path fill="#A44AA0" d="M72.7 55.7l5.5-7.8s.2-1.9.2-4.7c0-2.7-.7-5.3-.7-5.3l-6 8.6 1 9.2zM23.3 46.2s46.2-.2 48.4.4c1.7.4 1.8 4.8 1.8 4.8s-.1 5.2-2 5.3c-1.8.2-48.2.1-48.2.1s0 0 1.2-5.3c.6-2.4-1.2-5.3-1.2-5.3z"/><path fill="#FFE7D4" d="M23.3 47s44.4-.1 46.5.4c1.6.4 1.6 4 1.6 4s-.1 4.3-1.8 4.4c-1.7.1-46.3 0-46.3 0s1-1.3 1.2-4.4c.4-3.5-1.2-4.4-1.2-4.4z"/><path fill="#CC75CC" d="M23.3 46.2l16.9-8.3h37.5l-6 8.7z"/><path fill="#E3B0EA" d="M71.7 46.5l6-8.6H76l-6.4 8.5z"/><path fill="#C6794D" d="M31.9 50s.6 0 1.6 0c.5 0 1.1 0 1.9 0 .4 0 .7 0 1.1 0 .4 0 .8 0 1.3 0 .9 0 1.8 0 2.9 0 1 0 2.1 0 3.2 0 .6 0 1.1 0 1.7 0 .3 0 .6 0 .9 0 .3 0 .6 0 .9 0 .6 0 1.2 0 1.8 0 .1 0 .3 0 .4 0h.4c.3 0 .6 0 .9 0 1.2 0 2.4.1 3.5.1 1.2.1 2.3.1 3.4.1.3 0 .5 0 .8 0 .3 0 .5 0 .8 0 .5 0 1.1 0 1.6 0 1 0 2 0 2.9 0 .9 0 1.7 0 2.4 0s1.3 0 1.9 0c1 0 1.6 0 1.6 0s-.6 0-1.6.1c-.5 0-1.1 0-1.9.1-.7 0-1.5 0-2.4.1-.9 0-1.8 0-2.9 0-.5 0-1 0-1.6 0-.5 0-1.1 0-1.6 0-1.1 0-2.2 0-3.4-.1-1.2 0-2.3-.1-3.5-.1-.3 0-.6 0-.9 0h-.4c-.1 0-.3 0-.4 0-.6 0-1.2 0-1.8 0-.3 0-.6 0-.9 0-.3 0-.6 0-.9 0-.6 0-1.1 0-1.7 0-.3 0-.6 0-.8 0-.3 0-.5 0-.8 0-.5 0-1.1 0-1.6 0-1 0-2 0-2.9 0-.9 0-1.7 0-2.4 0s-1.3 0-1.9 0c-1-.3-1.6-.3-1.6-.3zM25.6 52.4s.7 0 1.8 0c.6 0 1.3 0 2.1 0s1.7 0 2.7 0c1 0 2 0 3.2 0 1.1 0 2.3 0 3.5 0 1.2 0 2.5 0 3.8 0 1.3 0 2.6 0 3.9 0 2.6 0 5.2 0 7.7 0 2.4 0 4.7 0 6.7 0 3.9 0 6.5 0 6.5 0s-2.6 0-6.5 0c-2 0-4.2 0-6.7 0-2.4 0-5.1 0-7.7 0-1.3 0-2.6 0-3.9 0-1.3 0-2.5 0-3.8 0-2.4 0-4.7 0-6.7 0-1 0-1.9 0-2.7 0-.8 0-1.5 0-2.1 0-1.1 0-1.8 0-1.8 0zM31 53.3s2.4 0 6 0c.9 0 1.9 0 2.9 0s2.1 0 3.2 0c2.2 0 4.6 0 7 0 2.4 0 4.8 0 7 0s4.3 0 6.1 0c3.6 0 6 0 6 0s-2.4 0-6 0c-1.8 0-3.9 0-6.1 0-2.2 0-4.6 0-7 0-9.6 0-19.1 0-19.1 0z" opacity=".5"/><path fill="#C6794D" d="M69.8 47.3c.8 2.6 1.4 6.2-.1 8.7 1.1-.2 1.5-2.4 1.6-3.3.2-1.5.1-3.4-.6-4.5-.1-.4-.9-.9-.9-.9z"/><path fill="#682D21" d="M48.5 34.2c-1.6 1.4-5.5 6.4-7 7.3-1.3.8-3 1.3-3 1.3l-.5-.7s1.4-.3 3.3-1.4c2.6-1.5 8.4-8.7 9.8-10.1 2.8-3 6.1-9.1 6.1-9.1s-1 2.5-2.3 4.5c-1.2 2-4.9 6.8-6.4 8.2z"/><path fill="#F5952E" d="M43.9 33.8c1.1 2.4.6 3.9.6 3.9s-2.6-1.3-3.6-3.6c-.8-2-.8-4.6-.8-4.6s2.8 2.1 3.8 4.3z"/><path fill="#CF4809" d="M44.5 37.7s0 0 0-.1 0-.2-.1-.3c0-.1 0-.1-.1-.2 0-.1-.1-.2-.1-.2-.1-.2-.1-.4-.2-.6 0-.1 0-.1-.1-.2 0-.1 0-.1-.1-.2 0-.1-.1-.2-.1-.3 0-.1-.1-.1-.1-.2s-.1-.1-.1-.2c-.1-.1-.1-.2-.2-.4-.1-.1-.1-.2-.2-.4 0-.1-.1-.1-.1-.2 0 0 0-.1 0-.1s0-.1-.1-.1c-.1-.1-.1-.3-.2-.4 0-.1-.1-.1-.1-.2l-.1-.2c-.1-.1-.1-.2-.2-.4 0-.1-.1-.1-.1-.2s-.1-.1-.1-.2c-.2-.2-.3-.5-.4-.7-.1-.2-.3-.5-.4-.7-.1-.2-.3-.4-.4-.6-.5-.7-.8-1.2-.8-1.2s0 0 .1.1c0 .1.1.1.2.2s.2.2.3.4c.1.1.2.3.3.5.1.2.3.4.4.6.1.2.3.4.4.7.1.1.2.2.2.3.1.1.2.2.2.4 0 .1.1.1.1.2s.1.1.1.2c.1.1.2.2.2.4l.1.2c0 .1.1.1.1.2.1.1.1.3.2.4 0 0 0 .1.1.1 0 0 0 .1 0 .1 0 .1.1.1.1.2.1.1.1.3.2.4.1.1.1.2.2.4 0 .1.1.1.1.2s.1.1.1.2.1.2.1.3c0 .1 0 .1.1.2 0 .1 0 .1.1.2 0 .1.1.2.1.3 0 .1.1.2.1.3 0 .1.1.2.1.2 0 .1 0 .1.1.2 0 .1.1.2.1.3-.1.1-.1.1-.1.1z"/><path fill="#F5952E" d="M46.9 30.5c1.1 2.6.5 4.2.5 4.2s-2.7-1.2-4-4.1c-1.1-2.7-.5-4.7-.5-4.7s3 2.2 4 4.6z"/><path fill="#CF4809" d="M47.4 34.7s0 0 0-.1 0-.2-.1-.3c0-.1 0-.1-.1-.2 0-.1-.1-.2-.1-.3-.1-.2-.1-.4-.2-.6 0-.1 0-.1-.1-.2 0-.1 0-.1-.1-.2 0-.1-.1-.2-.1-.4 0-.1-.1-.1-.1-.2s-.1-.1-.1-.2c-.1-.1-.1-.3-.2-.4-.1-.1-.1-.3-.2-.4 0-.1-.1-.1-.1-.2 0 0 0-.1 0-.1s0-.1-.1-.1c0-.1-.1-.1-.1-.2s-.1-.1-.1-.2-.1-.1-.1-.2l-.1-.2c-.1-.1-.2-.3-.2-.4-.1-.1-.2-.3-.2-.4-.2-.3-.3-.5-.5-.8-.2-.3-.3-.5-.4-.7-.1-.2-.3-.4-.4-.6-.5-.8-.8-1.3-.8-1.3s0 0 .1.1c0 .1.1.1.2.3.1.1.2.3.3.4.1.2.2.3.4.5.1.2.3.4.4.6.1.2.3.5.5.7.1.1.2.3.2.4 0 .1.1.1.1.2s.1.1.1.2c.1.1.2.3.2.4.1.1.2.3.2.4l.1.2c0 .1.1.1.1.2s.1.1.1.2.1.1.1.2c0 0 0 .1.1.1 0 0 0 .1 0 .1 0 .1.1.1.1.2.1.1.1.3.2.4.1.1.1.3.2.4 0 .1.1.1.1.2s.1.1.1.2.1.3.1.4c0 .1 0 .1.1.2 0 .1 0 .1.1.2 0 .1.1.2.1.3 0 0 0 .1 0 .1s0 0 0 .1c0 0 0 .1 0 .1 0 .1.1.2.1.3 0 .1 0 .2.1.2 0 .1.1.2.1.3-.1.1-.1.1-.1.1z"/><path fill="#FFBD33" d="M49.6 27.5c1 2.7.3 4.2.3 4.2s-2.7-1.3-3.8-4.3c-1-2.7-.3-4.8-.3-4.8s2.9 2.5 3.8 4.9z"/><path fill="#CF4809" d="M49.9 31.8s0 0 0-.1 0-.2-.1-.3c0-.1 0-.1-.1-.2 0-.1 0-.2-.1-.3 0-.2-.1-.4-.2-.6 0-.1 0-.1-.1-.2 0-.1 0-.1-.1-.2 0-.1-.1-.2-.1-.4 0-.1 0-.1-.1-.2 0-.1 0-.1-.1-.2.2-.1.1-.2.1-.4-.1-.1-.1-.3-.2-.4 0-.1-.1-.1-.1-.2 0 0 0-.1 0-.1s0-.1 0-.1c0-.1-.1-.1-.1-.2s-.1-.1-.1-.2-.1-.1-.1-.2l-.1-.2c-.1-.1-.1-.3-.2-.4-.1-.1-.1-.3-.2-.4-.1-.3-.3-.5-.4-.8-.1-.3-.3-.5-.4-.7-.1-.2-.3-.5-.4-.7-.5-.8-.8-1.4-.8-1.4s0 0 .1.1c0 .1.1.2.2.3.1.1.2.3.3.4.1.2.2.3.3.5.1.2.2.4.4.7.1.2.3.5.4.7.1.1.1.3.2.4 0 .1.1.1.1.2s.1.1.1.2c.1.1.1.3.2.4.1.1.1.3.2.4l.1.2c0 .1.1.1.1.2s.1.1.1.2.1.1.1.2c0 0 0 .1 0 .1s0 .1 0 .1c0 .1.1.1.1.2.1.1.1.3.2.4.1.1.1.3.1.4 0 .1 0 .1.1.2 0 .1 0 .1.1.2 0 .1.1.3.1.4 0 .1 0 .1.1.2 0 .1 0 .1 0 .2s.1.2.1.3c0 0 0 .1 0 .1s0 .1 0 .1 0 .1 0 .1c0 .1 0 .2.1.3 0 .1 0 .2 0 .2 0 .1 0 .2.1.3 0 .1 0 .2 0 .2z"/><path fill="#DF6409" d="M52.5 24.5c.8 2.9-.1 4.4-.1 4.4s-2.7-1.5-3.6-4.8c-.8-2.9.2-5 .2-5s2.7 2.7 3.5 5.4z"/><path fill="#CF4809" d="M52.4 28.9s0-.1 0-.1c0-.1 0-.2 0-.3 0-.1 0-.1 0-.2s0-.2 0-.3c0-.2-.1-.4-.1-.7 0-.1 0-.1 0-.2s0-.1 0-.2-.1-.3-.1-.4c0-.1 0-.1-.1-.2 0-.1 0-.1-.1-.2 0-.1-.1-.3-.1-.4 0-.1-.1-.3-.1-.4 0-.1 0-.1-.1-.2 0 0 0-.1 0-.1s0-.1 0-.1c0-.1-.1-.2-.1-.2 0-.1-.1-.2-.1-.2 0-.1-.1-.2-.1-.2l-.1-.2-.3-.4c0-.1-.1-.1-.1-.2s-.1-.1-.1-.2-.1-.1-.1-.2c-.1-.3-.3-.6-.4-.9-.1-.3-.2-.5-.4-.8-.1-.3-.2-.5-.3-.7-.4-.9-.7-1.5-.7-1.5s0 0 .1.1c0 .1.1.2.1.3s.1.3.2.5.2.4.3.6c.1.2.2.5.3.7.1.3.2.5.4.8.1.1.1.3.2.4 0 .1.1.1.1.2s.1.1.1.2.1.1.1.2.1.1.1.2.1.1.1.2l.1.2.1.2c0 .1.1.2.1.2 0 .1.1.2.1.2 0 .1.1.2.1.2s0 .1 0 .1 0 .1 0 .1c0 .1 0 .2.1.2 0 .2.1.3.1.4 0 .1.1.3.1.4 0 .1 0 .1.1.2 0 .1 0 .1 0 .2s.1.3.1.4c0 .1 0 .1 0 .2s0 .1 0 .2 0 .2.1.3c0 0 0 .1 0 .1s0 .1 0 .1c0 .1 0 .1 0 .2s0 .2 0 .3c0 .1 0 .2 0 .2 0 .1 0 .3 0 .3.3.3.3.4.3.4z"/><path fill="#F5952E" d="M55.6 21.9c0 2.8-1.2 4.1-1.2 4.1s-2-2-2-5.2c0-2.9 1.4-4.6 1.4-4.6s1.8 3.1 1.8 5.7z"/><path fill="#CF4809" d="M54.3 25.9s0 0 0-.1 0-.2 0-.3c0-.1 0-.1 0-.2s0-.2 0-.3c0-.1 0-.2 0-.3 0-.1 0-.2 0-.3 0-.1 0-.1 0-.2s0-.1 0-.2 0-.3 0-.4c0 0 0-.1 0-.1s0-.1 0-.1c0-.1 0-.1 0-.2s0-.3 0-.4c0-.1 0-.3 0-.4 0-.1 0-.1 0-.2 0 0 0-.1 0-.1s0-.1 0-.1c0-.1 0-.2 0-.2 0-.1 0-.2 0-.2 0-.1 0-.2 0-.2V21c0-.1 0-.2 0-.2 0-.1 0-.2 0-.2 0-.1 0-.2 0-.2 0-.3-.1-.6-.1-.9 0-.3-.1-.6-.1-.8 0-.3-.1-.5-.1-.7-.1-.9-.2-1.5-.2-1.5s0 0 0 .1 0 .2.1.3c0 .1.1.3.1.5s.1.4.1.6c0 .2.1.5.1.7 0 .3.1.5.1.8 0 .1 0 .3.1.4 0 .1 0 .3.1.4 0 .1 0 .2 0 .2 0 .1 0 .2 0 .2 0 .1 0 .2 0 .2v.4c0 .1 0 .2 0 .2 0 .1 0 .2 0 .2 0 .1 0 .2 0 .2s0 .1 0 .1 0 .1 0 .1c0 .1 0 .1 0 .2s0 .3 0 .4c0 .1 0 .3 0 .4 0 .1 0 .1 0 .2 0 0 0 .1 0 .1s0 .1 0 .1c0 .1 0 .3 0 .4 0 .1 0 .1 0 .2s0 .1 0 .2 0 .2 0 .3c0 .1 0 .2 0 .3 0 .1 0 .2 0 .3 0 .1 0 .2 0 .2 0 .1 0 .2-.1.3-.1.2-.1.2-.1.2z"/><path fill="#F5952E" d="M59.6 19.2c-1.1 2.8-2.9 3.6-2.9 3.6s-1.4-2.7-.1-5.8c1.2-2.9 3.3-4.1 3.3-4.1s.7 3.7-.3 6.3zM64.3 23.6s-2.9 2.5-5.5 3.2c-2.9.8-4.4.1-4.4.1s1.7-2.3 5-3.2c2.9-.8 4.9-.1 4.9-.1z"/><path fill="#CF4809" d="M54.3 26.9s0 0 .1 0 .2 0 .3-.1c.1 0 .1 0 .2 0s.2 0 .3-.1c.2 0 .4-.1.7-.1.1 0 .1 0 .2 0s.1 0 .2 0 .3-.1.4-.1c.1 0 .1 0 .2-.1.1 0 .1 0 .2-.1.1 0 .3-.1.4-.1.1 0 .3-.1.4-.1.1 0 .2 0 .2-.1 0 0 .1 0 .1 0s.1 0 .1 0c.2-.1.3-.1.5-.2.1 0 .2-.1.2-.1l.2-.1c.2-.1.3-.1.5-.2.1 0 .2-.1.2-.1.1 0 .2-.1.2-.1.3-.1.6-.2.9-.4.3-.1.6-.2.8-.3.3-.1.5-.2.7-.3.9-.4 1.5-.6 1.5-.6s0 0-.1.1c-.1 0-.2.1-.3.1-.1.1-.3.1-.5.2s-.4.2-.6.3c-.2.1-.5.2-.7.3-.3.1-.5.2-.8.3-.1.1-.3.1-.4.2-.1.1-.3.1-.4.2-.1 0-.2.1-.2.1-.1 0-.2.1-.2.1-.2.1-.3.1-.5.2l-.2.1c-.1 0-.2.1-.2.1-.2.1-.3.1-.5.2 0 0-.1 0-.1 0s-.1 0-.1 0c-.1 0-.2 0-.2.1-.2 0-.3.1-.5.1-.1 0-.3.1-.4.1-.1 0-.1 0-.2.1-.1 0-.1 0-.2.1-.1 0-.3.1-.4.1-.1 0-.1 0-.2 0s-.1 0-.2 0-.2 0-.3.1c-.1 0-.2 0-.3.1-.1 0-.2 0-.3 0-.1 0-.2 0-.2 0-.1 0-.3 0-.3 0-.2 0-.2 0-.2 0z"/><path fill="#F5952E" d="M62.9 30.4s-3.7 1.1-6.4.7c-2.9-.4-4-1.7-4-1.7s2.6-1.5 5.9-1c3.1.5 4.5 2 4.5 2z"/><path fill="#CF4809" d="M52.5 29.4s0 0 .1 0 .2 0 .3.1c.1 0 .1 0 .2.1.1 0 .2 0 .3.1.2 0 .4.1.7.1.1 0 .1 0 .2 0s.1 0 .2 0 .3 0 .4.1c.1 0 .3 0 .4.1.1 0 .3 0 .4.1.2 0 .3 0 .5.1.1 0 .2 0 .2 0s.1 0 .1 0 .1 0 .1 0c.2 0 .3 0 .5 0 .1 0 .2 0 .2 0h.2c.2 0 .3 0 .5 0 .1 0 .2 0 .2 0 .1 0 .2 0 .2 0 .3 0 .6 0 .9 0 .3 0 .6 0 .9 0 .3 0 .5 0 .8 0 1 0 1.6 0 1.6 0s0 0-.1 0-.2 0-.3 0c-.1 0-.3 0-.5 0s-.4 0-.7 0c-.2 0-.5 0-.8 0-.3 0-.6 0-.9 0-.2 0-.3 0-.5 0s-.3 0-.5 0c-.1 0-.2 0-.2 0-.1 0-.2 0-.2 0-.2 0-.3 0-.5 0h-.2c-.1 0-.2 0-.2 0-.2 0-.3 0-.5 0 0 0-.1 0-.1 0s-.1 0-.1 0c-.1 0-.2 0-.2 0-.2 0-.3 0-.5-.1-.2 0-.3 0-.4-.1-.1 0-.3 0-.4-.1-.1 0-.3-.1-.4-.1-.1 0-.1 0-.2 0s-.1 0-.2 0-.2-.1-.3-.1c-.1 0-.2-.1-.3-.1-.1 0-.2 0-.3-.1-.1 0-.2 0-.2-.1-.1 0-.2-.1-.3-.1 0 .1-.1.1-.1.1z"/><path fill="#F5952E" d="M56.3 32c2.9 1 4 3 4 3s-3.8.8-6.4-.1c-2.8-1-3.6-2.6-3.6-2.6s2.8-1.5 6-.3z"/><path fill="#CF4809" d="M50.3 32.2s.1 0 .1.1c.1 0 .2.1.3.1.1 0 .1.1.2.1s.2.1.3.1c.2.1.4.2.6.3.1 0 .1 0 .2.1.1 0 .1 0 .2.1.1 0 .2.1.4.1.1 0 .1 0 .2.1.1 0 .1 0 .2.1.1 0 .3.1.4.1.1 0 .3.1.4.1.1 0 .1 0 .2.1 0 0 .1 0 .1 0s.1 0 .1 0c.1 0 .2 0 .2.1.1 0 .2 0 .2.1.1 0 .2 0 .2.1l.2.1c.2 0 .3.1.5.1s.3.1.5.1.3.1.5.1.3.1.5.1c.3.1.6.1.9.2.3 0 .5.1.8.1 1 .2 1.6.3 1.6.3s0 0-.1 0-.2 0-.3 0c-.1 0-.3 0-.5-.1-.2 0-.4-.1-.7-.1-.2 0-.5-.1-.8-.1-.3 0-.6-.1-.9-.1-.1 0-.3-.1-.5-.1-.1 0-.2 0-.2 0-.1 0-.2 0-.2 0-.2 0-.3-.1-.5-.1s-.3-.1-.5-.1l-.2-.4c-.1 0-.2 0-.2-.1-.1 0-.2 0-.2-.1-.1 0-.2 0-.2-.1 0 0-.1 0-.1 0s-.1 0-.1 0c-.1 0-.2 0-.2-.1-.1 0-.3-.1-.4-.1-.1-.1-.3-.1-.4-.2-.1 0-.1-.1-.2-.1s-.1 0-.2-.1-.3-.1-.4-.2c-.2.1-.3.1-.3.1-.1 0-.1-.1-.2-.1-.1-.1-.2-.1-.3-.1 0 0-.1 0-.1 0s0 0-.1 0c0 0-.1 0-.1-.1-.1 0-.2-.1-.2-.1-.1 0-.1-.1-.2-.1-.1-.1-.2-.1-.3-.2-.1-.1-.1-.1-.2-.1z"/><path fill="#F5952E" d="M57.1 37.7s-3.7.5-6.2-.3c-2.7-.9-3.5-2.2-3.5-2.2s2.7-1 5.7 0c2.9.8 4 2.5 4 2.5z"/><path fill="#CF4809" d="M47.5 35.2c.2.1.3.1.4.2.1 0 .1.1.2.1s.2.1.2.1c.1 0 .2.1.3.1.1 0 .2.1.3.1.2.1.4.2.7.2.1 0 .1 0 .2.1.1 0 .1 0 .2.1.1 0 .3.1.4.1 0 0 .1 0 .1 0s.1 0 .1 0c.1 0 .1 0 .2.1.1 0 .3.1.4.1.1 0 .1 0 .2.1.1 0 .1 0 .2.1.1 0 .3.1.4.1.1 0 .3.1.4.1.1 0 .3.1.4.1.1 0 .3.1.4.1.1 0 .3.1.4.1.3 0 .5.1.8.1.3 0 .5.1.7.1.2 0 .4.1.6.1.2 0 .3.1.5.1.3 0 .4.1.4.1s0 0-.1 0-.2 0-.3 0c-.1 0-.3 0-.5-.1-.2 0-.4 0-.6-.1-.2 0-.5-.1-.7-.1-.1 0-.3 0-.4-.1-.1 0-.3 0-.4-.1-.1 0-.3 0-.4-.1-.1-.1-.2-.1-.3-.1-.3-.1-.6-.1-.9-.2-.1 0-.3-.1-.4-.1-.1 0-.1 0-.2-.1-.1 0-.1 0-.2-.1-.1 0-.3-.1-.4-.1-.1 0-.1 0-.2-.1 0 0-.1 0-.1 0s-.1 0-.1 0c-.1 0-.3-.1-.4-.1-.1 0-.1 0-.2-.1-.1 0-.1 0-.2-.1-.2-.1-.5-.2-.7-.3-.1 0-.2-.1-.3-.1-.1 0-.2-.1-.3-.1-.1 0-.2-.1-.2-.1-.1 0-.1-.1-.2-.1-.2 0-.3 0-.4-.1z"/><path fill="#F5952E" d="M52.6 39.6s-2.9.8-4.9.3c-2.2-.5-2.9-1.7-2.9-1.7s2-1.2 4.5-.5c2.4.6 3.3 1.9 3.3 1.9z"/><path fill="#CF4809" d="M44.8 38.2s.1 0 .3.1c.1 0 .1 0 .2.1.1 0 .1 0 .2.1.1 0 .3.1.5.2 0 0 .1 0 .1 0s.1 0 .1 0c.1 0 .2.1.3.1.1 0 .1 0 .2 0s.1 0 .2 0 .2.1.3.1c.1 0 .2 0 .3.1.1 0 .1 0 .2 0 0 0 .1 0 .1 0h.1c.1 0 .2 0 .4.1.1 0 .1 0 .2 0h.2c.1 0 .2 0 .4 0 .1 0 .1 0 .2 0s.1 0 .2 0c.2 0 .5.1.7.1.2 0 .5 0 .7.1.2 0 .4 0 .6.1.7.1 1.2.1 1.2.1s0 0-.1 0-.1 0-.3 0c-.1 0-.2 0-.4 0s-.3 0-.5 0-.4 0-.6 0c-.2 0-.4 0-.7-.1-.1 0-.2 0-.4 0-.1 0-.2 0-.4 0-.1 0-.1 0-.2 0s-.1 0-.2 0-.2 0-.4 0h-.2c-.1 0-.1 0-.2 0s-.2 0-.4-.1h-.1s-.1 0-.1 0c-.1 0-.1 0-.2 0s-.2-.1-.3-.1c.1-.2 0-.2-.1-.2s-.1 0-.2 0-.1 0-.2 0-.2-.1-.3-.1c0 0-.1 0-.1 0s-.1 0-.1 0c-.1 0-.2-.1-.3-.1-.1 0-.2-.1-.2-.1-.1 0-.1-.1-.2-.1s-.1 0-.2-.1c-.1-.2-.1-.2-.3-.3.1.1 0 0 0 0zM56.7 22.6s.1 0 0 0c.1-.2.1-.2.2-.4 0-.1.1-.1.1-.2s.1-.1.1-.2.1-.2.1-.3c0-.1.1-.2.1-.3 0-.1.1-.1.1-.2s0-.1.1-.2.1-.2.2-.4c0 0 0-.1 0-.1s0-.1 0-.1c0-.1.1-.1.1-.2.1-.1.1-.3.2-.4 0-.1.1-.3.2-.4 0-.1.1-.1.1-.2 0 0 0-.1 0-.1s0-.1 0-.1c0-.1 0-.1.1-.2 0-.1 0-.1.1-.2 0-.1 0-.1.1-.2l.1-.2.1-.2c0-.1 0-.1.1-.2 0-.1 0-.1.1-.2 0-.1 0-.1.1-.2.1-.3.1-.6.2-.9.1-.3.1-.6.2-.8.1-.3.1-.5.2-.7.2-.9.3-1.5.3-1.5s0 0 0 .1 0 .2-.1.3c0 .1-.1.3-.1.5s-.1.4-.1.6-.1.5-.2.7c-.1.3-.1.5-.2.8 0 .1-.1.3-.1.4 0 .1-.1.3-.1.4 0 .1 0 .1-.1.2 0 .1 0 .1-.1.2 0 .1 0 .1-.1.2l-.1.2-.1.2c0 .1 0 .1-.1.2 0 .1 0 .1-.1.2 0 .1 0 .1-.1.2 0 0 0 .1 0 .1s0 .1 0 .1c0 .1-.1.1-.1.2-.1.1-.1.3-.2.4.1.5 0 .6 0 .7 0 .1-.1.1-.1.2 0 0 0 .1 0 .1s0 .1 0 .1c-.1.1-.1.2-.2.3 0 .1-.1.1-.1.2s-.1.1-.1.2c-.1.1-.1.2-.2.3 0 .1-.1.2-.1.3 0 .1-.1.2-.1.2 0 .1-.1.1-.1.2-.1.1-.2.2-.3.3.1 0 0 0 0 0z"/><path fill="#797085" d="M5.9 82.8s-3.8 2.6-5.7 4c-.6.5 0 1.8 0 1.8h99.6s.8-.8-1.1-2.3c-1.3-1-4.6-3.4-4.6-3.4H5.9z"/><path fill="#F7C699" d="M50.1 83.9s2.6-4.6 10.6-5.4c6.7-.6 12.7 1.2 22 2.6 4.7.7 12.8.3 12.8.3s-.6.8 0 2.5 1.2 2.8 1.2 2.8H52.5s-1.5 0-2.3-.9c-.5-.6-.1-1.9-.1-1.9z"/><path fill="#FCF4ED" d="M49.8 84.3l.1-12.3s5.2-5.3 11.2-5.7c6.1-.4 13.6 2.1 17.7 2.7 4.1.6 8.3.8 8.3.8l8.3 11.5s-11 1.2-17-.7-16.3-1.9-19.5-1.5c-6 .8-9.1 5.2-9.1 5.2z"/><path fill="#AA4B1A" d="M51.4 83.9s.1-.1.3-.2c.2-.1.4-.3.7-.6.2-.1.3-.2.6-.4.2-.1.4-.3.7-.4.2-.1.5-.3.8-.4.3-.1.6-.3.9-.4.3-.1.7-.3 1-.4.2-.1.4-.1.5-.2.1 0 .2-.1.3-.1.1 0 .2-.1.3-.1.2-.1.4-.1.6-.2.2-.1.4-.1.6-.1.2 0 .4-.1.6-.1.2 0 .4-.1.6-.1.9-.1 1.8-.1 2.7-.1.5 0 .9.1 1.4.1.5 0 .9.1 1.4.1.9.1 1.8.2 2.7.4.9.1 1.8.3 2.6.4.8.1 1.7.3 2.4.4.8.1 1.5.3 2.2.4.7.1 1.3.3 1.8.4.5.1 1 .2 1.4.3.4.1.7.1.9.1.2 0 .3 0 .3 0s-.1 0-.3 0c-.2 0-.5 0-.9 0s-.9-.1-1.4-.1c-.6-.1-1.2-.1-1.9-.2s-1.4-.2-2.2-.3c-.8-.1-1.6-.2-2.4-.3-.8-.1-1.7-.2-2.6-.4-.9-.1-1.8-.2-2.7-.3-.4 0-.9-.1-1.3-.1-.2 0-.5 0-.7-.1-.2 0-.5 0-.7-.1-.2 0-.4 0-.7 0-.1 0-.2 0-.3 0-.1 0-.2 0-.3 0-.4 0-.9 0-1.3.1-.2 0-.4 0-.6.1-.2 0-.4.1-.6.1-.2 0-.4.1-.6.1-.2 0-.4.1-.6.1-.1 0-.2 0-.3.1-.1 0-.2.1-.3.1-.2.1-.4.1-.5.2-.3.1-.7.2-1 .3-.6.2-1.2.5-1.7.7-.2.1-.5.2-.7.3-.2.1-.4.2-.6.3-.7.3-1.1.6-1.1.6zM53.3 85c.1-.1.2-.2.3-.2.2-.1.5-.3.9-.6.4-.2.9-.5 1.5-.7.1-.1.3-.1.5-.2s.3-.1.5-.2c.3-.1.7-.2 1.1-.3.2 0 .4-.1.6-.1.2 0 .4-.1.6-.1.4-.1.9-.1 1.3-.2.1 0 .2 0 .3 0 .1 0 .2 0 .3 0 .2 0 .5 0 .7 0 .2 0 .5 0 .7 0 .2 0 .5 0 .7 0 .5 0 1 0 1.5.1.5 0 1 .1 1.5.1s1 .1 1.5.1 1 .1 1.6.1c1 .1 2.1.2 3.1.3 1 .1 2 .2 3 .3 1 .1 1.9.2 2.8.3.9.1 1.7.2 2.5.2.8.1 1.5.1 2.1.2.6.1 1.2.1 1.6.1.5 0 .8 0 1.1.1.2 0 .4 0 .4 0s-.1 0-.4 0c-.2 0-.6 0-1.1.1-.5 0-1 .1-1.6 0-.6 0-1.4 0-2.1 0-.8 0-1.6-.1-2.5-.1-.9-.1-1.8-.1-2.8-.2-1-.1-2-.2-3-.3-1-.1-2.1-.2-3.1-.3-.5-.1-1-.1-1.5-.2s-1-.1-1.5-.1-1-.1-1.5-.1-1-.1-1.5-.1-1 0-1.4 0c-.2 0-.5 0-.7 0-.1 0-.2 0-.3 0-.1 0-.2 0-.3 0-.4 0-.9.1-1.3.1-.2 0-.4 0-.6.1-.2 0-.4.1-.6.1-.8.1-1.4.3-2.1.5-.3.1-.6.2-.8.3-.1 0-.3.1-.4.1-.1 0-.2.1-.3.1-.2.1-.4.2-.6.3-.2.1-.3.1-.4.2-.1.1-.2.2-.3.2zM53.8 86.1s.1-.1.4-.2c.2-.1.6-.3 1-.5.2-.1.5-.2.8-.3.3-.1.6-.2.9-.3.7-.2 1.4-.3 2.3-.5.2 0 .4-.1.6-.1.2 0 .4-.1.7-.1.5 0 .9-.1 1.4-.1.2 0 .5 0 .7 0 .3 0 .5 0 .8 0 .3 0 .5 0 .8 0 .3 0 .5 0 .8 0 .5 0 1.1.1 1.6.1s1.1.1 1.6.1c1.1.1 2.2.2 3.4.2 2.2.2 4.5.3 6.6.5 1.1.1 2.1.2 3 .2 1 .1 1.9.1 2.7.2.8 0 1.6.1 2.3.1.7 0 1.3.1 1.8.1s.9 0 1.1.1c.3 0 .4 0 .4 0s-.1 0-.4 0c-.3 0-.7 0-1.1.1-.5 0-1.1.1-1.8.1s-1.5 0-2.3 0c-.8 0-1.8 0-2.7-.1-1 0-2-.1-3-.1-.5 0-1.1-.1-1.6-.1s-1.1-.1-1.6-.1c-1.1-.1-2.2-.2-3.4-.2-1.1-.1-2.2-.2-3.4-.3-1.1-.1-2.2-.2-3.2-.3-.3 0-.5 0-.8-.1-.3 0-.5 0-.8 0-.3 0-.5 0-.7 0-.2 0-.5 0-.7 0-1 0-1.9.1-2.7.1-.8.1-1.6.2-2.3.3-.7.1-1.2.3-1.7.4-.5.1-.8.3-1.1.4-.3.4-.4.4-.4.4z" opacity=".5"/><path fill="#F7C699" d="M49.8 83.9s-2.5-4.5-10.5-5.2c-6.7-.6-12.7 1.1-22 2.5-4.7.7-12.8.3-12.8.3s.6.8 0 2.5-1.2 2.8-1.2 2.8h44.1s1.5 0 2.3-.9c.6-.7.1-2 .1-2z"/><path fill="#FCF4ED" d="M50.1 84l.1-12.1S45 66.7 39 66.4c-6.1-.4-13.6 2.1-17.7 2.7-4.1.6-8.3.8-8.3.8L4.6 81.4s11 1.2 17-.7 16.3-1.9 19.5-1.5c6 .6 9 4.8 9 4.8z"/><path fill="#AA4B1A" d="M48.6 83.9s-.4-.3-1.1-.6c-.2-.1-.4-.2-.6-.3-.2-.1-.4-.2-.7-.3-.5-.2-1.1-.5-1.7-.7-.3-.1-.7-.2-1-.3-.2 0-.4-.1-.5-.2-.1 0-.2-.1-.3-.1-.1 0-.2 0-.3-.1-.2 0-.4-.1-.6-.1-.2 0-.4-.1-.6-.1-.2 0-.4-.1-.6-.1-.2 0-.4 0-.6-.1-.4-.1-.8-.1-1.3-.1-.1 0-.2 0-.3 0-.1 0-.2 0-.3 0-.2 0-.4 0-.7 0-.2 0-.4 0-.7.1-.2 0-.4 0-.7.1-.4 0-.9.1-1.3.1-.9.1-1.8.2-2.7.3-.9.1-1.8.2-2.6.4-.8.1-1.7.2-2.4.3-.8.1-1.5.2-2.2.3-.7.1-1.3.2-1.9.2-.6.1-1 .1-1.4.1-.4 0-.7 0-.9 0-.2 0-.3 0-.3 0s.1 0 .3 0c.2 0 .5-.1.9-.1.4-.1.9-.2 1.4-.3.5-.1 1.2-.2 1.8-.4.7-.1 1.4-.3 2.2-.4.8-.1 1.6-.3 2.4-.4.8-.1 1.7-.3 2.6-.4.9-.1 1.8-.3 2.7-.4.5 0 .9-.1 1.4-.1.5 0 .9-.1 1.4-.1.9 0 1.8 0 2.7.1.2 0 .4.1.6.1.2 0 .4.1.6.1.2 0 .4.1.6.1.2.1.4.1.6.2.1 0 .2.1.3.1.1 0 .2.1.3.1.2.1.4.1.5.2.3.1.7.3 1 .4.3.2.6.3.9.4.3.1.5.3.8.4.2.1.5.3.7.4.2.1.4.3.6.4.3.2.6.4.7.6.2.1.3.2.3.2zM46.7 85c-.1-.1-.2-.1-.3-.2-.1-.1-.2-.1-.4-.2s-.3-.2-.5-.3c-.1 0-.2-.1-.3-.1-.1 0-.2-.1-.4-.1-.3-.1-.5-.2-.8-.3-.6-.2-1.3-.4-2.1-.5-.2 0-.4-.1-.6-.1-.2 0-.4 0-.6-.1-.4-.1-.8-.1-1.3-.1-.1 0-.2 0-.3 0-.1 0-.2 0-.3 0-.2 0-.5 0-.7 0-.5 0-.9 0-1.4 0-.5 0-1 .1-1.5.1s-1 .1-1.5.1-1 .1-1.5.1c-.5.1-1 .1-1.5.2-1 .1-2.1.2-3.1.3-1 .1-2 .2-3 .3-1 .1-1.9.1-2.8.2-.9.1-1.7.1-2.5.1s-1.5 0-2.1 0c-.6 0-1.2 0-1.6 0-.5 0-.8 0-1.1-.1-.2 0-.4 0-.4 0s.1 0 .4 0c.2 0 .6 0 1.1-.1.5 0 1 0 1.6-.1.6 0 1.3-.1 2.1-.2s1.6-.2 2.5-.2c.9-.1 1.8-.2 2.8-.3 1-.1 2-.2 3-.3 1-.1 2.1-.2 3.1-.3.5 0 1-.1 1.6-.1.5 0 1-.1 1.5-.1s1-.1 1.5-.1 1 0 1.5-.1c.2 0 .5 0 .7 0 .2 0 .5 0 .7 0 .2 0 .5 0 .7 0 .1 0 .2 0 .3 0 .1 0 .2 0 .3 0 .4.1.9.1 1.3.2.2 0 .4.1.6.1.2 0 .4.1.6.1.4.1.7.2 1.1.3.2 0 .3.1.5.2s.3.1.5.2c.6.2 1.1.5 1.5.7.4.2.7.4.9.6 0 .1.1.1.2.2zM46.3 86.1s-.1-.1-.4-.2c-.2-.1-.6-.2-1.1-.4-.5-.1-1-.3-1.7-.4-.7-.1-1.4-.2-2.3-.3-.8-.1-1.7-.1-2.7-.1-.2 0-.5 0-.7 0-.2 0-.5 0-.7 0-.3 0-.5 0-.8 0-.3 0-.5 0-.8.1-1 .1-2.1.2-3.2.3-1.1.1-2.2.2-3.4.3-1.1.1-2.3.2-3.4.2-.6 0-1.1.1-1.6.1s-1.1.1-1.6.1c-1.1.1-2.1.1-3 .1-1 0-1.9 0-2.7.1-.8 0-1.6 0-2.3 0-.7 0-1.3 0-1.8-.1-.5 0-.9 0-1.1-.1-.3 0-.4 0-.4 0s.1 0 .4 0c.3 0 .7 0 1.1-.1.5 0 1.1 0 1.8-.1.7 0 1.5-.1 2.3-.1.8-.1 1.8-.1 2.7-.2 1-.1 2-.2 3-.2 2.1-.2 4.4-.3 6.6-.5 1.1-.1 2.2-.2 3.4-.2.6 0 1.1-.1 1.6-.1s1.1-.1 1.6-.1c.3 0 .5 0 .8 0 .3 0 .5 0 .8 0 .3 0 .5 0 .8 0 .3 0 .5 0 .7 0 .5 0 1 .1 1.4.1.2 0 .5 0 .7.1.2 0 .4.1.6.1.8.1 1.6.3 2.3.5.3.1.6.2.9.3.3.1.5.2.8.3.5.2.8.4 1 .5.2-.1.4 0 .4 0z" opacity=".5"/><path fill="#2A2725" d="M99.8 87.9c0 .3-.3.6-1 .6H.2c.1 0-.2-.3-.2-.6s.3-.6.6-.6h98.6c.4 0 .6.3.6.6zM46.3 87.9s.2 1.3 1.2 1.5c1.1.2 3.7 0 4.4 0 .7 0 1.4-1.5 1.4-1.5h-7z"/><path fill="#F7C699" d="M50 72l.1 11.9-1.2-1.3.6-11.1z"/><path fill="#AA4B1A" d="M52.7 73.1s.1-.1.3-.3c.2-.2.5-.4.8-.7.4-.3.8-.6 1.4-.9.6-.3 1.2-.6 1.9-.9.7-.3 1.5-.6 2.4-.8.9-.2 1.8-.4 2.8-.5.2 0 .5 0 .7 0 .3 0 .5 0 .8 0 .3 0 .5 0 .8 0 .1 0 .3 0 .4 0 .1 0 .3 0 .4 0 .3 0 .5.1.8.1.3 0 .5.1.8.1.5.1 1 .2 1.6.3.5.1 1 .2 1.5.3.5.1 1 .2 1.5.4 1 .2 2 .5 2.9.7 1 .2 1.9.5 2.7.7.4.1.9.2 1.3.3.4.1.8.2 1.2.2.8.1 1.5.3 2.1.3.6.1 1.2.1 1.6.2.2 0 .4 0 .6 0 .2 0 .3 0 .5 0s.4 0 .4 0-.1 0-.4 0c-.1 0-.3 0-.5 0s-.4 0-.6 0c-.5 0-1 0-1.7-.1-.3 0-.7 0-1-.1-.4 0-.7-.1-1.1-.2-.4-.1-.8-.1-1.2-.2-.4-.1-.8-.2-1.3-.3-.9-.2-1.8-.4-2.8-.6-1-.2-1.9-.5-2.9-.7-.5-.1-1-.2-1.5-.3-.5-.1-1-.2-1.5-.3-.5-.1-1-.2-1.5-.3-.3 0-.5-.1-.8-.1-.3 0-.5-.1-.8-.1-.1 0-.3 0-.4 0-.1 0-.3 0-.4 0-.3 0-.5 0-.8 0-.2 0-.5 0-.7 0-.2 0-.5 0-.7 0-.2 0-.5 0-.7.1-.1 0-.2 0-.4 0-.1 0-.2 0-.3.1-.2 0-.5.1-.7.1-.2 0-.4.1-.7.1-.9.2-1.7.4-2.4.7-.7.3-1.4.5-2 .8-.6.3-1 .6-1.4.8-.4.3-.7.5-.9.6 0 .4-.1.5-.1.5zM52.7 75s.1-.1.3-.3c.2-.2.5-.4.9-.7.2-.1.4-.3.7-.4.1-.1.2-.2.4-.2.1-.1.3-.2.4-.2.3-.2.6-.3.9-.5.2-.1.3-.2.5-.2.2-.1.4-.2.6-.2.2-.1.4-.1.6-.2.2-.1.4-.1.6-.2.2-.1.4-.1.6-.2.2-.1.4-.1.7-.2.1 0 .2-.1.3-.1.1 0 .2 0 .4-.1.2 0 .5-.1.7-.1.2 0 .5-.1.7-.1.3 0 .5-.1.8-.1.3 0 .5 0 .8 0 .1 0 .3 0 .4 0 .1 0 .3 0 .4 0 .3 0 .5 0 .8 0 .3 0 .5.1.8.1.1 0 .3 0 .4 0l.4.1c.3 0 .5.1.8.1.5.1 1.1.2 1.6.3 1.1.2 2.1.5 3.2.7 1 .2 2.1.5 3 .7.5.1 1 .2 1.5.3.5.1.9.2 1.4.3.9.2 1.8.3 2.6.5.4.1.8.1 1.1.2.4.1.7.1 1 .1.2 0 .3 0 .5 0s.3 0 .4 0c.3 0 .5 0 .8 0 .1 0 .1 0 .2 0s.1 0 .2 0 .2 0 .3 0c.2 0 .3 0 .5 0 .3 0 .4 0 .4 0s-.1 0-.4 0c-.1 0-.3 0-.5 0-.1 0-.2 0-.3 0-.1 0-.1 0-.2 0s-.1 0-.2 0c-.2 0-.5 0-.8 0-.1 0-.3 0-.4 0-.2 0-.3 0-.5 0-.3 0-.7 0-1.1-.1-.4 0-.8-.1-1.2-.1-.8-.1-1.7-.2-2.6-.4-.5-.1-.9-.2-1.4-.3-.5-.1-1-.2-1.5-.3-1-.2-2-.4-3.1-.7-1-.2-2.1-.5-3.2-.7-.5-.1-1.1-.2-1.6-.3-.3 0-.5-.1-.8-.1l-.4-.1c-.1 0-.3 0-.4 0-.3 0-.5-.1-.8-.1-.3 0-.5 0-.8 0-.1 0-.3 0-.4 0-.1 0-.3 0-.4 0-.3 0-.5 0-.8 0-.3 0-.5 0-.7.1-.2 0-.5 0-.7.1-.2 0-.5.1-.7.1-.1 0-.2 0-.3.1-.1 0-.2 0-.3.1-.2 0-.4.1-.7.1-.2 0-.4.1-.6.2-.2.1-.4.1-.6.2-.2.1-.4.1-.6.2-.2.1-.4.1-.6.2-.2.1-.4.1-.5.2-.3.2-.7.3-1 .4-.1.1-.3.1-.4.2-.1.1-.3.1-.4.2-.3.1-.5.3-.7.4-.4.3-.7.5-.9.6 0 .3-.1.4-.1.4zM52.9 76.9s.1-.1.3-.3c.2-.2.5-.4.9-.7.2-.1.4-.3.7-.4.1-.1.3-.2.4-.2.1-.1.3-.2.4-.2.1-.1.3-.2.5-.2.2-.1.3-.2.5-.2.2-.1.4-.2.5-.2.2-.1.4-.2.6-.2.2-.1.4-.1.6-.2.2-.1.4-.1.6-.2.1 0 .2-.1.3-.1.1 0 .2-.1.3-.1.2-.1.5-.1.7-.2.9-.2 2-.3 3-.4.3 0 .5 0 .8 0 .3 0 .5 0 .8 0 .3 0 .5 0 .8.1.3 0 .6 0 .8.1.5.1 1.1.2 1.6.3.3.1.5.1.8.2l.8.2c1.1.2 2.2.5 3.2.7.5.1 1.1.3 1.6.4.5.1 1 .2 1.5.4.5.1 1 .2 1.5.3.5.1 1 .2 1.4.3.9.2 1.8.3 2.7.4.2 0 .4.1.6.1.2 0 .4 0 .6.1.4 0 .7.1 1.1.1.7 0 1.3.1 1.8.1s.9 0 1.1 0c.3 0 .4 0 .4 0s-.1 0-.4 0c-.3 0-.6 0-1.1.1-.5 0-1.1 0-1.8 0-.3 0-.7 0-1.1 0-.2 0-.4 0-.6 0-.2 0-.4 0-.6-.1-.2 0-.4 0-.6-.1-.1 0-.2 0-.3 0-.1 0-.2 0-.3 0-.4-.1-.9-.1-1.4-.2-.5-.1-1-.2-1.5-.2-.5-.1-1-.2-1.5-.3-.5-.1-1-.2-1.6-.3-.5-.1-1.1-.2-1.6-.4-1.1-.2-2.2-.5-3.2-.7l-.5-.8c-.3-.1-.5-.1-.8-.2-.5-.1-1.1-.2-1.6-.3-.3 0-.5-.1-.8-.1-.3 0-.5-.1-.8-.1-.3 0-.5 0-.8 0-.2 0-.5 0-.8 0-1 0-2 .1-3 .3-.2 0-.5.1-.7.1-.1 0-.2 0-.3.1-.1 0-.2.1-.3.1-.2.1-.4.1-.6.2-.2.1-.4.1-.6.2-.4.1-.8.3-1.1.4-.2.1-.3.1-.5.2-.3.2-.5.2-.6.3-.2.1-.3.1-.4.2-.1.1-.3.1-.4.2-.3.1-.5.3-.7.4-.4.3-.7.5-.9.6-.3.3-.4.4-.4.4zM52.9 78.9s.1-.1.3-.3c.2-.2.5-.4.9-.7.4-.3 1-.6 1.6-1 .2-.1.3-.2.5-.2.1 0 .2-.1.3-.1.1 0 .2-.1.3-.1.2-.1.4-.2.6-.2.2-.1.4-.1.6-.2.1 0 .2-.1.3-.1.1 0 .2-.1.3-.1.2-.1.4-.1.7-.2.2-.1.5-.1.7-.2.1 0 .2-.1.4-.1.1 0 .2 0 .4-.1.2 0 .5-.1.8-.1.3 0 .5-.1.8-.1.5-.1 1.1-.1 1.6-.1.1 0 .1 0 .2 0h.2c.1 0 .3 0 .4 0 .3 0 .6 0 .8 0 .3 0 .6.1.9.1.3 0 .6.1.9.1 1.1.2 2.3.4 3.5.6 1.1.2 2.3.5 3.4.7.6.1 1.1.2 1.7.4.6.1 1.1.2 1.6.3.5.1 1.1.2 1.6.3.5.1 1 .2 1.5.3.5.1 1 .1 1.4.2.5.1.9.1 1.4.2.9.1 1.7.2 2.4.2.2 0 .3 0 .5 0s.3 0 .5 0c.3 0 .6 0 .8 0 1 0 1.6 0 1.6 0s-.1 0-.4 0c-.3 0-.7.1-1.2.1-.3 0-.5 0-.8 0-.2 0-.3 0-.5 0s-.3 0-.5 0c-.4 0-.7 0-1.1 0-.4 0-.8-.1-1.3-.1-.4 0-.9-.1-1.4-.1-.5-.1-1-.1-1.5-.2-.6-.1-1.1-.1-1.6-.2s-1.1-.2-1.6-.3c-1.1-.2-2.2-.4-3.3-.7-1.1-.2-2.3-.5-3.4-.7-1.1-.2-2.3-.5-3.4-.6-.3 0-.6-.1-.8-.1-.3 0-.6-.1-.8-.1-.3 0-.6 0-.8-.1-.1 0-.3 0-.4 0h-.2c-.1 0-.1 0-.2 0-.5 0-1.1 0-1.6.1-.3 0-.5 0-.8.1-.3 0-.5.1-.7.1-.1 0-.2 0-.4.1-.1 0-.2.1-.4.1-.2.1-.5.1-.7.1-.2.1-.4.1-.7.2-.1 0-.2.1-.3.1-.1 0-.2.1-.3.1-.2.1-.4.1-.6.2-.2.1-.4.1-.6.2-.1 0-.2.1-.3.1-.1 0-.2.1-.3.1-.2.1-.4.1-.5.2-.6.3-1.2.6-1.6.9-.2.1-.4.3-.6.4-.2.1-.3.2-.4.3-.3.1-.4.2-.4.2zM47 72.7s-.1-.1-.3-.2c-.2-.1-.5-.3-.9-.6-.4-.2-.8-.5-1.4-.8-.6-.3-1.2-.6-1.9-.8-.7-.2-1.5-.5-2.4-.7-.2 0-.4-.1-.7-.1-.2 0-.4-.1-.7-.1-.1 0-.2 0-.3-.1-.1 0-.2 0-.3 0-.2 0-.5 0-.7-.1-.2 0-.5 0-.7 0-.2 0-.5 0-.7 0-.2 0-.5 0-.8 0-.1 0-.3 0-.4 0-.1 0-.2 0-.4 0s-.5.1-.7.1c-.3 0-.5.1-.8.1-.5.1-1 .2-1.5.3-.5.1-1 .2-1.5.3-.5.1-1 .2-1.5.3-1 .2-2 .5-2.9.7-.9.2-1.9.4-2.7.6-.4.1-.9.2-1.3.3-.4.1-.8.1-1.2.2-.4.1-.8.1-1.1.2-.3.1-.7.1-1 .1-.6.1-1.2.1-1.6.1-.2 0-.4 0-.6 0-.2 0-.3 0-.4 0-.2 0-.4 0-.4 0s.1 0 .4 0c.1 0 .3 0 .4 0 .2 0 .4 0 .6 0 .4 0 1-.1 1.6-.2.6-.1 1.3-.2 2.1-.3.4-.1.8-.2 1.2-.2.4-.1.8-.2 1.3-.3.9-.2 1.8-.4 2.7-.7.9-.2 1.9-.5 2.9-.7.5-.1 1-.2 1.5-.4.5-.1 1-.2 1.5-.3.5-.1 1-.2 1.5-.3.3 0 .5-.1.8-.1.3 0 .5-.1.8-.1.1 0 .3 0 .4 0 .1 0 .3 0 .4 0 .3 0 .5 0 .8 0 .3 0 .5 0 .8 0 .2 0 .5 0 .7 0 .2 0 .5.1.7.1.1 0 .2 0 .4 0 .1 0 .2 0 .3.1.2 0 .5.1.7.1.2 0 .4.1.7.2.9.2 1.7.5 2.4.8.7.3 1.4.6 1.9.9.6.3 1 .6 1.4.9.4.3.6.5.8.7 0-.1.1 0 .1 0zM47 74.6s-.1-.1-.3-.2c-.2-.2-.5-.4-.9-.6-.2-.1-.4-.3-.7-.4-.1-.1-.2-.1-.4-.2-.1-.1-.3-.1-.4-.2-.3-.2-.6-.3-.9-.4-.2-.1-.3-.1-.5-.2s-.4-.1-.5-.2c-.4-.1-.8-.3-1.2-.4-.2-.1-.4-.1-.6-.2-.2 0-.4-.1-.7-.1-.1 0-.2-.1-.3-.1-.1 0-.2 0-.3-.1-.2 0-.5-.1-.7-.1-.2 0-.5 0-.7-.1-.2 0-.5-.1-.7-.1-.2 0-.5 0-.7 0-.1 0-.3 0-.4 0-.1 0-.3 0-.4 0-.3 0-.5 0-.8 0-.3 0-.5.1-.8.1-.1 0-.3 0-.4 0l-.4.1c-.3 0-.5.1-.8.1-.5.1-1 .2-1.6.3-1 .2-2.1.4-3.1.7-1 .2-2 .5-3 .7-.5.1-1 .2-1.4.3-.5.1-.9.2-1.4.3-.9.2-1.8.3-2.6.4-.4 0-.8.1-1.1.1-.4 0-.7 0-1 .1-.2 0-.3 0-.5 0s-.3 0-.4 0c-.3 0-.5 0-.8 0-.1 0-.1 0-.2 0s-.1 0-.2 0-.2 0-.3 0c-.2 0-.3 0-.5 0s-.4 0-.4 0 .1 0 .4 0c.1 0 .3 0 .5 0 .1 0 .2 0 .3 0 .1 0 .1 0 .2 0s.1 0 .2 0c.2 0 .5 0 .8 0 .1 0 .3 0 .4 0 .2 0 .3 0 .5-.1.3 0 .7-.1 1-.1.4-.1.7-.1 1.1-.2.8-.1 1.6-.3 2.5-.5.4-.1.9-.2 1.4-.3.5-.1.9-.2 1.4-.3 1-.2 2-.5 3-.7 1-.2 2.1-.5 3.1-.7.5-.1 1.1-.2 1.6-.3.3 0 .5-.1.8-.1l.4-.1c.1 0 .3 0 .4 0 .3 0 .5-.1.8-.1.3 0 .5 0 .8 0 .1 0 .3 0 .4 0 .1 0 .3 0 .4 0 .3 0 .5 0 .8 0 .3 0 .5 0 .7.1.2 0 .5.1.7.1.2 0 .5.1.7.1.1 0 .2 0 .3.1.1 0 .2.1.3.1.2.1.4.1.7.2.2.1.4.1.6.2.4.1.8.3 1.2.4.2.1.4.2.5.2.2.1.4.1.5.2.3.2.6.3.9.5.1.1.3.2.4.2.1.1.3.2.4.2.2.1.5.3.6.4.4.3.7.5.9.7.3.1.4.2.4.2zM46.8 76.5s-.1-.1-.3-.2c-.2-.2-.5-.4-.9-.6-.2-.1-.4-.3-.7-.4-.1-.1-.3-.1-.4-.2-.1-.1-.3-.1-.4-.2-.1-.1-.3-.1-.5-.2s-.3-.1-.5-.2-.4-.1-.5-.2c-.1 0-.2-.1-.3-.1-.1 0-.2-.1-.3-.1-.2-.1-.4-.1-.6-.2-.2-.1-.4-.1-.6-.2-.1 0-.2-.1-.3-.1-.1 0-.2 0-.3-.1-.2 0-.4-.1-.7-.1-.9-.2-1.9-.3-2.9-.3-.3 0-.5 0-.8 0-.3 0-.5 0-.8 0-.3 0-.5 0-.8.1-.3 0-.5.1-.8.1-.5.1-1.1.2-1.6.3-.3.1-.5.1-.8.2l-.8.2c-1.1.2-2.1.5-3.2.7-.5.1-1.1.2-1.6.4-.5.1-1 .2-1.5.3-.5.1-1 .2-1.5.3-.5.1-1 .2-1.4.2-.5.1-.9.1-1.4.2-.1 0-.2 0-.3 0-.1 0-.2 0-.3 0-.2 0-.4 0-.6.1-.2 0-.4 0-.6.1-.2 0-.4 0-.6 0-.4 0-.7 0-1.1 0-.7 0-1.3 0-1.7 0-.5 0-.9-.1-1.1-.1-.3 0-.4 0-.4 0s.1 0 .4 0c.3 0 .6 0 1.1 0 .5 0 1.1 0 1.7-.1.3 0 .7-.1 1.1-.1.2 0 .4 0 .6-.1.2 0 .4-.1.6-.1.8-.1 1.7-.2 2.6-.4.5-.1.9-.2 1.4-.3.5-.1 1-.2 1.5-.3.5-.1 1-.2 1.5-.4.5-.1 1-.2 1.6-.4 1.1-.3 2.1-.5 3.2-.7l.8-.2c.3-.1.5-.1.8-.2.5-.1 1.1-.2 1.6-.3.3 0 .5-.1.8-.1.3 0 .5-.1.8-.1.3 0 .5 0 .8 0 .3 0 .5 0 .8 0 .5 0 1 .1 1.5.1.2 0 .5.1.7.1.2 0 .5.1.7.1.2.1.5.1.7.2.1 0 .2.1.3.1.1 0 .2.1.3.1.2.1.4.1.6.2.2.1.4.1.6.2.1 0 .2.1.3.1.1 0 .2.1.3.1.2.1.4.2.5.2.2.1.3.2.5.2.2.1.3.2.5.2.1.1.3.2.4.2.1.1.3.2.4.2.2.1.5.3.7.4.4.3.7.5.9.7.2.6.3.7.3.7zM46.8 78.5s-.1-.1-.3-.3c-.1-.1-.2-.2-.4-.3-.2-.1-.3-.2-.6-.4-.4-.3-1-.6-1.6-.9-.2-.1-.3-.1-.5-.2-.1 0-.2-.1-.3-.1-.1 0-.2-.1-.3-.1-.2-.1-.4-.1-.6-.2-.2-.1-.4-.1-.6-.2-.1 0-.2-.1-.3-.1-.1 0-.2-.1-.3-.1-.2-.1-.4-.1-.7-.2-.2 0-.5-.1-.7-.1-.1 0-.2-.1-.4-.1-.1 0-.2 0-.4-.1-.2 0-.5-.1-.7-.1-.3 0-.5 0-.8-.1-.5-.1-1-.1-1.6-.1h-.4c-.1 0-.3 0-.4 0-.3 0-.6 0-.8.1-.3 0-.5.1-.8.1-.3 0-.6.1-.8.1-1.1.2-2.2.4-3.4.6-1.1.2-2.3.5-3.4.7-1.1.2-2.2.5-3.3.7-.5.1-1.1.2-1.6.3-.5.1-1 .2-1.5.2-.5.1-1 .1-1.4.2-.2 0-.5.1-.7.1-.2 0-.4 0-.7.1-.4 0-.8.1-1.2.1-.4 0-.8 0-1.1 0-.2 0-.3 0-.5 0s-.3 0-.5 0c-.3 0-.6 0-.8 0-.5 0-.9-.1-1.2-.1-.3 0-.4 0-.4 0s.1 0 .4 0c.3 0 .7 0 1.2 0 .3 0 .5 0 .8 0 .2 0 .3 0 .5 0s.3 0 .5 0c.7-.1 1.5-.1 2.3-.2.2 0 .4-.1.7-.1.2 0 .4-.1.7-.1.5-.1.9-.1 1.4-.2.5-.1 1-.2 1.5-.3.5-.1 1-.2 1.6-.3.5-.1 1.1-.2 1.6-.3.5-.1 1.1-.2 1.6-.4 1.1-.2 2.2-.5 3.4-.7 1.1-.2 2.3-.4 3.4-.6.3 0 .6-.1.8-.1.3 0 .6-.1.8-.1.3 0 .6 0 .8 0 .1 0 .3 0 .4 0h.4c.5 0 1.1 0 1.6.1.3 0 .5.1.8.1.3 0 .5.1.7.1.1 0 .2 0 .4.1.1 0 .2.1.4.1.2.1.5.1.7.2.2.1.4.1.7.2.1 0 .2.1.3.1.1 0 .2.1.3.1.2.1.4.2.6.2.2.1.4.2.6.2.1 0 .2.1.3.1.1 0 .2.1.3.1.2.1.3.2.5.2.6.3 1.1.7 1.6 1 .4.3.7.5.9.7.4.2.5.3.5.3z" opacity=".3"/><path fill="#D82A19" d="M86.2 72.2h5.3l2.1 2.4H88z"/><path fill="#FED018" d="M92.8 77.9h3.1l1.7 1.8h-3.4z"/><path fill="#7AAA2E" d="M28.9 77.4l-1.6 4.8 5.8-.7v-5z"/><path fill="#D82A19" d="M67.4 85v5.4h5.3L71.1 85z"/><path fill="#FAFAFF" d="M55.9 67.9l1 11.3s1.8-.4 3.8-.5c2.2-.1 3-.2 3-.2l-.3-12.2s-.8-.3-3.7.1c-2 .2-3.8 1.5-3.8 1.5z" opacity=".3"/></svg>