<svg xmlns="http://www.w3.org/2000/svg" viewBox="0 0 100 100"><path fill-rule="evenodd" d="M64.9 22.2a34.74 34.74 0 0124.8 33.2h5v5h-5.3c-2.5 16.8-17 29.7-34.4 29.7S23 77.2 20.6 60.4h-5.3v34.7h74.3v4.9H10.3V60.4H5.4v-5h4.9V22h5v33.4h5c0-15.7 10.4-29 24.8-33.2V5h-5V0h29.7v5h-5v17.2h.1zm14.3 28.3c-2-9.7-9.6-17.3-19.3-19.3v5.1c7 1.8 12.4 7.3 14.2 14.2h5.1zm-54 4.9h59.4c0-14.7-10.7-27-24.8-29.3V5H50v21.1a29.76 29.76 0 00-24.8 29.3zm59.1 5H25.7A29.6 29.6 0 0055 85.1c14.7 0 26.9-10.7 29.3-24.7zm-6.6 4.9c-.8 1.8-1.7 3.4-2.9 5H35.1c-1.1-1.5-2.1-3.2-2.9-5h45.5zm-7.9 9.9a24.73 24.73 0 01-29.8 0h29.8z" clip-rule="evenodd"/></svg>