<svg xmlns="http://www.w3.org/2000/svg" viewBox="0 0 100 100"><path fill="#c42535" d="M41.2 3.5c9.4 1.1 17.5 11.8 23.3 22.4 4.5 8.2 7 16.2 7.6 18.8l2.8-.5C71.3 34.2 62.1.7 41.2.9v2.6z"/><path fill="#efab18" d="M38.2 42.5L50.9 3.1h16.4l.3 2c0 .2.8 5.8-1.9 12.9-1.6 4.1-4 8-7.2 11.4-4 4.3-9.2 7.9-15.4 10.9l-4.9 2.2zM54.3 7.7L46 33.4c7.5-4.5 12.7-10.2 15.3-16.9 1.5-3.7 1.8-6.9 1.8-8.8h-8.8z"/><path fill="#f5952e" d="M63.5 7.5s-1.9 10.9-5.2 15.3c-4.2 5.6-6.8 7-6.8 7l-1.1 2.9s9.1-5.8 12.7-13.7C65.7 13.6 66 5.3 66 5.3H54.7v2.2h8.8z" opacity=".5"/><path fill="#ffd00d" d="M32.1 41.8l-4.8-2.2c-6.3-2.8-11.6-6.4-15.6-10.5a34.9 34.9 0 01-7.3-11.2c-2.8-7-2-12.5-2-12.7l.3-2H19l13.1 38.6zM6.9 7.8c0 1.9.4 5 1.9 8.6 2.7 6.6 7.9 12.2 15.5 16.5L15.8 7.8H6.9z"/><path fill="#efab18" d="M7.6 7.6s.1 10 5.2 15.7c4.6 5.2 6.8 6.9 6.8 6.9l1.1 2.9s-8.9-4-12.8-13.7c-2.3-5.6-2.8-11-2.4-13.8l10.9.1v1.9H7.6zM38.6 63.4h-6.3V39.3h6.3z"/><path fill="#ffd00d" d="M35.4 61.1h-3.1V39.3h3.1z"/><path fill="#f5952e" d="M16.5 2.6C15.5 6 15 10 15.1 13.8c.1 15.7 9.4 28.4 20.6 28.3C47 42 56 29.2 55.8 13.5c0-3.8-.6-7.5-1.6-10.8H16.5z"/><path fill="#f1c40f" d="M49.9 64.3H21.1l-.1-5.2h28.9z"/><path fill="#efab18" d="M15.9 63.2H55v22H15.9z"/><path fill="#e67e22" d="M13.8 82.9h43.4v4.6H13.8z"/><path fill="#ffd00d" d="M21.1 67.6h28.8v11.1H21.1z"/><path fill="#ffd00d" d="M51.5 2.7h-35c-1 3.6-1.6 8-1.5 12.2.2 16.9 12.8 27.6 24 23.3C53.1 32.7 51.5 2.7 51.5 2.7z" opacity=".7"/><path fill="#ffd00d" d="M46 3.5H16.9c-.8 2.9-.7 6.4-.9 9.7-.9 12.8 10.4 25.1 19.4 21.6C48.9 29.5 46 3.5 46 3.5z"/><path fill="#fff" d="M23 78.7l12.1-11.1h4.7L28.2 78.7zM31.5 78.7l12.1-11.2h2.1L34.1 78.7z" opacity=".3"/><path fill="#fff" d="M19.2 3.9c-2.9 10.4-.2 24 9.8 29.2-4-10.3-3.1-22.6-1.3-27.7l-8.5-1.5z" opacity=".4"/><path fill="#e67e22" d="M54.3 3.2c0 1.4-8.5 2.5-18.9 2.5-10.4 0-18.9-1.1-18.9-2.5S25 .7 35.4.7c10.4 0 18.9 1.1 18.9 2.5z"/><path fill="#ffdd01" d="M35.4 6.1c-5.1 0-9.8-.3-13.4-.7-1.8-.2-3.1-.5-4.1-.8-1.2-.4-1.8-.8-1.8-1.3s.5-1 1.8-1.3c1-.3 2.4-.6 4.1-.8C25.6.7 30.4.5 35.4.5c5.1 0 9.8.3 13.4.7 1.8.2 3.1.5 4.1.8 1.2.4 1.8.8 1.8 1.3s-.5 1-1.8 1.3c-1 .3-2.4.6-4.1.8-3.6.4-8.4.7-13.4.7zM16.8 3.2c.1.1.6.8 5.5 1.4 3.5.4 8.2.7 13.1.7s9.5-.2 13.1-.7c4.8-.6 5.4-1.3 5.5-1.4-.1-.1-.6-.8-5.5-1.4-3.5-.4-8.2-.7-13.1-.7s-9.5.2-13.1.7c-4.8.6-5.4 1.3-5.5 1.4z"/><path fill="#e8e1ef" d="M45.4 73.6c0 14.4 11.7 26.1 26.1 26.1S97.7 88 97.7 73.6c0-14.4-11.7-26.1-26.1-26.1S45.4 59.2 45.4 73.6z"/><path fill="#fff" d="M47.4 72.3c0 13 10.6 23.6 23.6 23.6 13 0 23.6-10.6 23.6-23.6 0-13-10.6-23.6-23.6-23.6-13.1 0-23.6 10.5-23.6 23.6z" opacity=".3"/><path fill="#43405a" d="M87.7 70.9s2.2 2.7 2.7 4.2 1.4 4.5 1.4 4.5-1.7 3.2-3.1 4.9c-1.3 1.6-4 3.7-4 3.7L75.9 84l2.3-11 9.5-2.1zM65.2 87.5s-2.7-2.3-4.2-3.6c-1.5-1.3-4-4.1-4-4.1l-6.3 2.9s-.1 2.3.8 4.5c.8 2.1 2 4.1 2 4.1s2.4 1.5 4.4 2.2c2 .7 5.6 1.1 5.6 1.1l1.7-7.1zM70.1 65.5l1.5-9.6s-3-1.2-4.9-1.6-5-.5-5-.5-2.4 1.6-3.7 3.1c-1.3 1.5-3.3 4.6-3.3 4.6l4.9 7.5s4.1-1.6 5.7-2.2c1.5-.6 4.8-1.3 4.8-1.3zM94.6 61.3s-1.7-.7-2.9-.7-2.4.7-2.4.7-1.7-2.8-3.4-4.5c-1.9-1.8-5.3-3.1-5.3-3.1V49s6.2 2.6 9 5.6c2.7 3.1 5 6.7 5 6.7zM48.9 64.1s-.9 1.2-1.5 3.9c-.7 3-1.2 7.2-1.2 7.2h-.7s.1-4.2.6-7.3c.4-2.7 1.9-5.4 1.9-5.4l.9 1.6zM86.9 94.7s-1.2.8-2.2.8c-.9 0-1.8-.4-1.8-.4s-3 2-5.2 2.6c-2.2.6-5.8.7-5.8.7l.1 1.3s4.5-.1 8.5-1.6c3.3-1 6.4-3.4 6.4-3.4zM96.4 81.8v-2.2l.9-1.7z"/><path fill="#43405a" d="M87.9 71l-.5-.2s1.6-4.1 1.6-9.5h.5c.1 5.6-1.6 9.7-1.6 9.7zM78 73.2s-3.1-3.7-8.1-7.4l.3-.4c5.1 3.7 8.2 7.5 8.2 7.5l-.4.3zM71.7 56.1l-.3-.4c4.4-2.9 9.1-2.2 9.3-2.2l-.1.5c-.1 0-4.7-.6-8.9 2.1zM57.2 79.9h-.5s0-4.8 2.5-11l.5.2c-2.5 6.1-2.5 10.7-2.5 10.8zM65.2 87.8l-.1-.5c.1 0 5.4-.8 10.6-3.6l.3.5c-5.3 2.8-10.7 3.6-10.8 3.6zM83.2 95.3l-.5-.3s1.7-3.4 1.7-6.8h.5c0 3.5-1.7 6.9-1.7 7.1zM93.9 80.3c-.7 0-1.5-.1-2.2-.4l.2-.5c2.2.8 4.4 0 4.4 0l.2.5c-.1 0-1.2.4-2.6.4zM71.9 98.7c-.2 0-5.8-.3-8.6-3.8l.4-.3c2.6 3.3 8.1 3.6 8.2 3.6v.5zM50.4 82.9c-.2-.2-4.4-5.5-4.4-7.8h.5c0 2.1 4.3 7.4 4.3 7.4l-.4.4zM49.1 64.2l-.4-.4c.1-.1 1.8-1.6 5.8-2.6l.1.5c-3.9 1-5.5 2.5-5.5 2.5zM61.4 49.4h.5v4.3h-.5zM52.81 91.85l.46-.65.4.28-.45.66z"/><path fill="#fff" d="M50.7 64.9c0 8.6 7 15.6 15.6 15.6s15.6-7 15.6-15.6-7-15.6-15.6-15.6c-8.7 0-15.6 7-15.6 15.6z" opacity=".3"/><path fill="#7c7091" d="M63 94.8c14.4 0 26.1-11.7 26.1-26.1 0-7.8-3.4-14.9-8.9-19.6a26.09 26.09 0 01-8.7 50.7c-6.6 0-12.6-2.4-17.2-6.5 2.7.9 5.6 1.5 8.7 1.5z" opacity=".3"/><path fill="#9795b2" d="M86.1 72.4c-2.1.4-4.9 1-6.1 2.5-.8 1-2.5 5.5-3.1 8.5.7-2.9.8-8.7 2.7-9.9 1.3-.7 6.5-1.1 6.5-1.1zM60.8 85s-2.1-2.2-3.3-3c-1.8-1.3-2.8-.3-4.8.4 1.2 0 2.7-.2 3.8.2 1 .3 4.3 2.4 4.3 2.4zM67.3 55.5c-2.3-.6-5.6-1.4-7.3.3-1.7 1.7-2.5 4.2-4.1 5.8 1.4-1.2 3.6-4.5 5-5.5 1.7-1.2 6.4-.6 6.4-.6z"/><path fill="#c42535" d="M33 .6c-3.2 11.5-2.9 26.2 6.5 33.5 10.2 8 25.1 4.6 33.6 15.4l1.8-1.1c-7.1-13.5-23.6-7.5-33.6-16.6C29.4 20.9 37.1.4 37.1.4c-3.3-.5-4.1.2-4.1.2z"/><path fill="#e5393b" d="M34.1.4s-2.3 5.2-2 12.3c.2 5.7.7 8.9 2.5 11.1-1.9-4.4-2.2-17.5 1.6-23.3L34.1.4z"/><path fill="#e67e22" d="M85.5 50.6c0 5.1-4.1 9.2-9.2 9.2s-9.2-4.1-9.2-9.2 4.1-9.2 9.2-9.2 9.2 4.1 9.2 9.2z"/><circle cx="76.4" cy="50.6" r="7.6" fill="#ffd00d" transform="rotate(-79.759 76.38 50.58)"/><path fill="#fff" d="M69.1 52.7l9.1-9.5s1.2.4 3.4 1.8L71.2 56c-2.1-1.3-2.1-3.3-2.1-3.3zM72.7 57.2l10-10.4.9 1.4-9.4 9.9z" opacity=".4"/><g><path fill="#c42535" d="M81.5 52.1l-3.7 3-.6-.8 1.4-1.1-4.1-5.1-1.5 1.1-.6-.7c.5-.4.9-.8 1-1.2.1-.3 0-.7-.3-1.2l.8-.6 5.5 6.9 1.4-1.1.7.8z"/></g></svg>