<svg xmlns="http://www.w3.org/2000/svg" viewBox="0 0 100 100"><path fill-rule="evenodd" d="M23.7 75.6c3-3.5 4.8-8.6 4.8-14.3 0-1.6-.3-3.3-1-4.8h23.3c.3 1.5.5 3.1.5 4.8 0 5.7-1.9 10.8-4.8 14.3H23.7zm24.7-39.8l-9.5-9.5v-6.7l12.8 12.8 12.8-12.8v6.7l-16 16h6.3l12.6-12.6h6.7L61.6 42.3h24.2v4.8c-3.1-.1-5.7 2.2-7.2 4.8h14.2c4.8 0 7.1 5.5 7.1 9.5 0 10.5-6.4 19-14.3 19H14.3C6.4 80.4 0 71.9 0 61.3c0-10.5 6.4-19 14.3-19h27.6L29.3 29.7H36l9.2 9.2 3.2-3.1zm1.1 16h-28c-3.9.1-6.2 3.6-6.9 7.1-.5 2.3-.3 5.5-.2 7.2h9c-1.3 5.5-4.8 9.5-9 9.5-5.3 0-9.5-6.4-9.5-14.3S9.2 47 14.4 47h32.3c1 1.4 2 3 2.8 4.8zm2.9-4.7h5.3a33.56 33.56 0 010 28.6h-5.3c2.5-4.3 3.8-9.5 3.8-14.3-.1-4.9-1.3-10-3.8-14.3zm10.5 0h13.4c-1.2 1.4-2.1 3-2.9 4.8h-8.9c-.5-1.7-1-3.3-1.6-4.8zm2.5 9.5h27.5c1.9 0 2.4 3.6 2.4 4.8 0 7.9-4.3 14.3-9.5 14.3H62.9a38.74 38.74 0 002.5-19.1zm-41.6 4.7H19c0-2.6 1.1-4.8 2.4-4.8 2 .1 2.4 3.7 2.4 4.8z" clip-rule="evenodd"/></svg>