<svg xmlns="http://www.w3.org/2000/svg" viewBox="0 0 100 100" enable-background="new 0 0 100 100"><path fill="#C0C3E2" d="M65.8 14.9c0-2.8-7.9-5-17.7-5s-17.7 2.3-17.7 5c0 0-2.5 6.1 0 17.2 2.2 9.6 6.8 14.3 7.9 22.6 1.3 9.3.5 20.5.5 20.5 0 1.4 4.1 2.5 9.2 2.5s9.2-1.1 9.2-2.5c0 0-.7-11.2.5-20.5 1.1-8.4 5.8-13 7.9-22.6 2.7-11.1.2-17.2.2-17.2z"/><path fill="#9D9EE2" d="M48.1 78c-2.5 0-4.9-.3-6.6-.7-1.9-.5-3-1.2-3-2.1 0-.5.7-11.3-.5-20.4-.6-4.3-2.1-7.7-3.8-11.2-1.5-3.3-3.1-6.8-4.2-11.4-1.3-5.8-1.2-10.2-.9-12.9.3-2.6.8-4.1.9-4.5.1-1.5 1.9-2.8 5.4-3.8 3.4-1 7.9-1.5 12.6-1.5s9.2.5 12.6 1.5c3.5 1 5.4 2.3 5.4 3.8.1.3.7 1.8.9 4.5.3 2.7.4 7.1-.9 12.9-1 4.6-2.6 8.1-4.2 11.4-1.6 3.5-3.2 6.9-3.8 11.2-1.2 9.1-.5 20.3-.5 20.4 0 .8-1 1.6-3 2.1-1.6.5-3.9.7-6.4.7zm-8.9-2.8c0 .3.7.9 2.4 1.4 1.7.5 4 .7 6.4.7 2.4 0 4.7-.3 6.4-.7 1.8-.5 2.4-1 2.4-1.4 0-.6-.7-11.4.5-20.5.6-4.4 2.2-7.8 3.8-11.4 1.5-3.3 3.1-6.7 4.1-11.3 2.5-10.9 0-16.9 0-17v-.2c0-1.1-1.8-2.3-4.9-3.2-3.3-.9-7.7-1.5-12.4-1.5s-9.1.5-12.4 1.5c-3.1.9-4.9 2.1-4.9 3.2V15.1s-.6 1.5-.9 4.4c-.3 2.6-.3 6.9.9 12.6 1 4.6 2.6 8 4.1 11.3 1.7 3.6 3.2 7 3.8 11.4 1.4 9 .7 20 .7 20.4z"/><path fill="#D7DFFB" d="M64.7 15.7c0-2.3-8.3-4.3-16.6-4.3-8.2 0-16.7 1.9-16.7 4.3 0 0-2.1 5.1 0 14.5 1.8 8.1 7.5 19.4 8.5 26.5 1.1 7.8.4 17.2.4 17.2 0 1.1 3.5 2.1 7.8 2.1s7.8-.9 7.8-2.1c0 0-.6-9.4.4-17.2 1-7.1 6.5-18.4 8.4-26.5 2.1-9.4 0-14.5 0-14.5z" opacity=".5"/><path fill="#fff" d="M50.8 73.6s-2-16.2-1.2-25.3c.6-8 2.1-13.5 3.7-23.8 1.5-9-.5-13.7-.5-13.7l8.1 1.4s1.7-.5-.8 11.5c-2.2 10.4-5.9 15.4-7 24.4-1.3 10-.5 25.2-.5 25.2l-1.8.3z" opacity=".3"/><linearGradient id="a" x1="30.805" x2="65.372" y1="52.046" y2="52.046" gradientUnits="userSpaceOnUse"><stop offset="0" stop-color="#DFE7FF"/><stop offset=".543" stop-color="#F9FCFF"/><stop offset="1" stop-color="#DEE6FF"/></linearGradient><path fill="url(#a)" d="M30.8 28.8c.1 1.1.4 2.6.6 3.8 1.8 8.1 7.5 17 8.5 24.1 1.1 7.8.4 16.6.4 16.6 0 1.1 3.5 2.1 7.8 2.1s7.8-.9 7.8-2.1c0 0-.6-8.7.4-16.6 1-7.1 6.5-15.9 8.4-24.1.3-1.3.5-2.7.6-3.8H30.8z"/><path fill="#F9FCFF" d="M65.2 28.8c0 2.5-7.7 4.6-17.2 4.6s-17.2-2.1-17.2-4.6c0-2.5 7.7-4.6 17.2-4.6s17.2 2 17.2 4.6z"/><path fill="#fff" d="M43.9 76.3s2-15 1.2-23.5c-.7-7.4-2.1-12.6-3.7-22-1.5-8.4 1.1-11.5 1.1-11.5l-8.6-2.7s-2.9 3.5-.4 14.6c2.2 9.6 7 13.1 8.2 21.4 1.3 9.3.5 23.4.5 23.4l1.7.3z" opacity=".7"/><path fill="#fff" d="M35.3 21.4c-1.5.7-.5 7.5 2.3 12.9-.9-1.7-.9-4.1-1.1-6.1-.1-1.4.7-5.2-.2-6.1-.1-.2-.7-.9-1-.7z"/><path fill="#9D9EE2" d="M48 9.9c-9.8 0-17.7 2.1-17.7 4.7s7.9 4.7 17.7 4.7 17.7-2.1 17.7-4.7S57.8 9.9 48 9.9zm0 8.6c-9.2 0-16.6-1.7-16.6-3.9s7.4-3.9 16.6-3.9 16.6 1.7 16.6 3.9-7.5 3.9-16.6 3.9z"/><path fill="#E8E1EF" d="M6.7 78.3l-2.6 5.4.6.4L8.8 80zM29.6 78.3l2.6 5.4-.7.4-4-4.1z"/><path fill="#797085" d="M4.4 83.8l3-4.6 1.4.8-4.1 4.1zM31.8 83.8l-2.9-4.6-1.4.8 4 4.1z" opacity=".4"/><path fill="#797085" d="M17.7 45.3h.7v3.4h-.7zM20 45.9c0 .4-.3.8-.8.8h-2.4c-.4 0-.8-.3-.8-.8 0-.4.3-.8.8-.8h2.4c.5 0 .8.3.8.8z"/><path fill="#2B4F68" d="M35.9 65.6c0 9.8-7.9 17.8-17.8 17.8C8.3 83.4.3 75.5.3 65.6c0-9.8 7.9-17.8 17.8-17.8 9.8 0 17.8 8 17.8 17.8z"/><circle cx="18.3" cy="65.4" r="15.8" fill="#E8E1EF"/><path fill="#FFF2E9" d="M31.8 65.6c0 7.6-6.1 13.7-13.7 13.7S4.4 73.2 4.4 65.6s6.1-13.7 13.7-13.7S31.8 58 31.8 65.6z"/><path fill="#fff" d="M27.2 50.3s4.6 3.4 5.8 5.5c1.2 2.1 2.5 5.7 2.5 5.7L10.9 81.8s-5-3.1-6.6-5.1c-1.6-2-3.2-6-3.2-6l26.1-20.4z" opacity=".3"/><path fill="#530254" d="M30.8 65.4c0 .3-.3.6-.6.6s-.6-.3-.6-.6.3-.6.6-.6c.4-.1.6.2.6.6zM6.9 65.4c0 .3-.3.6-.6.6s-.6-.3-.6-.6.3-.6.6-.6c.3-.1.6.2.6.6z"/><circle cx="18.2" cy="53.8" r=".6" fill="#530254"/><path fill="#530254" d="M18.2 77.1c.3 0 .6.3.6.6s-.3.6-.6.6-.6-.3-.6-.6.3-.6.6-.6zM24.5 54.7c.2.3.2.7-.1.9-.3.2-.7.2-.9-.1-.2-.3-.2-.7.1-.9.3-.3.7-.2.9.1zM12.7 75.5c.2.3.2.7-.1.9-.3.2-.7.2-.9-.1-.2-.3-.2-.7.1-.9.3-.2.7-.2.9.1zM8.4 71c.2.3.2.7-.1.9-.3.2-.7.1-.9-.1-.2-.3-.2-.7.1-.9.3-.2.7-.2.9.1zM24.6 75.5c.2.3.2.7-.1.9-.3.2-.7.2-.9-.1-.2-.3-.2-.7.1-.9.3-.3.7-.2.9.1zM29.1 71c.2.3.2.7-.1.9-.3.2-.7.2-.9-.1-.2-.3-.2-.7.1-.9.3-.2.7-.2.9.1zM29.1 59c.2.3.2.7-.1.9-.3.2-.7.2-.9-.1-.2-.3-.2-.7.1-.9.3-.2.7-.1.9.1zM12.7 54.7c.2.3.2.7-.1.9-.3.2-.7.2-.9-.1-.2-.3-.2-.7.1-.9.3-.3.7-.2.9.1zM8.4 59c.2.3.2.7-.1.9-.3.2-.7.2-.9-.1-.2-.3-.2-.7.1-.9.3-.2.7-.1.9.1z"/><path fill="#A44AA0" d="M17.5 64.5s-.4-6.2-.4-7.5c0-.9 1-2.4 1-2.4s1 1.3 1 2.4c0 1.2-.6 7.5-.6 7.5h-1z"/><path fill="#FFF2E9" d="M17.9 63.6s-.2-5.9-.2-6.7c0-.5.3-1.5.3-1.5s.4.8.4 1.5c0 .8-.2 6.7-.2 6.7h-.3z"/><path fill="#A44AA0" d="M17.2 66.1s-4.5.4-5.8.4c-.9 0-2.4-1-2.4-1s1.3-1 2.4-1c1.2 0 5.8.7 5.8.7v.9z"/><path fill="#FFF2E9" d="M17.3 65.8s-4.2.2-5.2.2c-.7 0-1.9-.6-1.9-.6s1-.6 1.9-.6c.9 0 5.2.4 5.2.4v.6z"/><path fill="#A44AA0" d="M19.8 65.6c0 .9-.7 1.7-1.7 1.7-.9 0-1.7-.7-1.7-1.7 0-.9.7-1.7 1.7-1.7.9 0 1.7.8 1.7 1.7z"/><path fill="#CC75CC" d="M19.2 65.6c0 .6-.5 1.1-1.1 1.1-.6 0-1.1-.5-1.1-1.1 0-.6.5-1.1 1.1-1.1.6 0 1.1.5 1.1 1.1z"/><path fill="#3F6D77" d="M5.1 44.8s2.6-.9 3.5-2.2c1.4-1.8 1.9-3.1 3-3.8 1.4-.9 3.8-1.5 6.4-1.4 2.6.1 6.8.5 7.8 1.8s1 2 1.8 3.2c.8 1.3 2.4 2.5 2.4 2.5l-.3.7s-1.8-1.6-2.3-2.4c-.7-1.1-.7-3.1-2.6-3.9-1.9-.9-5.3-.9-6.9-.9-1.6 0-4.4.1-6 1.1-2 1.2-1.4 2-3 3.6-1 1-3.2 2.1-3.2 2.1l-.6-.4z"/><path fill="#797085" d="M5.6 43.7c-.4.2-.6.7-.4 1.2l1.6-.7c-.3-.5-.8-.7-1.2-.5zM7.8 44.1c.2.3.1.8-.3 1l-2 1.1c-.3.2-.8.1-1-.3-.2-.3-.1-.8.3-1l2-1.1c.4-.2.8-.1 1 .3zM30.9 43.7c-.4-.3-.9-.2-1.2.2l1.4 1c.2-.4.2-.9-.2-1.2zM31.7 45.9c-.2.3-.6.4-1 .2l-2-1.2c-.3-.2-.4-.6-.2-1 .2-.3.6-.4 1-.2l2 1.2c.3.2.4.6.2 1z"/><path fill="#6EA5BA" d="M7.7 43.9l-2.9 1.6c-2.6 1.4-3.5 4.7-2.1 7.3 0 0 2.3-.8 6.3-2.9 4-2.2 6-3.8 6-3.8-1.4-2.7-4.7-3.6-7.3-2.2z"/><path fill="#3F6D77" d="M7.7 43.9l-.6.3c2-.3 2.7 2 2.1 3.3-.8 1.7-4.3 3.7-6.9 4.3.1.3.2.6.4 1 0 0 2.3-.8 6.3-2.9 4-2.2 6-3.8 6-3.8-1.4-2.7-4.7-3.6-7.3-2.2z" opacity=".4"/><path fill="#fff" d="M7.1 45.4c-1.1-.4-2.6.8-3.4 1.8-.6.8-1.1 2.4.4 2.2 1-.2 2-1.1 2.7-1.8.4-.4 1.5-1.8.3-2.2z" opacity=".5"/><path fill="#6EA5BA" d="M31.4 45.3l-2.9-1.6c-2.6-1.4-5.8-.4-7.2 2.2 0 0 1.9 1.5 5.9 3.7s6.4 3 6.4 3c1.4-2.7.4-5.9-2.2-7.3z"/><path fill="#3F6D77" d="M31.4 45.2l-.6-.3c1.3 1.5-.2 3.3-1.6 3.5-1.9.3-5.4-1.6-7.3-3.5-.2.3-.4.6-.6.9 0 0 1.9 1.5 5.9 3.7s6.4 3 6.4 3c1.4-2.6.4-5.9-2.2-7.3z" opacity=".4"/><path fill="#fff" d="M29.8 45.6c-.3-1.1-2.1-1.8-3.4-1.9-1-.1-2.6.4-1.6 1.5.7.8 2 1.1 3 1.3.5.1 2.3.2 2-.9z" opacity=".5"/><ellipse cx="70.2" cy="52.1" fill="#BBD812" rx="28.8" ry="10.6"/><path fill="#F19B36" d="M81.6 51.8c-.1 0-.1-.1-.2-.1.4-1.1 0-2.3-1-2.8s-2.1-.1-2.8.9c-.7-.1-1.4.3-1.6.9-.3.6-.1 1.3.4 1.8-.2.9.3 1.9 1.3 2.4.9.4 1.8.3 2.4-.2 0 0 .1.1.2.1.8.4 1.7 0 2-.8.3-.9 0-1.8-.7-2.2z"/><path fill="#F9C739" d="M81 51.8c-.1 0-.1-.1-.2-.1.4-.9 0-1.9-.9-2.3-.8-.4-1.8-.1-2.3.7-.6-.1-1.1.2-1.4.7-.2.5-.1 1.1.3 1.5-.2.8.3 1.6 1.1 2 .7.3 1.5.2 2-.2 0 0 .1.1.1.1.6.3 1.4 0 1.7-.7.5-.6.2-1.4-.4-1.7z"/><path fill="#FFECC2" d="M76.8 52.2c-.1 1 .1 1.8 1.1 2 .7.1 1 .1 1.4-.4-.9.2-1.9-.8-2.5-1.6z" opacity=".5"/><path fill="#FFECC2" d="M77.7 50.2c1.3-.2 1.6 1.4 1.6 2.4.8 0 1.3-1 1.2-1.7-.2-.9-.8-1.4-1.6-1.3-.3 0-1.2.6-1.2.6z"/><path fill="#FFFFFE" d="M72.3 59.4c0 3.5-3 6.2-6.6 6.2-3.7 0-6.6-2.8-6.6-6.2 0-3.5 3-6.2 6.6-6.2 3.7 0 6.6 2.8 6.6 6.2z"/><ellipse cx="56.4" cy="59.2" fill="#FFFFFE" rx="6.6" ry="6.2"/><path fill="#FFFFFE" d="M87.4 58.8c0 3.5-3 6.2-6.6 6.2-3.7 0-6.6-2.8-6.6-6.2 0-3.5 3-6.2 6.6-6.2 3.6 0 6.6 2.7 6.6 6.2zM78 58.6c0 3.5-3 6.2-6.6 6.2-3.7 0-6.6-2.8-6.6-6.2s3-6.2 6.6-6.2c3.6-.1 6.6 2.7 6.6 6.2zM79.7 52.7c0 3.5-3 6.2-6.6 6.2-3.7 0-6.6-2.8-6.6-6.2 0-3.5 3-6.2 6.6-6.2 3.6-.1 6.6 2.7 6.6 6.2z"/><ellipse cx="63.7" cy="52.4" fill="#FFFFFE" rx="6.6" ry="6.2"/><path fill="#FFFFFE" d="M75.4 47.3c0 2.6-2.2 4.7-4.9 4.7s-4.9-2.1-4.9-4.7 2.2-4.7 4.9-4.7 4.9 2.1 4.9 4.7zM58.9 51.7c0 2.1-1.8 3.7-3.9 3.7-2.2 0-3.9-1.7-3.9-3.7 0-2.1 1.8-3.7 3.9-3.7 2.2-.1 3.9 1.6 3.9 3.7zM54.4 55.1c0 2.6-2.3 4.8-5.1 4.8s-5.1-2.1-5.1-4.8c0-2.6 2.3-4.8 5.1-4.8s5.1 2.1 5.1 4.8zM85.7 53.6c0 2.1-1.8 3.7-3.9 3.7-2.2 0-3.9-1.7-3.9-3.7 0-2.1 1.8-3.7 3.9-3.7 2.1 0 3.9 1.7 3.9 3.7zM97 55.7c0 3.7-3.8 6.7-8.4 6.7-4.7 0-8.4-3-8.4-6.7S84 49 88.6 49c4.6 0 8.4 3 8.4 6.7zM82.2 48.4c0 1.3-1.1 2.4-2.5 2.4s-2.5-1.1-2.5-2.4c0-1.3 1.1-2.4 2.5-2.4s2.5 1.1 2.5 2.4zM78.4 45.9c0 1.2-1.1 2.2-2.4 2.2-1.3 0-2.4-1-2.4-2.2 0-1.2 1.1-2.2 2.4-2.2 1.4 0 2.4 1 2.4 2.2zM59 48.9c0 1.7-1.5 3.1-3.3 3.1-1.8 0-3.3-1.4-3.3-3.1 0-1.7 1.5-3.1 3.3-3.1 1.8 0 3.3 1.4 3.3 3.1zM63.9 46.8c0 1.5-1.3 2.7-2.8 2.7-1.6 0-2.8-1.2-2.8-2.7 0-1.5 1.3-2.7 2.8-2.7 1.5 0 2.8 1.2 2.8 2.7zM53.5 49.6c0 .7-.6 1.3-1.4 1.3-.8 0-1.4-.6-1.4-1.3 0-.7.6-1.3 1.4-1.3.7 0 1.4.6 1.4 1.3zM67.2 44.5c0 .9-.8 1.6-1.7 1.6-.9 0-1.7-.7-1.7-1.6 0-.9.8-1.6 1.7-1.6.9 0 1.7.7 1.7 1.6zM89.9 50.7c0 1.2-1.1 2.2-2.4 2.2-1.3 0-2.4-1-2.4-2.2 0-1.2 1.1-2.2 2.4-2.2 1.3 0 2.4 1 2.4 2.2zM85.8 49.6c0 1-.8 1.8-1.9 1.8-1 0-1.9-.8-1.9-1.8s.8-1.8 1.9-1.8c1.1 0 1.9.8 1.9 1.8zM84.9 47.3c0 .9-.8 1.6-1.7 1.6-1 0-1.7-.7-1.7-1.6 0-.9.8-1.6 1.7-1.6.9-.1 1.7.6 1.7 1.6zM92.4 50.2c0 .9-.8 1.6-1.7 1.6s-1.7-.7-1.7-1.6c0-.9.8-1.6 1.7-1.6s1.7.7 1.7 1.6z"/><path fill="#E4E3F3" d="M58.2 49.3s.1.1.1.1c-.1-.4-.4-.8-.8-1.1-.8-.4-1.8-.2-2.3.6-.4.7-.2 1.6.5 2.1-.1-.4 0-.8.2-1.1.5-.7 1.5-1 2.3-.6zM76.2 47.7c.2-.1.3-.4.3-.7 0-.5-.5-.9-1.1-.9-.5 0-1 .5-1 1 .2-.2.4-.3.7-.3.5-.1 1 .3 1.1.9zM70.2 51s0 .1.1.1c.2-.3.2-.7 0-1.1-.3-.6-1.1-.9-1.8-.6-.6.3-.9 1-.7 1.6.1-.3.4-.5.7-.6.6-.3 1.4-.1 1.7.6zM87.6 53s0 .1 0 .1c.2-.3.3-.7.3-1-.1-.7-.8-1.1-1.6-1-.7.1-1.2.7-1.1 1.4.2-.2.5-.4.8-.5.8-.2 1.5.3 1.6 1zM68 46s.1 0 0 0c.1-.2 0-.5-.2-.7-.4-.4-1-.4-1.5-.1-.4.3-.5.9-.1 1.3 0-.2.1-.4.3-.6.5-.3 1.1-.3 1.5.1zM62.6 52.9s0 .1 0 0c.1-.2 0-.5-.2-.7-.4-.4-1-.4-1.5-.1-.4.3-.5.9-.1 1.3 0-.2.1-.4.3-.6.4-.3 1.1-.3 1.5.1zM74.1 57.6s0 .1 0 0c.2-.1.2-.4.1-.7-.2-.5-.8-.8-1.3-.6-.5.2-.8.7-.6 1.2.1-.2.3-.4.5-.4.5-.3 1.1 0 1.3.5zM52.1 51.9c.1.2 0 .5-.3.6-.3.2-.6.1-.7-.1-.1-.2 0-.5.3-.6.2-.2.6-.1.7.1zM61.3 49.1c-.1.2-.4.3-.7.3-.3-.1-.5-.3-.4-.5.1-.2.4-.3.7-.3.3 0 .5.3.4.5zM67.6 52c-.1.2-.4.3-.7.3-.3-.1-.5-.3-.4-.5.1-.2.4-.3.7-.3.2.1.4.3.4.5zM73.6 47.8c.1.2 0 .5-.3.6-.3.2-.6.1-.7-.1-.1-.2 0-.5.3-.6.2-.1.6 0 .7.1zM81.6 52.8c.1.2 0 .5-.3.6-.3.2-.6.1-.7-.1-.1-.2 0-.5.3-.6.3-.1.6-.1.7.1zM84.5 49c-.1.2-.4.3-.7.3-.3-.1-.5-.3-.4-.5.1-.2.4-.3.7-.3.3.1.5.3.4.5zM90.4 53.7c-.1.2-.4.3-.7.3-.3-.1-.5-.3-.4-.5.1-.2.4-.3.7-.3.3.1.5.3.4.5z"/><path fill="#FFFFFE" d="M78.9 48.9c0 .9-.8 1.6-1.7 1.6-.9 0-1.7-.7-1.7-1.6 0-.9.8-1.6 1.7-1.6.9 0 1.7.7 1.7 1.6zM59.2 55.6c0 2.2-1.9 3.9-4.1 3.9-2.3 0-4.1-1.7-4.1-3.9s1.9-3.9 4.1-3.9c2.2 0 4.1 1.7 4.1 3.9z"/><path fill="#F19B36" d="M66.7 53.7c-.1 0-.1-.1-.2-.1.4-1.1 0-2.3-1-2.8s-2.1-.1-2.8.9c-.7-.1-1.4.3-1.6.9-.3.6-.1 1.3.4 1.8-.2.9.3 1.9 1.3 2.4.9.4 1.8.3 2.4-.2 0 0 .1.1.2.1.8.4 1.7 0 2-.8.3-.9 0-1.9-.7-2.2z"/><path fill="#F9C739" d="M66.1 53.6c-.1 0-.1 0-.2-.1.4-.9 0-1.9-.9-2.3-.8-.4-1.8-.1-2.3.7-.6-.1-1.1.2-1.4.7-.2.5-.1 1.1.3 1.5-.2.8.3 1.6 1.1 2 .7.3 1.5.2 2-.2 0 0 .1.1.1.1.6.3 1.4 0 1.7-.7.5-.6.2-1.4-.4-1.7z"/><path fill="#FFECC2" d="M62 54.1c-.1 1 .1 1.8 1.1 2 .7.1 1 .1 1.4-.4-1 .1-2-.9-2.5-1.6z" opacity=".5"/><path fill="#FFECC2" d="M62.9 52c1.3-.2 1.6 1.4 1.6 2.4.8 0 1.3-1 1.2-1.7-.2-.9-.8-1.4-1.6-1.3-.4.1-1.2.6-1.2.6z"/><path fill="#F19B36" d="M81 62c-.1 0-.1-.1-.2-.1.4-1.1 0-2.3-1-2.8s-2.1-.1-2.8.9c-.7-.1-1.4.3-1.6.9-.3.6-.1 1.3.4 1.8-.3.8.2 1.8 1.2 2.3.9.4 1.8.3 2.4-.2 0 0 .1.1.2.1.8.4 1.7 0 2-.8.4-.8.1-1.8-.6-2.1z"/><path fill="#F9C739" d="M80.4 61.9c-.1 0-.1-.1-.2-.1.4-.9 0-1.9-.9-2.3-.8-.4-1.8-.1-2.3.7-.6-.1-1.1.2-1.4.7-.2.5-.1 1.1.3 1.5-.2.8.3 1.6 1.1 2 .7.3 1.5.2 2-.2 0 0 .1.1.1.1.6.3 1.4 0 1.7-.7.5-.6.2-1.4-.4-1.7z"/><path fill="#FFECC2" d="M76.3 62.4c-.1 1 .1 1.8 1.1 2 .7.1 1 .1 1.4-.4-1 .1-2-.9-2.5-1.6z" opacity=".5"/><path fill="#FFECC2" d="M77.1 60.3c1.3-.2 1.6 1.4 1.6 2.4.8 0 1.3-1 1.2-1.7-.2-.9-.8-1.4-1.6-1.3-.3 0-1.2.6-1.2.6z"/><path fill="#F19B36" d="M53.9 58c-.1 0-.1-.1-.2-.1.4-1.1 0-2.3-1-2.8s-2.1-.1-2.8.9c-.7-.1-1.4.3-1.6.9-.3.6-.1 1.3.4 1.8-.2.9.3 1.9 1.3 2.4.9.4 1.8.3 2.4-.2 0 0 .1.1.2.1.8.4 1.7 0 2-.8.3-1 0-1.9-.7-2.2z"/><path fill="#F9C739" d="M53.3 57.9c-.1 0-.1-.1-.2-.1.4-.9 0-1.9-.9-2.3-.8-.4-1.8-.1-2.3.7-.6-.1-1.1.2-1.4.7-.2.5-.1 1.1.3 1.5-.2.8.3 1.6 1.1 2 .7.3 1.5.2 2-.2 0 0 .1.1.1.1.6.3 1.4 0 1.7-.7.5-.6.2-1.4-.4-1.7z"/><path fill="#FFECC2" d="M49.1 58.3c-.1 1 .1 1.8 1.1 2 .7.1 1 .1 1.4-.4-.9.2-1.9-.8-2.5-1.6z" opacity=".5"/><path fill="#FFECC2" d="M50 56.3c1.3-.2 1.6 1.4 1.6 2.4.8 0 1.3-1 1.2-1.7-.2-.9-.8-1.4-1.6-1.3-.3 0-1.2.6-1.2.6z"/><path fill="#F19B36" d="M75.7 45.7c-.1 0-.1-.1-.2-.1.4-.9 0-2-.9-2.4-.8-.4-1.8-.1-2.3.7-.6-.1-1.2.2-1.4.7-.2.5-.1 1.1.3 1.5-.2.8.3 1.6 1.1 2 .7.3 1.5.2 2.1-.2 0 0 .1.1.1.1.6.3 1.4 0 1.7-.7.4-.5.2-1.2-.5-1.6z"/><path fill="#F9C739" d="M75.2 45.7s-.1 0-.1-.1c.3-.8 0-1.6-.7-2-.7-.3-1.5-.1-2 .6-.5 0-1 .2-1.2.6-.2.4-.1.9.3 1.3-.2.6.2 1.4.9 1.7.6.3 1.3.2 1.7-.2 0 0 .1 0 .1.1.5.3 1.2 0 1.5-.6.3-.5.1-1.2-.5-1.4z"/><path fill="#FFECC2" d="M71.7 46.1c-.1.9.1 1.5.9 1.7.6.1.8.1 1.2-.3-.8.1-1.6-.8-2.1-1.4z" opacity=".5"/><path fill="#FFECC2" d="M72.5 44.3c1.1-.1 1.4 1.2 1.4 2 .7 0 1.1-.9 1-1.4-.1-.8-.7-1.2-1.4-1.1-.3.1-1 .5-1 .5z"/><path fill="#C8011E" d="M49.8 48.9c-.5.2-1.4.4-1.8 1.4-.3.9-.2 1.9 1.4 2.9 1.1.7 3.7 1.5 4.1 1.3.6-.2.5-.3.7-.4.2-.1.4-.3.6-.6.3-.5.4-2.7 0-3.9-.4-1.2-1.2-2.6-2.7-2.4-1 .1-1.4.7-1.6 1.1-.1.3-.5.6-.7.6z"/><path fill="#DD0020" d="M49.8 48.9c-.5.2-1.5.5-1.8 1.3-.3.8-.2 1.6 1.1 2.5 1 .8 1.8.9 2.5 1.1.9.2 1.1-.2 1.3-.2.2-.1.3-.3.5-.5.6-.7.8-2.4.3-3.8-.3-1-1-1.7-2.2-1.6-.9.1-.9.3-1.1.7-.1.2-.4.4-.6.5z"/><path fill="#F34533" d="M49.5 49.4c-.4.1-1.2.4-1.5 1.1-.3.6-.1 1.3.9 2 .8.6 1.5.7 2 .8.7.1.9-.1 1-.2.1 0 .3-.2.4-.4.5-.5.7-1.9.3-3-.3-.8-.8-1.4-1.7-1.3-.7.1-.7.3-.9.6-.1.1-.4.3-.5.4z"/><path fill="#F54B3E" d="M49.1 49.2c-1.2.5-1.8 2.5-.1 3.2.5.2 1.4.1 1.6-.5.2-.5-.3-1.1-.3-1.6s.2-1-.4-1.1c-.2 0-.7 0-.8 0z"/><path fill="#A30429" d="M50.2 48.4c.3-.1.8-.2 1.1-.3.4-.2.4-.6.7-.8-.6 0-1.4.4-1.7.9l-.1.2zM51.2 48.8c-.2.2-.4.4-.7.4-.3 0-.6-.2-.9-.1.4-.3.8-.4 1.3-.3h.3zM49.1 51.1c0-.2-.2-.3-.2-.5-.1-.2.1-.6.3-.8.3-.4.7-.8.7-.8-.7.1-2.2 1.3-1.2 2l.4.1z"/><path fill="#57842B" d="M48.2 47.3c.1.4.3 1 .7 1.3.5.4.8.4 1.2.3-.2-.5-.5-1-.9-1.2-.6-.4-1-.4-1-.4z"/><path fill="#89B53A" d="M49.8 48.9c-.4 0-1 .5-1.5.5-.4 0-.9-.2-1.3-.4.8-.4 1.5-.5 2.3-.1h.5z"/><path fill="#57842B" d="M50.9 47.3c-.1-.5-.4-.8-.8-1 0 .3-.1.6-.2.9-.1.5 0 1.1.3 1.4 0 .1.8-.7.7-1.3zM50.7 48.1c0-.5.3-1 .6-1.3.4-.4.6-.5 1-.2-.4.2-.6 1-1.1 1.3-.3.1-.5.2-.5.2z"/><path fill="#89B53A" d="M49.7 48.9c-.5-.1-1.6.5-1.7 1-.1.4.5 1.2 1.1 1.1-.3-.1-.5-.3-.5-.6-.1-.4.2-1 .6-1.3.2-.1.5-.2.5-.2z"/><path fill="#C2D214" d="M49.5 48.9c-.4 0-.4.3-1.1.3-.5 0-.7-.3-1.1-.3.3-.1.7-.3 1-.3.3 0 .5.1.9.1l.3.2z"/><path fill="#89B53A" d="M49.8 48.9s.3-.1.5 0 .8.1.9-.2c-.3-.1-.2-.3-.7-.3-.5 0-.7.5-.7.5z"/><path fill="#57842B" d="M49.1 51c-.1 0-.1 0-.2 0s-.1 0-.2 0-.2 0-.3-.1c-.1-.1-.2-.1-.3-.2-.1-.1-.1-.2-.2-.4 0-.1 0-.3 0-.4 0-.1 0-.1 0-.2 0 0 0 0 0-.1.1-.1.1-.2.2-.3.1-.1.2-.2.3-.2.1 0 .1-.1.2-.1 0 0 0 0 .1 0s.1 0 .2 0c0 0 .1 0 .1 0 .1 0 .2 0 .2 0 .1 0 .1 0 .2 0 0 0 .1 0 .1 0s0 .1-.1.1c0 0-.1.1-.1.2s-.1.1-.1.2c0 0 0 .1-.1.1 0 0 0 .1 0 .1s0 0 0 .1-.1.1-.1.2-.1.1-.1.2c0 0 0 0 0 .1 0 0 0 0 0 .1 0 0 0 .1-.1.1 0 0 0 .1-.1.1 0 0 0 .1 0 .1 0 .1 0 .2.1.3.3-.1.3 0 .3 0z"/><path fill="#C2D214" d="M48.3 49.6c-.5.2-.2.8.1 1 0-.1-.1-.1 0-.4 0-.3.2-.3.1-.5 0 0-.1-.1-.2-.1z"/><path fill="#57842B" d="M47 49c.1 0 .1 0 .1 0 .1 0 .2 0 .4 0 .1 0 .3 0 .4 0 .1 0 .1 0 .2 0 0 0 .1 0 .1 0s.1 0 .1 0c.1 0 .2 0 .2-.1.1 0 .2 0 .2-.1.1 0 .2 0 .2 0 .1 0 .2 0 .2 0 .1 0 .1 0 .2.1 0 0 .1 0 .1.1 0 0-.1 0-.1.1 0 0-.1.1-.1.1s-.1.1-.1.1-.1.1-.2.1c-.1.1-.1.1-.2.2s-.1.1-.2.1c0 0-.1 0-.1.1 0 0-.1 0-.1 0s-.1 0-.1 0c-.1 0-.1 0-.2 0s-.2-.1-.3-.1c-.2-.1-.3-.2-.4-.3-.1-.1-.2-.2-.2-.3 0 0 0-.1-.1-.1z"/><path fill="#89B53A" d="M48.3 47.3c.1.2.4.6.7.7.4.2.7.3 1 .7 0-.3-.4-.7-.5-.9-.4-.3-1.2-.5-1.2-.5zM50.2 48.5c-.2-.3-.3-.8-.2-1.1.1-.3.3-.7.3-.9.2.1.3.4.4.6 0 .3-.2.6-.3.8-.3.2-.2.6-.2.6zM50.7 48c.1-.2.3-.3.4-.4.1-.1.2-.3.3-.4.1-.3.4-.7.7-.8-.8 0-1.1.8-1.3 1.4l-.1.2z"/><path fill="#57842B" d="M51.2 48.7c0 .1 0 .1 0 0 0 .1 0 .2 0 .2s0 .1-.1.1c0 0-.1.1-.1.1s-.1 0-.1 0c-.1 0-.1 0-.2 0s-.1 0-.2 0-.1 0-.1-.1c0 0-.1 0-.1-.1 0 0-.1 0-.1-.1 0 0 0 0-.1-.1 0 0 0 0-.1 0 0 0-.1 0-.1 0s-.1 0-.1 0 0 0 0-.1c0 0 0-.1 0-.1s.1-.1.1-.1c.1 0 .1-.1.2-.1s.1 0 .2 0 .1 0 .2 0c0 0 .1 0 .1 0s.1 0 .1 0 .1 0 .1 0 .1 0 .1 0 .1 0 .1 0c.1.4.1.4.2.4z"/><path fill="#fff" d="M49.6 49.6c-.8.1-.9 1.5.1 1.4.4-.1.3-.4.2-.7 0-.2-.1-.7-.3-.7z" opacity=".3"/><path fill="#214507" d="M52.4 46.5s-.1.1-.1.1c0 .1-.1.2-.1.3 0 .1 0 .1-.1.2 0 .1 0 .1-.1.2 0 .1-.1.2-.1.2s0 .1-.1.1c0 0 0 0 0 .1 0 0 0 .1-.1.1 0 0 0 0-.1.1 0 0-.1.1-.1.1-.1.1-.2.1-.3.1-.1 0-.2 0-.2.1-.1 0-.1 0-.2 0s-.2.1-.3.1c0 0-.1 0-.1 0s0-.1 0-.1 0-.1 0-.2.1-.1.1-.2.1-.1.2-.2.1-.1.2-.2c.1 0 .1-.1.2-.1 0 0 0 0 .1-.1 0 0 0-.1.1-.1 0-.1.1-.1.2-.2s.1-.1.2-.2.1-.1.2-.1.1-.1.2-.1.1 0 .2-.1c0 .1 0 .1.1.1-.1 0 0 0 0 0z"/><path fill="#fff" d="M49.3 49.9c-.1 0-.2.3 0 .3.1 0 .1-.1.1-.1-.1 0-.1-.1-.1-.2z" opacity=".7"/><path fill="#FBB71B" d="M48.4 51.5c-.1.2.1.3.3.4 0-.2 0-.6-.3-.4zM49.9 52.1c0 .1.1.2.2.2-.1-.1-.1-.3-.2-.2zM52.2 49.5c.2 0 .2.2.2.3-.1-.1-.4-.2-.2-.3zM52.8 47.9c.2 0 .3.2.3.4-.1-.1-.5-.2-.3-.4zM51.8 48.3c.1 0 .2.1.2.1-.1.1-.3.1-.2-.1zM50.6 49.4c0 .1.1.2.2.2-.1 0-.1-.3-.2-.2zM50.7 50.5c0 .1.1.3.2.3 0-.1 0-.4-.2-.3zM51.9 50.7c.1.1.1.3.1.4-.1-.1-.3-.3-.1-.4zM53.7 50.3c.1 0 .1.2.1.3-.1-.1-.3-.2-.1-.3zM51.2 52.5c0 .1.2.2.3.1-.1 0-.2-.3-.3-.1zM53.5 52.1c.1.1.1.2 0 .3-.1-.1-.2-.3 0-.3z"/><path fill="#C8011E" d="M90.8 49.2c-.3-.5-.7-1.3-1.8-1.4-.9-.1-1.9.3-2.5 2.1-.4 1.3-.5 3.9-.2 4.3.4.5.4.4.5.5.1.2.3.3.7.4.6.1 2.8-.3 3.8-1s2.2-1.8 1.6-3.2c-.4-.9-1.1-1.2-1.5-1.3-.1.1-.4-.2-.6-.4z"/><path fill="#DD0020" d="M90.9 49.2c-.3-.4-.8-1.3-1.8-1.4-.8-.1-1.6.2-2.2 1.7-.5 1.2-.4 2-.4 2.7.1.9.4 1 .6 1.2.1.2.3.2.6.4.8.4 2.5.2 3.7-.6.8-.6 1.4-1.4 1-2.5-.3-.8-.6-.8-1-.9-.1-.1-.4-.4-.5-.6z"/><path fill="#F34533" d="M90.3 49c-.2-.3-.7-1-1.4-1.1-.7-.1-1.2.2-1.7 1.3-.4 1-.3 1.6-.3 2.2.1.7.4.8.4.9.1.1.3.2.5.3.7.3 2 .2 3-.5.7-.5 1.1-1.1.8-2-.2-.7-.4-.6-.8-.7-.2 0-.4-.2-.5-.4z"/><path fill="#F54B3E" d="M90.3 48.6c-.8-1-2.9-1.1-3.1.7-.1.5.3 1.3.9 1.4.5.1 1-.6 1.5-.7.4-.1 1.1-.1 1-.7-.1-.1-.2-.6-.3-.7z"/><path fill="#A30429" d="M91.4 49.5c.2.3.4.7.6 1 .3.3.6.3 1 .5-.1-.6-.8-1.2-1.3-1.4l-.3-.1zM91.3 50.5c-.3-.1-.5-.3-.6-.6-.1-.3.1-.6-.1-.9.4.3.6.7.6 1.2l.1.3zM88.6 49c.1-.1.3-.3.5-.4.2-.1.6 0 .8 0 .4.2 1 .5 1 .5-.3-.7-1.8-1.8-2.2-.6l-.1.5z"/><path fill="#57842B" d="M92 47.3c-.4.2-.9.5-1.1 1-.3.6-.2.9.1 1.3.5-.3.8-.7 1-1.2.1-.7 0-1.1 0-1.1z"/><path fill="#89B53A" d="M90.9 49.2c-.2-.4-.7-.9-.9-1.3-.2-.4 0-.9.1-1.4.6.6.9 1.4.7 2.2l.1.5z"/><path fill="#57842B" d="M92.7 49.9c.5-.2.6-.6.8-1-.3.1-.6 0-1 0-.6 0-1.1.3-1.3.7 0 0 1 .5 1.5.3zM91.9 49.8c.4-.1 1.1 0 1.4.3.5.3.6.4.5 1-.3-.4-1.1-.4-1.5-.7-.3-.4-.4-.6-.4-.6z"/><path fill="#89B53A" d="M90.8 49.1c0-.5-.9-1.4-1.4-1.4-.4 0-1.1.8-.8 1.3.1-.3.1-.5.4-.7.4-.2 1-.1 1.4.2.2.3.4.6.4.6z"/><path fill="#C2D214" d="M90.8 48.9c-.1-.4-.4-.3-.6-1-.1-.5.1-.8 0-1.1.2.3.4.6.5.9.1.3.1.5.1.9v.3z"/><path fill="#89B53A" d="M90.9 49.2s.2.2.2.5c0 .2.2.8.4.8 0-.3.3-.3.1-.8-.2-.4-.7-.5-.7-.5z"/><path fill="#57842B" d="M88.6 49.1c0-.1-.1-.1-.1-.2s0-.1 0-.2 0-.2 0-.3c0-.1.1-.2.2-.3.1-.1.2-.2.3-.3.1-.1.3-.1.4-.1.1 0 .1 0 .2 0s.1 0 .2 0 .2.1.4.1c.1.1.2.1.3.2 0 0 .1.1.1.1s0 0 0 .1c0 0 .1.1.1.1s0 .1 0 .1c0 .1 0 .2 0 .2 0 .1 0 .1 0 .2s0 .1 0 .1-.1 0-.1 0c-.1 0-.1 0-.2-.1-.1 0-.1 0-.2-.1 0 0-.1 0-.1 0s-.1 0-.1 0 0 0-.1 0c0 0-.1 0-.1 0-.1 0-.1 0-.2 0s-.1 0-.2 0c0 0-.1 0-.1 0s0 0-.1 0c0 0-.1 0-.1 0s-.1 0-.1 0-.1 0-.1 0c-.1 0-.2.1-.3.1.1.2.1.2 0 .3z"/><path fill="#C2D214" d="M89.8 48c-.3-.4-.9 0-.9.3.1-.1 0-.1.4-.2.3 0 .3.1.5 0 0 0 0-.1 0-.1z"/><path fill="#57842B" d="M90.1 46.6c0 .1.1.1.1.1 0 .1.1.2.1.4 0 .1 0 .3.1.4 0 .1 0 .1 0 .2 0 0 0 .1 0 .1s0 .1.1.1c0 .1.1.1.1.2s.1.1.1.2.1.2.1.2c0 .1 0 .2 0 .2 0 .1 0 .1 0 .2s0 .1 0 .1 0 0-.1-.1c0 0-.1 0-.1-.1 0 0-.1-.1-.2-.1s-.1-.1-.2-.1-.1-.1-.2-.1c-.1-.1-.1-.1-.2-.2 0 0-.1-.1-.1-.1s0 0-.1-.1c0 0 0-.1 0-.1 0-.1 0-.1 0-.2s0-.2 0-.3c0-.2.1-.4.2-.5.1-.1.2-.2.2-.3 0-.1 0-.1.1-.1-.1 0 0 0 0 0z"/><path fill="#89B53A" d="M92 47.3c-.2.2-.5.5-.5.9-.1.4-.1.8-.4 1.1.2-.1.6-.5.8-.8.1-.3.1-1.2.1-1.2zM91.3 49.5c.2-.2.7-.5 1-.5.3 0 .8.1 1 0 0 .2-.3.4-.5.5-.3.1-.6-.1-.9-.1-.2-.1-.6.1-.6.1zM91.9 49.8c.2 0 .3.2.5.3.2.1.3.1.5.2.3.1.8.2.9.5-.2-.7-1-.8-1.7-.9l-.2-.1z"/><path fill="#57842B" d="M91.4 50.5c-.1 0-.1 0 0 0-.1 0-.2 0-.2 0s-.1 0-.1 0-.1 0-.2-.1c0 0-.1-.1-.1-.1 0-.1-.1-.1-.1-.2s0-.1 0-.2 0-.1 0-.2c0 0 0-.1 0-.1s0-.1 0-.1 0 0 0-.1c0 0 0-.1 0-.1s0-.1 0-.1 0-.1 0-.1 0 0 .1 0c0 0 .1 0 .1 0s.1 0 .1.1c0 0 .1.1.1.2s.1.1.1.2 0 .1 0 .2 0 .1 0 .1 0 .1 0 .1 0 .1 0 .1 0 .1 0 .1 0 .1 0 .1 0 .1 0 .1c.2.1.2.1.2.1z"/><path fill="#fff" d="M90.1 49.1c-.3-.8-1.7-.4-1.3.5.2.4.5.1.8 0 .1 0 .6-.3.5-.5z" opacity=".3"/><path fill="#214507" d="M93.8 51.1c-.1 0-.1 0-.1 0-.1 0-.2 0-.3 0-.1 0-.1 0-.2 0s-.1 0-.2 0-.2 0-.3 0c0 0-.1 0-.1 0s0 0-.1 0c0 0-.1 0-.1 0s0 0-.1 0c0 0-.1-.1-.1-.1-.1-.1-.1-.2-.2-.2 0-.1-.1-.1-.1-.2s-.1-.1-.1-.2c-.1-.1-.1-.2-.2-.3 0 0 0-.1-.1-.1 0 0 .1 0 .1 0s.1 0 .2 0 .1 0 .2.1c.1 0 .1.1.2.1s.1.1.2.1.1.1.2.1c0 0 .1 0 .1 0s.1 0 .1 0c.1 0 .1.1.2.1s.1.1.2.1.1.1.2.1.1.1.1.1.1.1.1.1c.2.1.2.1.2.2z"/><path fill="#fff" d="M89.7 49c0-.1-.3-.2-.3 0 0 .1.1 0 .2 0 0 0 .1 0 .1 0z" opacity=".7"/><path fill="#FBB71B" d="M88 48.5c-.2 0-.3.2-.3.3.2 0 .5-.1.3-.3zM87.8 50.1c-.1 0-.1.2-.1.3 0-.1.2-.2.1-.3zM90.9 51.6c0 .2-.1.3-.3.3.1-.1.1-.4.3-.3zM92.6 51.9c.1.2-.1.3-.3.4.1-.2.1-.6.3-.4zM91.9 51c.1.1 0 .2-.1.3 0-.2-.1-.4.1-.3zM90.6 50.1c-.1 0-.2.1-.2.2.1 0 .3-.1.2-.2zM89.6 50.5c-.1 0-.3.2-.2.3 0-.1.3-.2.2-.3zM89.6 51.7c0 .2-.2.2-.4.2.2-.1.3-.4.4-.2zM90.5 53.3c0 .1-.2.2-.3.1.1 0 .2-.2.3-.1zM87.7 51.5c-.1.1-.1.2-.1.3.1-.1.3-.3.1-.3zM88.7 53.6c0 .1-.2.1-.3.1.1-.1.2-.3.3-.1z"/><path fill="#C8011E" d="M68.2 59.4c-.2-.4-.6-1-1.3-1.1-.7-.1-1.5.2-1.9 1.6-.3 1-.4 3-.2 3.3.3.4.3.3.4.4.1.1.3.3.5.3.4.1 2.1-.2 2.9-.7.8-.5 1.7-1.4 1.2-2.5-.3-.7-.8-.9-1.1-.9-.2-.1-.4-.3-.5-.4z"/><path fill="#DD0020" d="M68.2 59.4c-.2-.3-.6-1-1.3-1.1-.6-.1-1.2.2-1.6 1.3-.4.9-.3 1.5-.3 2.1.1.7.3.8.4.9.1.1.3.2.5.3.6.3 1.9.1 2.8-.5.6-.4 1-1.1.7-1.9-.2-.6-.4-.6-.7-.7-.2-.1-.4-.3-.5-.4z"/><path fill="#F34533" d="M67.8 59.2c-.2-.3-.5-.8-1.1-.9-.5-.1-.9.1-1.3 1-.3.7-.3 1.2-.2 1.6 0 .5.3.6.3.7s.2.1.4.2c.5.3 1.5.1 2.2-.4.5-.3.8-.9.6-1.5-.2-.5-.3-.5-.6-.6-.1.1-.2 0-.3-.1z"/><path fill="#F54B3E" d="M67.8 58.9c-.6-.8-2.2-.8-2.4.5 0 .4.2 1 .7 1.1.4.1.7-.4 1.1-.5.3-.1.8-.1.7-.5 0-.2 0-.5-.1-.6z"/><path fill="#A30429" d="M68.6 59.6c.2.2.3.5.5.7.2.2.5.2.7.4-.1-.4-.6-.9-1-1.1h-.2zM68.6 60.3c-.2-.1-.4-.2-.4-.5 0-.2 0-.4-.1-.7.3.3.5.5.5.9v.3zM66.5 59.2c.1-.1.2-.2.4-.3.2-.1.5 0 .6 0 .3.1.7.4.7.4-.2-.5-1.3-1.3-1.7-.5v.4z"/><path fill="#57842B" d="M69.1 57.9c-.3.1-.7.4-.8.7-.2.4-.1.7.1.9.4-.3.6-.5.7-.9.1-.4 0-.7 0-.7z"/><path fill="#89B53A" d="M68.2 59.3c-.1-.3-.5-.7-.7-1-.1-.3 0-.7.1-1 .4.5.7 1 .5 1.7l.1.3z"/><path fill="#57842B" d="M69.6 59.8c.4-.2.5-.4.6-.8-.2 0-.5 0-.7 0-.4 0-.8.2-1 .5-.1.1.7.5 1.1.3zM69 59.8c.3-.1.8 0 1.1.2.4.2.5.3.4.7-.2-.3-.9-.3-1.1-.6-.3-.2-.4-.3-.4-.3z"/><path fill="#89B53A" d="M68.2 59.3c0-.4-.7-1.1-1.1-1.1-.3 0-.8.6-.6 1 .1-.2.1-.4.3-.5.3-.1.8 0 1 .2.2.1.4.4.4.4z"/><path fill="#C2D214" d="M68.2 59.1c-.1-.3-.3-.3-.4-.7-.1-.4.1-.6 0-.9.1.2.3.4.4.7.1.2 0 .4.1.7l-.1.2z"/><path fill="#89B53A" d="M68.2 59.4s.2.2.1.4c0 .2.1.6.3.6 0-.2.2-.2.1-.6-.1-.4-.5-.4-.5-.4z"/><path fill="#57842B" d="M66.5 59.2c-.1-.1-.1-.1-.1-.1s0-.1-.1-.2c0-.1 0-.1 0-.2s.1-.2.1-.3c.1-.1.2-.2.3-.2.1-.1.2-.1.3-.1.1 0 .1 0 .2 0s.2.1.3.1c.1 0 .2.1.2.2 0 0 0 0 .1.1 0 0 0 0 .1.1 0 0 0 .1.1.1 0 0 0 .1 0 .1 0 .1 0 .1 0 .2s0 .1 0 .2c0 0 0 .1 0 .1s-.1 0-.1 0-.1 0-.1 0c-.1 0-.1 0-.2 0 0 0-.1 0-.1 0s0 0-.1 0c0 0 0 0-.1 0 0 0-.1 0-.1 0s-.1 0-.1 0 0 0-.1 0c0 0 0 0-.1 0 0 0-.1 0-.1 0s-.1 0-.1 0-.1 0-.1 0c0-.1 0-.1-.1-.1z"/><path fill="#C2D214" d="M67.4 58.4c-.2-.3-.7 0-.7.2.1 0 0-.1.3-.1.2 0 .2.1.4 0 0 0 0-.1 0-.1z"/><path fill="#57842B" d="M67.6 57.3c0 .1.1.1 0 0 .1.1.1.2.1.2s0 .1.1.2c0 .1.1.2.1.3 0 0 0 .1 0 .1s0 0 0 .1c0 0 .1.1.1.2s.1.1.1.2 0 .1.1.2c0 .1 0 .1 0 .2s0 .1 0 .2c0 0 0 .1 0 .1s0 0-.1 0c0 0-.1 0-.1 0s-.1 0-.1-.1c0 0-.1 0-.1-.1-.1 0-.1-.1-.2-.1s-.1-.1-.2-.1c0 0-.1-.1-.1-.1s0 0 0-.1v-.1c0-.1 0-.1 0-.2s0-.2 0-.3c0-.2.1-.3.2-.4 0 0 .1-.1.1-.1-.1-.1-.1-.2 0-.3-.1.1-.1.1 0 0 0 .1 0 0 0 0z"/><path fill="#89B53A" d="M69.1 57.9c-.1.1-.3.4-.4.7-.1.3-.1.6-.3.8.2-.1.5-.4.6-.6.1-.3.1-.9.1-.9zM68.6 59.5c.2-.2.5-.4.8-.4.2 0 .6.1.7 0 0 .2-.2.3-.4.4-.2.1-.5-.1-.7-.1-.1 0-.4.1-.4.1zM69 59.8c.1 0 .2.2.4.2.1.1.2.1.4.1s.6.1.7.4c-.1-.6-.8-.6-1.3-.7H69z"/><path fill="#57842B" d="M68.6 60.3s-.1 0 0 0c-.1 0-.1 0-.2 0 0 0-.1 0-.1 0s0 0-.1 0c0 0 0 0-.1 0 0 0 0-.1-.1-.1 0-.1 0-.2 0-.2 0-.1 0-.1 0-.2 0 0 0 0 0-.1 0 0 0 0 0-.1 0 0 0-.1 0-.1s0 0 0-.1c0 0 0-.1 0-.1s0-.1 0-.1 0 0 .1 0c0 0 .1 0 .1 0s.1 0 .1.1c0 0 0 0 .1.1 0 0 0 0 .1.1 0 0 .1.1.1.1s0 .1 0 .1 0 0 0 .1c0 0 0 0 0 .1 0 0 0 0 0 .1 0 0 0 .1 0 .1 0 .1 0 .1 0 .2z"/><path fill="#fff" d="M67.7 59.3c-.2-.6-1.3-.3-1 .4.1.3.4.1.6 0 .1-.1.4-.3.4-.4z" opacity=".3"/><path fill="#214507" d="M70.4 60.7s-.1 0-.1 0c-.1 0-.1 0-.2 0s-.2 0-.3 0c-.1 0-.1 0-.2 0 0 0-.1 0-.1 0s0 0-.1 0c0 0-.1 0-.1 0s0 0-.1 0c0 0-.1-.1-.1-.1-.1-.1-.1-.1-.1-.2-.1-.1-.1-.2-.1-.3 0-.1-.1-.2-.1-.2s0-.1 0-.1 0 0 .1 0 .2 0 .3 0c.1 0 .2.1.3.2 0 0 .1.1.1.1s0 0 .1 0c0 0 .1 0 .1 0 .1 0 .1.1.2.1.1.1.2.1.3.2 0 0 .1.1.1.1s.1.1.1.1c-.1 0-.1.1-.1.1z"/><path fill="#fff" d="M67.3 59.1c0-.1-.2-.1-.2 0s.1.1.2 0c0 .1 0 .1 0 0z" opacity=".7"/><path fill="#FBB71B" d="M66.1 58.8c-.1 0-.2.2-.2.3 0-.1.3-.1.2-.3zM65.9 60c-.1 0-.1.1-.1.2 0-.1.2-.2.1-.2zM68.2 61.2c0 .1-.1.2-.2.2.1-.1.1-.3.2-.2zM69.5 61.3c0 .1-.1.3-.2.3 0-.1 0-.4.2-.3zM69 60.6c0 .1 0 .2-.1.2 0 0 0-.2.1-.2zM68 60c-.1 0-.2.1-.1.2 0-.1.2-.1.1-.2zM67.2 60.3c-.1 0-.2.1-.2.2.1-.1.3-.1.2-.2zM67.3 61.2c0 .1-.2.2-.3.1.1 0 .2-.2.3-.1zM67.9 62.4c0 .1-.1.1-.2.1.1 0 .1-.2.2-.1zM65.8 61.1c-.1 0-.1.2 0 .2 0-.1.2-.2 0-.2zM66.6 62.6c0 .1-.2.1-.2.1 0-.1.1-.2.2-.1z"/><path fill="#24203D" d="M73.7 53.8c-1.1.7-2.6.3-3.2-.8-.7-1.1-.3-2.6.8-3.2 1.1-.7 2.6-.3 3.2.8.7 1.1.4 2.6-.8 3.2z"/><path fill="#3F3962" d="M73.5 53.2c-1 .6-2.2.3-2.8-.7-.6-.9-.2-2.2.8-2.8 1-.6 2.2-.3 2.8.7.5 1 .2 2.2-.8 2.8z"/><path fill="#554F80" d="M73.4 52.3c-.7.5-1.7.3-2.2-.4-.5-.7-.3-1.7.4-2.2.7-.5 1.7-.3 2.2.4.5.7.3 1.7-.4 2.2z"/><path fill="#24203D" d="M73 53.2c.2 0 .4.2.4.4s-.2.4-.4.4-.4-.2-.4-.4c0-.3.2-.4.4-.4z"/><path fill="#3B0F14" d="M73.1 53.4c.1 0 .1.2.1.3-.1.1-.2.1-.2.1-.1 0-.1-.2-.1-.3 0-.1.2-.1.2-.1z"/><path fill="#fff" d="M72.5 50.4c-.2.1-.3.1-.4-.1-.1-.1 0-.3.1-.4.2-.1.3-.1.4.1.1.1 0 .3-.1.4zM71.8 50.7c-.1 0-.2 0-.2 0 0-.1 0-.2.1-.2s.2 0 .2 0 0 .1-.1.2z"/><path fill="#24203D" d="M88.1 61c-.9.5-2.1.2-2.6-.7-.5-.9-.2-2.1.7-2.6.9-.5 2.1-.2 2.6.7.5.9.2 2.1-.7 2.6z"/><path fill="#3F3962" d="M87.9 60.5c-.8.5-1.8.2-2.2-.5-.4-.8-.2-1.8.6-2.2.8-.5 1.8-.2 2.2.5.5.8.2 1.8-.6 2.2z"/><path fill="#554F80" d="M87.8 59.8c-.6.4-1.4.3-1.8-.3-.4-.6-.3-1.4.3-1.8.6-.4 1.4-.3 1.8.3.4.6.3 1.4-.3 1.8z"/><path fill="#24203D" d="M87.5 60.5c.2 0 .3.1.3.3 0 .2-.1.3-.3.3-.2 0-.3-.1-.3-.3 0-.2.1-.3.3-.3z"/><path fill="#3B0F14" d="M87.6 60.7c.1 0 .1.1 0 .2 0 .1-.1.1-.2.1s-.1-.1 0-.2.1-.1.2-.1z"/><path fill="#fff" d="M87.1 58.3c-.1.1-.3.1-.4-.1-.1-.1 0-.3.1-.3.1-.1.3-.1.4.1.1 0 0 .2-.1.3zM86.5 58.5c-.1 0-.1 0-.2 0 0-.1 0-.1 0-.2.1 0 .1 0 .2 0 .1.1.1.2 0 .2z"/><path fill="#24203D" d="M59.2 59.7c-.9.5-2.1.2-2.6-.7-.5-.9-.2-2.1.7-2.6.9-.5 2.1-.2 2.6.7.5.9.2 2.1-.7 2.6z"/><path fill="#3F3962" d="M59 59.2c-.8.5-1.8.2-2.2-.5-.4-.8-.2-1.8.6-2.2.8-.5 1.8-.2 2.2.5.5.7.2 1.7-.6 2.2z"/><path fill="#554F80" d="M58.9 58.5c-.6.4-1.4.3-1.8-.3-.4-.6-.3-1.4.3-1.8.6-.4 1.4-.3 1.8.3.4.6.3 1.4-.3 1.8z"/><path fill="#24203D" d="M58.6 59.2c.2 0 .3.1.3.3 0 .2-.1.3-.3.3-.2 0-.3-.1-.3-.3 0-.2.1-.3.3-.3z"/><path fill="#3B0F14" d="M58.7 59.4c.1 0 .1.1 0 .2 0 .1-.1.1-.2.1s-.1-.1 0-.2c0-.1.1-.2.2-.1z"/><path fill="#fff" d="M58.2 56.9c-.1.1-.3.1-.4-.1-.1-.1 0-.3.1-.3.1-.1.3-.1.4.1 0 .1 0 .2-.1.3zM57.6 57.2c-.1 0-.1 0-.2 0 0-.1 0-.1 0-.2.1 0 .1 0 .2 0 .1.1.1.1 0 .2z"/><path fill="#24203D" d="M64.8 48.2c-.9.5-2.1.2-2.6-.7-.5-.9-.2-2.1.7-2.6.9-.5 2.1-.2 2.6.7.5.9.2 2.1-.7 2.6z"/><path fill="#3F3962" d="M64.6 47.7c-.8.5-1.8.2-2.2-.5-.5-.8-.2-1.8.6-2.2.8-.5 1.8-.2 2.2.5.5.7.2 1.7-.6 2.2z"/><path fill="#554F80" d="M64.5 47c-.6.4-1.4.3-1.8-.3-.4-.6-.3-1.4.3-1.8.6-.4 1.4-.3 1.8.3.4.6.3 1.4-.3 1.8z"/><path fill="#24203D" d="M64.2 47.7c.2 0 .3.1.3.3 0 .2-.1.3-.3.3-.2 0-.3-.1-.3-.3 0-.2.1-.3.3-.3z"/><path fill="#3B0F14" d="M64.3 47.9c.1 0 .1.1 0 .2 0 .1-.1.1-.2.1s-.1-.1 0-.2.2-.1.2-.1z"/><path fill="#fff" d="M63.8 45.4c-.1.1-.3.1-.4-.1-.1-.1 0-.3.1-.3.1-.1.3-.1.4.1.1.1 0 .3-.1.3zM63.3 45.7c-.1 0-.1 0-.2 0 0-.1 0-.1 0-.2.1 0 .1 0 .2 0 0 .1 0 .1 0 .2z"/><path fill="#24203D" d="M79.4 48.1c-.9.5-2.1.2-2.6-.7-.5-.9-.2-2.1.7-2.6.9-.5 2.1-.2 2.6.7.5.9.2 2.1-.7 2.6z"/><path fill="#3F3962" d="M79.3 47.6c-.8.5-1.8.2-2.2-.5-.5-.8-.2-1.8.6-2.2.8-.5 1.8-.2 2.2.5.4.8.1 1.8-.6 2.2z"/><path fill="#554F80" d="M79.1 46.9c-.6.4-1.4.3-1.8-.3-.4-.6-.3-1.4.3-1.8.6-.4 1.4-.3 1.8.3.5.6.3 1.4-.3 1.8z"/><path fill="#24203D" d="M78.8 47.6c.2 0 .3.1.3.3 0 .2-.1.3-.3.3-.2 0-.3-.1-.3-.3 0-.2.1-.3.3-.3z"/><path fill="#3B0F14" d="M78.9 47.8c.1 0 .1.1 0 .2 0 .1-.1.1-.2.1s-.1-.1 0-.2.2-.1.2-.1z"/><path fill="#fff" d="M78.4 45.4c-.1.1-.3.1-.4-.1 0-.1 0-.3.2-.3.1-.1.3-.1.4.1 0 0-.1.2-.2.3zM77.9 45.6c-.1 0-.1 0-.2 0 0-.1 0-.1 0-.2.1 0 .1 0 .2 0 .1.1 0 .2 0 .2z"/><path fill="#E3ED83" d="M69.7 64c-7.8 0-15.2-1.1-20.8-3.2-5.9-2.2-9.1-5.2-9.1-8.6s3.2-6.4 9.1-8.6c5.6-2.1 12.9-3.2 20.8-3.2 7.8 0 15.2 1.1 20.8 3.2 5.9 2.2 9.1 5.2 9.1 8.6s-3.2 6.4-9.1 8.6C84.9 62.9 77.6 64 69.7 64zm0-21.4c-7.6 0-14.7 1.1-20 3.1-4.9 1.8-7.8 4.2-7.8 6.6 0 2.3 2.8 4.7 7.8 6.6 5.3 2 12.4 3.1 20 3.1s14.7-1.1 20-3.1c4.9-1.8 7.8-4.2 7.8-6.6 0-2.3-2.8-4.7-7.8-6.6-5.3-2-12.4-3.1-20-3.1z"/><path fill="#BBD812" d="M69.4 63c-25.8.3-28.8-11-28.8-10.8 0 .6-.1 4.6-.1 5.2 0 11.2 6.1 21.9 15 27 1.5 1.8 7.1 3.1 13.8 3.1 6.7 0 12.4-1.3 13.8-3.1 8.9-5.1 15-15.8 15-27 0-.6 0-4.6-.1-5.2.3-.1-.2 10.6-28.6 10.8z"/><path fill="#A2CA01" d="M90 61.5c-1.9 7.4-6.4 14.3-11.6 17.8-3.1 2-6.1 3.8-11.9 3.8-5.7 0-10.2-1.4-15.4-5.2-8.8-6.3-10.2-20.8-10.2-20.2 0 11.2 6.1 21.9 15 27 1.5 1.8 7.1 3.1 13.8 3.1 6.7 0 12.4-1.3 13.8-3.1 8.9-5.1 14.7-17 14.9-30.4L90 61.5z"/><path fill="#D1E233" d="M59.8 65.7c-6.7-1.1-8.4-4.2-12-3-3 1-.8 9.7 5.1 14.3 4.7 2.6 9 3.8 14.5 2.6 9.8-2.1 12.4-9 10.1-11.8-2.3-2.7-9.4-.8-17.7-2.1z"/><path fill="#E3ED83" d="M69.7 64.1c-7.8 0-15.2-1.2-20.8-3.4-5.9-2.3-9.1-5.6-9.1-9.1H42c0 2.6 2.8 5.2 7.8 7.1 5.3 2.1 12.4 3.3 20 3.3s14.7-1.2 20-3.3c4.9-2 7.8-4.6 7.8-7.1h2.1c0 3.5-3.2 6.8-9.1 9.1-5.6 2.2-13 3.4-20.9 3.4z"/><path fill="#3C5601" d="M93.1 34.9c1-2.3 1.4-3.5.2-4.2-1.3-.7-2.1.3-3.5 2.4-2.5 3.7-7.8 16.7-7.8 16.7l1.1.6c-.1 0 8.2-11.4 10-15.5z"/><path fill="#A3C701" d="M92.8 34.7c1-2.3 1.4-3.5.2-4.2-1.3-.7-2.1.3-3.5 2.3-2.5 3.7-7.8 16.7-7.8 16.7l1.1.6c-.1.1 8.2-11.3 10-15.4z"/><path fill="#E3ED83" d="M87.9 36.8c.7-1.3 1.3-2.8 2.1-4 .4-.6 2.1-3.1 3-1.5-1.5-1.4-5.1 5.5-5.1 5.5z"/><path fill="#24203D" d="M54.1 85c-.9.5-2.1.2-2.6-.7-.5-.9-.2-2.1.7-2.6.9-.5 2.1-.2 2.6.7.5.9.2 2.1-.7 2.6z"/><path fill="#3F3962" d="M53.9 84.5c-.8.5-1.8.2-2.2-.5-.4-.8-.2-1.8.6-2.2.8-.5 1.8-.2 2.2.5.5.7.2 1.7-.6 2.2z"/><path fill="#554F80" d="M53.8 83.8c-.6.4-1.4.3-1.8-.3-.4-.6-.3-1.4.3-1.8.6-.4 1.4-.3 1.8.3s.3 1.4-.3 1.8z"/><path fill="#24203D" d="M53.5 84.5c.2 0 .3.1.3.3 0 .2-.1.3-.3.3-.2 0-.3-.1-.3-.3 0-.2.1-.3.3-.3z"/><path fill="#3B0F14" d="M53.6 84.7c.1 0 .1.1 0 .2 0 .1-.1.1-.2.1s-.1-.1 0-.2.2-.1.2-.1z"/><path fill="#fff" d="M53.1 82.2c-.1.1-.3.1-.4-.1-.1-.1 0-.3.1-.3.1-.1.3-.1.4.1.1.1 0 .2-.1.3zM52.6 82.5c-.1 0-.1 0-.2 0 0-.1 0-.1 0-.2.1 0 .1 0 .2 0 0 .1 0 .1 0 .2z"/><path fill="#24203D" d="M45.8 87.1c-1.5.9-3.5.4-4.4-1.1-.9-1.5-.4-3.5 1.1-4.4 1.5-.9 3.5-.4 4.4 1.1 1 1.5.4 3.5-1.1 4.4z"/><path fill="#3F3962" d="M45.5 86.2c-1.3.8-3 .4-3.8-.9-.8-1.3-.3-3 1-3.8 1.3-.8 3-.4 3.8.9.8 1.3.3 3-1 3.8z"/><path fill="#554F80" d="M45.3 85c-1 .7-2.3.5-3-.5-.7-1-.4-2.3.5-3 1-.7 2.3-.5 3 .5.7.9.5 2.3-.5 3z"/><path fill="#24203D" d="M44.8 86.2c.3 0 .6.2.6.5s-.2.5-.5.5-.6-.2-.6-.5c-.1-.3.2-.5.5-.5z"/><path fill="#3B0F14" d="M45 86.5c.1.1.1.2.1.4-.1.1-.3.2-.4.1-.1-.1-.1-.2-.1-.4.1-.1.3-.1.4-.1z"/><path fill="#fff" d="M44.1 82.3c-.2.1-.5.1-.6-.1-.1-.2-.1-.5.2-.6.2-.1.5-.1.6.1.1.2 0 .5-.2.6zM43.1 82.8c-.1.1-.2 0-.3 0-.1-.1 0-.2.1-.3.1-.1.2 0 .3.1.1 0 0 .1-.1.2z"/><path fill="#B55B01" d="M28 82.7c-.9 1.1-2.2.9-1.3 2.5.6 1.1 2 2.8 3.2 3.1 2.8.7 4.1 1.5 9.6 2 5.6.5 10.5-.1 15.9-1.5s6-2.5 6-3.4c-.1-2.4-6-3.3-8.1-3.9-5.1-1.6-12.1-3.4-17.3-1.5-1.8.7-8 2.7-8 2.7z"/><path fill="#DD8401" d="M29.9 80.7c-3.5 1.2-4.2 2.7-3.4 4.1.6 1 3.8 2.2 4.9 2.5 2.4.6 3.8 1 8.5 1.4 4.8.4 10.1.3 14.7-1 4.6-1.2 6.9-1.5 6.9-2.3-.1-2-2.4-3.6-6.4-4.7-4.4-1.3-7.1-2.3-14.1-1.8-2.7.1-6.8.3-11.1 1.8z"/><path fill="#F4CA81" d="M29.9 80.7c-.6.7-1.3 2.6 3.7 4.2 1.8.5 4.1 1.2 7.8 1.5 3.7.3 7.7.2 11.2-.7 3.5-.9 8.6-1.3 8.3-1.9-1.8-3.1-4.5-3.9-7.3-5-3.3-1.3-5.7-1.1-11.6-.9-2.8 0-7.1 1-12.1 2.8z" opacity=".5"/><path fill="#6A4331" d="M30.8 82c-.6.3-1.5 1.4-1.2 2.3.2.4 1.6 1.3 2 1.3 1.5-.1 2.2-2.7.3-3.3-.4-.2-.9-.4-1.1-.3z"/><path fill="#A67C64" d="M30.7 82.4c-.5.2-1.1 1-.9 1.6.1.3 1.1.9 1.4.9 1.1-.1 1.5-2 .2-2.4-.2 0-.5-.2-.7-.1z"/><path fill="#6A4331" d="M42.6 85.3c-.4.6-.5 2 .2 2.6.3.2 2.1.2 2.4 0 1.2-1 .3-3.5-1.6-2.9-.3 0-.9 0-1 .3z"/><path fill="#A67C64" d="M42.7 85.7c-.3.4-.4 1.4.2 1.8.2.2 1.5.2 1.7 0 .9-.7.2-2.5-1.1-2.1-.3.1-.7.1-.8.3z"/><path fill="#6A4331" d="M38.6 78.8c-.5-.3-1.4-.6-1.9-.3-.5.2-.5 1-.3 1.5.3.8.7.7 1.4.4.6-.2 1.3-.2 1.2-1 0 .1-.2-.5-.4-.6z"/><path fill="#A67C64" d="M38.3 78.7c-.4-.2-1.1-.5-1.6-.3-.4.2-.4.8-.2 1.2.2.7.6.5 1.2.4.5-.2 1.1-.2 1-.8 0 .1-.2-.4-.4-.5z"/><path fill="#6A4331" d="M43.8 79c-.4.7-.6 2.4.3 3 .4.3 2.4.3 2.8 0 1.4-1.1.4-4.1-1.9-3.4-.4.1-1 .1-1.2.4z"/><path fill="#A67C64" d="M43.9 79.4c-.3.5-.4 1.7.2 2.2.3.2 1.7.2 2 0 1-.8.3-2.9-1.3-2.4-.3 0-.7 0-.9.2z"/><path fill="#6A4331" d="M50.8 77.8c-.3.5-.4 1.5.2 1.9.3.2 1.5.2 1.8 0 .9-.7.2-2.6-1.2-2.2-.3.1-.7.2-.8.3z"/><path fill="#A67C64" d="M51.2 77.9c-.3.2-.7.9-.5 1.3.1.2.9.6 1.2.5.8-.2.9-1.6-.1-1.8-.2 0-.5-.1-.6 0z"/><path fill="#CD8E49" d="M23.7 77.7c-.9 1.1-2.2.9-1.3 2.5.6 1.1 2 2.8 3.2 3.1 2.8.7 4.1 1.5 9.6 2 5.6.5 10.5-.1 15.9-1.5s6-2.5 6-3.4c-.1-2.4-6-3.3-8.1-3.9-5.1-1.5-12.1-3.4-17.4-1.4-1.7.6-7.9 2.6-7.9 2.6z"/><path fill="#E2AC64" d="M26.5 73.8c-3.5 1.2-5.1 4.5-4.3 5.9.6 1 3.8 2.2 4.9 2.5 2.4.6 3.8 1 8.5 1.4 4.8.4 10.1.3 14.7-1 4.6-1.2 6.4-1.6 6.9-2.3 1.4-2-1.5-5.4-5.4-6.5-4.4-1.3-7.1-2.3-14.1-1.8-2.8.2-6.8.4-11.2 1.8z"/><path fill="#F4CA81" d="M25.5 75.7c-.6.7-1.3 2.6 3.7 4.2 1.8.5 4.7 3 8.3 3 8.1 0 7.1-2.7 10.7-3.2 5-.7 6.9.6 8-1.1 1-1.5-4.2-3.8-7-4.9-3.3-1.3-5.7-1.1-11.6-.9-2.7.1-7.1 1.2-12.1 2.9z"/><path fill="#6A4331" d="M26.5 77c-.6.3-1.5 1.4-1.2 2.3.2.4 1.6 1.3 2 1.3 1.5-.1 2.2-2.7.3-3.3-.4-.2-.9-.4-1.1-.3z"/><path fill="#A67C64" d="M26.3 77.4c-.5.2-1.1 1-.9 1.6.1.3 1.1.9 1.4.9 1.1-.1 1.5-2 .2-2.4-.1 0-.5-.2-.7-.1z"/><path fill="#6A4331" d="M47.6 77.7c-.6.1-1.7.7-2 1.3-.3.6.4 1.2 1 1.5.9.5 1.2 0 1.6-.8.4-.7 1-1.2.3-1.9 0 .1-.7-.2-.9-.1z"/><path fill="#A67C64" d="M47.8 77.5c-.5.1-1.4.5-1.6 1.1-.2.5.3 1 .8 1.2.7.4.9 0 1.3-.6.3-.6.8-1 .2-1.5 0 0-.5-.2-.7-.2z"/><path fill="#6A4331" d="M34.2 73.9c-.5-.3-1.4-.6-1.9-.3-.5.2-.5 1-.3 1.5.3.8.7.7 1.4.4.6-.2 1.3-.2 1.2-1 .1 0-.2-.5-.4-.6z"/><path fill="#A67C64" d="M34 73.8c-.4-.2-1.1-.5-1.6-.3-.4.2-.4.8-.2 1.2.2.7.6.5 1.2.4.5-.2 1.1-.2 1-.8 0 0-.3-.5-.4-.5z"/><path fill="#6A4331" d="M39.5 74c-.4.7-.6 2.4.3 3 .4.3 2.4.3 2.8 0 1.4-1.1.4-4.1-1.9-3.4-.4.1-1.1.1-1.2.4z"/><path fill="#A67C64" d="M39.6 74.5c-.3.5-.4 1.7.2 2.2.3.2 1.7.2 2 0 1-.8.3-2.9-1.3-2.4-.3-.1-.8 0-.9.2z"/><path fill="#6A4331" d="M46.4 72.9c-.3.5-.4 1.5.2 1.9.3.2 1.5.2 1.8 0 .9-.7.2-2.6-1.2-2.2-.3.1-.7.1-.8.3z"/><path fill="#A67C64" d="M46.8 72.9c-.3.2-.7.9-.5 1.3.1.2.9.6 1.2.5.8-.2.9-1.6-.1-1.8-.2 0-.5-.1-.6 0z"/><path fill="#CD8E49" d="M25.1 72.4c-.9 1.1-2.2.9-1.3 2.5.6 1.1 2 2.8 3.2 3.1 2.8.7 4.1 1.5 9.6 2 5.6.5 10.5-.1 15.9-1.5s6-2.5 6-3.4c-.1-2.4-6-3.3-8.1-3.9-5.1-1.5-12.1-3.4-17.4-1.4-1.7.7-7.9 2.6-7.9 2.6z"/><path fill="#E2AC64" d="M28 68.6c-3.5 1.2-5.1 4.5-4.3 5.9.6 1 3.8 2.2 4.9 2.5 2.4.6 3.8 1 8.5 1.4 4.8.4 10.1.3 14.7-1 4.6-1.2 6.4-1.6 6.9-2.3 1.4-2-1.5-5.4-5.4-6.5-4.4-1.3-7.1-2.3-14.1-1.8-2.9.1-6.9.3-11.2 1.8z"/><path fill="#F4CA81" d="M27 70.4c-.6.7-1.3 2.6 3.7 4.2 1.8.5 4.1 1.2 7.8 1.5 3.7.3 7.6-1.6 11.3-1.5 4.5.1 5 2.2 8-1.3 2-2.3-4.2-3.8-7-4.9-3.3-1.3-5.7-1.1-11.6-.9-2.9.1-7.2 1.2-12.2 2.9z"/><path fill="#6A4331" d="M27.9 71.7c-.6.3-1.5 1.4-1.2 2.3.2.4 1.6 1.3 2 1.3 1.5-.1 2.2-2.7.3-3.3-.4-.1-.9-.4-1.1-.3z"/><path fill="#A67C64" d="M27.8 72.1c-.5.2-1.1 1-.9 1.6.1.3 1.1.9 1.4.9 1.1-.1 1.5-2 .2-2.4-.2 0-.6-.2-.7-.1z"/><path fill="#6A4331" d="M49 72.4c-.6.1-1.7.7-2 1.3-.3.6.4 1.2 1 1.5.9.5 1.2 0 1.6-.8.4-.7 1-1.2.3-1.9 0 .1-.6-.1-.9-.1z"/><path fill="#A67C64" d="M49.2 72.3c-.5.1-1.4.5-1.6 1.1-.2.5.3 1 .8 1.2.7.4.9 0 1.3-.6.3-.6.8-1 .2-1.5.1-.1-.5-.3-.7-.2z"/><path fill="#6A4331" d="M35.7 68.6c-.5-.3-1.4-.6-1.9-.3-.5.2-.5 1-.3 1.5.3.8.7.7 1.4.4.6-.2 1.3-.2 1.2-1 0 0-.3-.5-.4-.6z"/><path fill="#A67C64" d="M35.4 68.5c-.4-.2-1.1-.5-1.6-.3-.4.2-.4.8-.2 1.2.2.7.6.5 1.2.4.5-.2 1.1-.2 1-.8 0 0-.2-.4-.4-.5z"/><path fill="#6A4331" d="M40.9 68.7c-.4.7-.6 2.4.3 3 .4.3 2.4.3 2.8 0 1.4-1.1.4-4.1-1.9-3.4-.4.1-1 .2-1.2.4z"/><path fill="#A67C64" d="M41 69.2c-.3.5-.4 1.7.2 2.2.3.2 1.7.2 2 0 1-.8.3-2.9-1.3-2.4-.3 0-.8 0-.9.2z"/><path fill="#6A4331" d="M47.8 67.6c-.3.5-.4 1.5.2 1.9.3.2 1.5.2 1.8 0 .9-.7.2-2.6-1.2-2.2-.3.1-.7.1-.8.3z"/><path fill="#A67C64" d="M48.2 67.6c-.3.2-.7.9-.5 1.3.1.2.9.6 1.2.5.8-.2.9-1.6-.1-1.8-.2.1-.4-.1-.6 0z"/><path fill="#6A4331" d="M38.4 73.1c-.9.2-2.4.9-2.8 1.8-.4.8.5 1.7 1.4 2.2 1.3.7 1.6 0 2.3-1.1.6-1 1.4-1.7.4-2.6-.1-.1-1-.4-1.3-.3z"/><path fill="#A67C64" d="M37.9 73.2c-.7.2-1.9.8-2.3 1.5-.3.7.4 1.4 1.2 1.8 1 .5 1.3 0 1.9-.9.5-.8 1.1-1.4.3-2.2 0 0-.8-.2-1.1-.2z"/></svg>