<svg xmlns="http://www.w3.org/2000/svg" viewBox="0 0 100 100" enable-background="new 0 0 100 100"><path fill="#7DB538" d="M6.5.1h70.8v85.2H6.5z"/><path fill="#fff" d="M75.8 83.2H8.3V1.7h67.5v81.5zm-67.1-.4h66.6V2.2H8.7v80.6zM42 54.2c-6.9 0-12.6-5.6-12.6-12.6.1-7 5.7-12.6 12.6-12.6 6.9 0 12.6 5.6 12.6 12.6 0 6.9-5.6 12.6-12.6 12.6zm0-24.7c-6.7 0-12.1 5.4-12.1 12.1 0 6.7 5.4 12.1 12.1 12.1s12.1-5.4 12.1-12.1c0-6.7-5.4-12.1-12.1-12.1zM8.5 41.9h67v.5h-67zM59.2 83.2H24.9V67.6h34.3v15.6zm-33.8-.4h33.4V68.1H25.4v14.7zM51.8 83.2H32.2v-9.1h19.6v9.1zm-19.1-.4h18.7v-8.1H32.7v8.1zM47.7 68.1H36.3v-.2c0-3.1 2.5-5.7 5.7-5.7s5.7 2.5 5.7 5.7v.2zm-10.9-.5h10.4c-.1-2.8-2.4-5-5.2-5-2.8 0-5.1 2.2-5.2 5zM59.2 17.3H24.9V1.7h34.3v15.6zm-33.8-.4h33.4V2.1H25.4v14.8zM51.8 10.7H32.2v-9h19.6v9zm-19.1-.4h18.7V2.1H32.7v8.2zM42 22.8c-3.1 0-5.7-2.5-5.7-5.7v-.2h11.4v.2c0 3.1-2.5 5.7-5.7 5.7zm-5.2-5.5c.1 2.8 2.4 5 5.2 5 2.8 0 5.1-2.2 5.2-5H36.8zM13.1 83.2H8.3v-4.8l4.8 4.8zm-4.4-.5H12l-3.3-3.3v3.3zM75.7 83.2h-4.8l4.8-4.8v4.8zm-3.8-.5h3.3v-3.3l-3.3 3.3zM8.3 6.5V1.7h4.8L8.3 6.5zm.5-4.3v3.3l3.3-3.3H8.8zM75.7 6.5l-4.8-4.8h4.8v4.8zM72 2.2l3.3 3.3V2.2H72z"/><path fill="#E8E1EF" d="M40.1 67.1c0 14.7 12 26.7 26.7 26.7s26.7-12 26.7-26.7-12-26.7-26.7-26.7c-14.8 0-26.7 12-26.7 26.7z"/><ellipse cx="66.2" cy="65.8" fill="#fff" transform="matrix(.385 -.923 .923 .385 -20.04 101.564)" rx="24.1" ry="24.1" opacity=".3"/><path fill="#43405A" d="M83.2 64.4s2.2 2.8 2.8 4.3c.6 1.5 1.4 4.6 1.4 4.6s-1.7 3.2-3.2 5c-1.4 1.6-4.1 3.8-4.1 3.8l-9-4.4 2.4-11.2 9.7-2.1zM60.2 81.4s-2.8-2.3-4.3-3.7c-1.5-1.4-4.1-4.2-4.1-4.2l-6.4 3s-.1 2.3.8 4.6c.8 2.1 2.1 4.2 2.1 4.2s2.4 1.6 4.5 2.3c2.1.7 5.8 1.1 5.8 1.1l1.6-7.3zM65.2 58.9l1.5-9.8s-3-1.2-5-1.7c-1.9-.4-5.1-.6-5.1-.6s-2.5 1.7-3.8 3.2c-1.3 1.5-3.4 4.7-3.4 4.7l5 7.6s4.2-1.7 5.8-2.2c1.7-.5 5-1.2 5-1.2zM90.3 54.6s-1.7-.7-2.9-.7-2.5.7-2.5.7-1.7-2.9-3.5-4.6c-2-1.9-5.4-3.2-5.4-3.2V42s6.4 2.6 9.2 5.7c2.8 3.2 5.1 6.9 5.1 6.9zM43.6 57.4s-.9 1.2-1.6 4c-.7 3-1.2 7.3-1.2 7.3h-.7s.1-4.3.6-7.5c.5-2.7 1.9-5.5 1.9-5.5l1 1.7zM82.4 88.8s-1.2.8-2.2.8c-1 0-1.8-.4-1.8-.4s-3.1 2-5.3 2.7c-2.2.6-6 .7-6 .7l.1 1.4s4.6-.1 8.7-1.6c3.3-1.3 6.5-3.6 6.5-3.6zM92.1 75.5v-2.2l1-1.8zM83.4 64.5l-.4-.1s1.7-4.2 1.7-9.7h.5c-.1 5.6-1.7 9.8-1.8 9.8zM73.4 66.7s-3.1-3.8-8.3-7.6l.3-.4c5.2 3.8 8.3 7.6 8.4 7.7l-.4.3zM66.9 49.3l-.3-.4c2.3-1.5 4.8-2.1 6.4-2.2 1.8-.2 3 0 3 0v.4s-4.8-.7-9.1 2.2zM52.1 73.6h-.5s0-4.9 2.6-11.3l.4.2c-2.5 6.2-2.5 11-2.5 11.1zM60.3 81.6l-.1-.5c.1 0 5.5-.8 10.9-3.6l.2.4c-5.5 2.9-11 3.7-11 3.7zM78.6 89.3l-.4-.2s1.7-3.5 1.7-6.9h.5c0 3.5-1.7 6.9-1.8 7.1zM89.6 73.9c-.7 0-1.5-.1-2.3-.4l.2-.4c2.3.8 4.5 0 4.6-.1l.2.4c-.2.1-1.3.5-2.7.5zM67.2 92.8c-.1 0-1.5-.1-3.3-.6-1.7-.5-4-1.4-5.4-3.3l.4-.3c2.7 3.4 8.4 3.7 8.4 3.7l-.1.5zM45.1 76.7c-.2-.2-4.5-5.6-4.5-7.9h.5c0 2.1 4.4 7.6 4.4 7.6l-.4.3zM43.8 57.6l-.3-.3c.1-.1 1.8-1.7 5.9-2.7l.1.4c-4 1-5.7 2.5-5.7 2.6zM56.4 42.4h.5v4.4h-.5zM47.65 85.83l.46-.65.42.3-.46.64z"/><path fill="#fff" d="M45.4 58.2c0 8.8 7.1 15.9 15.9 15.9S77.2 67 77.2 58.2s-7.1-15.9-15.9-15.9-15.9 7.1-15.9 15.9z" opacity=".3"/><path fill="#7C7091" d="M58 88.8c14.7 0 26.7-12 26.7-26.7 0-8-3.5-15.2-9.1-20.1C86 45.7 93.4 55.6 93.4 67.2c0 14.7-12 26.7-26.7 26.7-6.7 0-12.9-2.5-17.6-6.6 2.8 1 5.8 1.5 8.9 1.5z" opacity=".3"/><path fill="#9795B2" d="M81.6 65.9c-2.1.5-5 1.1-6.2 2.6-.8 1-2.5 5.6-3.1 8.7.7-2.9.8-8.9 2.8-10.1 1.2-.7 6.5-1.2 6.5-1.2zM55.8 78.8s-2.2-2.2-3.4-3.1c-1.9-1.3-2.8-.3-4.9.4 1.2 0 2.7-.2 3.9.2 1 .4 4.4 2.5 4.4 2.5zM62.4 48.6c-2.3-.6-5.7-1.4-7.4.3-1.7 1.8-2.5 4.3-4.2 5.9 1.4-1.3 3.7-4.6 5.1-5.6 1.7-1.1 6.5-.6 6.5-.6z"/><path fill="#43405A" d="M36.6 86.1l1.07-.9 10.7 12.68-1.07.9z"/><path fill="#7C7091" d="M33.62 82.5l.3-.25 10.7 12.7-.3.25zM43.2 90.5l-2.3 1.9 6.3 7.5c.2.1.8-.2 1.4-.7.6-.5.9-1 .9-1.2l-6.3-7.5zM43.1 90.5c.2.2-.2.7-.9 1.3-.6.5-1.2.8-1.4.6-.2-.2.2-.8.9-1.3s1.3-.8 1.4-.6z"/><path fill="#43405A" d="M42.5 91.4s4.5 5.3 4.9 6c.5 1 .3 1.7-.7 1.9l.5.6c.2.1.8-.2 1.4-.7.6-.5.9-1 .9-1.2l-6.3-7.5-.7.9z" opacity=".5"/><path fill="#FFBD33" d="M21.8 68.7l23.4-19.74 15.27 18.12-23.4 19.73z"/><path fill="#E5393B" d="M21.8 68.66l11.68-9.86 7.6 9.02-11.68 9.86zM41.2 67.82l11.7-9.87 7.6 9.02-11.7 9.87z"/><path fill="#fff" d="M21.83 68.64l1.07-.9 15.28 18.1-1.07.9z" opacity=".4"/></svg>