<svg xmlns="http://www.w3.org/2000/svg" viewBox="0 0 100 100" enable-background="new 0 0 100 100"><path fill="#64C8FF" fill-rule="evenodd" d="M89.6 87.2s-10.4 9.2-20.2 10.6c0 0-14.8 4.6-24-1.5 0 0-12.3-3.8-9.1-19.9 0 0-3.1-11.7-9.4-9.4 0 0-13.2-1.6-16.5-4.4 0 0-7.2-6.7-8.9-26.3 0 0 1-13.4 6.8-22.1 0 0 6.6-9.8 16.8-12.8 0 0 22.1-6.5 24.6 17.6 0 0-2.2 15.5 2.9 24.4 0 0 9.9 6.8 21 19.4 0 0 42.9-8.5 16 24.4z" opacity=".4" clip-rule="evenodd"/><path fill="#B9D12E" d="M61.3 43.1c-2.8 8 2 16.9 10.6 19.9s17.9-1 20.7-9c2.8-8-2-16.9-10.6-19.9-8.7-3-17.9 1-20.7 9z"/><path fill="#3E6B12" d="M90.2 40c-2.2-1.8-4.3.1-4.2 1.9.1 1.5 3.2 4 1.4 9-1.5 4.4-4.5 7.6-11.7 7.9-5.1.2-10.5-2.5-13.6-8.5-1.6-3.1-1.4-4.6-1.3-5.4-1.7 7.5 3 15.5 11.1 18.3 8.6 3 17.9-1 20.7-9 .6-1.8.9-3.6.8-5.4-.1-1.9-1.2-6.6-3.2-8.8z" opacity=".1"/><path fill="#3E6B12" d="M79.6 40.9c-2.3-.2-5.8-1.5-3.7-4.2C77.8 34.1 84.7 35 86 38c.9 2-3 3.2-6.4 2.9z" opacity=".3"/><path fill="#E0E560" d="M62.2 40.9c3.5-6.4 11.7-9.5 19.5-6.9-1.9.4-9.8.2-8.1 5.1 1.5 4.2 7.4 3.8 8.8 5.2 1.4 1.4 1.6 3.5 1.2 4.6-1 2.9-5.2 6.1-11.2 4.8-5.5-1.2-10.7-7.5-10.2-12.8z"/><path fill="#3E6B12" d="M80.2 38.2c-.7-.1-1.8-.5-1.2-1.3.6-.7 2.8-.4 3.2.5.3.7-.9 1-2 .8z" opacity=".7"/><path fill="#fff" d="M70.6 40c.1 1.2-.7 2.2-1.8 2.3-1.1.1-2-.8-2.1-2-.1-1.2.7-2.2 1.8-2.3 1.1-.1 2 .8 2.1 2zM70.8 43.4c0 .5-.3 1-.8 1s-.9-.4-1-.9c0-.5.3-1 .8-1 .5-.1.9.3 1 .9z" opacity=".5"/><path fill="#E0E560" d="M75.5 39.1s.2.1.5.2.7.3 1.3.5c.3.1.5.2.9.3.2 0 .3.1.5.1s.3.1.5.1.3.1.5.1.3 0 .5.1c.4 0 .7 0 1.1 0 .4 0 .7-.1 1-.1.2 0 .3-.1.5-.1 0 0 .1 0 .1 0s.1 0 .1 0c.1 0 .2 0 .2-.1.1 0 .2-.1.2-.1.1 0 .1-.1.2-.1s.1-.1.2-.1.1-.1.2-.1c.1-.1.3-.1.4-.2.1 0 .1-.1.2-.1s.1-.1.2-.1c.2-.2.4-.3.5-.5.1-.1.1-.2.2-.2.1-.1.1-.1.2-.2s.2-.2.2-.3c.1-.1.1-.2.1-.2s0 .1 0 .1c0 .1 0 .2 0 .4s-.1.4-.2.6c-.1.2-.3.5-.5.7-.1.1-.2.2-.3.4 0 0-.1.1-.1.1s-.1.1-.1.1c-.1.1-.1.1-.2.2s-.2.1-.2.1c-.1 0-.2.1-.2.1-.2.1-.3.2-.5.2-.1 0-.2.1-.3.1 0 0-.1 0-.1 0h-.1c-.2.1-.4.1-.6.1-.2 0-.4.1-.6.1-.2 0-.4 0-.6 0-.2 0-.4 0-.6 0-.2 0-.4 0-.6-.1-.2 0-.4-.1-.6-.1-.2 0-.4-.1-.6-.2-.2-.1-.4-.1-.5-.2-.2-.1-.3-.1-.5-.2-.3-.1-.6-.3-.8-.5-.5-.3-.9-.6-1.1-.9-.4.2-.6 0-.6 0z"/><path fill="#7C201E" d="M80 38s1.6-3.2 3.5-4.5c2.4-1.7 4.1-.3 4.1-.3l-.5-2.9s-2.1-.3-3.9.7c-2.9 1.7-3.7 6.8-3.7 6.8l.5.2z"/><path fill="#600606" d="M80.1 37.9s1.6-3.2 3.5-4.5c2.4-1.7 4.1-.3 4.1-.3l-.4-1.4s-2.1-.3-3.9.7c-2.9 1.7-3.8 5.3-3.8 5.3l.5.2z"/><path fill="#A33C00" d="M31.7 31.7L28 28l-3.6 3.6 6.4 5.3z"/><path fill="#FCC107" d="M28.6 35.2s7.5 12.4 1 23.5c-7.4 12.5-26 15.8-26.7 16.9-.7 1.1-1.2 3.3-.2 3.7 1 .4 6.7 4.4 18.1 1.7 11.6-2.7 33.6-20.5 21.4-42.6-3.8-6.9-11.6-7.2-11.6-7.2l-2 4z"/><path fill="#F2A718" d="M2.4 77.8c-.2.9 0 1.2.6 1.4 1 .4 6.7 4.3 18.1 1.6 11.6-2.7 33.6-20.6 21.4-42.5-3.8-6.9-11.6-7.1-11.6-7.1l-.8 1.5S47.9 44.5 36.4 64C26.3 81.1 2.5 77.2 2.4 77.8z"/><path fill="#FFDD01" d="M29.8 63.4c-1.8-1.2-3.4 3.3-8 6.3s-7.7 4.2-7.7 4.2 4.8-.7 8.5-2.2c5.9-2.3 9.7-6.6 7.2-8.3z"/><path fill="#9D9EE2" d="M53.1 80.1c-3.1 0-6.1-.4-8.3-1.2-2.3-.8-3.6-2-3.6-3.3 0-.3-.2-26.7 0-37.5.2-8.9 1.2-10.5 2.6-12.7.3-.5.7-1.1 1-1.8 1.8-3.5 1.9-10.1 1.9-10.2v-.3h13.1v.3c0 .1-.2 6.7 1.6 10.2.4.7.7 1.2 1 1.8 1.4 2.2 2.4 3.8 2.6 12.7.2 9.2.1 32.7.1 37.3 0 .1 0 .2 0 .2 0 1.3-1.3 2.4-3.6 3.3-2.4.7-5.3 1.2-8.4 1.2zm-5.8-66.4c0 1.4-.3 6.9-2 10.2-.4.7-.7 1.3-1.1 1.8-1.3 2.1-2.3 3.7-2.5 12.4-.2 10.8 0 37.2 0 37.5 0 1.9 4.5 3.9 11.3 3.9s11.3-2 11.3-3.9c0 0 0-.1 0-.2 0-4.6.1-28.1-.1-37.3-.2-8.7-1.1-10.3-2.5-12.4-.3-.5-.7-1.1-1.1-1.8C59 20.6 59 15.1 59 13.7H47.3z"/><path fill="#B6BFF2" d="M63.7 37.7c-.2-10.1-1.7-9.9-3.4-13.3-1.7-3.4-2.1-9.5-2.1-9.5H47.8s-.2 6.2-2 9.5c-1.7 3.4-3.2 3.2-3.4 13.3-.2 10.1 0 37.1 0 37.1 0 2.1 4.8 3.9 10.7 3.9 5.9 0 10.7-1.7 10.7-3.9 0-.1.1-27.7-.1-37.1z"/><path fill="#fff" d="M47.6 25.5c-.9 0-2 .1-2.5 5.1s.4 9.9.4 9.9-.4-2.5.4-6.5c.7-3.6 3.1-5.7 3.1-6.8 0-1-.8-1.7-1.4-1.7z" opacity=".5"/><path fill="#F9FCFF" d="M62.5 35.3h-19c-.1 1.2-.2 2.6-.2 4.4-.2 9.9 0 33.9 0 33.9 0 2.1 4.3 3.8 9.7 3.8 5.4 0 9.7-1.7 9.7-3.8 0-.1.1-24.7 0-33.9 0-1.7-.1-3.2-.2-4.4z" opacity=".9"/><path fill="#fff" d="M62.5 35.3c0 2-4.3 3.6-9.5 3.6s-9.5-1.6-9.5-3.6 4.3-3.6 9.5-3.6 9.5 1.7 9.5 3.6z"/><path fill="#C0C3E2" d="M64.6 38.2c-.2-10.1-1.7-9.9-3.4-13.3-1.7-3.4-2.1-9.5-2.1-9.5h-6.6c.3 1.9.8 4 1.6 5.6 1.7 3.4 3.2 3.2 3.4 13.3.2 9.4 1.2 33.9.1 37.1-1.2 3.3-5.6 5.3-9.2 4.8-4.9-.6-5.6-2.3-6-2.4 0 .2-.1 2-.1 2 0 2.1 5.8 3.4 11.7 3.4 5.9 0 10.7-1.7 10.7-3.9 0-.2.1-27.8-.1-37.1z" opacity=".3"/><path fill="#37C6B7" d="M53 13.8c-6.9.1-8.1-2-8.1-2v3c0 1.5 3.6 2.7 8.1 2.7s8.1-1.2 8.1-2.7v-3s-1.2 1.9-8.1 2z"/><path fill="#55CFC4" d="M61.1 11.8c0 1.5-3.6 2.7-8.1 2.7s-8.1-1.2-8.1-2.7c0-1.5 3.6-2.7 8.1-2.7s8.1 1.2 8.1 2.7z"/><path fill="#7FDBD0" d="M60.3 11.7c0 1.3-3.2 2.4-7.2 2.4s-7.2-1.1-7.2-2.4c0-1.3 3.2-2.4 7.2-2.4 3.9 0 7.2 1.1 7.2 2.4z"/><path fill="#E58619" d="M39.4 74.4c.8 1.9 6.5 2.7 13.4 5.5 7.2 2.9 9.8 6.5 16 6.5 4.8 0 23.8-14 26.4-15.9 1.1-.8 1.6-5.6 1-6.3-1.2-1.5-8-2.7-13.1-4.3-6-1.8-9-2.6-13.3-2-3.4.5-23.7 6.6-30.5 11.3-1 .8-.6 3.6.1 5.2z"/><path fill="#C36202" d="M68.8 81.2c-.3 2-2 4-3.7 4.9 1.8-.1 3.4.6 5.1 0 3-1.1 10.9-5.4 13.9-7.3 2.7-1.8 10.8-6.1 11.4-7.6.9-2 1-5.8.6-6.7-1.7 4-7.7 5.7-11.3 7.5-4.8 2.4-16 9.2-16 9.2z"/><path fill="#C56203" d="M64.1 58.9S39.3 66 39.3 69.4c0 2.6 7.4 3.5 14.3 6.2 7.2 2.9 9.7 6.3 15.9 6.3 4.8 0 21.6-12.5 21.6-12.5s3.8-.4 5-2.5c1.2-2.1.1-3.1-2.4-4.4-3.2-1.6-4.8-2-9.9-3.6-6-1.8-10.6-3.2-14.9-2.6-4.3.6-4.8 2.6-4.8 2.6z"/><path fill="#F5DD7F" d="M64.8 59.2s-24 7-24 10.1c0 2.4 7.1 3.3 13.5 5.8C61 77.7 63.4 81 69.1 81c4.4 0 21.4-12.2 21.4-12.2s3.5-.3 4.6-2.3c1.2-2.1.1-2.7-2.5-4-3-1.5-4.7-1.9-9.5-3.3-5.6-1.7-9.9-3-13.9-2.4-4 .6-4.4 2.4-4.4 2.4z"/><path fill="#719622" d="M43.3 67.5c-4-.1-2.4.4-.7 2.6-.9 0-1.8-.1-2.4.4 2.3.5.3 2.2-.6 3 2.8.6 1.7 1.4 2.2 2.4 5.3-1.8 3.9 1.4 5.9 2.9 1.7-1.1 2.6-2.7 5-2.2.7.1 1.7 1.3 2.4 1.3 1 0 1.1-1 2.2-1 .1.7.5 1.3.9 1.8 1.5-1.5 1.6 2 5.3 3.1.4-1.1.6-2.6 1.8-2.8 1 1.5 2.7-.4 2.7.4 0 2.5 2.8 2.8 3.5 2.5 0 0 .2-1.7 1.4-2.1.6-.2 1.1 0 1.7-.3.5-.2.1-1.1.9-1.3 2.8-1.1 3.9 3.9 6.2.7.9-1.2.1-2 2.3-2.2.6-.1 1.4.5 2 .2.9-.4.5-.8 1.1-1.4 2.2-2.2 3.8-2 6.5-1.1.4-2.7-.7-1.7 1.8-3.1-.4-.5-.8-1-1.5-1.3.6-1 1.1-.9 1.4-2.1-1.8.2-3 1.3-3.5-1.4-1.6.1-2.9 2.1-4.6 2.4l-43.9-1.4z"/><path fill="#A2CA01" d="M44.1 67.9c-3.7-.1-2.2.3-.6 2.4-.9 0-2.4-.9-3.3.2 2.1.5 1.6 2 .7 2.7 2.6.6.4 1.7.9 2.6 5.8-3.6 4.9 1.7 5.9 2.9 1.5-1 3.6-3.7 5.7-3.2.7.1 1 2.3 1.7 2.3.9 0 1.6-2.1 2.6-2.1.1.7.5 1.2.9 1.6 1.4-1.4 1.7 2.4 5 4.3.3-1 .5-3.8 1.6-4 1.7 2 3.3-.7 3.2 0-.4 2.6 2.6 4.4 3.2 4.2 0 0-.5-3 .7-3.3.6-.2 1 0 1.6-.2.5-.2.1-1 .8-1.2 2.6-1 4.6 4.2 6.8 1.3.9-1.2-.9-2.5 1.1-2.7.6-.1 1.3.4 1.9.2.9-.4.4-.8 1-1.3 2-2 5.8-1 8.2-.1-.5-2.9-.9-3.5 1.8-3.1-.4-.5-1.7-1.4-2.3-1.7.6-.9 1.9-.6 2.3-1.7-3.7.6-4.2 1.3-3.5-1.4-1.5.1-4.8 1.6-6.4 1.9l-41.5-.6z"/><path fill="#E0F557" d="M60.7 78.4c.5.3 1.9 2.3 2.6 2.7.4-.9-.2-1.4-.7-1.6-.3-.2-1.9-1.1-1.9-1.1z"/><path fill="#719622" d="M44 72.3c-2 .6-4.9 1-8.4-1.8l-.3-.9s2.8-.7 1.5-3c2.1-1.7.5-4.6.5-4.6 2 .1 3.7-.8 3.7-3.7 1.4 1.5 4.2.6 5.3-.8.1 1.5 1.2 4.1 3 4 .1 1.8.2 3.3 1 4.9-.2.2-4.2 5.3-6.3 5.9z"/><path fill="#A2CA01" d="M44 71.3c-2 .6-5.2 1.2-8.8-1.6 1.1-.7 2.3-1.9 1.5-3 3.2-1.1.5-4.6.5-4.6 3.7 1 3.7-1.9 3.7-4.7 1.4 1.5 4.2.6 5.3-.8.1 1.5 1.2 4.1 3 4 .1 1.8.2 3.3 1 4.9-.1 0-4.1 5.1-6.2 5.8z"/><path fill="#FC1E00" d="M39.9 65.6l1 4.6s2 2.4 11.2 4.2c7 1.4 15.4-.4 15.4-.4l4.4-1.6-3.1-4.4-28.9-2.4z"/><path fill="#D4002B" d="M39.9 63.8l-.1 1.8s3.1 3.6 11.4 5.4c6.5 1.4 15.4 0 15.4 0l.2-4.3-26.9-2.9z"/><path fill="#FF7200" d="M44.5 69.5s2.1 1.9 4.2 2.7c2.3.8 6.9 1.7 6.7.9-.2-.7-5.1-1.2-7.1-1.8-1.6-.5-3.8-1.8-3.8-1.8z"/><path fill="#BD2D03" d="M84.6 71.3c.6 2.8-3.2 6-8.6 7.3-5.4 1.2-10.3 0-11-2.8-.6-2.8 3.2-6 8.6-7.3 5.5-1.2 10.4 0 11 2.8zM84.8 70.8c.4 2.8-3.6 5.8-9.1 6.7-5.5.9-10.3-.7-10.7-3.5-.4-2.8 3.6-5.8 9.1-6.7 5.5-.9 10.3.6 10.7 3.5z"/><path fill="#DB3401" d="M83.5 71c.4 2.5-3.2 5.1-7.9 5.8-4.8.8-9-.6-9.4-3.1-.4-2.5 3.2-5.1 7.9-5.8 4.9-.8 9.1.6 9.4 3.1z"/><path fill="#BD2D03" d="M73.8 76.6c-1.3.2-1.9-.2-1.4-.9l1.6-2.1c.5-.7 1.5-.8 2.2-.4l2.2 1.5c.7.5.2 1-1.1 1.3l-3.5.6zM82 73.3c-.3.7-1.3 1-2.3.6l-3-1c-1-.3-.7-.9.5-1.2l3.9-1c1.2-.3 2 0 1.7.7l-.8 1.9zM80.4 68.7c1.1.2 1.1.8 0 1.3l-3.5 1.5c-1.1.5-2 .3-1.9-.4l.2-2.1c.1-.7 1-1.1 2.1-.8l3.1.5zM71.2 69.1c1-.6 2-.5 2.3.1l.9 2c.3.6-.5 1.1-1.7.9l-3.7-.3c-1.2-.1-1.4-.6-.4-1.2l2.6-1.5zM67.1 73.9c-.5-.6.1-1.1 1.4-1.2l4-.3c1.3-.1 1.7.3.9 1l-2.5 1.9c-.8.6-1.9.7-2.4.1l-1.4-1.5z"/><path fill="#DB3401" d="M74.5 72.2s-2.5-.2-2.2-.8c.3-.5 1.5 0 1.6.1.2.3.6.7.6.7zM74 72.7s-1.9 1.5-2.7 1c-.8-.5.9-.9 1.1-1 .5 0 1.6 0 1.6 0zM74.8 72.5s1.5 1.1.5 1.5c-1 .4-1.1-.5-1-.6.2-.3.5-.9.5-.9zM75.9 72.4s2.7-1.1 3-.4c.3.7-1.5.7-1.7.7-.4 0-1.3-.3-1.3-.3zM75.4 71.8s-.1-1.6 1.3-1.6c1.4 0 .3.9.2 1-.5.3-1.5.6-1.5.6z"/><path fill="#F4451C" d="M71.7 70.7s-2-.1-1.3-.6c.8-.4 1.3.6 1.3.6zM71.3 71.2s-2 .6-1.8 0c.2-.6 1.8 0 1.8 0zM72.5 70.5s-1.5-.6-.4-.9c1-.3.4.9.4.9zM70.2 73.9s-1.3 1-1.8.5c-.4-.4 1.8-.5 1.8-.5zM70.8 74.2s-.2 1.1-1.1.9c-.9-.2 1.1-.9 1.1-.9zM70.3 73.5s-2 .6-1.8 0c.1-.6 1.8 0 1.8 0zM75.2 74.9s1.4.7.3.9c-1.1.2-.3-.9-.3-.9zM75.9 74.5s2 .1 1.3.6c-.8.5-1.3-.6-1.3-.6zM74.4 74.8s.4 1-.7 1 .7-1 .7-1zM79.8 72.3s2-.6 1.8 0c-.1.5-1.8 0-1.8 0zM79.6 71.9s1.2-1.1 1.7-.6c.5.4-1.7.6-1.7.6zM79.3 72.7s2.1-.1 1.4.5c-.6.5-1.4-.5-1.4-.5zM77.6 69.7s0-1.1.9-1c1 .2-.9 1-.9 1zM76.7 69.7s-1.2-.8-.1-1c1.1-.2.1 1 .1 1zM78.1 70s1.1-1.1 1.6-.7c.6.4-1.6.7-1.6.7z"/><path fill="#DB3401" d="M79.1 77s-2.5 1.4-4.8 1.5c-2.4.1-7.1-.5-6.7-1.2.4-.6 3.5.4 5.6.5 1.7.1 5.9-.8 5.9-.8z" opacity=".5"/><path fill="#BD2D03" d="M95.9 66.4c-.5 2.8-5.3 4.4-10.8 3.5-5.5-.9-9.5-3.9-9.1-6.7.5-2.8 5.3-4.4 10.8-3.5 5.5.9 9.6 3.9 9.1 6.7z"/><path fill="#DB3401" d="M94.7 66.2c-.4 2.5-4.6 3.8-9.4 3-4.8-.8-8.3-3.4-7.9-5.9.4-2.5 4.6-3.8 9.4-3 4.7.8 8.3 3.5 7.9 5.9z"/><path fill="#BD2D03" d="M83.6 68.4c-1.3-.2-1.8-.8-1.1-1.3l2.2-1.5c.7-.5 1.7-.3 2.2.4l1.6 2.1c.5.7-.1 1.1-1.4.9l-3.5-.6zM92.4 68c-.5.6-1.6.5-2.4-.1L87.5 66c-.8-.6-.4-1.1.9-1l4 .3c1.3.1 1.9.6 1.4 1.2L92.4 68zM92.4 63.1c1 .6.8 1.1-.4 1.2l-3.8.3c-1.2.1-2-.3-1.7-1l.9-2c.3-.6 1.3-.7 2.3-.1l2.7 1.6zM83.5 60.6c1.1-.2 2.1.2 2.1.8l.2 2.1c.1.7-.8.8-1.9.4l-3.5-1.5c-1.1-.5-1.1-1 0-1.3l3.1-.5zM78.1 63.9c-.3-.7.5-1 1.7-.7l3.9 1c1.2.3 1.5.9.5 1.2l-3 1c-1 .3-2 0-2.3-.7l-.8-1.8z"/><path fill="#DB3401" d="M85.7 64.6s-2.3-1-1.9-1.4c.4-.4 1.4.5 1.5.6.1.2.4.8.4.8zM85.1 64.9s-2.3.8-2.9.1c-.6-.7 1.2-.6 1.4-.6.4.1 1.5.5 1.5.5zM85.9 64.9s1.1 1.5.1 1.6c-1.1.1-.9-.8-.8-.9.2-.2.7-.7.7-.7zM87 65.2s2.9-.2 3 .6c.1.7-1.6.2-1.8.2-.5-.3-1.2-.8-1.2-.8zM86.6 64.5s.4-1.5 1.7-1.1c1.3.4 0 1-.2 1-.4 0-1.5.1-1.5.1z"/><path fill="#F4451C" d="M83.5 62.3s-1.9-.7-1-.9c.8-.3 1 .9 1 .9zM83 62.6s-2.1-.1-1.7-.6c.3-.5 1.7.6 1.7.6zM84.3 62.3s-1.2-1.1-.1-1c1.1.1.1 1 .1 1zM81.1 64.8s-1.6.5-1.8 0c-.3-.6 1.8 0 1.8 0zM81.6 65.3s-.5 1-1.3.5c-.9-.5 1.3-.5 1.3-.5zM81.3 64.4s-2.1 0-1.7-.5c.3-.5 1.7.5 1.7.5zM85.5 67.3s1.1 1.1 0 1c-1.1-.1 0-1 0-1zM86.3 67.2s1.9.7 1 .9c-.9.3-1-.9-1-.9zM84.7 67s0 1.1-1 .7c-.9-.4 1-.7 1-.7zM90.7 66.3s2.1 0 1.8.5c-.3.6-1.8-.5-1.8-.5zM90.7 65.9s1.5-.6 1.8 0c.3.5-1.8 0-1.8 0zM90.1 66.6s2 .6 1.2.9c-.8.2-1.2-.9-1.2-.9zM89.4 63.1s.3-1.1 1.2-.6c.9.4-1.2.6-1.2.6zM88.6 62.9s-.9-1.1.2-.9c1.1.1-.2.9-.2.9zM89.8 63.5s1.3-.7 1.8-.1c.3.6-1.8.1-1.8.1z"/><path fill="#FFE138" d="M62.3 69.1c0 1-1.1 1.8-2.5 1.8s-2.6-.7-2.6-1.7 1.1-1.8 2.5-1.8c1.4-.1 2.6.7 2.6 1.7z"/><path fill="#D96500" d="M61.6 69.2c0 .8-1 1.5-2.2 1.6-1.2 0-2.2-.6-2.2-1.5 0-.8 1-1.5 2.2-1.6 1.2 0 2.2.7 2.2 1.5z"/><path fill="#FF9E03" d="M61.5 69.4c0 .7-.8 1.3-1.9 1.4s-1.9-.6-1.9-1.3c0-.7.8-1.3 1.9-1.4 1.1 0 1.9.6 1.9 1.3z"/><path fill="#FFE138" d="M53.5 68.2c-.2.5-1.1.6-1.9.1-.8-.4-1.3-1.2-1-1.8.2-.5 1.1-.6 1.9-.1.8.5 1.3 1.2 1 1.8z"/><path fill="#D96500" d="M53.1 68c-.2.4-.9.5-1.6.1-.7-.4-1.1-1.1-.9-1.5.2-.4.9-.5 1.6-.1.7.4 1.1 1.1.9 1.5z"/><path fill="#FF9E03" d="M53 68.1c-.2.4-.8.4-1.4.1-.6-.3-1-.9-.8-1.3.2-.4.8-.4 1.4-.1.6.3 1 .9.8 1.3z"/><path fill="#CF5800" d="M96.4 69.7c-1.1 0-1.9-1-1.9-2 0-1.1 1-1.9 2-1.9-.5-1.9-1.3-3.9-2.4-5.8-3-5.3-5-7.6-5-7.6l-20-4S48.8 54.6 43.4 57c-2.3 1.1-3.1 2.3-1.9 7.3 1.4 6.2 5 12.3 5 12.3l3.6-.2s-.1-2.2 2.1-2.5c2-.2 2 1.4 2.3 2 5.1-.4 26.9-4.8 32.4-3.4 6.4 1.6 10.8 1.4 10.8 1.4 0-.7-.1-2.2-.4-4.4-.2.1-.5.2-.9.2z"/><path fill="#F4BE31" d="M96.4 68.9c-1.1 0-1.9-1-1.9-2 0-1.1 1-1.9 2-1.9-.5-1.9-1.3-3.9-2.4-5.8-3-5.3-5-7.6-5-7.6l-20-4s-20.3 6.2-25.7 8.6c-2.3 1.1-3.1 2.3-1.9 7.3 1.4 6.2 5 12.3 5 12.3l3.6-.2s-.1-2.2 2.1-2.5c2-.2 2 1.4 2.3 2 5.1-.4 26.9-4.8 32.4-3.4 6.4 1.6 10.8 1.4 10.8 1.4-.1-1.5-.2-2.9-.4-4.4-.3.1-.6.2-.9.2z"/><path fill="#FFE138" d="M92.1 67c.2.7-.5 1.6-1.6 1.9-1.1.3-2.2.1-2.4-.6-.2-.7.5-1.6 1.6-1.9 1.1-.4 2.1-.1 2.4.6z"/><path fill="#D96500" d="M91.5 67.2c.2.6-.4 1.3-1.4 1.6-1 .3-1.9.1-2.1-.5-.2-.6.4-1.3 1.4-1.6 1-.3 2-.1 2.1.5z"/><path fill="#FF9E03" d="M91.5 67.4c.2.5-.4 1.2-1.2 1.4-.8.3-1.6 0-1.8-.5-.2-.5.4-1.2 1.2-1.4.9-.2 1.7 0 1.8.5z"/><path fill="#FFE138" d="M48.9 70.2c.2.6-.4 1.3-1.4 1.6-.9.3-1.9.1-2-.5-.2-.6.4-1.3 1.4-1.6.9-.3 1.8-.1 2 .5z"/><path fill="#D96500" d="M48.4 70.4c.2.5-.4 1.1-1.2 1.4-.8.3-1.6 0-1.7-.5-.2-.5.4-1.1 1.2-1.4.8-.2 1.6 0 1.7.5z"/><path fill="#FF9E03" d="M48.4 70.5c.1.4-.3 1-1 1.2-.7.2-1.4 0-1.5-.4-.1-.4.3-1 1-1.2s1.4 0 1.5.4z"/><path fill="#E58619" d="M39.5 63.7c.8 1.9 6.2 2.9 13.1 5.6 7.2 2.9 9.7 6.3 15.9 6.3 4.8 0 24.3-13.4 27-15.3 1.1-.8 1.2-6 .6-6.7-1.2-1.5-8-2.7-13.1-4.3-6-1.8-9-2.6-13.3-2-3.4.5-23.3 6.3-30.1 11-1.2.7-.8 3.7-.1 5.4z"/><path fill="#C36202" d="M68.6 70.3c-.3 2-2 4-3.7 4.9 2.1.7 3.4.9 5.1.3 3-1.1 10.9-5.7 13.9-7.6 2.7-1.8 10.8-6.1 11.4-7.6.9-2 1-5.8.6-6.7-1.7 4-7.7 5.7-11.3 7.5-4.8 2.4-16 9.2-16 9.2z"/><path fill="#C56203" d="M63.8 48.2S39 55.3 39 58.7c0 2.6 7.4 3.5 14.3 6.2 7.2 2.9 9.7 6.3 15.9 6.3 4.8 0 21.6-12.5 21.6-12.5s3.8-.4 5-2.5c1.2-2.1.1-3.1-2.4-4.4-3.2-1.6-4.8-2-9.9-3.6-6-1.8-10.6-3.2-14.9-2.6-4.3.6-4.8 2.6-4.8 2.6z"/><path fill="#F5DD7F" d="M64.5 48.5s-24 7-24 10.1c0 2.4 7.1 3.3 13.5 5.8 6.7 2.7 9.1 5.9 14.8 5.9 4.4 0 21.4-12.2 21.4-12.2s3.5-.3 4.6-2.3c1.2-2.1.1-2.7-2.5-4-3-1.5-4.7-1.9-9.5-3.3-5.6-1.7-9.9-3-13.9-2.4-4 .6-4.4 2.4-4.4 2.4z"/><path fill="#FBBA56" d="M92.3 51.8c-3-1.5-4.7-1.9-9.5-3.3-5.6-1.7-9.9-3-13.9-2.4-1.6.2-2.6.7-3.3 1.1 1.4.4 10.1.9 16 4.6 4.2 2.7 2.7 10.3-17.9 17.6 0 0 2.1.9 5 .9 4.4 0 21.4-12.2 21.4-12.2s3.5-.3 4.6-2.3c1.3-2.1.2-2.7-2.4-4z" opacity=".7"/><path fill="#FBBA56" d="M50.6 57.1c0 .3-.4.6-.9.6s-.9-.3-.9-.6.4-.6.9-.6.9.3.9.6zM54.2 60.3c0 .3-.3.5-.7.5-.4 0-.7-.2-.7-.5s.3-.5.7-.5c.4 0 .7.2.7.5zM67.9 51.3c-.1.3-.6.4-1 .2s-.7-.6-.6-.9c.1-.3.6-.4 1-.2.5.2.7.6.6.9zM68.5 57.8c-.1.2-.4.3-.7.1-.3-.1-.5-.4-.4-.6.1-.2.4-.3.7-.1.3.1.5.4.4.6zM59.8 51.6c0 .3-.3.5-.7.5s-.7-.2-.7-.5.3-.5.7-.5.7.2.7.5zM66.1 66c0 .3-.3.5-.7.5-.4 0-.7-.2-.7-.5s.3-.5.7-.5c.4 0 .7.2.7.5zM80.3 58.3c0 .3-.3.5-.7.5-.4 0-.7-.2-.7-.5s.3-.5.7-.5c.3 0 .7.2.7.5zM73 60.8c0 .2-.3.4-.6.4s-.6-.2-.6-.4.3-.4.6-.4c.4 0 .6.2.6.4zM64.3 58.9c0 .2-.3.4-.7.4-.4 0-.7-.2-.7-.4s.3-.4.7-.4c.4 0 .7.2.7.4zM88.8 54.9c0 .2-.3.4-.7.4-.4 0-.7-.2-.7-.4s.3-.4.7-.4c.4 0 .7.2.7.4zM79.5 49.9c0 .2-.3.4-.7.4-.4 0-.7-.2-.7-.4s.3-.4.7-.4c.4-.1.7.1.7.4zM75.8 52c0 .2-.3.4-.7.4-.4 0-.7-.2-.7-.4s.3-.4.7-.4c.4 0 .7.2.7.4zM59 64.8c0 .2-.3.4-.6.4s-.6-.2-.6-.4.3-.4.6-.4.6.2.6.4zM58.4 56.5c0 .2-.3.4-.6.4s-.6-.2-.6-.4.3-.4.6-.4c.4 0 .6.2.6.4zM43.8 58.5c0 .2-.3.4-.6.4s-.6-.2-.6-.4.3-.4.6-.4.6.2.6.4zM76.9 61.2c0 .2-.3.4-.6.4s-.6-.2-.6-.4.3-.4.6-.4c.4 0 .6.2.6.4zM81.7 49.9c0 .2-.3.4-.6.4s-.6-.2-.6-.4.3-.4.6-.4.6.2.6.4z"/><path fill="#E58619" d="M66.6 49.8c-2.8 1.9 1.6 4.2 2.7 1-.4-.6-1-.9-1.7-1h-1zM79.7 55.4c-2.1 1-1.3 3.5 1 3 2-.4 2.1-3.2-.3-3h-.7zM59.3 54.1c-.2 1.7-.7 4.6 4.9 7.3 3.9 1.9 12.3 1.4 15.7-.6-3.1 4.2-12.9 4.1-17 2.2-4-1.9-5-5.1-5.1-8 0-2.5 1.5-1.4 1.5-.9z"/><path fill="#C36202" d="M67.2 50.1c-1.9 1.3 1.1 2.9 1.9.7-.3-.4-.7-.6-1.2-.7h-.7zM80.1 56c-1.9 1.3 1.1 2.9 1.9.7-.3-.4-.7-.6-1.2-.7h-.7zM58.9 54.1c-.2 1.7.1 5.3 5.6 8 3.9 1.9 12.3.6 15.7-1.4-3.1 3-12.9 3.6-17 1.7-4-1.9-5-3.6-5.1-6.5-.1-2.4.8-2.3.8-1.8z"/><path fill="#C8011E" d="M29.6 84.8c3.7 6.2 12.2 7.9 18.8 3.8 6.7-4 9-12.3 5.3-18.5-3.7-6.1-12.2-7.8-18.8-3.7-6.7 4-9.1 12.3-5.3 18.4z"/><path fill="#A30429" d="M43.2 64.2c-2.4.4-2.3 2.9-1 3.8 1 .8 4.3.1 6.7 3.9 2 3.4 2.5 7.1-1.2 12-2.6 3.5-7.4 5.5-13 4.3-2.9-.6-3.8-1.6-4.3-2.1 4 5.2 11.8 6.4 18 2.7 6.7-4 9-12.3 5.3-18.5-.8-1.4-1.9-2.5-3.1-3.4-1.2-1-4.8-2.8-7.4-2.7z"/><path fill="#3E6B12" d="M38.1 71.6c-1.4 1.4-4.1 3-4.8.1-.6-2.7 3.7-6.7 6.4-5.9 1.7.6.5 3.7-1.6 5.8z" opacity=".3"/><path fill="#E5393B" d="M28.6 83c-2.3-5.8.1-12.8 6-16.5-.8 1.5-5.2 6.6-1 8.1 3.6 1.3 6.5-2.8 8.2-3 1.7-.2 3.1.9 3.7 1.8 1.4 2.2 1.2 6.7-2.9 10-3.8 2.9-10.8 2.9-14-.4z"/><path fill="#600606" d="M36.6 69.8c-.4.4-1.3.9-1.5.1-.2-.8 1.2-2 2.1-1.8.6.1.1 1.1-.6 1.7z"/><path fill="#7C201E" d="M36.6 69.8s-2.1-2.1-2.7-4.1c-.7-2.4.9-3.4.9-3.4l-2.4-.3s-.9 1.6-.5 3.3c.6 2.8 4.4 4.8 4.4 4.8l.3-.3z"/><path fill="#fff" d="M32.6 77c.8.6 1 1.7.5 2.4-.5.8-1.6.9-2.4.3-.8-.6-1-1.7-.5-2.4s1.6-.8 2.4-.3zM34.9 78.8c.4.3.5.8.2 1.1-.2.4-.8.4-1.1.1-.4-.3-.5-.8-.2-1.1.2-.3.7-.4 1.1-.1z" opacity=".5"/><path fill="#E5393B" d="M35.7 73.2c.2-.1.3-.1.4-.2.2-.1.5-.3.9-.5.2-.1.4-.3.5-.4.2-.2.4-.3.6-.5.2-.2.4-.4.5-.6.2-.2.3-.4.5-.7l.1-.2c0-.1.1-.1.1-.2.1-.1.1-.2.2-.4.1-.1.1-.2.2-.4 0-.1.1-.1.1-.2s.1-.1.1-.2c.1-.2.2-.5.3-.7.1-.2.1-.5.2-.7 0-.2.1-.4.1-.6 0-.2 0-.3 0-.4 0-.1-.1-.2-.1-.3 0-.1-.1-.1-.1-.1s0 0 .1.1c0 .1.1.1.2.3.1.1.1.3.1.5s0 .4 0 .6c0 .2 0 .5-.1.7-.1.3-.1.5-.2.8 0 .1 0 .1-.1.2 0 .1 0 .1-.1.2s-.1.3-.2.4c-.1.3-.3.5-.4.8-.2.3-.3.5-.5.7-.2.2-.4.4-.6.6-.2.2-.4.4-.6.5-.2.1-.4.3-.6.4-.2.1-.4.2-.6.2-.2.1-.3.1-.4.1-.1 0-.2 0-.3.1-.3.1-.3.1-.3.1z"/><path fill="#600606" d="M36.6 69.7s-2.1-2.1-2.7-4.1c-.7-2.4.9-3.4.9-3.4l-1.3-.1s-.9 1.6-.5 3.3c.6 2.8 3.3 4.5 3.3 4.5l.3-.2z"/><path fill="#FFBD33" d="M29.4 67.6s-1.6-4.4-4.1-5.6c-2.2-1-4.9-.7-6.8.2-1.1.5-3.6 1-3.6 1s.3.3.9 1.6c1 2.2.7 3.6 3.7 5.3 1.9 1.1 4.9 1.5 8.5-1.1 1.3-.8 1.4-1.4 1.4-1.4z"/><path fill="#BB362E" d="M29.4 67.6s-3.5.1-7-.9c-3.3-1-7.4-3.5-7.4-3.5s.3.3.9 1.6c1 2.2.7 3.6 3.7 5.3 1.9 1.1 4.9 1.5 8.5-1.1 1.2-.8 1.3-1.4 1.3-1.4z" opacity=".3"/><path fill="#7C201E" d="M35.5 69.9s0-.1 0 0c-.1 0-.1-.1-.2-.1-.1-.1-.3-.2-.6-.3-.5-.3-1.3-.6-2.3-.9-1-.3-2.1-.6-3.4-.8-.6-.1-1.3-.1-2-.1-.2 0-.3 0-.5 0s-.3 0-.5 0-.3 0-.5 0c-.1 0-.2 0-.3 0-.1 0-.2 0-.3 0-.3 0-.7-.1-1-.1-.3-.1-.7-.1-1-.2-.7-.2-1.3-.4-1.9-.7-.6-.3-1.2-.5-1.7-.8-.5-.3-1-.6-1.5-.8-.9-.5-1.6-.9-2.2-1.2-.3-.1-.5-.3-.6-.3 0-.4 0-.4 0-.4s.1 0 .2.1.4.2.6.3c.5.3 1.3.7 2.2 1.2.5.2 1 .5 1.5.8.5.3 1.1.5 1.7.8.6.2 1.2.4 1.9.6.3.1.7.1 1 .2.3 0 .7.1 1 .1.1 0 .2 0 .3 0 .1 0 .2 0 .3 0 .2 0 .3 0 .5 0s.3 0 .5 0 .3 0 .5 0c.7 0 1.4 0 2 .1 1.3.1 2.5.4 3.5.7 1 .3 1.8.6 2.4.9.3.1.5.2.6.3.1 0 .1.1.2.1 0 0 .1 0 .1 0l-.5.5z"/><path fill="#600606" d="M26.7 67.3s-.1-.1 0 0c-.1-.1-.1-.2-.1-.2-.1-.2-.2-.4-.4-.6-.2-.3-.3-.6-.6-.9-.1-.2-.2-.3-.4-.5-.1-.2-.3-.3-.4-.5-.1-.1-.1-.2-.2-.2-.1-.1-.1-.1-.2-.2s-.3-.3-.4-.4c-.1-.1-.3-.2-.4-.3-.1-.1-.1-.1-.2-.2-.1 0-.1-.1-.2-.1-.1-.1-.2-.2-.4-.2-.1-.1-.2-.1-.3-.2-.2-.1-.3-.1-.3-.1s.1 0 .3.1c.1 0 .2.1.3.1.1.1.2.1.4.2.1 0 .1.1.2.1s.1.1.2.1c.1.1.3.2.5.3.2.1.3.2.5.4.1.1.2.1.2.2.1.1.2.1.2.2.1.1.3.3.4.4.1.2.3.3.4.4.2.3.5.6.6.8.2.3.3.5.4.6 0 .1.1.1.1.2 0 0 0 .1 0 .1l-.2.4zM23.9 67.2s0 .1 0 0c-.1.1-.2.1-.2.2-.1.1-.2.1-.3.2-.1.1-.2.2-.4.2-.1.1-.3.2-.5.3-.2.1-.4.2-.5.2 0 0-.1 0-.1 0s-.1 0-.2 0-.2.1-.3.1c-.2 0-.4.1-.6.1-.2 0-.4 0-.6-.1-.1 0-.1 0-.2 0s-.1 0-.2 0-.2-.1-.3-.1c-.1 0-.2-.1-.3-.1-.1 0-.2-.1-.3-.1 0 0-.1 0-.1-.1 0 0-.1-.1-.1-.1s-.1 0-.1-.1c0 0 0 0-.1 0-.1-.1-.2-.2-.3-.3-.1-.1-.2-.2-.2-.2-.1-.1-.2-.2-.2-.2s.1.1.2.2.2.1.3.2c.1.1.2.2.3.3 0 0 0 0 .1 0 0 0 .1 0 .1.1 0 0 .1 0 .1.1 0 0 .1 0 .1.1.1 0 .2.1.3.1.1 0 .2.1.3.1.1 0 .2.1.3.1 0 0 .1 0 .1 0s.1 0 .2 0c.2 0 .4 0 .6 0 .2 0 .4 0 .6-.1.1 0 .2-.1.3-.1 0 0 .1 0 .1 0s.1 0 .1-.1c.2-.1.4-.2.5-.2.2-.1.3-.2.4-.3.1-.1.2-.2.3-.3.1-.1.2-.2.2-.2.1-.1.1-.1.2-.1 0 0 0-.1 0-.1l.4.3z" opacity=".5"/></svg>