<svg xmlns="http://www.w3.org/2000/svg" viewBox="0 0 100 100" enable-background="new 0 0 100 100"><path fill="#6EA5BA" d="M33.8 68.4L22.7 79.8l48.1 1.6-4.2-13z"/><path fill="#2B4F68" d="M22.7 79.7s43.2-.3 46.6.6c2.5.7 2.7 7.3 2.7 7.3s-.2 7.8-3 8c-2.8.2-46.6.1-46.6.1s2.7-4 2.7-7.7c.1-3.6-2.4-8.3-2.4-8.3z"/><path fill="#FFF2E9" d="M23.4 81s39.9-.2 43.1.5c2.4.6 2.5 6.1 2.5 6.1s-.2 6.5-2.8 6.7c-2.6.2-43 .1-43 .1s1.1-2.2 1.1-6.7c0-4.9-.9-6.7-.9-6.7z"/><path fill="#E8E1EF" d="M23.4 81c1.1 2 1.3 5 1.1 7.8 0 0 12.7-3.6 26.5-4.7 10.5-.8 16.4-.8 20.4-.8-.6-2.3-1.2-3.1-1.2-3.1s-44.1-.5-46.8.8z" opacity=".8"/><path fill="#C6794D" d="M29.7 86.3s.6 0 1.8 0c.6 0 1.2 0 2 0 .4 0 .8 0 1.2 0 .4 0 .9 0 1.4 0 1 0 2 0 3.1 0s2.3 0 3.5 0c.6 0 1.2 0 1.8 0 .3 0 .6 0 .9 0 .3 0 .6 0 .9 0 .6 0 1.3 0 1.9 0 .2 0 .3 0 .5 0h.4c.3 0 .6 0 1 0 1.3 0 2.6.1 3.8.1 1.3.1 2.5.1 3.7.1.3 0 .6 0 .9 0 .3 0 .6 0 .9 0 .6 0 1.1 0 1.7 0 1.1 0 2.1 0 3.1 0s1.8 0 2.6 0 1.5 0 2 0c1.1 0 1.8 0 1.8 0s-.6 0-1.8.1c-.6 0-1.2 0-2 .1-.8 0-1.7 0-2.6.1-1 0-2 0-3.1 0-.5 0-1.1 0-1.7 0-.6 0-1.2 0-1.8 0-1.2 0-2.4 0-3.7-.1-1.3 0-2.5-.1-3.8-.1-.3 0-.6 0-1 0h-.4c-.2 0-.3 0-.5 0-.6 0-1.3 0-1.9 0-.3 0-.6 0-.9 0-.3 0-.6 0-.9 0-.6 0-1.2 0-1.8 0-.3 0-.6 0-.9 0-.3 0-.6 0-.9 0-.6 0-1.1 0-1.7 0-1.1 0-2.1 0-3.1 0s-1.8 0-2.6 0-1.5 0-2 0c-1.1-.4-1.8-.3-1.8-.3zM22.8 88.8s.7 0 1.9 0c.6 0 1.4 0 2.2 0 .9 0 1.8 0 2.9 0 1.1 0 2.2 0 3.4 0 1.2 0 2.5 0 3.8 0 1.3 0 2.7 0 4.1 0 1.4 0 2.8 0 4.2 0 2.8 0 5.7 0 8.3 0 2.7 0 5.1 0 7.3 0 4.2 0 7.1 0 7.1 0s-2.8 0-7.1 0c-2.1 0-4.6 0-7.3 0s-5.5 0-8.3 0c-1.4 0-2.8 0-4.2 0-1.4 0-2.8 0-4.1 0-2.7 0-5.1 0-7.3 0-1.1 0-2 0-2.9 0-.9 0-1.6 0-2.2 0-1 0-1.8 0-1.8 0zM28.7 89.8s2.6 0 6.5-.1c1 0 2 0 3.1 0s2.3 0 3.5 0c2.4 0 5 0 7.6 0 2.6 0 5.2 0 7.6 0 2.4 0 4.7 0 6.6 0 3.9 0 6.5 0 6.5 0s-2.6 0-6.5 0c-1.9 0-4.2 0-6.6 0-2.4 0-5 0-7.6 0-10.4.1-20.7.1-20.7.1z"/><path fill="#3F6D77" d="M28.5 74.8c5.9 1 12.1 1.6 15.3 1.6 4.4 0 23.5-1.6 22.6-4.4-.7-2.4-9.6-2-12-2.2-7.3-.4-14.1.6-21.2 1.6l-4.7 3.4z"/><path fill="#F6A758" d="M38.6 60.8H40v5.5h-1.4z"/><path fill="#C97746" d="M38.7 61.3h.5v5.5h-.5z"/><path fill="#AA5B37" d="M54.5 73.3c0 1.9-6.7 3.4-15 3.4s-15-1.5-15-3.4 6.7-3.4 15-3.4c8.3-.1 15 1.5 15 3.4z"/><path fill="#F6A758" d="M53.3 71.9c-.2-.1-.3-.1-.5-.2-.9-.3-3.1-1.1-5.8-2.1-3.8-1.3-5.5-3.4-5.5-3.4h-3.9s-1.7 2.1-5.5 3.4c-2.7.9-4.9 1.7-5.8 2.1-.2.1-.3.1-.5.2-.8.3-1.2.7-1.2 1.1 0 1.5 6.7 2.7 15 2.7s15-1.2 15-2.7c-.1-.4-.5-.8-1.3-1.1zM41.4 66.3c0 .2-.9.4-1.9.4-1.1 0-1.9-.2-1.9-.4s.9-.4 1.9-.4c1.1 0 1.9.2 1.9.4z"/><path fill="#C97746" d="M33.1 74.6c7.1 0 8.9-1.1 9.8-2.8 1-2.1-3.6-5.5-3.6-5.5h1.9s1.7 2.1 5.5 3.4c2.7.9 4.9 1.7 5.8 2.1.2.1.3.1.5.2.8.3 1.2.7 1.2 1.1 0 1.5-6.7 2.7-15 2.7-7.2 0-13.3-.9-14.7-2.1 2 0 6.1.9 8.6.9z" opacity=".4"/><path fill="#FCC579" d="M36.4 68.4c1.2 1.3-2.2 5.6-5.9 4-2.6-1.1-.6-1.6 1-2.2 1.5-.4 4.9-1.8 4.9-1.8z"/><path fill="#F6A758" d="M28.03.55l1.4-.5L51.08 59.3l-1.4.5z"/><path fill="#C97746" d="M50.2 59.5l-.7.3L27.9.6l.7-.1zM40.3 62.1c-4.2 0-8.2-.8-12.1-2.4-3.7-1.6-7-3.8-9.9-6.6-2.8-2.8-5.1-6.2-6.6-9.9-1.6-3.8-2.4-7.9-2.4-12.1 0-3.6.6-7.1 1.8-10.5 1.2-3.2 2.8-6.2 5-8.9 2.1-2.7 4.7-5 7.6-6.8 2.9-1.9 6.1-3.2 9.5-4l.4 1.7C20.3 5.8 11 17.5 11 31.1c0 16.1 13.1 29.2 29.2 29.2 5.1 0 10-1.3 14.4-3.8l.9 1.6c-4.6 2.6-9.9 4-15.2 4z"/><path fill="#F6A758" d="M40.2 61.3c-4.1 0-8-.8-11.8-2.4-3.6-1.5-6.8-3.7-9.6-6.5s-5-6-6.5-9.6C10.8 39.1 10 35.1 10 31c0-3.5.6-6.9 1.8-10.2 1.1-3.2 2.8-6.1 4.9-8.7 2.1-2.6 4.6-4.8 7.4-6.6 2.9-1.8 6-3.1 9.3-3.9l.4 1.7C20.7 6.3 11.7 17.8 11.7 31c0 15.7 12.8 28.5 28.5 28.5 4.9 0 9.8-1.3 14-3.7l.9 1.5c-4.5 2.6-9.7 4-14.9 4z"/><ellipse cx="40.9" cy="30.7" fill="#22B0D3" transform="matrix(.607 -.795 .795 .607 -8.341 44.558)" rx="27.2" ry="27.2"/><path fill="#14737C" d="M59.8 25.5c-5.5 2.2-1.1 4.3-.4 7.7.6 2.6-3.5 9.1-.7 10.7 2.1 1.3 11.9-14.1 4.5-17.3l-3.4-1.1z" opacity=".5"/><path fill="#14737C" d="M33.9 45.9c-3 .9-6.8 3.3-5.4 6.1 1.1 2.2 5.9 3.9 8.3 4.4 2.2.5 7.6-1.3 7-4.2-.5-2.3-5.5-3.5-7.1-5.4l-2.8-.9z" opacity=".7"/><path fill="#14737C" d="M27.7 42.8c1 1 2.9 2.9 4.6 3.3 4.4 1 .9-1 .3-2.2-.5-.9.2-2.5-1.3-3.4-1.6-1-3.3-.4-3.8.6l.2 1.7z"/><path fill="#BFD856" d="M34.1 31.6c.7 1.3 1.8 2.6.5 3.9.1.1.1.2.2.2-.4.4-.7.8-.5 1.5.1.4.4.4.6.7.2.4-.2.5-.2.9.1 1 1.6 1.5 2.3 2 1 .7 1.9 1.7 2.9 2.3 1.1.7 2.3.2 3.2 1.2.3.4.8 1 .9 1.5.2.6 0 1.3.3 1.8.4.6.7.6 1 1.4.2.6.4 1.2.6 1.9.1.2.1.6.3.8.2.2.5.1.6.2.5.4.3 1 .6 1.4.6.8 1.8 1.3 2.8 1 .2-.1.4-.1.7-.1 0-.5-.5-.3-.8-.5-.6-.4-.3-.2-.4-.9 0-.3 0-.5 0-.9s.4-.6.1-1.1c.3-.1.4-.2.4-.5.7-.2 2.2-1.4 1.3-2.2 1.2-.7 2-1 2.2-2.5.1-.6.1-1.3.3-1.8.3-.6.9-1 1.4-1.4.8-.8 1.5-2 1.7-3 .3-1.3-.2-2.3.4-3.5.6-1.1 1.6-2.7 0-3.2-1.4-.5-2.6-.4-4-.4-.2-1-1.4-.2-2-.1-.2-.7-1.1-.1-1.6-.2.1-.2.2-.5.4-.7-.2-.3-.5-.5-.7-.8-.2-.3-.2-.7-.5-.9-.7-.5-1.8 0-2.5.2-1.1.3-1.3-.2-2.2-.7-.1-.1-.4-.1-.5-.2-.1 0-.4-.4-.4-.4-.4-.2-.8 0-.9-.5-1.3.1-2.2 1.1-3.7.8-.2 0-.6-.2-.7-.2-.2.2.1.4-.2.6-.8.5-.4.2-.8-.4-.4.4-1.9 2.7-2.3 2.6l-.8.2z"/><path fill="#586D0F" d="M49.8 54.5c-.9 0-1.8-.4-2.3-1.1-.1-.2-.2-.4-.3-.6-.1-.3-.1-.5-.4-.7 0 0-.1 0-.1 0-.1 0-.3 0-.5-.2-.1-.1-.2-.4-.3-.6 0-.1 0-.2-.1-.2-.3-.7-.5-1.3-.6-1.9-.1-.4-.3-.6-.5-.8-.1-.1-.3-.3-.5-.6s-.2-.7-.2-1.1c0-.3 0-.5-.1-.8-.1-.4-.6-1-.9-1.4-.5-.5-1.1-.6-1.7-.7-.5-.1-1-.1-1.5-.5-.6-.4-1.1-.8-1.6-1.3-.4-.4-.9-.7-1.3-1-.2-.1-.4-.3-.7-.4-.7-.4-1.6-.9-1.7-1.7 0-.2.1-.3.1-.4.1-.1.1-.3.1-.4 0-.1-.1-.2-.2-.3-.1-.1-.3-.2-.3-.5-.2-.8.1-1.2.5-1.5 0 0 0 0-.1-.1 0 0-.1-.1-.1-.1l-.1-.1.1-.1c1-1.1.4-2.1-.2-3.2-.1-.2-.2-.4-.3-.6l-.1-.1.9-.3c.3 0 1.1-1.1 1.6-1.8.3-.3.5-.6.6-.8l.1-.1.1.1c.2.2.2.4.3.5 0 0 0 .1 0 .1.1 0 .3-.2.4-.2.1.1.1 0 .1-.1s.1-.2.3-.3c.1 0 .3 0 .5.1.1 0 .2.1.2.1.2.1.4.1.6.1.6 0 1.1-.2 1.6-.4s.9-.4 1.5-.4h.1v.1c0 .3.2.3.4.4.1 0 .2 0 .4.1v.1l.1-.1s.3.3.4.4c0 0 .1.1.2.1s.2.1.3.1c.2.1.4.2.6.4.3.2.6.4 1 .4.2 0 .3 0 .5-.1.1 0 .3-.1.5-.1.4-.1.9-.3 1.3-.3.3 0 .6.1.8.2.2.1.3.4.4.6 0 .1.1.2.1.3.1.2.2.3.4.4.1.1.2.2.3.4v.2c-.1.2-.2.3-.3.5.1 0 .2 0 .4-.1s.4-.1.6-.1c.3 0 .4.1.5.3.1 0 .2-.1.4-.1.3-.1.7-.3 1-.3.3 0 .6.2.7.5.1 0 .2 0 .4 0s.5 0 .7 0c1 0 1.9.1 2.9.4.4.1.7.4.8.7.3.7-.2 1.6-.6 2.4-.1.1-.1.2-.2.3-.3.7-.3 1.3-.3 1.9 0 .5 0 1-.1 1.5-.2 1.1-1.1 2.3-1.8 3-.1.2-.3.3-.5.4-.3.3-.7.6-.9 1-.2.3-.2.8-.2 1.2 0 .2 0 .4-.1.6-.2 1.4-.9 1.8-1.9 2.4-.1 0-.2.1-.2.1.2.2.3.5.2.7-.2.7-1 1.3-1.6 1.5 0 .3-.1.4-.3.5.1.3.1.5 0 .7 0 .1-.1.2-.1.3v.1c0 .3 0 .4 0 .7 0 .2 0 .4 0 .5 0 .1 0 .2.3.4.1.1.2.1.3.1.2 0 .5.1.6.5v.1h-.1c-.2 0-.5 0-.7.1-.2 0-.4 0-.6 0zm-15.1-19c.1 0 .1.1 0 0 .1.1.1.1.2.2l.1.1-.1.1c-.4.3-.7.7-.5 1.4.1.2.2.3.3.4.1.1.2.2.3.3.1.3 0 .4-.1.6-.1.1-.1.2-.1.3.1.7.9 1.1 1.6 1.5.3.1.5.3.7.4.5.3.9.7 1.3 1.1.5.4 1.1.9 1.6 1.3.4.3.9.4 1.4.4.6.1 1.3.2 1.8.8.3.3.8 1 1 1.5.1.3.1.6.1.8 0 .4 0 .7.2 1 .1.2.3.4.4.5.2.2.4.4.6.9.2.6.4 1.2.6 1.9 0 .1.1.2.1.3.1.2.1.4.2.5.1.1.2.1.4.1.1 0 .2 0 .3.1.3.3.4.5.4.8 0 .2.1.4.2.6.5.6 1.3 1 2.1 1 .2 0 .4 0 .6-.1.2 0 .4-.1.6-.1 0-.2-.2-.2-.4-.2-.1 0-.3-.1-.4-.1-.4-.2-.5-.3-.4-.6 0-.1 0-.2 0-.4 0-.3 0-.5 0-.7v-.1c0-.2.1-.3.1-.4.1-.2.1-.4 0-.6l-.1-.1h.1c.2 0 .3-.2.3-.4v-.1h.1c.5-.1 1.3-.7 1.5-1.3.1-.3 0-.5-.2-.6l-.1-.1.1-.1c.1-.1.2-.1.3-.2 1-.6 1.6-.9 1.8-2.2 0-.2 0-.4.1-.6 0-.4.1-.9.2-1.2.2-.4.6-.7.9-1 .2-.1.3-.3.5-.4.7-.7 1.5-1.9 1.7-2.9.1-.5.1-1 .1-1.5 0-.7-.1-1.3.3-2 .1-.1.1-.2.2-.3.4-.8.9-1.6.6-2.2-.1-.3-.3-.5-.7-.6-1-.3-1.8-.4-2.8-.4-.2 0-.5 0-.7 0-.1 0-.3 0-.4 0h-.1v-.1c-.1-.3-.2-.4-.5-.4s-.6.1-.9.2c-.2.1-.3.1-.5.2h-.1v-.1c0-.2-.1-.3-.4-.3-.2 0-.4.1-.5.1-.2 0-.4.1-.5.1 0 0 0 0-.1 0H50v-.1c.1-.2.2-.4.4-.7-.1-.1-.2-.2-.3-.3-.1-.1-.3-.3-.4-.5-.1-.1-.1-.2-.2-.3-.1-.2-.1-.4-.3-.5-.2-.1-.4-.2-.7-.2-.4 0-.9.1-1.3.3-.1-.3-.3-.3-.4-.3-.2.1-.4.1-.6.1-.5 0-.7-.2-1.1-.4-.2-.1-.4-.2-.6-.3-.1 0-.2-.1-.2-.1-.1 0-.2-.1-.3-.1 0 0-.2-.1-.2-.2-.1-.1-.1-.1-.2-.2-.1 0-.2-.1-.3-.1-.2 0-.5-.1-.6-.4-.5.1-.9.2-1.3.4-.5.2-1 .4-1.7.4-.2 0-.4 0-.7-.1 0 0 0 0-.1 0-.1-.1-.3-.1-.4-.1-.2 0-.2.1-.2.2s-.1.2-.2.3c-.3.2-.4.3-.5.3-.1 0-.2-.1-.2-.2s-.1-.2-.2-.4c-.1.2-.3.4-.5.7-.8 1-1.4 1.8-1.7 1.8 0 0 0 0-.1 0l-.6.2c.1.2.2.4.3.5.5 1 1.2 2.1.1 3.2z"/><path fill="#BFD856" d="M33.8 31.4c-.6.2-1.1.6-1.8.2-.6-.3-.7-.8-.7-1.4 0-.6.4-1.4-.2-1.7-.7-.4-1.4.3-2.1.4-.1-.8 1.3-3.8-.5-2.9-1.1.6-1.4 2.4-2.9 2.2-.3-1.5-.1-5.5 1.6-5.7.6-.1 1.2.1 1.7-.2.5-.2.9-.7 1.4-.8 1.3-.2 1.1 1.6 2.1 1.8.5-.5.2-1.2.1-1.8-.1-.5 0-.9.5-1.5.6-.7 3.3-1.9 2.2-3.1.4-.4.6-.9.9-1.3.4-.5.9-.7 1.3-1.1-.5-.5 1.2-1.5 1.6-1.7 0 .2.1.3.1.4.4.1 1.9-1.1 1.7-1.5-.3-.7-1.8.8-1.6-.8-.1 0-.2 0-.3 0 .5-.6 1.1-.2 1.6-.4.4-.2.6-.9.8-1.3-.3-.4-.8-.2-1.3-.7-.4-.5-.6-1.1-1.4-1 .1 1-.6.2-.9.2-.6-.2-1 .2-1.5.2 0 .4.1.9-.1 1.3-.1.4-.5.5-.7.9-.2.3.1 1-.4 1.1-.5.2-.1-.7-.2-1-.5 0-1.4.1-1.8-.1-.7-.4 0-.7.5-1 .7-.5 2.7-1.5 1.8-2.6.2-.3.9-.3 1.2-.2.3.2.5.8-.1.7 0 .1 0 .2 0 .3.7.2 3.1.2 1.4-.6 0-.4.4-.3.7-.3 0 0 0-.2 0-.2-.9-.3-2.1-.2-3.1-.3.4-.4.1-.7.2-1.1-.6 0-1.6.4-1.5 1.2-.8.1-.4.9-.8 1.3-.3.3-1.5.8-1.8.8-.2-1.2-2.3.9-2.6.1-1.4-.1-2.9.3-4 1.3-.6.5-1 .7-1.8 1-1 .5-.8 1-1 1.9.4.1 2.3-1 2.5-1.4.5.5-.1.7-.4 1.1-.2.4-.2 1.1-.5 1.5-.4.5-.7.2-.9.9-.2.7 0 1-.4 1.5-.6.8-1.5 1.6-1.9 2.4-.5.9-.4 2.1-1 2.9 1.1 1 .7 2.9.2 4.1.1 0 .2.1.4.2 0 .7.5 1 .4 1.7.1 0 .2 0 .3 0 .3-.6-.4-1.4-.5-2.1-.1-.5-.1-1.9.3-2.2.5.3 0 1.1.1 1.5.1.5.6 1.1.8 1.5.4 1.1.2 2.3 1.4 2.9.6.3 1.3.5 1.9.6.6.2 1.2 0 1.7.1s1 .6 1.5.8c.6.2 1.3-.1 1.8.2.3.1.5.6.7.8.4.4.6.3 1.1.5.8.3 1.6 1.2 2 .3l.2-.8z"/><path fill="#586D0F" d="M33 32.9c-.3 0-.6-.2-1-.4-.2-.1-.4-.2-.6-.3-.1-.1-.3-.1-.4-.1-.3-.1-.4-.1-.7-.4-.1-.1-.2-.2-.3-.4-.1-.2-.2-.4-.4-.4-.1-.1-.3-.1-.5-.1-.1 0-.2 0-.3 0-.1 0-.2 0-.4 0s-.4 0-.6-.1c-.2-.1-.4-.2-.7-.4-.3-.2-.5-.4-.8-.4-.1 0-.2 0-.4 0-.1 0-.2 0-.3 0-.1 0-.3 0-.4 0-.2 0-.4 0-.6-.1-.6-.2-1.4-.4-2-.6-.9-.4-1-1.2-1.2-2-.1-.3-.1-.7-.3-1-.1-.2-.2-.5-.4-.7-.2-.3-.3-.6-.4-.9 0-.2 0-.4.1-.7.1-.4.1-.6 0-.8-.3.3-.3 1.5-.2 2 0 .2.1.5.3.7.2.5.4 1 .2 1.4h-.1c-.1 0-.2 0-.3 0h-.1v-.1c0-.3-.1-.6-.2-.8.1 0 0-.3 0-.6-.1 0-.1-.1-.1-.1-.1 0-.1-.1-.1-.1h-.1v-.1c.5-1.2.8-3-.2-4l-.1-.1.1-.1c.3-.5.5-1 .6-1.6.1-.5.2-1 .4-1.4.3-.5.7-1 1.1-1.4.3-.3.6-.7.8-1 .2-.3.3-.6.3-.9 0-.2 0-.4.1-.7.1-.4.3-.5.5-.6.1-.1.3-.1.4-.3.2-.2.2-.5.3-.8 0-.2.1-.5.2-.7.1-.1.2-.2.3-.3.2-.2.3-.4.2-.6-.4.4-2 1.3-2.5 1.3 0 0-.1 0-.1 0H22v-.1c.1-.2.1-.4.1-.6.1-.6.2-1 1-1.4.2-.1.4-.2.5-.3.4-.2.8-.4 1.2-.8 1-.9 2.3-1.3 3.6-1.3.2 0 .3 0 .5 0h.1v.1c0 .1.1.1.2.1.2 0 .5-.2.9-.3.4-.2.7-.4 1-.4.2 0 .4.1.5.4.4.4 1.4-.1 1.7-.3.2-.1.2-.4.3-.6 0-.3 0-.6.4-.7 0-.2 0-.4.2-.6.3-.4 1-.6 1.5-.7h.1v.1c0 .2 0 .3 0 .4 0 .2 0 .4-.1.6.2 0 .4 0 .7 0 .8 0 1.6 0 2.2.2h.1v.1s0 .2 0 .2v.1h-.1c-.1 0-.2 0-.3 0-.2 0-.3.1-.3.2.5.2.6.4.6.6 0 .2-.4.3-1.1.3-.4 0-.8 0-1-.1h-.1v-.1s0-.1 0-.1c0-.1 0-.1 0-.2v-.1h.1c.1 0 .1 0 .1 0 .1 0 .2 0 .2-.1s-.1-.4-.3-.5c-.1 0-.2-.1-.4-.1s-.5.1-.6.2c.1.2.2.5.1.7-.1.7-1.1 1.3-1.7 1.7-.1.1-.2.2-.3.2-.1.1-.2.1-.2.2-.3.2-.6.4-.5.5 0 .1.1.1.2.2.3.1.6.1.9.1.1 0 .2 0 .3 0 .1 0 .2 0 .3 0 .1 0 .2 0 .2 0h.1v.1c0 .1 0 .2-.1.4 0 .2-.1.5 0 .5 0 0 .1 0 .1 0 .2-.1.2-.3.2-.6 0-.2 0-.4.1-.5.1-.2.2-.3.4-.5.1-.1.3-.3.3-.5.1-.2.1-.6.1-.9 0-.1 0-.3 0-.4v-.1h.1c.2 0 .4-.1.6-.1.2-.1.4-.1.6-.1.1 0 .2 0 .4 0 .1 0 .2.1.3.1.1.1.3.2.4.2 0 0 0 0 .1 0 0 0 .1-.1 0-.4v-.1h.1s.1 0 .1 0c.6 0 .8.3 1.1.7.1.1.2.2.2.3.2.3.4.3.7.4.2.1.4.1.6.3v.1c-.1.4-.3 1.1-.8 1.4-.2.1-.5.1-.7.1h-.1c-.3 0-.5 0-.7.2 0 0 .1 0 .1 0h.1v.1c0 .3 0 .5.1.6 0 0 .1.1.2.1s.3 0 .4-.1c.2 0 .3-.1.5-.1s.3.1.4.3c0 .1 0 .3-.1.4-.3.5-1.3 1.2-1.6 1.2 0 0 0 0-.1 0h-.1V13c0-.1 0-.1 0-.2 0 0 0-.1 0-.1-1 .6-1.5 1-1.5 1.3 0 .1 0 .1.1.2l.1.1-.1.1c-.1.1-.3.2-.5.3-.3.2-.6.4-.9.7-.1.2-.2.4-.3.5-.1.2-.3.5-.5.7.2.2.3.4.2.7-.1.7-.9 1.2-1.6 1.8-.4.3-.7.5-.9.7-.5.6-.5 1-.3 1.6 0 .1 0 .2.1.2.2.6.3 1.1-.2 1.6h-.1c-.5-.1-.7-.6-1-1-.2-.4-.4-.9-1-.9-.1 0-.1 0-.2 0-.3 0-.5.2-.8.4-.2.1-.4.3-.6.4-.3.1-.6.1-.9.1-.1 0-.1 0-.2 0s-.1 0-.2 0-.3 0-.4 0c-.3 0-.6.2-.8.5-.8 1.1-.9 3.8-.7 5 0 0 .1 0 .1 0 .7 0 1.1-.5 1.5-1.1.3-.4.6-.9 1.1-1.1.2-.1.4-.2.6-.2.2 0 .3.1.4.2.3.3.1 1.1-.1 1.9-.1.4-.2.8-.2 1 .2 0 .4-.1.6-.2.3-.1.6-.3.9-.3.2 0 .3 0 .5.1.4.3.3.7.3 1.2 0 .2-.1.4-.1.6 0 .6.1 1 .7 1.3.2.1.3.2.5.2s.5-.1.7-.2c.1-.1.3-.1.4-.2l.2-.1-.3 1.2c0 .8-.2.9-.5.9zm-3.8-2.3c.2 0 .4 0 .6.1.2.1.3.3.5.5.1.1.2.2.2.3.3.3.4.3.7.4.1 0 .2.1.4.1.2.1.4.2.6.3.3.2.6.4.9.4.1 0 .3 0 .4-.3l.2-.8c-.1 0-.2.1-.2.1-.3.1-.5.2-.8.2-.2 0-.4-.1-.6-.2-.7-.4-.8-.9-.8-1.5 0-.2 0-.4.1-.6.1-.4.1-.8-.2-1-.1-.1-.3-.1-.4-.1-.3 0-.6.1-.9.3-.3.1-.5.2-.8.2H29v-.1c0-.2.1-.7.2-1.2.2-.7.3-1.5.1-1.7 0-.1-.1-.1-.2-.1s-.3.1-.5.2c-.4.2-.7.6-1 1-.4.6-.9 1.2-1.7 1.2-.1 0-.2 0-.2 0h-.1v-.1c-.2-1.2-.2-4 .7-5.2.3-.4.6-.6 1-.6.2 0 .3 0 .5 0 .1 0 .1 0 .2 0s.1 0 .2 0c.3 0 .6 0 .8-.1.2-.1.4-.2.6-.3.3-.2.5-.4.9-.4.1 0 .1 0 .2 0 .7 0 .9.5 1.2 1 .2.4.4.8.8.9.4-.4.2-.9.1-1.4 0-.1 0-.2-.1-.2-.2-.8-.1-1.2.4-1.8.2-.2.5-.5.9-.7.7-.5 1.5-1.1 1.5-1.6 0-.2-.1-.4-.2-.6l-.3-.3.1-.1c.2-.2.4-.5.5-.8.1-.2.2-.4.4-.6.3-.3.6-.6.9-.8.1-.1.3-.2.4-.3-.1-.1-.1-.2-.1-.3.1-.5 1-1.1 1.7-1.5l.2-.1v.2c0 .1 0 .1 0 .2 0 0 0 .1 0 .1.3-.1 1.1-.6 1.4-1.1.1-.1.1-.2.1-.3 0-.1-.1-.1-.2-.1s-.3 0-.4.1c-.2 0-.3.1-.5.1-.1 0-.3 0-.3-.1-.1-.1-.2-.3-.1-.7-.1 0-.1 0-.2 0h-.2l.1-.2c.3-.4.7-.4 1-.4h.1c.2 0 .4 0 .6-.1.4-.2.6-.8.7-1.2-.1.2-.3.1-.5.1-.2-.1-.5-.1-.8-.4-.1-.1-.2-.2-.3-.3-.3-.4-.4-.6-.9-.6 0 .2 0 .3-.1.4 0 0-.1.1-.2.1-.2 0-.3-.1-.5-.2-.1-.1-.2-.1-.3-.1-.1 0-.2 0-.3 0-.2 0-.4.1-.6.1-.2.1-.3.1-.5.1 0 .1 0 .2 0 .3 0 .3 0 .7-.1.9-.1.2-.2.4-.4.5-.1.1-.2.2-.3.4 0 .1-.1.2-.1.4 0 .3 0 .7-.4.8-.1 0-.1 0-.1 0-.1 0-.2 0-.2-.1-.1-.1-.1-.4 0-.7 0-.1 0-.2 0-.2-.1 0-.3 0-.4 0-.1 0-.2 0-.3 0-.3 0-.7 0-1-.2-.2-.1-.3-.2-.4-.4 0-.2.3-.4.6-.7.2 0 .3-.1.4-.1.1-.1.2-.1.3-.2.6-.4 1.5-1 1.6-1.6 0-.2 0-.4-.2-.6v-.2c.2-.2.5-.3.8-.3.2 0 .4 0 .5.1.2.1.4.4.3.7 0 .1-.1.2-.4.2 0 0 0 0-.1 0 0 0 0 0 0 .1.2 0 .6.1.9.1.6 0 .9-.1.9-.2 0 0 0-.1-.6-.4h-.1v-.1c0-.3.2-.4.5-.4.1 0 .1 0 .2 0-.3-.2-1-.2-1.8-.2-.3 0-.6 0-.9 0h-.2l.2-.2c.2-.2.2-.4.2-.6 0-.1 0-.2 0-.4-.4.1-.9.3-1.2.6-.1.2-.2.4-.1.6v.1h-.1c-.3 0-.4.2-.5.6 0 .2-.1.5-.3.7-.3.3-1.5.8-1.9.8h-.1v-.1c0-.3-.2-.3-.3-.3-.3 0-.6.2-1 .3-.4.2-.7.3-.9.3-.2 0-.3-.1-.3-.2-.1 0-.3 0-.4 0-1.3 0-2.5.5-3.4 1.3-.5.4-.8.6-1.2.8-.2.1-.3.2-.5.3-.7.4-.8.7-.9 1.3 0 .1 0 .3-.1.5.5-.1 2.1-1 2.3-1.3l.1-.1.1.1c.4.4.1.7-.1.9-.1.1-.2.2-.2.3-.1.2-.1.4-.2.6-.1.3-.1.6-.3.9-.2.2-.4.3-.5.4-.2.1-.3.1-.4.4-.1.2-.1.4-.1.6 0 .3-.1.6-.3 1-.2.3-.5.7-.8 1-.4.5-.8.9-1.1 1.4-.2.4-.3.8-.4 1.3-.1.5-.2 1.1-.6 1.6.6.6.8 1.6.7 2.5.1-.4.1-.7.3-.8h.2c.4.2.3.7.2 1 0 .2-.1.4-.1.6.1.2.2.5.4.8.1.2.3.5.4.7.1.3.2.7.3 1 .2.8.3 1.5 1.1 1.8.6.3 1.3.5 1.9.6.2 0 .4.1.6.1.1 0 .3 0 .4 0 .1 0 .2 0 .4 0s.3 0 .4 0c.3.1.6.3.9.5.2.2.4.3.6.4.1.1.3.1.5.1.1 0 .2 0 .4 0-.5-.2-.4-.2-.3-.2zm-8.6-3.4s.1 0 .1 0c.2-.3 0-.8-.2-1.2-.1-.3-.2-.5-.3-.8 0-.2-.1-.8 0-1.3-.1.5-.2 1-.4 1.5 0 0 .1 0 .1.1.1 0 .1.1.2.1h.1v.1c0 .3.1.5.2.8.1.2.2.4.2.7z"/><path fill="#B1BA43" d="M36 4.7c0 .1 0 .2.1.3.7 0 1.8 0 2.5.2 0 .1 0 .1 0 .2.8 0 1 .5 1.8.8.7.3 1.2.3 1.9.5 0-.7-.6-1-1-1.5.2-.1.2-.2.3-.3-.5-.1-.4-.5-.9-.6-.3-.1-1.1 0-1.5 0-.8 0-2-.3-2.7.1l-.5.3z"/><path fill="#586D0F" d="M42.4 6.9h-.1c-.2 0-.4-.1-.5-.1-.5-.1-.9-.1-1.4-.4-.3-.1-.5-.3-.7-.4-.3-.2-.6-.4-1.1-.4h-.1v-.1s0-.1 0-.1c-.4-.1-.9-.2-1.6-.2-.3 0-.5 0-.7 0h-.1v-.1c-.1-.1-.2-.2-.2-.4v-.1l.5-.4c.3-.1.6-.2 1.1-.2.4 0 .7 0 1.1.1.2 0 .4 0 .6.1.1 0 .3 0 .5 0s.3 0 .5 0 .3 0 .4 0c.3.1.4.2.5.4.1.1.2.2.4.3h.2l-.1.1s-.1.1-.1.1c0 .1-.1.1-.1.2.1.1.2.2.3.3.3.3.6.7.6 1.2l.1.1zm-3.7-1.6c.5 0 .8.2 1.1.4.2.1.4.3.6.4.5.2.9.3 1.4.4.1 0 .3 0 .4.1-.1-.4-.3-.6-.6-.9-.1-.1-.3-.3-.4-.4l-.1-.1.1-.1c.1 0 .1-.1.2-.2-.2-.1-.3-.2-.4-.3-.1-.1-.2-.2-.4-.3-.1 0-.2 0-.4 0s-.3 0-.5 0-.4 0-.6 0c-.2 0-.4 0-.6-.1-.3 0-.7-.1-1.1-.1-.4 0-.8.1-1 .2l-.4.3c0 .1 0 .1 0 .2.2 0 .4 0 .7 0 .8 0 1.4.1 1.8.2.2.2.2.3.2.3z"/><path fill="#B1BA43" d="M30.5 25.5c.6-.3.5-.7 1.1-1 .6-.2.9 0 1.5 0s.7-.1 1.4.2c.5.2 1 .3 1.5.4-.3.8-1.5.6-2.1.8 0-.1.1-.3.1-.4-.3 0-.7-.2-.8-.5-.5.3-.7-.1-1.2-.1-.5.1-.6.4-1 .6h-.5z"/><path fill="#586D0F" d="M33.7 26.1l.1-.2s0-.1 0-.1 0-.1 0-.1c-.3-.1-.6-.2-.7-.4-.1.1-.2.1-.3.1-.1 0-.3-.1-.4-.1-.1 0-.2-.1-.4-.1 0 0-.1 0-.1 0-.2 0-.4.2-.5.3-.1.1-.3.2-.4.3l-.6-.2.2-.1c.2-.1.4-.3.5-.4.2-.2.3-.4.7-.5.2-.1.4-.1.5-.1.2 0 .3 0 .4 0 .2 0 .3.1.6.1.1 0 .2 0 .3 0 .4 0 .5 0 1.1.2.4.2.9.3 1.4.4h.2v.1c-.3.6-.9.7-1.5.8-.2 0-.5.1-.7.1l-.4-.1zm-.5-1.2c.2.4.6.5.8.5h.2l-.1.1s0 .1-.1.2c.2 0 .3-.1.5-.1.5-.1 1.1-.1 1.3-.5-.5-.1-.9-.2-1.4-.4-.4-.2-.6-.2-.8-.2-.1 0-.1 0-.2 0s-.2 0-.3 0c-.2 0-.4 0-.6-.1-.1 0-.3 0-.4 0-.1 0-.3 0-.5.1-.3.1-.4.3-.6.5-.1.1-.2.3-.4.4l.2.1c.1-.1.2-.2.4-.3.2-.2.3-.3.6-.4 0 0 .1 0 .1 0 .2 0 .3.1.5.1.1 0 .2.1.3.1.2.1.3.1.5-.1z"/><path fill="#B1BA43" d="M34.9 26.3c-.1-.2-1.2-.1-1.5.3.3.2.7.4 1.1.3 0-.1 0-.1 0-.2.2-.1.5-.1.7-.2l-.3-.2z"/><path fill="#586D0F" d="M34.5 27c-.3 0-.7-.1-1.1-.3l-.1-.1.1-.1c.2-.3.8-.4 1.2-.4.2 0 .3 0 .4.1l.6.4h-.3c-.1 0-.3.1-.5.1-.1 0-.1 0-.1 0s0 .1 0 .1v.1h-.1c0 .1-.1.1-.1.1zm-.9-.4c.3.2.6.2.9.2 0 0 0-.1 0-.1v-.1h.1c.1 0 .1 0 .2-.1.1 0 .2 0 .2-.1l-.2-.1s-.1 0-.3 0c-.2 0-.7.1-.9.3z"/><path fill="#B1BA43" d="M36.6 25.8c-.4 0-.8.1-1.1.4.4.2.6 0 1 0 .2 0 .7.2.9.1.3-.1.4-.4.7-.6.3-.2.6 0 .9-.3-.2-.2-.4-.3-.7-.3 0-.1 0-.1.1-.2-.7-.2-1.4.1-2.1.3 0 0 0 .2 0 .2.2 0 .3.1.4.2v.2z"/><path fill="#586D0F" d="M37.3 26.4c-.1 0-.3 0-.5-.1-.1 0-.3-.1-.3-.1-.1 0-.2 0-.3 0-.1 0-.2 0-.3 0-.1 0-.2 0-.4-.1l-.1-.1.1-.1c.2-.2.6-.4 1-.4v-.1s0 0-.1-.1c-.1 0-.1-.1-.2-.1h-.1v-.1s0-.2 0-.2v-.1h.1c.2 0 .3-.1.5-.1.4-.1.8-.2 1.2-.2.2 0 .3 0 .5.1h.1v.1s0 .1 0 .1c.2 0 .4.2.6.3l.1.1-.2.2c-.2.2-.4.2-.6.3-.1 0-.2 0-.4.1-.1.1-.2.2-.3.3-.1.1-.2.3-.4.3zm-.9-.3s.1 0 0 0c.1 0 .3 0 .4.1.2 0 .3.1.4.1 0 0 .1 0 .1 0 .1 0 .2-.1.3-.3.1-.1.2-.2.3-.3.1-.1.3-.1.4-.1.1 0 .3 0 .4-.1-.2-.1-.3-.2-.5-.2h-.1v-.1s0-.1 0-.1c-.1 0-.2 0-.3 0-.4 0-.8.1-1.1.2-.1 0-.3.1-.4.1.1 0 .2.1.2.1s.1 0 .1.1h.1v.4h-.1c-.3 0-.6.1-.9.2.1 0 .3 0 .4 0 .1-.1.2-.1.3-.1z"/><path fill="#B1BA43" d="M40.3 24.6c-.3.1-.8.1-1 .5.2.4 1 .1 1.2-.2l-.2-.3z"/><path fill="#586D0F" d="M39.6 25.4c-.2 0-.4-.1-.5-.2.2-.4.6-.5.9-.6.1 0 .1 0 .2 0h.1l.3.4v.1c-.2.1-.6.3-1 .3zm-.2-.2c.1.1.1.1.3.1.3 0 .6-.2.8-.3l-.1-.2s-.1 0-.1 0c-.5 0-.8.1-.9.4z"/><path fill="#BFD856" d="M66.8 23.3c-.2-.1-.6-1-.8-1-.5 0-.4.5-.3.8-.9 0-.4 1-1.2.7-.5-.2-1.1-1.1-1.5-1.5-.2-.2-.5-.6-.7-.7-.3-.2-.8-.2-1-.4-.5-.4-.3-.9-.4-1.6-.2-.6-.6-1.4-1-1.9-.3-.5-1-.8-1.2-1.3-.3-.7 0-1.7-.2-2.5-.1-.7-.3-1.4-.6-2.1-.2-.5-.6-1.2-1-1.5-.5-.4-1-.2-1.5-.4-.6-.2-2.6-1.4-2.2-2.1-.4-.3-.6-.5-1-.6-.6-.2-.8 0-1.3-.4-.4-.3-.3-.6-.8-.8-.4-.1-.9-.2-1.2-.4 0 .1 0 .3 0 .4-.5 0-1.4-.3-1.6-.8.5-.2 1.6.2 1.7-.5 1.8.6 4.2 1.3 5.9 2.6-.5.7.6 1.2 1 1.7.7.6 1.3 1 1.2-.3.9.4 3.1 2.7 3.7 3.5 1.7 2.2 3.6 4.8 4.2 6 .9 2.1 1.8 5.1 1.8 5.1z"/><path fill="#586D0F" d="M64.8 24c-.1 0-.2 0-.3-.1-.4-.1-.8-.6-1.1-1-.2-.2-.3-.4-.4-.5-.1-.1-.2-.2-.3-.3-.1-.2-.3-.3-.4-.4-.1-.1-.3-.1-.5-.2s-.4-.1-.5-.2c-.4-.3-.4-.7-.4-1 0-.2 0-.4-.1-.6-.1-.6-.6-1.4-1-1.9-.1-.2-.3-.4-.5-.5-.3-.2-.6-.5-.7-.8-.2-.4-.1-.9-.1-1.4 0-.4 0-.8 0-1.1-.1-.7-.3-1.4-.6-2.1-.1-.3-.5-1.1-1-1.5-.3-.2-.5-.2-.8-.2-.2 0-.4 0-.7-.1-.4-.2-2-1-2.3-1.8 0-.1-.1-.3 0-.4 0 0 0 0-.1-.1-.3-.2-.5-.4-.9-.5-.2-.1-.4-.1-.5-.1-.3 0-.5-.1-.8-.3-.2-.1-.2-.3-.3-.4-.1-.2-.2-.3-.5-.4-.2-.1-.4-.1-.6-.2-.2 0-.3-.1-.5-.1 0 0 0 .1 0 .1 0 .1 0 .1 0 .2v.1h-.1c-.6 0-1.5-.3-1.7-.9v-.1h.1c.1-.1.3-.1.6-.1 0 0 .1 0 .1 0s.1 0 .1 0c.5 0 .8-.1.8-.3v-.1h.1c.1 0 .3.1.4.1 1.7.6 3.9 1.3 5.5 2.4l.2.2-.1.1c-.3.5.1.8.7 1.3.1.1.2.2.3.3.3.3.6.5.8.5 0 0 .1 0 .1 0 .1-.1.1-.2.1-.7v-.2l.1.1c1 .4 3.2 2.8 3.7 3.5 1.9 2.3 3.7 4.9 4.2 6 1 2 1.9 5 1.9 5l.1.3-.2-.1c-.1-.1-.2-.3-.4-.5-.1-.2-.3-.5-.4-.5-.1 0-.2 0-.2.1-.1.1-.1.4 0 .6l.1.1h-.2c-.4 0-.5.2-.5.4 0 .1-.1.3-.3.3zM48.7 5.6l.2.1c.2.1.4.1.6.2.1 0 .4.1.6.1.3.1.4.3.6.5.1.1.2.2.3.3.3.2.4.2.7.3.1 0 .3 0 .5.1.4.1.6.3.9.5 0 0 .1.1.1.1l.1.1V8c0 .1-.1.2 0 .3.2.7 1.7 1.5 2.2 1.7.1 0 .3 0 .5 0 .3 0 .6 0 .9.3.5.3.8 1 1 1.5.3.7.5 1.4.6 2.1.1.3.1.7.1 1.1 0 .5 0 1 .1 1.4.1.3.4.5.6.8.2.2.4.3.6.6.4.5.8 1.3 1 1.9.1.2.1.4.1.6 0 .4 0 .6.3.9.1.1.3.1.5.2s.4.1.5.2c.2.1.3.3.5.5.1.1.2.2.3.3.1.1.3.3.5.5.3.4.7.9 1 1 .1 0 .2 0 .2 0 .1 0 .2-.1.2-.2.1-.2.2-.5.6-.5-.1-.2-.1-.5.1-.7.1-.1.2-.2.4-.2.1 0 .3.2.5.5-.3-1-1-3-1.7-4.4-.5-1.1-2.3-3.6-4.2-5.9-.7-.9-2.6-3-3.6-3.5 0 .4 0 .6-.1.7-.1.1-.1.1-.2.1-.2 0-.6-.2-1-.6-.1-.1-.2-.2-.3-.3-.5-.4-1.1-.8-.8-1.5C53.1 6.3 51 5.6 49.3 5c-.1 0-.2-.1-.3-.1-.1.4-.7.4-1 .4 0 0-.1 0-.1 0s-.1 0-.1 0c-.1 0-.3 0-.4 0 .2.4.9.6 1.4.7 0 0 0-.1 0-.1 0-.1 0-.1 0-.2l-.1-.1z"/><path fill="#DCE869" d="M45.5 31.3c-4.7.2-7.7-1.6-6.9 3.9.4 2.5-.8 2.7 1.9 4.2 2.1 1.2 3.5.1 5.7.6 1.7.3 2.8 2.2 4.7 1.8.7-.1 4.3-3 4.7-3.9 1.9-4.7-5.1-2.7-7.4-5l-2.7-1.6z" opacity=".6"/><path fill="#DCE869" d="M31.2 10.8c-5.9-.3-5.9 5.4-6.1 9.6 4-.1 3.8.4 6.4-2.4 1.4-1.5 4.4-3.4 2-4.9l-2.3-2.3z" opacity=".8"/><path fill="#14737C" d="M36.3 50.6c15 0 27.2-12.2 27.2-27.2 0-3.5-.7-6.9-1.9-9.9 4 4.7 6.3 10.8 6.3 17.5 0 15-12.2 27.2-27.2 27.2-11.5 0-21.4-7.2-25.4-17.3 5.1 5.9 12.6 9.7 21 9.7z" opacity=".3"/><path fill="#8DDAE2" d="M55.9 12.6c3.4 5.2 2.5 11.9-2.1 14.8-4.5 3-11 1.1-14.4-4.1-3.4-5.2-2.5-11.9 2.1-14.8 4.5-3 11-1.1 14.4 4.1z" opacity=".2"/><path fill="#ED8707" d="M85.5 70.8c0 1.6-5.7 2.9-12.7 2.9-7 0-12.7-1.3-12.7-2.9s5.7-2.9 12.7-2.9c7 0 12.7 1.3 12.7 2.9z"/><path fill="#FFBD33" d="M61.4 71.9c.1-1.9 9.5-2.7 12.1-2.7 3.6 0 10.9 1.5 11.5 2.5 1.1-1.1.4-1.6-1-2.2-2.4-1.1-6-1.5-10.5-1.6-4.1-.1-11.9.8-12.9 2.4-.2.3-.2 1.3-.2 1.3l1 .3z"/><path fill="#682D21" d="M80 65.2c-.8 2-4.1 7.8-4.4 9.5-.3 1.6-.1 3.4-.1 3.4l.8.2s-.3-1.5.1-3.7c.5-3.1 5.2-11.4 6.1-13.3C84.3 57.4 89 52 89 52s-2.1 1.9-3.5 3.8c-1.4 2.1-4.7 7.4-5.5 9.4z"/><path fill="#F5952E" d="M84.2 65.4c-2.9-.1-4.2 1.1-4.2 1.1s2.1 2.2 5.5 2.3c3 .1 4.8-1.3 4.8-1.3s-3.4-2-6.1-2.1z"/><path fill="#CF4809" d="M79.9 66.5s0 0 .1 0 .2 0 .3 0c.1 0 .1 0 .2 0s.2 0 .3 0c.2 0 .4 0 .7 0 .1 0 .1 0 .2 0s.1 0 .2 0 .3 0 .4 0c.1 0 .1 0 .2 0s.1 0 .2 0 .3 0 .4 0c.2 0 .3 0 .5 0 .1 0 .2 0 .2 0s.1 0 .1 0 .1 0 .1 0c.1 0 .2 0 .2 0 .1 0 .2 0 .2 0 .1 0 .2 0 .2 0h.2c.2 0 .3 0 .5.1.2 0 .3 0 .5.1.3.1.6.1.9.2.3.1.6.1.9.2.3 0 .5.1.8.1 1 .2 1.6.3 1.6.3s0 0-.1 0-.2 0-.3-.1c-.1 0-.3-.1-.5-.1s-.4-.1-.6-.1c-.2 0-.5-.1-.8-.2-.3-.1-.6-.1-.9-.2-.1 0-.3-.1-.5-.1-.1 0-.2 0-.2 0-.1 0-.2 0-.2 0-.2 0-.3-.1-.5-.1s-.3-.1-.5-.1h-.2c-.1 0-.2 0-.2 0-.1 0-.2 0-.2 0-.1 0-.2 0-.2 0s-.1 0-.1 0-.1 0-.1 0c-.1 0-.2 0-.2 0-.2 0-.3 0-.5 0s-.3 0-.4 0c-.1 0-.1 0-.2 0s-.1 0-.2 0-.3 0-.4 0c-.1 0-.1 0-.2 0s-.1 0-.2 0-.2 0-.3 0c0 0-.1 0-.1 0s-.1 0-.1 0c-.1 0-.1 0-.2 0s-.2 0-.3 0c-.1 0-.2 0-.2 0-.1 0-.3 0-.3 0-.1 0-.2 0-.2 0z"/><path fill="#FFBD33" d="M86 61.6c-2.9 0-4.2 1.3-4.2 1.3s2.2 2.1 5.6 2c3-.1 4.7-1.5 4.7-1.5s-3.4-1.8-6.1-1.8z"/><path fill="#CF4809" d="M81.8 62.9s0 0 .1 0 .2 0 .3 0c.1 0 .1 0 .2 0s.2 0 .3 0c.2 0 .4 0 .7-.1.1 0 .1 0 .2 0s.1 0 .2 0 .3 0 .4 0c.1 0 .1 0 .2 0s.1 0 .2 0 .3 0 .4 0c.2 0 .3 0 .5 0 .1 0 .2 0 .2 0s.1 0 .1 0 .1 0 .1 0c.1 0 .2 0 .2 0 .1 0 .2 0 .2 0 .1 0 .2 0 .2 0h.2c.2 0 .3 0 .5 0s.3 0 .5.1c.3 0 .6.1.9.1.3 0 .6.1.9.1.3 0 .5.1.8.1 1 .1 1.6.2 1.6.2s0 0-.1 0-.2 0-.3-.1c-.1 0-.3-.1-.5-.1s-.4-.1-.7-.1c-.2 0-.5-.1-.8-.1-.3 0-.6-.1-.9-.1-.2 0-.3 0-.5-.1-.1 0-.2 0-.2 0-.1 0-.2 0-.2 0-.2 0-.3 0-.5-.1-.2 0-.3 0-.5-.1h-.2c-.1 0-.2 0-.2 0-.1 0-.2 0-.2 0-.1 0-.2 0-.2 0s-.1 0-.1 0-.1 0-.1 0c-.1 0-.2 0-.2 0-.2 0-.3 0-.5 0s-.3 0-.4 0c-.1 0-.1 0-.2 0s-.1 0-.2 0-.3 0-.4 0c-.1 0-.1 0-.2 0s-.1 0-.2 0-.2 0-.3 0c0 0-.1 0-.1 0s-.1 0-.1 0c-.1 0-.1 0-.2 0s-.2 0-.3 0c-.1 0-.2 0-.2 0-.1 0-.2 0-.3.1 0 .2-.1.2-.1.2z"/><path fill="#DF6409" d="M87.9 57.7c-3.1.3-4.2 1.8-4.2 1.8s2.5 2 5.9 1.6c3.1-.3 4.8-2 4.8-2s-3.7-1.7-6.5-1.4z"/><path fill="#CF4809" d="M83.6 59.5s.1 0 .1 0c.1 0 .2 0 .3-.1.1 0 .2 0 .2-.1.1 0 .2 0 .3-.1.2 0 .4-.1.7-.1.1 0 .1 0 .2 0s.1 0 .2 0 .3 0 .4-.1c.1 0 .1 0 .2 0s.1 0 .2 0c.2 0 .3 0 .5 0s.3 0 .5 0c.1 0 .2 0 .2 0s.1 0 .1 0 .1 0 .1 0c.1 0 .2 0 .2 0 .1 0 .2 0 .3 0 .1 0 .2 0 .3 0h.6c.1 0 .2 0 .3 0 .1 0 .2 0 .3 0 .1 0 .2 0 .2 0 .3 0 .7 0 1 0 .3 0 .6 0 .9 0 .3 0 .6 0 .8 0 1 .1 1.7.1 1.7.1s0 0-.1 0-.2 0-.3 0c-.1 0-.3 0-.5 0s-.4 0-.7-.1c-.3 0-.5 0-.8-.1-.3 0-.6 0-.9-.1-.2 0-.3 0-.5 0-.1 0-.2 0-.2 0-.1 0-.2 0-.2 0-.1 0-.2 0-.2 0-.1 0-.2 0-.3 0-.1 0-.2 0-.3 0h-.6c-.1 0-.2 0-.3 0-.1 0-.2 0-.3 0-.1 0-.2 0-.2 0s-.1 0-.1 0-.1 0-.1 0c-.1 0-.2 0-.2 0-.2 0-.3 0-.5 0s-.3 0-.5.1c-.1 0-.2 0-.2 0-.1 0-.1 0-.2 0s-.3 0-.4.1c-.1 0-.1 0-.2 0s-.1 0-.2 0-.2 0-.4.1c0 0-.1 0-.1 0s-.1 0-.1 0c-.1 0-.1 0-.2 0s-.2 0-.3.1c-.1 0-.2 0-.2.1-.1 0-.3.1-.3.1-.1.1-.1.1-.2.1z"/><path fill="#F5952E" d="M89.2 53.8c-2.7 1.1-3.5 2.7-3.5 2.7s2.7 1.2 5.8 0c2.8-1.1 3.9-3.1 3.9-3.1s-3.7-.6-6.2.4z"/><path fill="#CF4809" d="M85.8 56.5c.2-.1.3-.1.4-.2.1 0 .1-.1.2-.1s.2-.1.2-.1c.1 0 .2-.1.3-.1.1 0 .2-.1.3-.1.1 0 .1-.1.2-.1s.1-.1.2-.1c.1-.1.2-.1.4-.2 0 0 .1 0 .1 0s.1 0 .1 0c.1 0 .1-.1.2-.1.1-.1.3-.1.4-.2.1-.1.3-.1.4-.2.1 0 .1-.1.2-.1 0 0 .1 0 .1 0s.1 0 .1 0c.1 0 .1 0 .2-.1.1 0 .2 0 .2-.1.1 0 .2 0 .2-.1l.2-.1.2-.1c.1 0 .2 0 .2-.1.1 0 .2 0 .2-.1.1 0 .2 0 .2-.1.3-.1.6-.2.9-.2.3-.1.6-.1.8-.2.3-.1.5-.1.8-.2.9-.2 1.6-.4 1.6-.4s0 0-.1 0-.2 0-.3.1c-.1 0-.3.1-.5.1s-.4.1-.6.1c-.2 0-.5.1-.8.2-.3.1-.6.1-.8.2-.1 0-.3.1-.4.1-.1 0-.3.1-.5.1-.1 0-.2 0-.2.1-.1 0-.2 0-.2.1-.1 0-.2 0-.2.1l-.2.1-.2.1c-.1 0-.2 0-.2.1-.1 0-.2 0-.2.1-.1 0-.2 0-.2.1 0 0-.1 0-.1 0s-.1 0-.1 0c-.1 0-.1.1-.2.1-.1.1-.3.1-.4.2-.1.1-.3.1-.4.2-.1 0-.1.1-.2.1 0 0-.1 0-.1 0s-.1 0-.1 0c-.1.1-.2.1-.4.2-.1 0-.1.1-.2.1s-.1.1-.2.1c-.1.1-.2.1-.3.2-.1 0-.2.1-.3.1-.1 0-.2.1-.2.1-.1 0-.1.1-.2.1-.3 0-.4.1-.5.2z"/><path fill="#F5952E" d="M90.3 48.9c-2.3 2.1-2.4 4.2-2.4 4.2s3.1.3 5.7-2.1c2.3-2.2 2.7-4.7 2.7-4.7s-3.9.6-6 2.6zM84.3 46s-1.3 3.7-1 6.6c.3 3.1 1.6 4.3 1.6 4.3s1.6-2.5 1.2-6c-.4-3.2-1.8-4.9-1.8-4.9z"/><path fill="#CF4809" d="M84.8 56.9s0 0 0-.1 0-.2-.1-.3c0-.1 0-.2 0-.2 0-.1 0-.2-.1-.3 0-.2-.1-.4-.1-.7 0-.1 0-.1 0-.2s0-.1 0-.2 0-.3-.1-.4c0-.1 0-.1 0-.2s0-.2 0-.2c0-.2 0-.3 0-.5s0-.3 0-.5c0-.1 0-.2 0-.2s0-.1 0-.1 0-.1 0-.1c0-.2 0-.3 0-.5 0-.1 0-.2 0-.3v-.3c0-.2 0-.3 0-.5 0-.1 0-.2 0-.3 0-.1 0-.2 0-.3 0-.3 0-.7 0-1 0-.3 0-.6 0-.9 0-.3 0-.6 0-.8 0-1 0-1.7 0-1.7s0 0 0 .1 0 .2 0 .3c0 .1 0 .3 0 .5s0 .4 0 .7c0 .3 0 .5 0 .8 0 .3 0 .6 0 .9 0 .2 0 .3 0 .5s0 .3 0 .5c0 .1 0 .2 0 .3 0 .1 0 .2 0 .3 0 .2 0 .3 0 .5v.3c0 .1 0 .2 0 .3 0 .2 0 .3 0 .5 0 0 0 .1 0 .1s0 .1 0 .1c0 .1 0 .2 0 .2 0 .2 0 .3 0 .5s0 .3.1.5c0 .1 0 .2 0 .2 0 .1 0 .1 0 .2s0 .3.1.4c0 .1 0 .1 0 .2s0 .1 0 .2 0 .2.1.4c0 .1 0 .2.1.3 0 .1 0 .2.1.3 0 .1 0 .2.1.2 0 .1.1.3.1.3-.3.1-.3.2-.3.2z"/><path fill="#F5952E" d="M78.3 49.9s.3 4 1.7 6.4c1.5 2.7 3.1 3.2 3.1 3.2s.4-3-1.3-6.1c-1.6-2.7-3.5-3.5-3.5-3.5z"/><path fill="#CF4809" d="M83.1 59.5c-.1-.2-.2-.3-.3-.4 0-.1-.1-.1-.1-.2-.1-.1-.1-.2-.2-.2-.1-.2-.2-.4-.4-.6 0-.1-.1-.1-.1-.2s-.1-.1-.1-.2c-.1-.1-.1-.2-.2-.4-.1-.1-.1-.3-.2-.4-.1-.1-.2-.3-.2-.4-.1-.1-.2-.3-.2-.4 0-.1-.1-.1-.1-.2 0 0 0-.1-.1-.1 0 0 0-.1-.1-.1-.1-.2-.1-.3-.2-.5 0-.1-.1-.2-.1-.2l-.1-.2c-.1-.2-.1-.3-.2-.5 0-.1-.1-.2-.1-.2 0-.1-.1-.2-.1-.2-.1-.3-.3-.6-.4-.9-.1-.3-.2-.6-.4-.8-.1-.3-.2-.5-.3-.8-.4-.9-.6-1.6-.6-1.6s0 0 0 .1.1.2.1.3c.1.1.1.3.2.5s.2.4.2.6c.1.2.2.5.3.8.1.3.2.6.3.8.1.1.1.3.2.4.1.2.1.3.2.5 0 .1.1.2.1.2 0 .1.1.2.1.2.1.2.1.3.2.5l.1.2c0 .1.1.2.1.2.1.2.1.3.2.5 0 0 0 .1.1.1 0 0 0 .1.1.1 0 .1.1.1.1.2.1.1.2.3.2.4.1.1.2.3.2.4.1.1.2.3.2.4.1.1.2.2.2.4 0 .1.1.1.1.2s.1.1.1.2c.1.1.1.2.2.3.1.1.1.2.2.3.1.1.1.2.2.2.1.1.1.1.1.2.3.3.4.4.5.5z"/><path fill="#F5952E" d="M79.2 56.8c-2.1-2.4-4.4-2.7-4.4-2.7s.7 4 2.6 6.1c2 2.3 3.8 2.4 3.8 2.4s.3-3.1-2-5.8z"/><path fill="#CF4809" d="M81.3 62.7c-.1 0-.1-.1 0 0-.2-.1-.2-.2-.3-.3-.1 0-.1-.1-.2-.2s-.1-.1-.2-.2-.3-.3-.5-.5c0 0-.1-.1-.1-.1s-.1-.1-.1-.1c-.1-.1-.2-.2-.3-.3 0-.1-.1-.1-.1-.2s-.1-.1-.1-.2c-.1-.1-.2-.2-.3-.4-.1-.1-.2-.2-.3-.4-.1-.1-.1-.1-.2-.2 0 0-.1-.1-.1-.1s0-.1-.1-.1c0-.1-.1-.1-.1-.2s-.1-.1-.1-.2-.1-.1-.1-.2l-.1-.2c-.1-.1-.2-.3-.3-.4-.1-.1-.2-.3-.3-.4-.1-.1-.2-.3-.3-.4-.1-.1-.2-.3-.3-.4-.2-.3-.3-.5-.5-.8-.2-.2-.3-.5-.4-.7-.5-.9-.9-1.4-.9-1.4s0 0 .1.1c0 .1.1.2.2.3.1.1.2.3.3.5.1.2.2.4.3.6.1.2.3.5.4.7.1.2.3.5.5.8.1.1.2.3.3.4 0 .1.1.1.1.2s.1.1.1.2c.1.1.2.3.3.4.1.1.2.3.3.4l.1.2c0 .1.1.1.1.2s.1.1.1.2.1.1.1.2c0 0 0 .1.1.1 0 0 .1.1.1.1.1.1.1.1.2.2s.2.3.3.4c.1.1.2.2.3.3.1.1.1.1.2.2 0 .1.1.1.1.2.1.1.2.2.3.3 0 0 .1.1.1.1s.1.1.1.1c.1.1.2.2.3.3 0 0 0 0 .1.1 0 0 0 0 .1.1 0 0 .1.1.1.1.1.1.1.1.2.2s.1.1.2.2c-.1 0 0 .1.2.2-.1-.1-.1 0 0 0z"/><path fill="#F5952E" d="M73.4 58.2s.9 3.7 2.6 5.8c1.9 2.3 3.5 2.5 3.5 2.5s0-3-2.1-5.6c-2-2.2-4-2.7-4-2.7z"/><path fill="#CF4809" d="M79.4 66.6s0-.1 0 0c-.1-.1-.2-.2-.3-.3 0 0-.1-.1-.2-.2s-.1-.1-.2-.2-.1-.1-.2-.2-.1-.2-.2-.2c-.2-.2-.3-.4-.5-.6 0-.1-.1-.1-.1-.2s-.1-.1-.1-.2c-.1-.1-.2-.2-.3-.3 0 0 0-.1-.1-.1 0 0 0-.1-.1-.1 0-.1-.1-.1-.1-.2-.1-.1-.2-.2-.3-.4 0-.1-.1-.1-.1-.2s-.1-.1-.1-.2c-.1-.1-.2-.3-.3-.4-.1-.1-.2-.3-.3-.4-.1-.1-.2-.3-.2-.4-.1-.1-.2-.3-.2-.4-.1-.1-.2-.3-.2-.4-.1-.2-.3-.5-.4-.7-.1-.2-.3-.4-.4-.6-.1-.2-.2-.4-.3-.5-.1-.2-.2-.3-.2-.4-.1-.2-.2-.4-.2-.4s0 0 .1.1c0 .1.1.2.1.3.1.1.1.3.2.4.1.2.2.4.3.6.1.2.2.4.4.7.1.1.1.2.2.4.1.1.1.2.2.4.1.1.2.3.2.4.1.1.2.3.2.4.2.3.3.5.5.8.1.1.2.3.3.4 0 .1.1.1.1.2s.1.1.1.2c.1.1.2.2.3.4 0 .1.1.1.1.2 0 0 0 .1.1.1 0 0 0 .1.1.1.1.1.2.2.3.3 0 .1.1.1.1.2s.1.1.1.2c.2.2.3.4.5.6.1.1.2.2.2.2.1.1.1.1.2.2s.1.1.2.2.1.1.2.2c.1-.2.2-.1.3 0z"/><path fill="#F5952E" d="M73.2 63.3s.3 3.1 1.6 4.8c1.3 1.9 2.7 2.2 2.7 2.2s.3-2.4-1.2-4.6c-1.4-2-3.1-2.4-3.1-2.4z"/><path fill="#CF4809" d="M77.5 70.3s-.1-.1-.2-.3c0 0-.1-.1-.1-.1 0-.1-.1-.1-.1-.2-.1-.1-.2-.3-.3-.4 0 0-.1-.1-.1-.1s-.1-.1-.1-.1c-.1-.1-.1-.2-.2-.3 0 0-.1-.1-.1-.1s-.1-.1-.1-.1c-.1-.1-.1-.2-.2-.3-.1-.1-.1-.2-.2-.3 0-.1-.1-.1-.1-.2 0 0 0-.1-.1-.1v-.1c-.1-.1-.1-.2-.2-.3 0-.1-.1-.1-.1-.2l-.1-.2c-.1-.1-.1-.2-.2-.3 0-.1-.1-.1-.1-.2s-.1-.1-.1-.2c-.1-.2-.2-.4-.3-.7-.1-.2-.2-.4-.3-.6-.1-.2-.2-.4-.3-.6-.3-.7-.6-1.2-.6-1.2s0 0 0 .1.1.1.1.2.1.2.2.4c.1.1.1.3.2.5s.2.4.3.6c.1.2.2.4.3.6.1.1.1.2.2.3.1.1.1.2.2.3 0 .1.1.1.1.2s.1.1.1.2c.1.1.1.2.2.3l.1.2c0 .1.1.1.1.2.1.1.1.2.2.3v.1s0 .1.1.1c0 .1.1.1.1.2.1.1.1.2.2.3.1.1.1.2.2.3 0 0 .1.1.1.1s.1.1.1.1c.1.1.1.2.2.3 0 0 .1.1.1.1s.1.1.1.1c.1.1.1.1.2.2s.1.1.2.2.1.1.1.2c0 0 .1.1.1.1-.1.2 0 .3.1.4zM88.1 52.9c.1-.1.2-.2.3-.3 0-.1.1-.1.1-.2.1-.1.1-.1.2-.2s.1-.2.2-.2c.1-.1.2-.2.2-.3 0 0 .1-.1.1-.1s.1-.1.1-.1c.1-.1.2-.2.3-.3 0 0 0 0 .1-.1 0 0 .1 0 .1-.1.1 0 .1-.1.2-.1.1-.1.2-.2.3-.3.1-.1.2-.2.3-.3.1-.1.1-.1.2-.2 0 0 .1-.1.1-.1s.1 0 .1-.1c.1 0 .1-.1.2-.1.1-.1.1-.1.2-.1s.1-.1.2-.1l.2-.1.2-.1c.1 0 .1-.1.2-.1s.1-.1.2-.1.1-.1.2-.1c.3-.2.5-.4.7-.5.2-.2.5-.3.7-.5.2-.2.4-.3.6-.4.8-.5 1.3-.9 1.3-.9s0 0-.1.1c-.1 0-.2.1-.3.2-.1.1-.3.2-.4.3-.2.1-.3.2-.5.4-.2.1-.4.3-.6.4-.2.2-.5.3-.7.5-.1.1-.2.2-.4.3-.1.1-.3.2-.4.3-.1 0-.1.1-.2.1s-.1.1-.2.1-.1.1-.2.1l-.2.1-.2.1c-.1 0-.1.1-.2.1s-.1.1-.2.1c-.1.1-.1.1-.2.2 0 0-.1 0-.1.1 0 0-.1.1-.1.1-.1.1-.1.1-.2.2s-.2.2-.3.3c-.1.1-.2.2-.3.3-.1.1-.1.1-.2.2 0 0 0 0-.1.1 0 0 0 .1-.1.1-.1.1-.2.2-.3.3 0 0-.1.1-.1.1s-.1.1-.1.1c-.1.1-.2.2-.2.3-.1.1-.1.2-.2.2-.1.1-.1.1-.2.2s-.1.1-.1.2c0-.3-.1-.3-.2-.1z"/><path fill="#FAFAFF" d="M73.7 88.5c.3 0 .6.3.5.6l-.2 3.3c0 .3-.3.6-.6.5l-1.5-.1c-.3 0-.6-.3-.5-.6l.2-3.3c0-.3.3-.6.6-.5l1.5.1z"/><path fill="#2FAFB7" d="M71.45 91.57l2.02-37.65 2.6.14-2.02 37.65z"/><path fill="#ECBA84" d="M73.5 53.9l1.5-3.6 1.1 3.7z"/><path d="M74.5 51.5h.8l-.3-1.2z" opacity=".9"/><path fill="#14737C" d="M72.77 91.6l2.02-37.66 1.3.07-2.03 37.66z"/><path d="M71.53 89.73l.04-.7 2.6.14-.04.7z" opacity=".9"/><path fill="#913916" d="M80.4 45.7L74 73.9c-.1.3-.6 3.9-.2 4 .4.1 1.5-3.4 1.6-3.7L82.2 46l-1.8-.3z"/><path fill="#B0ABBA" d="M82.1 38.5l2 .2-1.9 7.4-1.8-.4z"/><path d="M83.5 38.8s-2.2.1-2.6-1.6c-.5-2.3 2.3-3.8 1.6-6.6-.3-1.4-.8-1.7.8-.3 4 3.4 2.9 7 1.8 7.8-1.3.9-1.6.7-1.6.7z"/><path fill="#fff" d="M82.6 38.7h.2l-1.5 7.2-.6-.1z" opacity=".7"/><path fill="#913916" d="M65.9 56.2L69.2 85c0 .3.7 3.9 1.1 3.8.4 0 .3-3.7.3-4L67.7 56l-1.8.2z"/><path fill="#B0ABBA" d="M65.1 49l1.9-.6.7 7.6-1.8.2z"/><path d="M66.5 48.7s-2 .8-3-.7c-1.2-2 .9-4.3-.7-6.8-.8-1.2-1.3-1.4.7-.6 4.9 1.9 5 5.7 4.2 6.8-.8 1.4-1.2 1.3-1.2 1.3z"/><path fill="#fff" d="M65.7 49.3l.1-.1 1 6.5-.6.1z" opacity=".5"/><path fill="#C9BED1" d="M72 83.9c.2.7-.2 1.5-1 1.8-.8.3-1.6-.1-1.9-.8-.2-.7.2-1.5 1-1.8.8-.3 1.7.1 1.9.8z"/><path fill="#797085" d="M70.1 83.1l.9 2.6c.8-.3 1.2-1.1 1-1.8s-1.1-1.1-1.9-.8z"/><path fill="#1E2222" d="M65.13 72.8l2.84-.97 3.9 11.56-2.85.95zM61.04 60.2l2.46-.83L71.8 84l-2.47.84z"/><path fill="#797085" d="M61.1 60.18l1.23-.42 8.3 24.64-1.24.42z"/><path fill="#1E2222" d="M69.17 84.25l2.66-.9.2.58-2.66.9z"/><path fill="#C9BED1" d="M63.5 59.3l-2.6-3.8.2 4.6z"/><path fill="#797085" d="M62.3 59.7l1.2-.4-2.6-3.8z"/><path d="M61.5 56.3l-.6.2v-.9zM65.08 72.24l2.46-.83.2.58-2.47.83zM70.3 83.9l-1.5.5c-.2.1-.4-.1-.5-.3l-3.4-10-.4.1L68 84.7c.1.3.3.4.5.3l1.9-.6-.1-.5z" opacity=".9"/><path fill="#797085" d="M65.1 72.86l1.43-.48 3.9 11.56-1.43.48z"/><path fill="#C9BED1" d="M87.1 55.1c.2-.7-.3-1.5-1.1-1.7-.8-.2-1.6.2-1.8 1-.2.6.3 1.4 1.1 1.6.8.3 1.6-.2 1.8-.9z"/><path fill="#797085" d="M85.3 56l.7-2.7c.8.2 1.3 1 1.1 1.7-.2.8-1 1.2-1.8 1z"/><path fill="#1E2222" d="M80.9 66.62l3.18-11.77 2.9.78-3.2 11.78zM77.64 79.54l6.8-25.1 2.5.68-6.8 25.1z"/><path fill="#797085" d="M77.57 79.5l6.8-25.1 1.26.35-6.8 25.1z"/><path fill="#1E2222" d="M84.3 54.9l.14-.57 2.7.73-.15.58z"/><path fill="#C9BED1" d="M80.1 80.2l-2.4 4-.1-4.7z"/><path fill="#797085" d="M78.9 79.8l1.2.4-2.4 4z"/><path d="M78.3 83.3l-.6-.2v1zM80.98 67.17l.16-.58 2.5.67-.15.58zM85.4 55.2l-1.5-.4c-.2-.1-.4.1-.5.4l-2.8 10.2-.4-.1 2.9-10.7c.1-.3.3-.4.5-.4l1.9.5-.1.5z" opacity=".9"/><path fill="#797085" d="M80.85 66.6l3.2-11.8 1.44.4-3.2 11.78z"/><path fill="#FFCF9C" d="M70.7 57.4l-1.4 4.5v.6h3.5v-.6l-1.3-4.5z"/><path fill="#ECBA84" d="M70.7 57.4l-.7 5.1h2l-.6-5.1z"/><path fill="#C6794D" d="M70.3 62.4l.6-4.1-.2-.9-1.4 4.7v.3z"/><path fill="#83B520" d="M70.5 58.4l.6-2.5.8 3.1-.8-.3z"/><path fill="#43771E" d="M71.1 56l-.3 2.5-.4-.1z"/><path fill="#BBDF67" d="M71.1 55.9l.4 3 .4.1zM69.3 62.4H72s0-.8.4-.8.4.8.4.8v26.1l-.8.8h-1.7l-1-.8V62.4z"/><path fill="#83B520" d="M72 89.3h-1.7V62.4s.2-1 .8-1c.7 0 .9 1 .9 1v26.9z"/><path fill="#43771E" d="M69.3 88.5l1 .8V62.4s0-.8-.5-.8-.5.8-.5.8v26.1z"/><ellipse cx="72.8" cy="97.5" fill="#FFBD33" rx="8.3" ry="2.3"/><path fill="#FFBD33" d="M61.7 73.7l2.7 23.6h16.8l2.7-23.6z"/><path fill="#FFD833" d="M63.4 76.1L65.5 96s1.1.7 3.4 1.1c2.2.4 4.3 0 4.3 0V77.9s-3-.4-5.4-.7c-3.6-.6-4.4-1.1-4.4-1.1z" opacity=".3"/><path fill="#ED8707" d="M77.5 74.7s.8 19.8-.6 21.6c-3.6 4.7-12.4 1-12.4 1s.1.8.4 1c4.3 2.9 15.9 1.6 16.2-1.2 1.2-11.4 2.6-22.7 2.6-22.7l-6.2.3z" opacity=".5"/><path fill="#ED8707" d="M62 75.4s5.5 1.8 11.3 1.8c4.9 0 10.2-1 10.2-1s.2-2.5 0-2.2c-2.7.4-7.2 1.3-9.9 1.2-3.3-.2-9.8-.8-12-1.4l.4 1.6z"/><path fill="#FFD833" d="M72.8 73.7c-10.8.1-12.7-2.9-12.7-2.9v2.3c0 1.6 5.7 2.9 12.7 2.9 7 0 12.7-1.3 12.7-2.9v-2.3s-2 2.8-12.7 2.9z"/><path fill="#C9BED1" d="M82.9 31.3s2.6 4.8.3 5.4c-1 .3-1.4-.4-.4-2.2.9-1.5.1-3.2.1-3.2zM63.3 40.7s3.7 3 2.1 4.3c-.7.6-1.3.1-1.1-1.7.2-1.5-1-2.6-1-2.6z" opacity=".4"/><path fill="#FFE783" d="M83.4 69.2c.2 0 .2.1.4.1.2.1.6.2 1 .4.2.1.4.2.6.4.1.1.2.2.3.4 0 0 0 .1 0 .1s0 .1 0 .1 0 0 0 .1c0 0 0 0 0 .1v.1c-.1.2-.2.3-.3.5-.1.1-.3.3-.4.4-.3.2-.6.4-1 .5-.7.3-1.5.5-2.4.7-.9.2-1.8.4-2.8.5-1 .1-2 .2-3 .3-1 .1-2.1.1-3.1.1s-2.1 0-3.1-.1c-.3 0-.5 0-.8-.1-.3 0-.5 0-.8-.1-.5-.1-1-.1-1.5-.2-1-.1-1.9-.3-2.8-.5-.9-.2-1.7-.5-2.4-.8-.4-.2-.7-.4-1-.6-.1-.1-.1-.1-.2-.2s-.1-.2-.1-.3c0-.1-.1-.2-.1-.3 0 0 0 0 0-.1 0 0 0 0 0-.1 0 0 0 0 0-.1.1-.2.2-.3.3-.4.1-.1.2-.2.3-.3.2-.2.5-.3.7-.4.4-.2.8-.3 1-.3.1 0 .2-.1.3-.1.1 0 .1 0 .1 0s-.1 0-.3.1c-.2.1-.6.2-1 .4-.2.1-.4.2-.6.4-.1.1-.2.2-.3.3-.1.1-.2.2-.2.3 0 0 0 .1 0 .1 0 .1 0 .1 0 .2s.1.1.1.2.1.1.2.2c.2.2.6.4.9.5.3.1.7.3 1.1.4.4.1.8.2 1.2.3.9.2 1.8.3 2.7.4 1 .1 1.9.2 3 .2 1 .1 2 .1 3.1.1 1 0 2.1 0 3.1-.1.5 0 1-.1 1.5-.1s1-.1 1.5-.1c1-.1 1.9-.2 2.7-.4.4-.1.8-.2 1.2-.3.4-.1.8-.2 1.1-.3.4-.1.7-.3 1-.5.1-.1.3-.2.4-.3.1-.1.2-.2.2-.3 0 0 0 0 0-.1 0 0 0-.1 0-.1s0-.1 0-.1c0-.1-.1-.2-.2-.3-.2-.2-.4-.3-.6-.5-.4-.2-.7-.4-.9-.5.1.2 0 .2-.1.1z"/><path fill="#CD343A" d="M6.4 80.2c-.7 0-1.4-.3-1.9-.8-1-1.1-.9-2.7.2-3.7.4-.4 1-.7 1.7-.7s1.4.3 1.9.8c.4.6.7 1.2.6 1.9 0 .7-.3 1.3-.8 1.8s-1.1.7-1.7.7zm0-4.4c-.5 0-.9.2-1.2.5-.8.7-.9 1.8-.2 2.6.3.4.8.6 1.3.6s.9-.2 1.2-.5c.4-.3.6-.8.6-1.3s-.1-1-.5-1.3c-.2-.4-.7-.6-1.2-.6z"/><path fill="#343A5B" d="M23.9 80.5C28 85 27.7 91.9 23.2 96s-11.4 3.8-15.5-.7-3.8-11.4.7-15.5c4.4-4.1 11.4-3.8 15.5.7z"/><path fill="#EDF0F2" d="M23.2 81.1c3.8 4.1 3.5 10.5-.6 14.2-4.1 3.8-10.5 3.5-14.2-.6-3.8-4.1-3.5-10.5.6-14.2 4.1-3.8 10.4-3.5 14.2.6z"/><linearGradient id="a" x1="186.303" x2="204.123" y1="-1327.698" y2="-1327.698" gradientUnits="userSpaceOnUse" gradientTransform="matrix(.967 .255 -.255 .967 -511.564 1322.01)"><stop offset="0" stop-color="#2FAFB7"/><stop offset="1" stop-color="#3DD6D4"/></linearGradient><path fill="url(#a)" d="M22.3 81.9c3.3 3.6 3.1 9.3-.6 12.6-3.6 3.3-9.3 3.1-12.6-.6-3.3-3.6-3.1-9.3.6-12.6 3.7-3.3 9.3-3 12.6.6z"/><path fill="#fff" d="M9.6 81.5l12 13.1c3.6-3.3 3.9-9 .6-12.6-3.3-3.6-9-3.9-12.6-.5z" opacity=".3"/><path fill="#CD343A" d="M13.7 88.5l.3-7.3 3.9 6.1z"/><path fill="#343A5B" d="M13.7 88.5l3.9 6.1.3-7.3z"/><path fill="#272E49" d="M13.7 88.5l3.9 6.1-1.8-6.7z"/><path fill="#AF2536" d="M13.7 88.5l.3-7.3 1.8 6.7z"/><path fill="#EDF0F2" d="M16.8 87.6c.2.6-.2 1.2-.8 1.3-.6.2-1.2-.2-1.3-.8-.2-.6.2-1.2.8-1.3.6-.1 1.2.2 1.3.8z"/><path fill="#343A5B" d="M9.3 79.1c.1.1 0 .4-.2.6l-.8.7c-.2.2-.5.3-.6.2l-1.2-1.3c-.1-.1 0-.4.2-.6l.8-.7c.2-.2.5-.3.6-.2l1.2 1.3z"/><path fill="#0E5566" d="M10.3 82.2h.8c.1 0 .1 0 .1 0s0-.1 0-.1c-.1-.1-.1-.1-.2-.1 0 0-.1 0-.1 0s-.1 0-.1 0 0 0-.1 0c0 0 0-.1 0-.2 0 0 .1-.1.1-.1.1-.1.2-.1.2-.2.1 0 .1 0 .2 0 0 0 0 .1 0 .1s0 0 0 .1.1.1.2.2l.3.3s.1.1.2.2.2.2.2.2c0 .1 0 .1 0 .2 0 0 0 0-.1 0 0 0-.1 0-.1 0h-1c-.1 0-.1 0-.1 0s0 .1.1.2.1.1.2.2c0 0 .1 0 .1 0 .1 0 .1 0 .1 0 .1.1 0 .2-.2.4-.1.1-.2.1-.2.1-.1 0-.1 0-.1 0s0 0 0-.1c0 0 0 0 0-.1 0 0 0-.1 0-.1-.1-.1-.2-.2-.3-.3-.1-.2-.3-.3-.3-.3s-.1 0-.1 0 0 0-.1 0c0 0-.1 0-.1 0s0 0-.1 0c-.1-.1 0-.1 0-.2 0 0 .1-.1.2-.2 0 0 .1-.1.1-.1.1-.1.1-.1.2-.1zM19.9 92.2c.1-.1.2-.1.3-.2 0 0 0 0 0-.1 0 0 .1 0 .2 0s.2.1.2.1 0 .1 0 .1 0 .1 0 .1 0 0-.1 0c0 0-.1 0-.2 0s-.2 0-.3.1c0 0-.1.1-.1.1s0 .1 0 .1c0 .1.1 0 .2 0 .2-.1.3-.1.3-.1.2-.1.4 0 .5.1.1.1.2.3.1.5 0 .2-.1.3-.3.5-.1.1-.2.1-.3.2-.1.1-.2.1-.2.1s-.1 0-.2-.1c-.1 0-.2-.1-.2-.2 0 0 0-.1 0-.1s0-.1 0-.1.1 0 .1 0 .1 0 .2 0 .1 0 .2 0 .1-.1.2-.1c0 0 .1-.1.1-.1s0-.1 0-.1-.1 0-.1 0-.1 0-.1 0c-.1.1-.2.1-.3.1-.1 0-.1 0-.2 0-.2 0-.3 0-.4-.2 0-.1-.1-.1-.1-.2s0-.1 0-.2c.2 0 .3-.1.5-.3zM9.2 92.8l.5-.4c.1-.1.2-.1.2-.2 0 0 .1-.1.1-.1s.1 0 .1 0c.1 0 .2.1.2.1s.1.1.1.1 0 .1 0 .1 0 0-.1 0c0 0 0 0-.1 0s-.1 0-.2 0-.1.1-.2.2-.1.1-.1.2c0 0 0 0 0 .1 0 0 .1.1.2.2 0 0 .1.1.1.1s.1 0 .1-.1c0 0 0 0 0-.1 0 0 0 0 0-.1 0 0 0-.1-.1-.1 0 0 0 0 0-.1 0 0 0 0 0-.1 0 0 .1 0 .1 0s.1 0 .1.1c0 0 .1.1.1.1.1.1.1.2.2.3 0 0 0 .1 0 .1s0 0-.1 0c0 0 0 0-.1 0-.1-.1-.1-.1-.2 0 0 0 0 0 0 .1 0 0 0 .1.1.1 0 0 .1.1.1.1s.1.1.1.1 0 0 .1 0c0 0 .1-.1.1-.1.1-.1.1-.2.2-.2 0-.1 0-.1 0-.2 0 0 0-.1 0-.1s0 0 0-.1c0 0 .1 0 .1 0s.1 0 .1.1c0 0 .1.1.1.2s.1.1.1.2c0 0 0 .1 0 .1s0 0-.1 0c0 0-.1.1-.2.1l-.8.7s-.1 0-.1 0-.1 0-.1 0 0 0 0-.1c0 0 0 0 0-.1 0 0 0 0 0-.1-.1-.1-.2-.2-.3-.4-.2-.2-.4-.4-.4-.4s0 0-.1 0c0 0-.1 0-.1 0s0 0 0-.1c0 0 0 0 0-.1.1-.1.2-.2.2-.2zM20.7 82.8c-.1-.1-.2-.1-.2-.1-.1 0-.1 0-.1 0-.1-.1 0-.2.2-.4.1-.1.2-.2.3-.2 0 0 .1 0 .1 0s0 0 .1 0c0 0 0 0 0 .1 0 0 0 0 0 .1 0 0 .1 0 .1.1l.2.1c.1 0 .1 0 .1 0s0 0 .1 0c0 0 0 0 0-.1 0 0 0-.1 0-.1l-.1-.2s0-.1-.1-.1c0 0 0 0-.1 0s-.1 0-.2 0c0 0 0-.1 0-.1 0-.1.1-.1.2-.2s.1-.1.2-.1.1 0 .1 0 0 0 0 .1c0 0 0 .1 0 .1s0 .1 0 .1 0 .1 0 .1l.2.6c.2.2.2.4.2.4 0 .1 0 .1 0 .1s0 .1 0 .1 0 0-.1.1c0 0-.1.1-.1.1s-.1 0-.1 0l-.6-.3s-.1 0-.1 0 0 0 0 .1c0 0 0 .1.1.2l.2.4c0 .1 0 .1 0 .2 0 0 0 .1-.1.1 0 0-.1.1-.1.1s-.1 0-.1 0l-1.1-.5s-.1 0-.1 0 0 0-.1 0c0 0-.1 0-.1 0-.1-.1 0-.2.2-.4.1-.1.2-.2.3-.2.1 0 .1 0 .1 0s0 0 0 .1c0 0 0 0 0 .1 0 0 .1.1.2.1l.1.1s.1 0 .1 0 0-.1 0-.2l.1-.5c0 .1 0 .1 0 0 0 .1 0 .1 0 0z"/><path fill="#343A5B" d="M7.45 95.08L9 93.66l.4.45-1.55 1.42zM22.2 81.66l1.54-1.4.4.43-1.54 1.4zM21.6 94.7l.43-.42 1.42 1.55-.44.4zM8.17 79.96l.44-.4 1.43 1.54-.44.4z"/><path fill="#fff" d="M8.9 92.4s-2-4.9-.8-7.7c.8-1.8 1.9-1.5 1.3.6-1 3.3-.5 7.1-.5 7.1zM22.7 92.8s2.1-4.4 1.1-7c-.7-1.7-2.3-1.1-1.5.7 1.4 3.3.4 6.3.4 6.3z" opacity=".6"/><path fill="#343A5B" d="M15.8 97.1c-2.6 0-5.1-1.1-6.8-3-3.4-3.8-3.2-9.6.6-13 1.7-1.6 3.9-2.4 6.2-2.4 2.6 0 5.1 1.1 6.8 3 3.4 3.7 3.2 9.6-.6 13-1.7 1.6-3.9 2.4-6.2 2.4zm0-18c-2.2 0-4.3.8-5.9 2.3-3.6 3.3-3.9 8.9-.6 12.4 1.7 1.8 4 2.8 6.5 2.8 2.2 0 4.3-.8 5.9-2.3 3.6-3.3 3.8-8.8.5-12.4-1.6-1.7-4-2.8-6.4-2.8z" opacity=".5"/></svg>