<svg xmlns="http://www.w3.org/2000/svg" xmlns:xlink="http://www.w3.org/1999/xlink" x="0px" y="0px" viewBox="0 0 100 100" style="enable-background:new 0 0 100 100;" xml:space="preserve">
<path style="fill-rule:evenodd; clip-rule:evenodd;" d="M65,45.7l16.7-16.7h8.2L100,8.7L91.3,0L70.9,10.2v8.2L54.3,35  c-5.2-2.8-11.3-4.2-16.9-1.5c-3.8,1.9-6.2,4.8-8.1,8.5c-0.7,1.4-1.8,4.3-2.9,5.3c-0.8,0.9-2.6,0.7-3.7,0.5c-2.6-0.4-5.2-0.2-7.7,0.6  c-7.5,2.2-13,8.7-14.6,16.2c-2,9.7,2.3,18.9,8.9,25.8l0.1,0.1l0.1,0.1c6.9,6.6,16.1,11,25.8,8.9c7.5-1.6,14.1-7.1,16.2-14.6  c0.7-2.5,0.9-5.1,0.6-7.7c-0.1-1.1-0.3-2.8,0.5-3.7c1-1,3.9-2.2,5.3-2.9c3.7-1.9,6.6-4.2,8.5-8.1C69.2,57.1,67.8,50.9,65,45.7  L65,45.7z M41.9,58.1c-0.7-0.7-1.6-1.1-2.5-1.1l-4,4c0,0.9,0.4,1.8,1.1,2.5c0.7,0.7,1.6,1.1,2.5,1.1l4-4  C42.9,59.7,42.6,58.8,41.9,58.1L41.9,58.1z M35.6,82.2l-3.6-3.6l9.3-9.3c1.5-0.4,2.9-1.1,4.1-2.3c1.2-1.2,2-2.6,2.3-4.1l13.4-13.4  c1.7,3.7,2.3,7.6,0.7,10.9c-4.3,8.9-16.5,5.1-14.8,17.5c1.8,13.3-16.8,25.6-34.1,9c-16.6-17.3-4.3-35.9,9-34.1  c12.5,1.7,8.6-10.5,17.5-14.8c3.3-1.6,7.2-1,10.9,0.7L37.1,52.2c-1.5,0.4-2.9,1.1-4.1,2.3c-1.2,1.2-2,2.6-2.3,4.1l-9.3,9.3l-3.6-3.6  l-3.6,3.6l17.9,17.9L35.6,82.2L35.6,82.2z M28.5,75.1l-3.6-3.6l6.5-6.5c0.4,0.7,0.9,1.4,1.5,2c0.6,0.6,1.3,1.1,2,1.5L28.5,75.1  L28.5,75.1z M43.4,53L55,41.4l0.6-0.6L76,20.4v-7.1l14.3-7.1l3.6,3.6L86.7,24h-7.1L60.8,42.8L58.6,45L47,56.6  c-0.4-0.7-0.9-1.4-1.5-2.1C44.8,53.9,44.2,53.4,43.4,53L43.4,53z"></path>
</svg>