<svg xmlns="http://www.w3.org/2000/svg" viewBox="0 0 100 100"><path fill="#5d5470" d="M18.2 36s-7.7 4.2-8.2 14.2C9.2 66 22.5 66.7 22.5 66.7v6s-13.7-3-16.8-13.3a25.08 25.08 0 019.2-28.5l3.3 5.1z"/><path fill="#b7c1e2" d="M5.63 15.1L16.3 8.03l26.45 39.93-10.67 7.07zM19.5 64.2h30.3v3H19.5z"/><path fill="#b7c1e2" d="M3.11 6.15l5.34-3.53L34.9 42.55l-5.33 3.53z"/><path fill="#d3d9ed" d="M21.3 67.2h15.5V85H21.3z"/><path fill="#43405a" d="M6.4 16.5s-.7-.9 4.7-4.1c3.2-1.9 5.9-2.8 5.9-2.8l2 3-11.1 6.3-1.5-2.4zM19.5 66.6h30.3v1.1H19.5z"/><path fill="#d3d9ed" d="M28.3 53.6L42.9 44 20.6 10.4s-2.3.2-7.7 3.6c-5.9 3.8-6.8 6-6.8 6l22.2 33.6z"/><path fill="#fff" d="M8.8 17L17 29s4.6 8.5 8.2 6c5.4-3.7-11-21.5-11-21.5L8.8 17z" opacity=".3"/><path fill="#7c7091" d="M20.3 10.4l-2.4 1.8S29 24.4 29 33.4c0 7.6-6.9 10.9-6.9 10.9l5.8 9.3L42.6 44 20.3 10.4z" opacity=".4"/><path fill="#43405a" d="M23.38 46.15l14.5-9.6 4.98 7.5-14.5 9.6z"/><path fill="#d3d9ed" d="M17 36.5s-7.7 4.2-8.2 14.2C8 66.5 21.3 67.2 21.3 67.2v6s-13.7-3-16.8-13.3a25.08 25.08 0 019.2-28.5l3.3 5.1z"/><path fill="#43405a" d="M10.1 33.6a5.7 5.7 0 1011.4 0 5.7 5.7 0 00-11.4 0z"/><path fill="#44b4a6" d="M12.2 33.6a3.7 3.7 0 107.4 0 3.7 3.7 0 10-7.4 0z"/><path fill="#43405a" d="M17.8 69.3c0 2 1.6 3.6 3.6 3.6s3.6-1.6 3.6-3.6-1.6-3.6-3.6-3.6-3.6 1.6-3.6 3.6z"/><path fill="#44b4a6" d="M19.1 69.3c0 1.3 1 2.3 2.3 2.3 1.3 0 2.3-1 2.3-2.3s-1-2.3-2.3-2.3c-1.3 0-2.3 1-2.3 2.3z"/><path fill="#43405a" d="M3.1 6.1L.3 5.5 8.6 0l-.2 2.6z"/><path fill="#fff" d="M4.1 5.6l5.2 6.9 1.2-.9-4.4-7.4z" opacity=".5"/><path fill="#7c7091" d="M34.2 67.2s1.4 8.7-2.2 12.2c-2.7 2.6-10.7 1.7-10.7 1.7v2.6h15.5V67.2h-2.6z" opacity=".5"/><path fill="#43405a" d="M5.8 83.5h43.9v3H5.8zM7.5 40.9c0 .8.6 1.4 1.4 1.4.8 0 1.4-.6 1.4-1.4 0-.8-.6-1.4-1.4-1.4-.7-.1-1.4.6-1.4 1.4z"/><path fill="#44b4a6" d="M8 40.9c0 .5.4.9.9.9s.9-.4.9-.9-.4-.9-.9-.9c-.5-.1-.9.4-.9.9z"/><path fill="#a04507" d="M26.6 90.5c-.4-.2-1.6-2.4-1.7-3.7-.2-2.1.1-4.6 1.3-3.4-1.6 2.2.8 6.4 1.4 7.3l-1-.2z"/><path fill="#ed8707" d="M90.3 82.2l-37 15.6 4.2 1.4 36.8-16.8z"/><path fill="#a04507" d="M57.5 100l36.8-16.8v-.8L57.5 99.2z"/><path fill="#df6409" d="M57.5 100l-31-9.7-.2-.7 31.2 9.6z"/><path fill="#ffe7d4" d="M27 89.8s-1.1-1.9-1.3-3.4c-.2-1.5 0-2.5 0-2.5L56.9 93s-.8.6-.6 2.3c.2 1.7.6 3.6.6 3.6L27 89.8z"/><path fill="#f9d0af" d="M56.3 95.8c.2 1.7.6 3.1.6 3.1l36-16.3s-.5-.7-.9-2.5c-.4-1.4.2-2.9.2-2.9L56.9 92.6s-.8 1.2-.6 3.2z"/><path fill="#a04507" d="M56.9 93l37.4-15.9v-.7L56.9 92.2z"/><path fill="#df6409" d="M56.9 93l-31.1-9.2v-.7l31.1 9.1z"/><path fill="#ffbd33" d="M56.9 92.2l37.4-15.8-27.2-5.5-41.3 12.2z"/><path fill="#c6794d" d="M60 93s.5-.2 1.3-.5 2-.8 3.4-1.3c.7-.3 1.4-.6 2.2-.9.8-.3 1.6-.7 2.5-1 .9-.4 1.8-.7 2.7-1.1.9-.4 1.8-.8 2.7-1.2.9-.4 1.8-.8 2.7-1.3.9-.4 1.8-.8 2.6-1.2 1.7-.8 3.3-1.5 4.6-2.1 2.7-1.2 4.5-2.1 4.5-2.1s-1.8.8-4.5 2.1c-1.4.6-2.9 1.4-4.6 2.2-.8.4-1.7.8-2.6 1.2-.9.4-1.8.8-2.7 1.3-.4.2-.9.4-1.4.6-.2.1-.5.2-.7.3-.2.1-.5.2-.7.3-.4.2-.9.4-1.3.6-.4.2-.9.4-1.3.5-.9.4-1.7.7-2.5 1-.4.2-.8.3-1.2.5-.4.1-.7.3-1.1.4-.7.3-1.3.5-1.9.7-.6.2-1.1.4-1.5.5-.7.3-1.2.5-1.2.5zM64.4 92.2s1.4-.6 3.4-1.5c.5-.2 1.1-.5 1.7-.7.6-.3 1.2-.5 1.9-.8.6-.3 1.3-.6 2-.9.7-.3 1.4-.6 2-.9.7-.3 1.4-.6 2-.9.7-.3 1.3-.6 2-.9 1.3-.6 2.5-1.1 3.5-1.6 2.1-.9 3.4-1.5 3.4-1.5s-1.3.7-3.3 1.6c-2 .9-4.8 2.2-7.5 3.4-.3.2-.7.3-1 .5-.3.2-.7.3-1 .5-.7.3-1.3.6-2 .9-.6.3-1.3.5-1.9.8-.6.2-1.2.5-1.7.7-.5.2-1 .4-1.4.6-.4.2-.8.3-1.1.4-.6.2-1 .3-1 .3zM59.6 96.6s.5-.2 1.4-.6c.4-.2 1-.5 1.6-.7.6-.3 1.3-.6 2-.9.7-.3 1.6-.7 2.4-1.1.9-.4 1.8-.8 2.7-1.2.9-.4 1.9-.8 2.9-1.3 1-.4 2-.9 3-1.3s2-.9 3-1.3 2-.9 2.9-1.3c1.9-.8 3.6-1.6 5.1-2.3 3-1.3 5-2.2 5-2.2s-2 .9-5 2.3c-1.5.7-3.3 1.5-5.1 2.3-.9.4-1.9.9-2.9 1.3s-2 .9-3 1.3-2 .9-3 1.3-2 .9-2.9 1.3c-1.9.8-3.6 1.6-5.1 2.3-.8.3-1.4.6-2.1.9-.6.3-1.1.5-1.6.7-.8.3-1.3.5-1.3.5z" opacity=".5"/><path fill="#ffd833" d="M31.1 84.7c5.7-4.1 24.4-10.3 36.1-9.5 1.7.1 5.5.3 5.9 2.6.4 2.5-4.2 5.4-5.7 6.6-4.2 3.4-8.2 4.6-12.9 6.8l-23.4-6.5z"/><path fill="#a04507" d="M67.4 84.4c4.5 0 12.7-3 12.9-5.9.1-2.4-6.6-2.6-9.1-2l-3.8 7.9z" opacity=".3"/><path fill="#cc75cc" d="M55.8 72a9.61 9.61 0 003 11.5c.7.9 2.9 1.6 5.5 1.6 2.5 0 4.6-.6 5.4-1.4 2.4-1.7 4-4.5 4-7.7 0-1.4-.3-2.7-.8-3.9H55.8z"/><path fill="#530254" d="M72.9 72h-3.8c0 .4.1.7.1 1.1 0 3.2-1.6 6-4 7.7-.8.9-2.9 1.4-5.4 1.4-.9 0-1.8-.1-2.5-.2.5.6 1 1.1 1.6 1.5.7.9 2.9 1.6 5.5 1.6 2.5 0 4.6-.6 5.4-1.4 2.4-1.7 4-4.5 4-7.7-.1-1.5-.4-2.9-.9-4z" opacity=".3"/><path fill="#a44aa0" d="M72.9 71.9c0 1-3.8 1.8-8.5 1.8s-8.5-.8-8.5-1.8 3.8-1.8 8.5-1.8c4.6 0 8.5.8 8.5 1.8z"/><path fill="#e3b0ea" d="M64.3 74c-4.3 0-8.7-.7-8.7-2.1s4.4-2.1 8.7-2.1c4.3 0 8.7.7 8.7 2.1S68.7 74 64.3 74zm0-3.7c-2.3 0-4.4.2-6 .5-1.8.4-2.3.9-2.3 1.1s.5.7 2.3 1.1c1.6.3 3.7.5 6 .5s4.4-.2 6-.5c1.8-.4 2.3-.9 2.3-1.1s-.5-.7-2.3-1.1c-1.6-.3-3.7-.5-6-.5z"/><path fill="#933d12" d="M69.5 73.1S67.2 72 64.4 72s-5.1 1.1-5.1 1.1 2.7.5 5.1.5c2.7 0 5.1-.5 5.1-.5z"/><path fill="#e3b0ea" d="M58 74.6c-2.2 1.1-1.8 4.2 0 5 1.7.8 3.3-.8 3.6-2.4.1-1.1-2.3-3.2-3.6-2.6z" opacity=".7"/><path fill="#104414" d="M64.3 73.7c-2-3.5-3.2-10.6-3.9-15.9-.8-6.3-1.1-12.1-1.1-14 0-1.9.3-3.9.6-5.8.3-2.1.7-4.3.6-6.5 0-.6-.1-1.2-.1-1.8-.2-2.2-.3-4.5.2-6.7.3-1.4 1-2.8 1.7-4.2.5-1.1 1.1-2.2 1.4-3.2l.4.1c-.3 1-.8 2.1-1.4 3.2-.7 1.4-1.3 2.8-1.7 4.1-.5 2.1-.3 4.4-.2 6.6 0 .6.1 1.2.1 1.8.1 2.2-.2 4.4-.6 6.6-.3 1.9-.6 3.8-.6 5.7.1 4.7 1.4 23.3 5 29.6l-.4.4z"/><path fill="#7db538" d="M63.5 17.1c-1.2-6.4 2.3-8.6 4.8-9.5 0 0 1.2 3.8-.3 6-2.1 3-4.5 3.5-4.5 3.5z"/><path fill="#234f1b" d="M63.4 17.2c-.5-2.9-.2-5.2 1-7 .8-1.2 2.1-2.1 3.8-2.8h.1v.1c.1.2 1.2 3.9-.3 6.1-2 3-4.4 3.5-4.6 3.6zm4.8-9.5c-3.9 1.6-5.4 4.6-4.6 9.3.5-.1 2.6-.8 4.3-3.5 1.3-2 .5-5.2.3-5.8z"/><path fill="#2e6525" d="M52.6 32.2c2.2-2.2 7.2 2.9 7.3 7-.1-.5.6-2.2.4-2.9-.2-.8-1.7-3.7-2.2-4.6-1.6-2.7-2.6-3.6-5.9-3.1l.4 3.6z"/><path fill="#14300e" d="M59.8 39.2c0-.1 0-.1 0-.2-.1-1.5-.9-3.4-2.2-4.9-1.2-1.4-2.7-2.3-3.8-2.3-.5 0-.9.2-1.2.5l-.1.1-.5-3.9h.1c.6-.1 1-.1 1.5-.1 2.3 0 3.2 1.1 4.6 3.3.5.9 2 3.8 2.3 4.6.1.4-.1 1.1-.2 1.7-.1.4-.2.7-.2 1 0 .1 0 .1 0 .2h-.3zm-6-7.6c1.2 0 2.6.9 3.9 2.4 1.1 1.3 1.9 2.9 2.2 4.3 0-.1.1-.2.1-.4.2-.6.3-1.3.2-1.6-.2-.9-1.7-3.7-2.2-4.6-1.4-2.2-2.2-3.2-4.4-3.2-.4 0-.8 0-1.3.1l.4 3.3c.3-.2.7-.3 1.1-.3z"/><path fill="#6e953f" d="M58.4 33c-2.7-6.4-5.1 1.1-8.1 1.6-3.8.6-7.1-3.1-10.3-1.8 2.6-3.1 4.3-8.5 9.1-7.9 3.8.4 8.7 5.6 8.7 5.6l.6 2.5z"/><path fill="#234f1b" d="M49.4 34.8c-1.5 0-2.9-.6-4.3-1.1-1.3-.5-2.5-1-3.6-1-.5 0-1 .1-1.4.3l-.4.2.3-.3c.7-.8 1.3-1.7 1.9-2.7 1.7-2.6 3.4-5.3 6.6-5.3.2 0 .4 0 .7 0 3.8.4 8.5 5.4 8.7 5.6l.7 2.5h-.3c-.7-1.7-1.4-2.5-2.2-2.5-.9 0-1.8.9-2.7 1.9-1 1-2 2.1-3.1 2.3-.3.1-.6.1-.9.1zm-7.9-2.4c1.2 0 2.4.5 3.7 1 1.3.6 2.7 1.1 4.2 1.1.3 0 .6 0 .9-.1 1-.2 2-1.2 3-2.2 1-1 1.9-2 2.9-2 .7 0 1.3.5 1.9 1.6l-.4-1.4c-.3-.3-5-5.2-8.6-5.6-.2 0-.4 0-.6 0-3.1 0-4.8 2.6-6.5 5.2-.6.9-1.1 1.7-1.7 2.4.4.1.8 0 1.2 0z"/><path fill="#85b539" d="M48.9 25.6c-3-.4-4.7 2.9-6.3 5.2 1.3-.6 3.6 1.3 5.5.2 1.3-.7 3-5 4.4-4.2.1 0-2.6-1.1-3.6-1.2z"/><path fill="#6e953f" d="M57.5 30.4c-1.1-4.3-2.5-9.8 3-11.7 0 3.5-.3 5.8-2.4 8.7l-.6 3z"/><path fill="#234f1b" d="M57.5 30.8l-.1-.4c-.5-2-1.2-4.6-1-6.8.2-2.5 1.6-4.2 4.1-5h.1v.1c0 3.6-.4 5.9-2.4 8.8l-.7 3.3zm3-12c-5.2 1.9-4 7.1-2.9 11.1l.6-2.6c1.8-2.8 2.2-5 2.3-8.5z"/><path fill="#7db538" d="M57.2 28.5c-1.2-2.5-3-5.2-4-7.9-1-2.9 0-5.2.3-8.2.9 2 3.8 4.3 4.4 6.3 1.1 3.3-.7 9.8-.7 9.8z"/><path fill="#234f1b" d="M57.2 28.7l-.1-.2c-.5-1-1-2-1.6-3-.9-1.6-1.8-3.2-2.4-4.9-.7-2.1-.4-3.9-.1-5.9.1-.8.3-1.6.4-2.4v-.4l.2.4c.4.9 1.2 1.9 2.1 2.9 1 1.2 2 2.3 2.4 3.5 1.1 3.4-.6 9.6-.7 9.9l-.2.1zm-3.7-16c-.1.7-.2 1.4-.3 2.1-.3 2-.6 3.7.1 5.8.6 1.7 1.5 3.3 2.4 4.9.5 1 1 1.9 1.5 2.8.3-1.2 1.6-6.6.6-9.5-.3-1.1-1.4-2.3-2.3-3.4-.8-1-1.5-1.9-2-2.7z"/><path fill="#6e953f" d="M59.7 42.8c1.8-.5 2.7-2.6 4.2-3.5 1.6-1.1 3.4-1.5 5.4-1.4-1.6.7-2.1 2.9-3.4 4.1-3.3 2.8-6.2.8-6.2.8z"/><path fill="#234f1b" d="M62.2 43.6c-1.5 0-2.5-.7-2.6-.7l-.2-.1.2-.1c1.1-.3 1.8-1.2 2.6-2 .5-.6 1-1.1 1.6-1.5 1.4-1 3-1.4 4.8-1.4.2 0 .4 0 .6 0h.4l-.3.2c-.9.4-1.5 1.3-2.1 2.3-.4.6-.8 1.3-1.3 1.8-1.2 1-2.4 1.5-3.7 1.5zm-2.3-.8c.4.2 1.2.6 2.3.6 1.3 0 2.5-.5 3.6-1.5.5-.5.9-1.1 1.3-1.8.5-.8 1-1.7 1.8-2.2-.1 0-.1 0-.2 0a7.67 7.67 0 00-6.3 2.9c-.8.8-1.5 1.6-2.5 2z"/><path fill="#2e6525" d="M60.8 34.3c1.9-2.4.3-4.9.7-7.6.4-2.1 2.7-5.6 4.4-6.8.1-.2.1-.2 0 0-.5 5.1 1 9-3.4 12.9l-1.7 1.5z"/><path fill="#14300e" d="M60.9 34.4l-.1-.1c1.2-1.5 1-3 .8-4.6-.1-1-.2-1.9-.1-2.9.3-2 2.6-5.5 4.4-6.8.1-.1.1-.2.2-.2h.1v.1c0 .1 0 .1-.1.2-.1 1.1-.1 2.2-.1 3.3 0 3.4 0 6.4-3.3 9.4l-1.8 1.6zm5-14.3c-1.7 1.3-3.9 4.7-4.2 6.6-.2 1 0 1.9.1 2.9.2 1.4.4 2.8-.4 4.1l1.1-1c3.3-2.9 3.3-5.9 3.3-9.3 0-1 0-2.1.1-3.3z"/><path fill="#234f1b" d="M59.4 44.3c-.4-3 1.6-5.3 3-6.8.4-.4.8-.8 1-1.2l.3.2c-.2.4-.6.7-1 1.2-1.4 1.6-3.3 3.7-2.9 6.5l-.4.1z"/><path fill="#6e953f" d="M61.7 52.1c1.6-1.2 1.7-3.4 2.7-4.8a8.8 8.8 0 014.6-3.2c-1.3 1.2-1 3.5-1.8 5.1-2 3.8-5.5 2.9-5.5 2.9z"/><path fill="#234f1b" d="M62.6 52.3c-.6 0-.9-.1-.9-.1l-.2-.1.2-.1c.9-.7 1.3-1.8 1.7-2.8.3-.7.5-1.4 1-2 1.1-1.5 2.6-2.6 4.6-3.2l.4-.1-.3.3c-.8.7-.9 1.7-1.2 2.9-.1.7-.3 1.5-.6 2.2-1.4 2.6-3.6 3-4.7 3zm-.7-.3c.2 0 .4 0 .7 0 1.1 0 3.2-.4 4.5-3 .3-.6.5-1.4.6-2.1.2-1 .4-1.9 1-2.7a8.6 8.6 0 00-4.2 3c-.4.6-.7 1.2-1 2-.3 1.1-.7 2.1-1.6 2.8z"/><path fill="#6e953f" d="M60.4 49.7c-.7-.4-1.6 0-2.4-.1-.8-.2-1.4-.6-2-1.3.7.3 1.6-.4 2.3-.4 2 0 2.1 1.8 2.1 1.8z"/><path fill="#234f1b" d="M60.6 49.9l-.2-.1c-.2-.1-.4-.2-.7-.2-.2 0-.4 0-.6.1-.2 0-.4.1-.7.1-.1 0-.2 0-.3 0-.8-.1-1.5-.6-2-1.4l-.3-.4.3.1c.1 0 .2.1.4.1.3 0 .6-.1.9-.2.3-.1.7-.2 1-.2 1.9 0 2.1 1.9 2.1 1.9l.1.2zm-4.2-1.4c.5.6 1 1 1.7 1.1.1 0 .2 0 .3 0 .2 0 .4 0 .6-.1.2 0 .5-.1.7-.1.2 0 .4 0 .6.1-.1-.4-.4-1.5-1.8-1.5-.3 0-.6.1-.9.2-.3.1-.7.2-1 .2-.1.1-.2.1-.2.1z"/><path fill="#6e953f" d="M57.7 85.6c1.6 0 2.8-1.5 4.2-2 1.6-.5 3.1-.5 4.7.1-1.5.2-2.4 1.9-3.7 2.6-3.2 1.6-5.2-.7-5.2-.7z"/><path fill="#234f1b" d="M60.6 86.9c-1.9 0-3-1.3-3-1.3l-.1-.2h.2c1 0 1.8-.6 2.5-1.1.5-.3 1.1-.7 1.7-.9.7-.3 1.5-.4 2.2-.4.8 0 1.6.1 2.5.4l.4.1-.4.1c-.9.1-1.5.7-2.2 1.4-.4.6-.9 1-1.4 1.3-.8.4-1.6.6-2.4.6zm-2.7-1.3c.4.3 1.3 1.1 2.7 1.1.7 0 1.5-.2 2.2-.6.5-.3 1-.7 1.4-1.2.6-.6 1.2-1.1 1.9-1.4-.7-.2-1.4-.3-2.1-.3a6.05 6.05 0 00-3.8 1.3c-.6.5-1.4 1.1-2.3 1.1z"/><path fill="#6e953f" d="M69.4 35.4c5.8-3.6 4.8-9.4 9.8-10.3C77 22 72.1 22 68.9 22.8c-1.9.5-5.2 3.8-5.8 5.6-1.7 5 .7 7.3-.3 8.7 0 0 3.4.2 6.6-1.7z"/><path fill="#234f1b" d="M63.1 37.2c-.2 0-.4 0-.4 0h-.2l.1-.1c.4-.5.2-1.2 0-2.2-.3-1.5-.7-3.5.3-6.4.6-1.8 3.9-5.2 5.9-5.7 1.2-.3 2.5-.5 3.7-.5 3 0 5.4 1 6.7 2.8l.1.1h-.2c-2.5.5-3.5 2.3-4.6 4.3-1.1 2-2.3 4.2-5.1 6-2.6 1.5-5.2 1.7-6.3 1.7zM63 37s.1 0 .2 0c1 0 3.6-.2 6.2-1.7 2.8-1.7 4-3.9 5.1-5.9 1.1-2.1 2.1-3.9 4.6-4.4-1.7-2.2-4.8-2.6-6.4-2.6-1.2 0-2.5.2-3.6.5-1.9.5-5.1 3.9-5.7 5.6-1 2.9-.6 4.9-.3 6.3 0 .9.2 1.6-.1 2.2z"/><path fill="#85b539" d="M77.2 24.3c-1.7-1.2-5.8-1.7-8.3-.7-3.6 1.5-3.3 4.8-4.2 7.9.9-2.4 2.3-2.6 4.4-3.1 2-.4 3.9-2.4 4.8-3.2.7-.4 3.3-.9 3.3-.9z"/><path fill="#104414" d="M63.7 36.4c0-.1.1-.1.1-.2.1-.1.2-.3.3-.5.2-.2.4-.4.6-.6.3-.2.6-.5 1-.7.4-.2.8-.4 1.2-.7.4-.2.9-.4 1.4-.7.5-.2 1-.5 1.5-.8.5-.3 1-.6 1.4-1 .4-.4.7-.9 1-1.3.3-.5.6-.9.9-1.4.3-.5.6-.9.9-1.3.3-.4.6-.8.9-1.1.2-.2.3-.3.5-.4.2-.1.3-.2.5-.3.3-.2.6-.3.8-.4.2-.1.4-.1.6-.1.1 0 .1 0 .2 0 0 0 .1 0 .1 0s0 0-.1 0c0 0-.1 0-.2 0s-.3.1-.6.2c-.2.1-.5.2-.8.4-.3.2-.6.4-.9.8-.3.3-.6.7-.9 1.1-.3.4-.6.8-.8 1.3-.3.5-.6.9-.9 1.4-.3.5-.7.9-1.1 1.4-.4.4-.9.7-1.4 1-.5.3-1 .5-1.5.7-.5.2-1 .4-1.4.6-.4.2-.9.4-1.2.6-.4.2-.7.4-1 .6-.3.2-.5.4-.7.6-.2.2-.3.4-.3.5 0 .2-.1.2-.1.3zM63.7 35.6s0-.1 0-.2 0-.3 0-.5.1-.4.2-.7c.1-.3.2-.6.4-.9.1-.2.2-.3.3-.5.1-.2.2-.3.3-.5a6.47 6.47 0 011.9-1.7c.2-.1.4-.2.6-.4.2-.1.4-.2.6-.3.4-.2.8-.4 1.3-.6.4-.2.8-.4 1.2-.6.4-.2.8-.4 1.1-.6.3-.2.6-.4.9-.6.3-.2.5-.4.7-.6.2-.2.4-.4.5-.5.1-.2.2-.3.3-.4.1-.1.1-.1.1-.1s0 0-.1.1c0 0-.1.1-.1.2s-.1.1-.2.2c-.1.2-.3.4-.5.6-.2.2-.4.4-.7.7-.3.2-.6.5-.9.7-.3.2-.7.4-1.1.6-.4.2-.8.4-1.2.6-.4.2-.8.4-1.3.6-.2.1-.4.2-.6.3-.2.1-.4.2-.6.3-.2.1-.4.3-.5.4-.2.1-.3.3-.5.4-.3.3-.6.6-.8.9-.2.3-.5.6-.6.9-.2.3-.3.6-.4.8-.1.3-.2.5-.2.7 0 .2-.1.4-.1.5.1.1 0 .2 0 .2z"/><path fill="#6e953f" d="M66.3 65.8c3.8-2 3.5-5.7 6.7-6.1-1.3-2.1-4.4-2.3-6.4-1.9-1.2.2-3.4 2.2-3.9 3.3-1.3 3.1.1 4.6-.6 5.5 0 0 2.1.3 4.2-.8z"/><path fill="#234f1b" d="M62.8 66.7c-.4 0-.7 0-.7 0h-.2l.1-.1c.3-.3.2-.8.1-1.4-.1-.9-.3-2.2.5-4.1.5-1.1 2.7-3.1 4-3.4.5-.1 1.1-.2 1.7-.2 2.2 0 4 .8 4.8 2.1l.1.1H73c-1.6.2-2.3 1.3-3.1 2.5-.8 1.2-1.7 2.6-3.5 3.6a7 7 0 01-3.6.9zm-.5-.2c.1 0 .3 0 .5 0 .9 0 2.2-.1 3.5-.8 1.8-1 2.7-2.3 3.5-3.5.8-1.3 1.5-2.3 3.1-2.6-.8-1.2-2.5-1.9-4.5-1.9-.6 0-1.1.1-1.7.2-1.2.2-3.4 2.2-3.8 3.2-.7 1.8-.6 3-.4 4-.1.6 0 1-.2 1.4z"/><path fill="#85b539" d="M71.8 59.1c-1-.8-3.6-1.3-5.2-.8-2.4.8-2.3 2.9-3 4.8.7-1.5 1.6-1.6 2.9-1.8 1.3-.2 2.6-1.4 3.2-1.8.4-.2 2.1-.4 2.1-.4z"/><path fill="#104414" d="M62.7 66.2s0-.1.1-.1c0-.1.1-.2.2-.3.1-.1.3-.3.4-.4.2-.1.4-.3.6-.4.2-.1.5-.3.8-.4.3-.1.6-.2.9-.4.3-.1.6-.3 1-.4.3-.2.6-.3.9-.6.3-.2.5-.5.7-.8.2-.3.4-.6.6-.8.2-.3.4-.5.6-.8.2-.2.4-.5.6-.6.2-.2.4-.3.6-.4.2-.1.4-.2.5-.2.2 0 .3-.1.4-.1 0 0 .1 0 .1 0s-.1 0-.1 0c-.1 0-.2 0-.4.1-.2 0-.3.1-.5.2s-.4.3-.6.4c-.2.2-.4.4-.6.6-.2.2-.4.5-.6.8-.2.3-.4.6-.6.9-.2.3-.5.6-.7.8-.3.2-.6.4-.9.6-.3.2-.7.3-1 .4-.3.1-.6.2-.9.3-.3.1-.6.2-.8.3-.2.1-.5.2-.6.4-.2.1-.3.2-.4.4-.1.1-.2.2-.2.3 0 .1-.1.1-.1.2zM62.8 65.7s0 0 0-.1 0-.2 0-.3c0-.1.1-.3.1-.4.1-.2.1-.4.3-.5.1-.2.3-.4.4-.6.2-.2.4-.4.6-.6.2-.2.5-.3.7-.5.1-.1.3-.1.4-.2.1-.1.3-.1.4-.2.3-.1.6-.2.8-.3.3-.1.5-.2.8-.3.3-.1.5-.2.7-.3.2-.1.4-.2.6-.3.2-.1.3-.2.5-.4.1-.1.2-.2.3-.3.1-.1.2-.2.2-.2 0-.1.1-.1.1-.1s0 0-.1.1c0 .1-.1.1-.2.2s-.2.2-.3.3c-.1.1-.3.3-.5.4-.2.1-.4.3-.6.4-.2.1-.5.2-.7.3-.3.1-.5.2-.8.3-.3.1-.5.2-.8.3-.1.1-.3.1-.4.2-.1.1-.3.1-.4.2-.1.1-.2.1-.4.2-.1.1-.2.2-.3.2-.2.2-.4.3-.6.5-.2.2-.3.4-.4.5-.1.2-.2.4-.3.5-.1.2-.1.3-.2.4 0 .1-.1.2-.1.3.2.2.2.3.2.3z"/><path fill="#2e6525" d="M39.7 32.9c3.2-3.1 6.7 1.1 10.2-.8 1.4-.8 2-2.4 3.6-2.8 2.2-.6 3.3.6 4.3 2.3-2.2-3.3-4.8 1.2-6.6 2.4-3.6 2.5-6.1-1.3-9.2-1.3-.6.1-2.3.2-2.3.2z" opacity=".5"/><path fill="#2e6525" d="M63.6 16.8c2.6-3.3 4.5-5.1 4.5-9 1.4 2.8.4 6.6-2.4 7.9l-2.1 1.1z" opacity=".7"/><path fill="#43405a" d="M73.39 56.37l1.55-2.2 7.53 5.28-1.56 2.21z"/><path fill="#44b4a6" d="M94.9 66.6c.9.6 1.1 1.9.5 2.8l-.7 1.1c-.6.9-1.9 1.1-2.8.5l-13.4-9.4c-.9-.6-1.1-1.9-.5-2.8l.7-1.1c.6-.9 1.9-1.1 2.8-.5l13.4 9.4z"/><path fill="#40a395" d="M78.8 57.7s4.1 2.4 9.8 6.4c5.4 3.8 6.5 5.9 6.5 5.9l.4-.5c.6-.9.4-2.2-.5-2.8l-13.4-9.4c-.9-.7-2.2-.5-2.8.4z"/><path fill="#2e415f" d="M76.7 53.4c-.3.9-.8 1.8-1.4 2.6-3.6 5.1-10.7 6.3-15.8 2.8A11.3 11.3 0 0156.8 43c3.6-5.1 10.7-6.4 15.8-2.8 4.1 3 5.8 8.4 4.1 13.2zM57 46.3c-1.5 4.1 0 8.7 3.5 11.2 4.3 3.1 10.4 2 13.4-2.3.5-.7.9-1.5 1.2-2.2 1.5-4.1 0-8.7-3.5-11.2-4.3-3.1-10.4-2-13.4 2.3-.5.6-.9 1.4-1.2 2.2z"/><g opacity=".5"><path fill="#fff" d="M71.8 41.3c4.5 3.2 5.6 9.5 2.4 14-3.2 4.5-9.5 5.6-14 2.4s-5.6-9.5-2.4-14c3.2-4.5 9.5-5.6 14-2.4z"/></g><g opacity=".7"><path fill="#fff" d="M59.8 45.2s5.2-5.7 12.2-.6c1.4 1-2.4-3.7-5.9-3.7-4.2-.1-6.3 4.3-6.3 4.3z"/></g><g><path fill="#2e415f" d="M49.7 84.6c.3.6.5 1.2.5 1.9.5 4.2-2.9 8.4-7.7 9.5-3.9.8-7.7-.7-9.1-3.8-.3-.6-.5-1.2-.5-1.9-.5-4.2 2.9-8.4 7.7-9.5 3.9-.8 7.6.7 9.1 3.8zm-15.1 7c1.2 2.6 4.4 4 7.7 3.3 4.1-.9 7-4.5 6.6-8-.1-.6-.2-1.1-.5-1.6-1.2-2.6-4.4-4-7.7-3.3-4.1.9-7 4.5-6.6 8 .1.6.3 1.1.5 1.6z"/></g><g opacity=".5"><path fill="#fff" d="M40.7 81.6c4.3-.9 8.1 1.4 8.6 5.1.5 3.7-2.6 7.5-6.9 8.4-4.3.9-8.1-1.4-8.6-5.1-.4-3.7 2.6-7.4 6.9-8.4z"/></g><path fill="#ffcf9c" d="M62.2 99.9l5.4-.3.8-.2-.6-2.3-.7.1-5.1 2.2z"/><path fill="#ecba84" d="M62.2 99.9l6.1-1-.3-1.3-6 1.8z"/><path fill="#c6794d" d="M68 98.8l-4.9.8-.9.3 5.7-.3.3-.1z"/><path fill="#a44aa0" d="M63.3 99.8l-2.4.1 2.9-1.3-.3.7z"/><path fill="#530254" d="M60.9 100l2.5-.5v.3z"/><path fill="#c499c8" d="M60.9 99.9l2.8-1 .1-.3zM68.2 99.5l-.1-.5-.3-1.4s-.5.2-.6-.2c-.1-.3.5-.4.5-.4l31.1-7.4.7.4.3 1.2-.4.8-31.2 7.5z"/><path fill="#a44aa0" d="M99.4 90.1l.3 1.2L68 98.8s-.7 0-.8-.4c-.1-.5.5-.8.5-.8l31.7-7.5z"/><path fill="#753877" d="M99.3 92.1l.4-.9L68 98.8s-.5.1-.5.5.6.2.6.2l31.2-7.4z"/></svg>