<svg xmlns="http://www.w3.org/2000/svg" viewBox="0 0 100 100"><path fill-rule="evenodd" d="M94.5 69.2H52.1v5.5h42.4v-5.5zM89 25.3H57.6v5.5H89v-5.5zm-54.7 11a24.77 24.77 0 010-16.4h-9.6c-4.5 0-8.2 3.7-8.2 8.2 0 4.5 3.7 8.2 8.2 8.2h9.6zm5.9-16.5c-1.2 2.5-1.9 5.3-1.9 8.2s.7 5.7 1.9 8.2h6.4c-1.7-2.3-2.8-5.1-2.8-8.2 0-3 1-5.9 2.8-8.2h-6.4zm-15.5-5.4h69.8v5.5H57.6c-4.5 0-8.2 3.7-8.2 8.2 0 4.5 3.7 8.2 8.2 8.2h36.9v5.5H46.6c-4.5 0-8.2 3.7-8.2 8.2 0 4.5 3.7 8.2 8.2 8.2H100v5.5H52.1c-4.5 0-8.2 3.7-8.2 8.2 0 4.5 3.7 8.2 8.2 8.2H100v5.5H19.2c-7.5 0-13.7-6.2-13.7-13.7 0-3.5 1.3-6.6 3.5-9.1-5.2-1.9-9-7-9-12.9 0-7.5 6.2-13.7 13.7-13.7C12 34 11 31.1 11 28.1c0-7.5 6.2-13.7 13.7-13.7zM89 47.3H46.6v5.5H89v-5.5zM23.3 58.2a24.77 24.77 0 010-16.4h-9.6c-4.5 0-8.2 3.7-8.2 8.2 0 4.5 3.7 8.2 8.2 8.2h9.6zm6-16.4c-1.2 2.5-1.9 5.3-1.9 8.2 0 2.9.7 5.7 1.9 8.2h6.4c-1.7-2.3-2.8-5.1-2.8-8.2 0-3 1-5.9 2.8-8.2h-6.4zm11.8 21.9h-6.4c-1.2 2.5-1.9 5.3-1.9 8.2 0 2.9.7 5.7 1.9 8.2h6.4c-1.7-2.3-2.8-5.1-2.8-8.2.1-2.9 1.1-5.8 2.8-8.2zm-12.3 0h-9.7c-4.5 0-8.2 3.7-8.2 8.2 0 4.5 3.7 8.2 8.2 8.2h9.6c-.9-2.6-1.4-5.3-1.4-8.2.1-2.9.6-5.6 1.5-8.2z" clip-rule="evenodd"/></svg>