<svg xmlns="http://www.w3.org/2000/svg" viewBox="0 0 100 100"><path fill="#f2e7db" d="M21.37 66.3l14.2-10.9 15.71 20.46-14.2 10.9z"/><path fill="#a19ba7" d="M37.1 86.9L21.3 66.3l14.2-10.9 15.8 20.5-14.2 11zM21.5 66.3l15.6 20.4 14.1-10.8-15.7-20.4-14 10.8z"/><path fill="#f2e7db" d="M11.93 75.5l11.62-16.53 23.88 16.8L35.81 92.3z"/><path fill="#a19ba7" d="M35.9 92.4l-24-16.9v-.1l11.7-16.6h.1l24 16.9v.1L35.9 92.4zM12 75.5l23.8 16.7 11.6-16.5L23.6 59 12 75.5z"/><path fill="#a19ba7" d="M17.2 76.95L26.5 63.7l.25.18-9.32 13.25zM18.34 77.69l9.32-13.25.25.17-9.33 13.25zM19.34 78.43l9.32-13.25.25.18-9.32 13.25zM20.4 79.1l9.33-13.24.24.17-9.32 13.25zM21.41 79.86l9.32-13.25.25.17-9.32 13.25zM22.56 80.59l9.32-13.25.24.17-9.32 13.25zM23.62 81.26l9.33-13.25.24.18-9.32 13.25zM24.63 82.01l9.32-13.25.24.18-9.32 13.25zM25.7 82.68L35 69.43l.25.18-9.32 13.25zM28.53 84.71l3.74-5.31.25.17-3.74 5.31zM29.48 85.43l3.74-5.32.24.17-3.74 5.32zM31.65 86.88l3.73-5.32.25.17-3.74 5.32zM32.63 87.64l3.74-5.32.25.18-3.74 5.31zM20.57 67.23l3.74-5.31.25.17-3.74 5.32zM21.5 67.81l3.73-5.32.25.18-3.74 5.31zM14.98 75.21l3.74-5.31.24.17-3.74 5.32z"/><path fill="#383e54" d="M51.9 36.3h1.4v43.5h-1.4z"/><path fill="#383e54" d="M56.6 88h-1.3L52 79.2l1-.4z"/><path fill="#383e54" d="M59.4 84.6H58l-5.3-4.9.4-1.2zM47 86.1h1.5l4.2-5.9-.8-1.4zM76 37.5c0 .5-.4.9-.9.9h-45a.9.9 0 01-.9-.9v-29c0-.5.4-.9.9-.9h45c.5 0 .9.4.9.9v29z"/><path fill="#ffdbbb" d="M30.6 8.7H75v28.4H30.6z"/><path fill="#ddcdbf" d="M73.8 37.1s-5.1-.4-10.1-.4c-5.6 0-11 .4-11 .4s-5.1-.4-11.1-.4c-5.5 0-10.3.4-10.3.4V8.7s4.7-.6 10.6-.6c5.2 0 10.7.6 10.7.6s5.8-.5 11-.4c5 0 10.1.4 10.1.4v28.4z"/><path fill="#f2e7db" d="M73.1 37.1s-6.9-.9-11.4-.9c-5.1 0-10 .9-10 .9s-4.6-.8-10.1-.8c-4.9 0-9.5.8-9.5.8V8.7s4.4-.6 9.8-.6c4.7 0 9.8.6 9.8.6s5.3-.5 10-.4c4.5 0 11.4.4 11.4.4v28.4z"/><path fill="#fcf4ed" d="M52.9 8.7s6-.8 8.7-.9c3.1-.1 8.5.9 8.5.9v28.4S63 36 61 36s-8.1 1-8.1 1V8.7z"/><path fill="#aa4b1a" d="M35 12s.2 0 .7-.1c.2 0 .5-.1.8-.1.3 0 .6-.1 1-.1.2 0 .4 0 .6-.1.2 0 .4 0 .6-.1.4 0 .9-.1 1.3-.1.5 0 .9-.1 1.4-.1.2 0 .5 0 .7 0 .2 0 .5 0 .7 0 .2 0 .5 0 .7 0 .2 0 .5 0 .7 0 .2 0 .5 0 .7 0 .2 0 .5 0 .7.1.2 0 .5 0 .7.1.2 0 .4 0 .7.1.4 0 .8.1 1.2.1.4 0 .7.1 1 .1.3 0 .6.1.8.1.4.1.7.1.7.1s-.2 0-.7-.1c-.4-.1-1-.1-1.8-.2-.4 0-.8-.1-1.2-.1-.4 0-.9-.1-1.3-.1-.2 0-.5 0-.7 0-.2 0-.5 0-.7 0-.2 0-.5 0-.7 0-.2 0-.5 0-.7 0-.2 0-.5 0-.7 0-.2 0-.5 0-.7 0-.5 0-1 0-1.4.1-.2 0-.5 0-.7.1-.2 0-.4 0-.7.1-.2 0-.4 0-.6.1-.2 0-.4 0-.6.1-.4 0-.7.1-1 .1-.3 0-.6.1-.8.1-.4-.2-.7-.2-.7-.2z" opacity=".5"/><path fill="#aa4b1a" d="M35 12.5s.2 0 .7-.1c.2 0 .5-.1.8-.1.3 0 .6-.1 1-.1.2 0 .4 0 .6-.1.2 0 .4 0 .6-.1.4 0 .9-.1 1.3-.1.5 0 .9-.1 1.4-.1.2 0 .5 0 .7 0 .2 0 .5 0 .7 0 .2 0 .5 0 .7 0 .2 0 .5 0 .7 0 .2 0 .5 0 .7 0 .2 0 .5 0 .7.1.2 0 .5 0 .7.1.2 0 .4 0 .7.1.4 0 .8.1 1.2.1.4 0 .7.1 1 .1.3 0 .6.1.8.1.4.1.7.1.7.1s-.2 0-.7-.1-1-.1-1.8-.2c-.4 0-.8-.1-1.2-.1-.4 0-.9-.1-1.3-.1-.2 0-.5 0-.7 0-.2 0-.5 0-.7 0-.2 0-.5 0-.7 0-.2 0-.5 0-.7 0-.2 0-.5 0-.7 0-.2 0-.5 0-.7 0-.5 0-1 0-1.4.1-.2 0-.5 0-.7.1-.2 0-.4 0-.7.1-.2 0-.4 0-.6.1-.2 0-.4 0-.6.1-.4 0-.7.1-1 .1-.3 0-.6.1-.8.1-.4-.2-.7-.2-.7-.2z" opacity=".5"/><path fill="#aa4b1a" d="M35 13.1s.2 0 .7-.1c.2 0 .5-.1.8-.1.3 0 .6-.1 1-.1.2 0 .4 0 .6-.1.2 0 .4 0 .6-.1.4 0 .9-.1 1.3-.1.5 0 .9-.1 1.4-.1.2 0 .5 0 .7 0 .2 0 .5 0 .7 0 .2 0 .5 0 .7 0 .2 0 .5 0 .7 0 .2 0 .5 0 .7 0 .2 0 .5 0 .7.1.2 0 .5 0 .7.1.2 0 .4 0 .7.1.4 0 .8.1 1.2.1.4 0 .7.1 1 .1.3 0 .6.1.8.1.4.1.7.1.7.1s-.2 0-.7-.1c-.4-.1-1-.1-1.8-.2-.4 0-.8-.1-1.2-.1-.4 0-.9-.1-1.3-.1-.2 0-.5 0-.7 0-.2 0-.5 0-.7 0-.2 0-.5 0-.7 0-.2 0-.5 0-.7 0-.2 0-.5 0-.7 0-.2 0-.5 0-.7 0-.5 0-1 0-1.4.1-.2 0-.5 0-.7.1-.2 0-.4 0-.7.1-.2 0-.4 0-.6.1-.2 0-.4 0-.6.1-.4 0-.7.1-1 .1-.3 0-.6.1-.8.1-.4-.2-.7-.2-.7-.2zM35 15s.2 0 .7-.1c.2 0 .5-.1.8-.1.3 0 .6-.1 1-.1.2 0 .4 0 .6-.1.2 0 .4 0 .6-.1.4 0 .9-.1 1.3-.1.5 0 .9-.1 1.4-.1.2 0 .5 0 .7 0 .2 0 .5 0 .7 0 .2 0 .5 0 .7 0 .2 0 .5 0 .7 0 .2 0 .5 0 .7 0 .2 0 .5 0 .7.1.2 0 .5 0 .7.1.2 0 .4 0 .7.1.4 0 .8.1 1.2.1.4 0 .7.1 1 .1.3 0 .6.1.8.1.4.1.7.1.7.1s-.2 0-.7-.1c-.4-.1-1-.1-1.8-.2-.4 0-.8-.1-1.2-.1-.4 0-.9-.1-1.3-.1-.2 0-.5 0-.7 0-.2 0-.5 0-.7 0-.2 0-.5 0-.7 0-.2 0-.5 0-.7 0-.2 0-.5 0-.7 0-.2 0-.5 0-.7 0-.5 0-1 0-1.4.1-.2 0-.5 0-.7.1-.2 0-.4 0-.7.1-.2 0-.4 0-.6.1-.2 0-.4 0-.6.1-.4 0-.7.1-1 .1-.3 0-.6.1-.8.1-.4-.2-.7-.2-.7-.2z" opacity=".5"/><path fill="#aa4b1a" d="M35 15.6s.2 0 .7-.1c.2 0 .5-.1.8-.1.3 0 .6-.1 1-.1.2 0 .4 0 .6-.1.2 0 .4 0 .6-.1.4 0 .9-.1 1.3-.1.5 0 .9-.1 1.4-.1.2 0 .5 0 .7 0 .2 0 .5 0 .7 0 .2 0 .5 0 .7 0 .2 0 .5 0 .7 0 .2 0 .5 0 .7 0 .2 0 .5 0 .7.1.2 0 .5 0 .7.1.2 0 .4 0 .7.1.4 0 .8.1 1.2.1.4 0 .7.1 1 .1.3 0 .6.1.8.1.4.1.7.1.7.1s-.2 0-.7-.1c-.4 0-1-.1-1.8-.2-.4 0-.8-.1-1.2-.1-.4 0-.9-.1-1.3-.1-.2 0-.5 0-.7 0-.2 0-.5 0-.7 0-.2 0-.5 0-.7 0-.2 0-.5 0-.7 0-.2 0-.5 0-.7 0-.2 0-.5 0-.7 0-.5 0-1 0-1.4.1-.2 0-.5 0-.7.1-.2 0-.4 0-.7.1-.2 0-.4 0-.6.1-.2 0-.4 0-.6.1-.4 0-.7.1-1 .1-.3 0-.6.1-.8.1-.4-.3-.7-.2-.7-.2z" opacity=".5"/><path fill="#aa4b1a" d="M35 16.1s.2 0 .7-.1c.2 0 .5-.1.8-.1.3 0 .6-.1 1-.1.2 0 .4 0 .6-.1.2 0 .4 0 .6-.1.4 0 .9-.1 1.3-.1.5 0 .9-.1 1.4-.1.2 0 .5 0 .7 0 .2 0 .5 0 .7 0 .2 0 .5 0 .7 0 .2 0 .5 0 .7 0 .2 0 .5 0 .7 0 .2 0 .5 0 .7.1.2 0 .5 0 .7.1.2 0 .4 0 .7.1.4 0 .8.1 1.2.1.4 0 .7.1 1 .1.3 0 .6.1.8.1.4.1.7.1.7.1s-.2 0-.7-.1c-.4 0-1-.1-1.8-.2-.4 0-.8-.1-1.2-.1-.4 0-.9-.1-1.3-.1-.2 0-.5 0-.7 0-.2 0-.5 0-.7 0-.2 0-.5 0-.7 0-.2 0-.5 0-.7 0-.2 0-.5 0-.7 0-.2 0-.5 0-.7 0-.5 0-1 0-1.4.1-.2 0-.5 0-.7.1-.2 0-.4 0-.7.1-.2 0-.4 0-.6.1-.2 0-.4 0-.6.1-.4 0-.7.1-1 .1-.3 0-.6.1-.8.1-.4-.2-.7-.2-.7-.2zM35 18.1s.2 0 .7-.1c.2 0 .5-.1.8-.1.3 0 .6-.1 1-.1.2 0 .4 0 .6-.1.2 0 .4 0 .6-.1.4 0 .9-.1 1.3-.1.5 0 .9-.1 1.4-.1.2 0 .5 0 .7 0 .2 0 .5 0 .7 0 .2 0 .5 0 .7 0 .2 0 .5 0 .7 0 .2 0 .5 0 .7 0 .2 0 .5 0 .7.1.2 0 .5 0 .7.1.2 0 .4 0 .7.1.4 0 .8.1 1.2.1.4 0 .7.1 1 .1.3 0 .6.1.8.1.4.1.7.1.7.1s-.2 0-.7-.1c-.4-.1-1-.1-1.8-.2-.4 0-.8-.1-1.2-.1-.4 0-.9-.1-1.3-.1-.2 0-.5 0-.7 0-.2 0-.5 0-.7 0-.2 0-.5 0-.7 0-.2 0-.5 0-.7 0-.2 0-.5 0-.7 0-.2 0-.5 0-.7 0-.5 0-1 0-1.4.1-.2 0-.5 0-.7.1-.2 0-.4 0-.7.1-.2 0-.4 0-.6.1-.2 0-.4 0-.6.1-.4 0-.7.1-1 .1-.3 0-.6.1-.8.1-.4-.2-.7-.2-.7-.2z" opacity=".5"/><path fill="#aa4b1a" d="M35 18.7s.2 0 .7-.1c.2 0 .5-.1.8-.1.3 0 .6-.1 1-.1.2 0 .4 0 .6-.1.2 0 .4 0 .6-.1.4 0 .9-.1 1.3-.1.5 0 .9-.1 1.4-.1.2 0 .5 0 .7 0 .2 0 .5 0 .7 0 .2 0 .5 0 .7 0 .2 0 .5 0 .7 0 .2 0 .5 0 .7 0 .2 0 .5 0 .7.1.2 0 .5 0 .7.1.2 0 .4 0 .7.1.4 0 .8.1 1.2.1.4 0 .7.1 1 .1.3 0 .6.1.8.1.4.1.7.1.7.1s-.2 0-.7-.1c-.4 0-1-.1-1.8-.2-.4 0-.8-.1-1.2-.1-.4 0-.9-.1-1.3-.1-.2 0-.5 0-.7 0-.2 0-.5 0-.7 0-.2 0-.5 0-.7 0-.2 0-.5 0-.7 0-.2 0-.5 0-.7 0-.2 0-.5 0-.7 0-.5 0-1 0-1.4.1-.2 0-.5 0-.7.1-.2 0-.4 0-.7.1-.2 0-.4 0-.6.1-.2 0-.4 0-.6.1-.4 0-.7.1-1 .1-.3 0-.6.1-.8.1-.4-.3-.7-.2-.7-.2z" opacity=".5"/><path fill="#aa4b1a" d="M35 19.2s.2 0 .7-.1c.2 0 .5-.1.8-.1.3 0 .6-.1 1-.1.2 0 .4 0 .6-.1.2 0 .4 0 .6-.1.4 0 .9-.1 1.3-.1.5 0 .9-.1 1.4-.1.2 0 .5 0 .7 0 .2 0 .5 0 .7 0 .2 0 .5 0 .7 0 .2 0 .5 0 .7 0 .2 0 .5 0 .7 0 .2 0 .5 0 .7.1.2 0 .5 0 .7.1.2 0 .4 0 .7.1.4 0 .8.1 1.2.1.4 0 .7.1 1 .1.3 0 .6.1.8.1.4.1.7.1.7.1s-.2 0-.7-.1c-.4-.1-1-.1-1.8-.2-.4 0-.8-.1-1.2-.1-.4 0-.9-.1-1.3-.1-.2 0-.5 0-.7 0-.2 0-.5 0-.7 0-.2 0-.5 0-.7 0-.2 0-.5 0-.7 0-.2 0-.5 0-.7 0-.2 0-.5 0-.7 0-.5 0-1 0-1.4.1-.2 0-.5 0-.7.1-.2 0-.4 0-.7.1-.2 0-.4 0-.6.1-.2 0-.4 0-.6.1-.4 0-.7.1-1 .1-.3 0-.6.1-.8.1-.4-.2-.7-.2-.7-.2zM35 21s.2 0 .7-.1c.2 0 .5-.1.8-.1.3 0 .6-.1 1-.1.2 0 .4 0 .6-.1.2 0 .4 0 .6-.1.4 0 .9-.1 1.3-.1.5 0 .9-.1 1.4-.1.2 0 .5 0 .7 0 .2 0 .5 0 .7 0 .2 0 .5 0 .7 0 .2 0 .5 0 .7 0 .2 0 .5 0 .7 0 .2 0 .5 0 .7.1.2 0 .5 0 .7.1.2 0 .4 0 .7.1.4 0 .8.1 1.2.1.4 0 .7.1 1 .1.3 0 .6.1.8.1.4.1.7.1.7.1s-.2 0-.7-.1c-.4-.1-1-.1-1.8-.2-.4 0-.8-.1-1.2-.1-.4 0-.9-.1-1.3-.1-.2 0-.5 0-.7 0-.2 0-.5 0-.7 0-.2 0-.5 0-.7 0-.2 0-.5 0-.7 0-.2 0-.5 0-.7 0-.2 0-.5 0-.7 0-.5 0-1 0-1.4.1-.2 0-.5 0-.7.1-.2 0-.4 0-.7.1-.2 0-.4 0-.6.1-.2 0-.4 0-.6.1-.4 0-.7.1-1 .1-.3 0-.6.1-.8.1-.4-.2-.7-.2-.7-.2z" opacity=".5"/><path fill="#aa4b1a" d="M35 21.5s.2 0 .7-.1c.2 0 .5-.1.8-.1.3 0 .6-.1 1-.1.2 0 .4 0 .6-.1.2 0 .4 0 .6-.1.4 0 .9-.1 1.3-.1.5 0 .9-.1 1.4-.1.2 0 .5 0 .7 0 .2 0 .5 0 .7 0 .2 0 .5 0 .7 0 .2 0 .5 0 .7 0 .2 0 .5 0 .7 0 .2 0 .5 0 .7.1.2 0 .5 0 .7.1.2 0 .4 0 .7.1.4 0 .8.1 1.2.1.4 0 .7.1 1 .1.3 0 .6.1.8.1.4.1.7.1.7.1s-.2 0-.7-.1c-.4 0-1-.1-1.8-.2-.4 0-.8-.1-1.2-.1-.4 0-.9-.1-1.3-.1-.2 0-.5 0-.7 0-.2 0-.5 0-.7 0-.2 0-.5 0-.7 0-.2 0-.5 0-.7 0-.2 0-.5 0-.7 0-.2 0-.5 0-.7 0-.5 0-1 0-1.4.1-.2 0-.5 0-.7.1-.2 0-.4 0-.7.1-.2 0-.4 0-.6.1-.2 0-.4 0-.6.1-.4 0-.7.1-1 .1-.3 0-.6.1-.8.1-.4-.2-.7-.2-.7-.2z" opacity=".5"/><path fill="#aa4b1a" d="M35 22.1s.2 0 .7-.1c.2 0 .5-.1.8-.1.3 0 .6-.1 1-.1.2 0 .4 0 .6-.1.2 0 .4 0 .6-.1.4 0 .9-.1 1.3-.1.5 0 .9-.1 1.4-.1.2 0 .5 0 .7 0 .2 0 .5 0 .7 0 .2 0 .5 0 .7 0 .2 0 .5 0 .7 0 .2 0 .5 0 .7 0 .2 0 .5 0 .7.1.2 0 .5 0 .7.1.2 0 .4 0 .7.1.4 0 .8.1 1.2.1.4 0 .7.1 1 .1.3 0 .6.1.8.1.4.1.7.1.7.1s-.2 0-.7-.1c-.4 0-1-.1-1.8-.2-.4 0-.8-.1-1.2-.1-.4 0-.9-.1-1.3-.1-.2 0-.5 0-.7 0-.2 0-.5 0-.7 0-.2 0-.5 0-.7 0-.2 0-.5 0-.7 0-.2 0-.5 0-.7 0-.2 0-.5 0-.7 0-.5 0-1 0-1.4.1-.2 0-.5 0-.7.1-.2 0-.4 0-.7.1-.2 0-.4 0-.6.1-.2 0-.4 0-.6.1-.4 0-.7.1-1 .1-.3 0-.6.1-.8.1-.4-.2-.7-.2-.7-.2zM35 24s.2 0 .7-.1c.2 0 .5-.1.8-.1.3 0 .6-.1 1-.1.2 0 .4 0 .6-.1.2 0 .4 0 .6-.1.4 0 .9-.1 1.3-.1.5 0 .9-.1 1.4-.1.2 0 .5 0 .7 0 .2 0 .5 0 .7 0 .2 0 .5 0 .7 0 .2 0 .5 0 .7 0 .2 0 .5 0 .7 0 .2 0 .5 0 .7.1.2 0 .5 0 .7.1.2 0 .4 0 .7.1.4 0 .8.1 1.2.1.4 0 .7.1 1 .1.3 0 .6.1.8.1.4.1.7.1.7.1s-.2 0-.7-.1c-.4 0-1-.1-1.8-.2-.4 0-.8-.1-1.2-.1-.4 0-.9-.1-1.3-.1-.2 0-.5 0-.7 0-.2 0-.5 0-.7 0-.2 0-.5 0-.7 0-.2 0-.5 0-.7 0-.2 0-.5 0-.7 0-.2 0-.5 0-.7 0-.5 0-1 0-1.4.1-.2 0-.5 0-.7.1-.2 0-.4 0-.7.1-.2 0-.4 0-.6.1-.2 0-.4 0-.6.1-.4 0-.7.1-1 .1-.3 0-.6.1-.8.1-.4-.2-.7-.2-.7-.2z" opacity=".5"/><path fill="#aa4b1a" d="M35 24.6s.2 0 .7-.1c.2 0 .5-.1.8-.1.3 0 .6-.1 1-.1.2 0 .4 0 .6-.1.2 0 .4 0 .6-.1.4 0 .9-.1 1.3-.1.5 0 .9-.1 1.4-.1.2 0 .5 0 .7 0 .2 0 .5 0 .7 0 .2 0 .5 0 .7 0 .2 0 .5 0 .7 0 .2 0 .5 0 .7 0 .2 0 .5 0 .7.1.2 0 .5 0 .7.1.2 0 .4 0 .7.1.4 0 .8.1 1.2.1.4 0 .7.1 1 .1.3 0 .6.1.8.1.4.1.7.1.7.1s-.2 0-.7-.1c-.4 0-1-.1-1.8-.2-.4 0-.8-.1-1.2-.1-.4 0-.9-.1-1.3-.1-.2 0-.5 0-.7 0-.2 0-.5 0-.7 0-.2 0-.5 0-.7 0-.2 0-.5 0-.7 0-.2 0-.5 0-.7 0-.2 0-.5 0-.7 0-.5 0-1 0-1.4.1-.2 0-.5 0-.7.1-.2 0-.4 0-.7.1-.2 0-.4 0-.6.1-.2 0-.4 0-.6.1-.4 0-.7.1-1 .1-.3 0-.6.1-.8.1-.4-.3-.7-.2-.7-.2z" opacity=".5"/><path fill="#aa4b1a" d="M35 25.2s.2 0 .7-.1c.2 0 .5-.1.8-.1.3 0 .6-.1 1-.1.2 0 .4 0 .6-.1.2 0 .4 0 .6-.1.4 0 .9-.1 1.3-.1.5 0 .9-.1 1.4-.1.2 0 .5 0 .7 0 .2 0 .5 0 .7 0 .2 0 .5 0 .7 0 .2 0 .5 0 .7 0 .2 0 .5 0 .7 0 .2 0 .5 0 .7.1.2 0 .5 0 .7.1.2 0 .4 0 .7.1.4 0 .8.1 1.2.1.4 0 .7.1 1 .1.3 0 .6.1.8.1.4.1.7.1.7.1s-.2 0-.7-.1c-.4 0-1-.1-1.8-.2-.4 0-.8-.1-1.2-.1-.4 0-.9-.1-1.3-.1-.2 0-.5 0-.7 0-.2 0-.5 0-.7 0-.2 0-.5 0-.7 0-.2 0-.5 0-.7 0-.2 0-.5 0-.7 0-.2 0-.5 0-.7 0-.5 0-1 0-1.4.1-.2 0-.5 0-.7.1-.2 0-.4 0-.7.1-.2 0-.4 0-.6.1-.2 0-.4 0-.6.1-.4 0-.7.1-1 .1-.3 0-.6.1-.8.1-.4-.3-.7-.2-.7-.2zM35 27.1s.2 0 .7-.1c.2 0 .5-.1.8-.1.3 0 .6-.1 1-.1.2 0 .4 0 .6-.1.2 0 .4 0 .6-.1.4 0 .9-.1 1.3-.1.5 0 .9-.1 1.4-.1.2 0 .5 0 .7 0 .2 0 .5 0 .7 0 .2 0 .5 0 .7 0 .2 0 .5 0 .7 0 .2 0 .5 0 .7 0 .2 0 .5 0 .7.1.2 0 .5 0 .7.1.2 0 .4 0 .7.1.4 0 .8.1 1.2.1.4 0 .7.1 1 .1.3 0 .6.1.8.1.4.1.7.1.7.1s-.2 0-.7-.1c-.4-.1-1-.1-1.8-.2-.4 0-.8-.1-1.2-.1-.4 0-.9-.1-1.3-.1-.2 0-.5 0-.7 0-.2 0-.5 0-.7 0-.2 0-.5 0-.7 0-.2 0-.5 0-.7 0-.2 0-.5 0-.7 0-.2 0-.5 0-.7 0-.5 0-1 0-1.4.1-.2 0-.5 0-.7.1-.2 0-.4 0-.7.1-.2 0-.4 0-.6.1-.2 0-.4 0-.6.1-.4 0-.7.1-1 .1-.3 0-.6.1-.8.1-.4-.2-.7-.2-.7-.2z" opacity=".5"/><path fill="#aa4b1a" d="M35 27.7s.2 0 .7-.1c.2 0 .5-.1.8-.1.3 0 .6-.1 1-.1.2 0 .4 0 .6-.1.2 0 .4 0 .6-.1.4 0 .9-.1 1.3-.1.5 0 .9-.1 1.4-.1.2 0 .5 0 .7 0 .2 0 .5 0 .7 0 .2 0 .5 0 .7 0 .2 0 .5 0 .7 0 .2 0 .5 0 .7 0 .2 0 .5 0 .7.1.2 0 .5 0 .7.1.2 0 .4 0 .7.1.4 0 .8.1 1.2.1.4 0 .7.1 1 .1.3 0 .6.1.8.1.4.1.7.1.7.1s-.2 0-.7-.1c-.4 0-1-.1-1.8-.2-.4 0-.8-.1-1.2-.1-.4 0-.9-.1-1.3-.1-.2 0-.5 0-.7 0-.2 0-.5 0-.7 0-.2 0-.5 0-.7 0-.2 0-.5 0-.7 0-.2 0-.5 0-.7 0-.2 0-.5 0-.7 0-.5 0-1 0-1.4.1-.2 0-.5 0-.7.1-.2 0-.4 0-.7.1-.2 0-.4 0-.6.1-.2 0-.4 0-.6.1-.4 0-.7.1-1 .1-.3 0-.6.1-.8.1-.4-.3-.7-.2-.7-.2z" opacity=".5"/><path fill="#aa4b1a" d="M35 28.2s.2 0 .7-.1c.2 0 .5-.1.8-.1.3 0 .6-.1 1-.1.2 0 .4 0 .6-.1.2 0 .4 0 .6-.1.4 0 .9-.1 1.3-.1.5 0 .9-.1 1.4-.1.2 0 .5 0 .7 0 .2 0 .5 0 .7 0 .2 0 .5 0 .7 0 .2 0 .5 0 .7 0 .2 0 .5 0 .7 0 .2 0 .5 0 .7.1.2 0 .5 0 .7.1.2 0 .4 0 .7.1.4 0 .8.1 1.2.1.4 0 .7.1 1 .1.3 0 .6.1.8.1.4.1.7.1.7.1s-.2 0-.7-.1c-.4 0-1-.1-1.8-.2-.4 0-.8-.1-1.2-.1-.4 0-.9-.1-1.3-.1-.2 0-.5 0-.7 0-.2 0-.5 0-.7 0-.2 0-.5 0-.7 0-.2 0-.5 0-.7 0-.2 0-.5 0-.7 0-.2 0-.5 0-.7 0-.5 0-1 0-1.4.1-.2 0-.5 0-.7.1-.2 0-.4 0-.7.1-.2 0-.4 0-.6.1-.2 0-.4 0-.6.1-.4 0-.7.1-1 .1-.3 0-.6.1-.8.1-.4-.2-.7-.2-.7-.2zM35 29.8s.2 0 .7-.1c.2 0 .5-.1.8-.1.3 0 .6-.1 1-.1.2 0 .4 0 .6-.1.2 0 .4 0 .6-.1.4 0 .9-.1 1.3-.1.5 0 .9-.1 1.4-.1.2 0 .5 0 .7 0 .2 0 .5 0 .7 0 .2 0 .5 0 .7 0 .2 0 .5 0 .7 0 .2 0 .5 0 .7 0 .2 0 .5 0 .7.1.2 0 .5 0 .7.1.2 0 .4 0 .7.1.4 0 .8.1 1.2.1.4 0 .7.1 1 .1.3 0 .6.1.8.1.4.1.7.1.7.1s-.2 0-.7-.1c-.4-.1-1-.1-1.8-.2-.4 0-.8-.1-1.2-.1-.4 0-.9-.1-1.3-.1-.2 0-.5 0-.7 0-.2 0-.5 0-.7 0-.2 0-.5 0-.7 0-.2 0-.5 0-.7 0-.2 0-.5 0-.7 0-.2 0-.5 0-.7 0-.5 0-1 0-1.4.1-.2 0-.5 0-.7.1-.2 0-.4 0-.7.1-.2 0-.4 0-.6.1-.2 0-.4 0-.6.1-.4 0-.7.1-1 .1-.3 0-.6.1-.8.1-.4-.3-.7-.2-.7-.2z" opacity=".5"/><path fill="#aa4b1a" d="M35 30.3s.2 0 .7-.1c.2 0 .5-.1.8-.1.3 0 .6-.1 1-.1.2 0 .4 0 .6-.1.2 0 .4 0 .6-.1.4 0 .9-.1 1.3-.1.5 0 .9-.1 1.4-.1.2 0 .5 0 .7 0 .2 0 .5 0 .7 0 .2 0 .5 0 .7 0 .2 0 .5 0 .7 0 .2 0 .5 0 .7 0 .2 0 .5 0 .7.1.2 0 .5 0 .7.1.2 0 .4 0 .7.1.4 0 .8.1 1.2.1.4 0 .7.1 1 .1.3 0 .6.1.8.1.4.1.7.1.7.1s-.2 0-.7-.1c-.4 0-1-.1-1.8-.2-.4 0-.8-.1-1.2-.1-.4 0-.9-.1-1.3-.1-.2 0-.5 0-.7 0-.2 0-.5 0-.7 0-.2 0-.5 0-.7 0-.2 0-.5 0-.7 0-.2 0-.5 0-.7 0-.2 0-.5 0-.7 0-.5 0-1 0-1.4.1-.2 0-.5 0-.7.1-.2 0-.4 0-.7.1-.2 0-.4 0-.6.1-.2 0-.4 0-.6.1-.4 0-.7.1-1 .1-.3 0-.6.1-.8.1-.4-.2-.7-.2-.7-.2z" opacity=".5"/><path fill="#aa4b1a" d="M35 30.9s.2 0 .7-.1c.2 0 .5-.1.8-.1.3 0 .6-.1 1-.1.2 0 .4 0 .6-.1.2 0 .4 0 .6-.1.4 0 .9-.1 1.3-.1.5 0 .9-.1 1.4-.1.2 0 .5 0 .7 0 .2 0 .5 0 .7 0 .2 0 .5 0 .7 0 .2 0 .5 0 .7 0 .2 0 .5 0 .7 0 .2 0 .5 0 .7.1.2 0 .5 0 .7.1.2 0 .4 0 .7.1.4 0 .8.1 1.2.1.4 0 .7.1 1 .1.3 0 .6.1.8.1.4.1.7.1.7.1s-.2 0-.7-.1c-.4 0-1-.1-1.8-.2-.4 0-.8-.1-1.2-.1-.4 0-.9-.1-1.3-.1-.2 0-.5 0-.7 0-.2 0-.5 0-.7 0-.2 0-.5 0-.7 0-.2 0-.5 0-.7 0-.2 0-.5 0-.7 0-.2 0-.5 0-.7 0-.5 0-1 0-1.4.1-.2 0-.5 0-.7.1-.2 0-.4 0-.7.1-.2 0-.4 0-.6.1-.2 0-.4 0-.6.1-.4 0-.7.1-1 .1-.3 0-.6.1-.8.1-.4-.3-.7-.2-.7-.2zM35 32.9s.2 0 .7-.1c.2 0 .5-.1.8-.1.3 0 .6-.1 1-.1.2 0 .4 0 .6-.1.2 0 .4 0 .6-.1.4 0 .9-.1 1.3-.1.5 0 .9-.1 1.4-.1.2 0 .5 0 .7 0 .2 0 .5 0 .7 0 .2 0 .5 0 .7 0 .2 0 .5 0 .7 0 .2 0 .5 0 .7 0 .2 0 .5 0 .7.1.2 0 .5 0 .7.1.2 0 .4 0 .7.1.4 0 .8.1 1.2.1.4 0 .7.1 1 .1.3 0 .6.1.8.1.4.1.7.1.7.1s-.2 0-.7-.1c-.4 0-1-.1-1.8-.2-.4 0-.8-.1-1.2-.1-.4 0-.9-.1-1.3-.1-.2 0-.5 0-.7 0-.2 0-.5 0-.7 0-.2 0-.5 0-.7 0-.2 0-.5 0-.7 0-.2 0-.5 0-.7 0-.2 0-.5 0-.7 0-.5 0-1 0-1.4.1-.2 0-.5 0-.7.1-.2 0-.4 0-.7.1-.2 0-.4 0-.6.1-.2 0-.4 0-.6.1-.4 0-.7.1-1 .1-.3 0-.6.1-.8.1-.4-.3-.7-.2-.7-.2z" opacity=".5"/><path fill="#aa4b1a" d="M35 33.4s.2 0 .7-.1c.2 0 .5-.1.8-.1.3 0 .6-.1 1-.1.2 0 .4 0 .6-.1.2 0 .4 0 .6-.1.4 0 .9-.1 1.3-.1.5 0 .9-.1 1.4-.1.2 0 .5 0 .7 0 .2 0 .5 0 .7 0 .2 0 .5 0 .7 0 .2 0 .5 0 .7 0 .2 0 .5 0 .7 0 .2 0 .5 0 .7.1.2 0 .5 0 .7.1.2 0 .4 0 .7.1.4 0 .8.1 1.2.1.4 0 .7.1 1 .1.3 0 .6.1.8.1.4.1.7.1.7.1s-.2 0-.7-.1c-.4 0-1-.1-1.8-.2-.4 0-.8-.1-1.2-.1-.4 0-.9-.1-1.3-.1-.2 0-.5 0-.7 0-.2 0-.5 0-.7 0-.2 0-.5 0-.7 0-.2 0-.5 0-.7 0-.2 0-.5 0-.7 0-.2 0-.5 0-.7 0-.5 0-1 0-1.4.1-.2 0-.5 0-.7.1-.2 0-.4 0-.7.1-.2 0-.4 0-.6.1-.2 0-.4 0-.6.1-.4 0-.7.1-1 .1-.3 0-.6.1-.8.1-.4-.2-.7-.2-.7-.2z" opacity=".5"/><path fill="#aa4b1a" d="M35 34s.2 0 .7-.1c.2 0 .5-.1.8-.1.3 0 .6-.1 1-.1.2 0 .4 0 .6-.1.2 0 .4 0 .6-.1.4 0 .9-.1 1.3-.1.5 0 .9-.1 1.4-.1.2 0 .5 0 .7 0 .2 0 .5 0 .7 0 .2 0 .5 0 .7 0 .2 0 .5 0 .7 0 .2 0 .5 0 .7 0 .2 0 .5 0 .7.1.2 0 .5 0 .7.1.2 0 .4 0 .7.1.4 0 .8.1 1.2.1.4 0 .7.1 1 .1.3 0 .6.1.8.1.4.1.7.1.7.1s-.2 0-.7-.1c-.4-.1-1-.1-1.8-.2-.4 0-.8-.1-1.2-.1-.4 0-.9-.1-1.3-.1-.2 0-.5 0-.7 0-.2 0-.5 0-.7 0-.2 0-.5 0-.7 0-.2 0-.5 0-.7 0-.2 0-.5 0-.7 0-.2 0-.5 0-.7 0-.5 0-1 0-1.4.1-.2 0-.5 0-.7.1-.2 0-.4 0-.7.1-.2 0-.4 0-.6.1-.2 0-.4 0-.6.1-.4 0-.7.1-1 .1-.3 0-.6.1-.8.1-.4-.3-.7-.2-.7-.2zM54.1 15s.2 0 .6-.1c.2 0 .4-.1.7-.1.3 0 .6-.1.9-.1.2 0 .3 0 .5-.1.2 0 .4 0 .6-.1.4 0 .8-.1 1.2-.1.4 0 .9-.1 1.3-.1.2 0 .5 0 .7 0 .2 0 .5 0 .7 0 .2 0 .5 0 .7 0 .2 0 .5 0 .7 0 .2 0 .4 0 .7 0 .2 0 .4 0 .6.1.2 0 .4 0 .6.1.2 0 .4 0 .6.1.4 0 .8.1 1.1.1.3 0 .7.1.9.1.3 0 .5.1.7.1.4.1.6.1.6.1s-.1 0-.5 0-1-.1-1.6-.2c-.3 0-.7-.1-1.1-.1-.4 0-.8-.1-1.2-.1-.2 0-.4 0-.6 0-.2 0-.4 0-.7 0-.2 0-.4 0-.7 0-.2 0-.5 0-.7 0-.2 0-.5 0-.7 0-.2 0-.5 0-.7 0-.4 0-.9 0-1.3.1-.2 0-.4 0-.6.1-.2 0-.4 0-.6.1-.2 0-.4 0-.6.1-.2 0-.4 0-.5.1-.3 0-.7.1-.9.1-.3 0-.5.1-.7.1-.5-.3-.7-.3-.7-.3z" opacity=".5"/><path fill="#aa4b1a" d="M54.1 15.6s.2 0 .6-.1c.2 0 .4-.1.7-.1.3 0 .6-.1.9-.1.2 0 .3 0 .5-.1.2 0 .4 0 .6-.1.4 0 .8-.1 1.2-.1.4 0 .9-.1 1.3-.1.2 0 .5 0 .7 0 .2 0 .5 0 .7 0 .2 0 .5 0 .7 0 .2 0 .5 0 .7 0 .2 0 .4 0 .7 0 .2 0 .4 0 .6.1.2 0 .4 0 .6.1.2 0 .4 0 .6.1.4 0 .8.1 1.1.1.3 0 .7.1.9.1.3 0 .5.1.7.1.4.1.6.1.6.1s-.2 0-.6-.1c-.4-.1-1-.1-1.6-.2-.3 0-.7-.1-1.1-.1-.4 0-.8-.1-1.2-.1-.2 0-.4 0-.6 0-.2 0-.4 0-.7 0-.2 0-.4 0-.7 0-.2 0-.5 0-.7 0-.2 0-.5 0-.7 0-.2 0-.5 0-.7 0-.4 0-.9 0-1.3.1-.2 0-.4 0-.6.1-.2 0-.4 0-.6.1-.2 0-.4 0-.6.1-.2 0-.4 0-.5.1-.3 0-.7.1-.9.1-.3 0-.5.1-.7.1-.4-.3-.6-.2-.6-.2z" opacity=".5"/><path fill="#aa4b1a" d="M54.1 16.1s.2 0 .6-.1c.2 0 .4-.1.7-.1.3 0 .6-.1.9-.1.2 0 .3 0 .5-.1.2 0 .4 0 .6-.1.4 0 .8-.1 1.2-.1.4 0 .9-.1 1.3-.1.2 0 .5 0 .7 0 .2 0 .5 0 .7 0 .2 0 .5 0 .7 0 .2 0 .5 0 .7 0 .2 0 .4 0 .7 0 .2 0 .4 0 .6.1.2 0 .4 0 .6.1.2 0 .4 0 .6.1.4 0 .8.1 1.1.1.3 0 .7.1.9.1.3 0 .5.1.7.1.4.1.6.1.6.1s-.2 0-.6-.1c-.4-.1-1-.1-1.6-.2-.3 0-.7-.1-1.1-.1-.4 0-.8-.1-1.2-.1-.2 0-.4 0-.6 0-.2 0-.4 0-.7 0-.2 0-.4 0-.7 0-.2 0-.5 0-.7 0-.2 0-.5 0-.7 0-.2 0-.5 0-.7 0-.4 0-.9 0-1.3.1-.2 0-.4 0-.6.1-.2 0-.4 0-.6.1-.2 0-.4 0-.6.1-.2 0-.4 0-.5.1-.3 0-.7.1-.9.1-.3 0-.5.1-.7.1-.4-.2-.6-.2-.6-.2zM54.1 18.1s.2 0 .6-.1c.2 0 .4-.1.7-.1.3 0 .6-.1.9-.1.2 0 .3 0 .5-.1.2 0 .4 0 .6-.1.4 0 .8-.1 1.2-.1.4 0 .9-.1 1.3-.1.2 0 .5 0 .7 0 .2 0 .5 0 .7 0 .2 0 .5 0 .7 0 .2 0 .5 0 .7 0 .2 0 .4 0 .7 0 .2 0 .4 0 .6.1.2 0 .4 0 .6.1.2 0 .4 0 .6.1.4 0 .8.1 1.1.1.3 0 .7.1.9.1.3 0 .5.1.7.1.4.1.6.1.6.1s-.1-.1-.5-.1-1-.1-1.6-.2c-.3 0-.7-.1-1.1-.1-.4 0-.8-.1-1.2-.1-.2 0-.4 0-.6 0-.2 0-.4 0-.7 0-.2 0-.4 0-.7 0-.2 0-.5 0-.7 0-.2 0-.5 0-.7 0-.2 0-.5 0-.7 0-.4 0-.9 0-1.3.1-.2 0-.4 0-.6.1-.2 0-.4 0-.6.1-.2 0-.4 0-.6.1-.2 0-.4 0-.5.1-.3 0-.7.1-.9.1-.3 0-.5.1-.7.1-.5-.3-.7-.2-.7-.2z" opacity=".5"/><path fill="#aa4b1a" d="M54.1 18.6s.2 0 .6-.1c.2 0 .4-.1.7-.1.3 0 .6-.1.9-.1.2 0 .3 0 .5-.1.2 0 .4 0 .6-.1.4 0 .8-.1 1.2-.1.4 0 .9-.1 1.3-.1.2 0 .5 0 .7 0 .2 0 .5 0 .7 0 .2 0 .5 0 .7 0 .2 0 .5 0 .7 0 .2 0 .4 0 .7 0 .2 0 .4 0 .6.1.2 0 .4 0 .6.1.2 0 .4 0 .6.1.4 0 .8.1 1.1.1.3 0 .7.1.9.1.3 0 .5.1.7.1.4.1.6.1.6.1s-.2 0-.6-.1c-.4 0-1-.1-1.6-.2-.3 0-.7-.1-1.1-.1-.4 0-.8-.1-1.2-.1-.2 0-.4 0-.6 0-.2 0-.4 0-.7 0-.2 0-.4 0-.7 0-.2 0-.5 0-.7 0-.2 0-.5 0-.7 0-.2 0-.5 0-.7 0-.4 0-.9 0-1.3.1-.2 0-.4 0-.6.1-.2 0-.4 0-.6.1-.2 0-.4 0-.6.1-.2 0-.4 0-.5.1-.3 0-.7.1-.9.1-.3 0-.5.1-.7.1-.4-.2-.6-.2-.6-.2z" opacity=".5"/><path fill="#aa4b1a" d="M54.1 19.2s.2 0 .6-.1c.2 0 .4-.1.7-.1.3 0 .6-.1.9-.1.2 0 .3 0 .5-.1.2 0 .4 0 .6-.1.4 0 .8-.1 1.2-.1.4 0 .9-.1 1.3-.1.2 0 .5 0 .7 0 .2 0 .5 0 .7 0 .2 0 .5 0 .7 0 .2 0 .5 0 .7 0 .2 0 .4 0 .7 0 .2 0 .4 0 .6.1.2 0 .4 0 .6.1.2 0 .4 0 .6.1.4 0 .8.1 1.1.1.3 0 .7.1.9.1.3 0 .5.1.7.1.4.1.6.1.6.1s-.2 0-.6-.1c-.4-.1-1-.1-1.6-.2-.3 0-.7-.1-1.1-.1-.4 0-.8-.1-1.2-.1-.2 0-.4 0-.6 0-.2 0-.4 0-.7 0-.2 0-.4 0-.7 0-.2 0-.5 0-.7 0-.2 0-.5 0-.7 0-.2 0-.5 0-.7 0-.4 0-.9 0-1.3.1-.2 0-.4 0-.6.1-.2 0-.4 0-.6.1-.2 0-.4 0-.6.1-.2 0-.4 0-.5.1-.3 0-.7.1-.9.1-.3 0-.5.1-.7.1-.4-.2-.6-.2-.6-.2zM54.1 21.2s.2 0 .6-.1c.2 0 .4-.1.7-.1.3 0 .6-.1.9-.1.2 0 .3 0 .5-.1.2 0 .4 0 .6-.1.4 0 .8-.1 1.2-.1.4 0 .9-.1 1.3-.1.2 0 .5 0 .7 0 .2 0 .5 0 .7 0 .2 0 .5 0 .7 0 .2 0 .5 0 .7 0 .2 0 .4 0 .7 0 .2 0 .4 0 .6.1.2 0 .4 0 .6.1.2 0 .4 0 .6.1.4 0 .8.1 1.1.1.3 0 .7.1.9.1.3 0 .5.1.7.1.4.1.6.1.6.1s-.2 0-.6-.1c-.4 0-1-.1-1.6-.2-.3 0-.7-.1-1.1-.1-.4 0-.8-.1-1.2-.1-.2 0-.4 0-.6 0-.2 0-.4 0-.7 0-.2 0-.4 0-.7 0-.2 0-.5 0-.7 0-.2 0-.5 0-.7 0-.2 0-.5 0-.7 0-.4 0-.9 0-1.3.1-.2 0-.4 0-.6.1-.2 0-.4 0-.6.1-.2 0-.4 0-.6.1-.2 0-.4 0-.5.1-.3 0-.7.1-.9.1-.3 0-.5.1-.7.1-.4-.3-.6-.2-.6-.2z" opacity=".5"/><path fill="#aa4b1a" d="M54.1 21.7s.2 0 .6-.1c.2 0 .4-.1.7-.1.3 0 .6-.1.9-.1.2 0 .3 0 .5-.1.2 0 .4 0 .6-.1.4 0 .8-.1 1.2-.1.4 0 .9-.1 1.3-.1.2 0 .5 0 .7 0 .2 0 .5 0 .7 0 .2 0 .5 0 .7 0 .2 0 .5 0 .7 0 .2 0 .4 0 .7 0 .2 0 .4 0 .6.1.2 0 .4 0 .6.1.2 0 .4 0 .6.1.4 0 .8.1 1.1.1.3 0 .7.1.9.1.3 0 .5.1.7.1.4.1.6.1.6.1s-.2 0-.6-.1c-.4-.1-1-.1-1.6-.2-.3 0-.7-.1-1.1-.1-.4 0-.8-.1-1.2-.1-.2 0-.4 0-.6 0-.2 0-.4 0-.7 0-.2 0-.4 0-.7 0-.2 0-.5 0-.7 0-.2 0-.5 0-.7 0-.2 0-.5 0-.7 0-.4 0-.9 0-1.3.1-.2 0-.4 0-.6.1-.2 0-.4 0-.6.1-.2 0-.4 0-.6.1-.2 0-.4 0-.5.1-.3 0-.7.1-.9.1-.3 0-.5.1-.7.1-.4-.2-.6-.2-.6-.2z" opacity=".5"/><path fill="#aa4b1a" d="M54.1 22.3s.2 0 .6-.1c.2 0 .4-.1.7-.1.3 0 .6-.1.9-.1.2 0 .3 0 .5-.1.2 0 .4 0 .6-.1.4 0 .8-.1 1.2-.1.4 0 .9-.1 1.3-.1.2 0 .5 0 .7 0 .2 0 .5 0 .7 0 .2 0 .5 0 .7 0 .2 0 .5 0 .7 0 .2 0 .4 0 .7 0 .2 0 .4 0 .6.1.2 0 .4 0 .6.1.2 0 .4 0 .6.1.4 0 .8.1 1.1.1.3 0 .7.1.9.1.3 0 .5.1.7.1.4.1.6.1.6.1s-.2 0-.6-.1c-.4-.1-1-.1-1.6-.2-.3 0-.7-.1-1.1-.1-.4 0-.8-.1-1.2-.1-.2 0-.4 0-.6 0-.2 0-.4 0-.7 0-.2 0-.4 0-.7 0-.2 0-.5 0-.7 0-.2 0-.5 0-.7 0-.2 0-.5 0-.7 0-.4 0-.9 0-1.3.1-.2 0-.4 0-.6.1-.2 0-.4 0-.6.1-.2 0-.4 0-.6.1-.2 0-.4 0-.5.1-.3 0-.7.1-.9.1-.3 0-.5.1-.7.1-.4-.3-.6-.2-.6-.2zM54.1 24.4s.2 0 .6-.1c.2 0 .4-.1.7-.1.3 0 .6-.1.9-.1.2 0 .3 0 .5-.1.2 0 .4 0 .6-.1.4 0 .8-.1 1.2-.1.4 0 .9-.1 1.3-.1.2 0 .5 0 .7 0 .2 0 .5 0 .7 0 .2 0 .5 0 .7 0 .2 0 .5 0 .7 0 .2 0 .4 0 .7 0 .2 0 .4 0 .6.1.2 0 .4 0 .6.1.2 0 .4 0 .6.1.4 0 .8.1 1.1.1.3 0 .7.1.9.1.3 0 .5.1.7.1.4.1.6.1.6.1s-.2 0-.6-.1c-.4 0-1-.1-1.6-.2-.3 0-.7-.1-1.1-.1-.4 0-.8-.1-1.2-.1-.2 0-.4 0-.6 0-.2 0-.4 0-.7 0-.2 0-.4 0-.7 0-.2 0-.5 0-.7 0-.2 0-.5 0-.7 0-.2 0-.5 0-.7 0-.4 0-.9 0-1.3.1-.2 0-.4 0-.6.1-.2 0-.4 0-.6.1-.2 0-.4 0-.6.1-.2 0-.4 0-.5.1-.3 0-.7.1-.9.1-.3 0-.5.1-.7.1-.4-.2-.6-.2-.6-.2z" opacity=".5"/><path fill="#aa4b1a" d="M54.1 24.9s.2 0 .6-.1c.2 0 .4-.1.7-.1.3 0 .6-.1.9-.1.2 0 .3 0 .5-.1.2 0 .4 0 .6-.1.4 0 .8-.1 1.2-.1.4 0 .9-.1 1.3-.1.2 0 .5 0 .7 0 .2 0 .5 0 .7 0 .2 0 .5 0 .7 0 .2 0 .5 0 .7 0 .2 0 .4 0 .7 0 .2 0 .4 0 .6.1.2 0 .4 0 .6.1.2 0 .4 0 .6.1.4 0 .8.1 1.1.1.3 0 .7.1.9.1.3 0 .5.1.7.1.4.1.6.1.6.1s-.2 0-.6-.1c-.4 0-1-.1-1.6-.2-.3 0-.7-.1-1.1-.1-.4 0-.8-.1-1.2-.1-.2 0-.4 0-.6 0-.2 0-.4 0-.7 0-.2 0-.4 0-.7 0-.2 0-.5 0-.7 0-.2 0-.5 0-.7 0-.2 0-.5 0-.7 0-.4 0-.9 0-1.3.1-.2 0-.4 0-.6.1-.2 0-.4 0-.6.1-.2 0-.4 0-.6.1-.2 0-.4 0-.5.1-.3 0-.7.1-.9.1-.3 0-.5.1-.7.1-.4-.2-.6-.2-.6-.2z" opacity=".5"/><path fill="#aa4b1a" d="M54.1 25.5s.2 0 .6-.1c.2 0 .4-.1.7-.1.3 0 .6-.1.9-.1.2 0 .3 0 .5-.1.2 0 .4 0 .6-.1.4 0 .8-.1 1.2-.1.4 0 .9-.1 1.3-.1.2 0 .5 0 .7 0 .2 0 .5 0 .7 0 .2 0 .5 0 .7 0 .2 0 .5 0 .7 0 .2 0 .4 0 .7 0 .2 0 .4 0 .6.1.2 0 .4 0 .6.1.2 0 .4 0 .6.1.4 0 .8.1 1.1.1.3 0 .7.1.9.1.3 0 .5.1.7.1.4.1.6.1.6.1s-.2 0-.6-.1c-.4-.1-1-.1-1.6-.2-.3 0-.7-.1-1.1-.1-.4 0-.8-.1-1.2-.1-.2 0-.4 0-.6 0-.2 0-.4 0-.7 0-.2 0-.4 0-.7 0-.2 0-.5 0-.7 0-.2 0-.5 0-.7 0-.2 0-.5 0-.7 0-.4 0-.9 0-1.3.1-.2 0-.4 0-.6.1-.2 0-.4 0-.6.1-.2 0-.4 0-.6.1-.2 0-.4 0-.5.1-.3 0-.7.1-.9.1-.3 0-.5.1-.7.1-.4-.2-.6-.2-.6-.2z" opacity=".5"/><path fill="#666" d="M57.3 60.6s-.2-.2-.5-.6c-.3-.4-.8-.9-1.5-1.6a22.4 22.4 0 00-6.4-4.4c-.2-.1-.4-.2-.6-.2-.2-.1-.4-.2-.6-.2-.1 0-.2-.1-.3-.1h-.1c-.1 0-.1 0-.2 0-.2-.1-.4-.1-.6-.2a83.88 83.88 0 00-8.3-1.6c-1-.2-2-.3-3-.5s-2-.4-3.1-.6c-.5-.1-1-.2-1.6-.4-.1 0-.3-.1-.4-.1-.1 0-.1 0-.2-.1l.1-.3c-.3-.1-.5-.2-.8-.3-.5-.2-1-.5-1.4-.7-.2-.1-.5-.2-.7-.4-.2-.1-.5-.2-.7-.4-1-.5-1.9-1-2.8-1.6-.2-.1-.5-.3-.7-.4-.1-.1-.2-.1-.3-.2l-.3-.2c-.2-.1-.4-.3-.7-.4-.2-.1-.4-.3-.7-.5-1.7-1.2-3.3-2.5-4.8-3.9-.2-.2-.4-.3-.5-.5-.1-.1-.2-.2-.3-.3l-.1-.1-.1-.1c-.3-.4-.7-.7-1-1.1-.2-.2-.3-.4-.5-.5-.2-.2-.3-.4-.5-.5-.3-.4-.6-.7-.9-1-.1-.1-.2-.2-.2-.3-.1-.1-.2-.2-.2-.2-.2-.2-.3-.3-.5-.5s-.3-.3-.5-.5-.3-.3-.5-.5c-.3-.3-.6-.6-.9-.9-.3-.3-.6-.6-.9-.8-.6-.5-1.2-1-1.7-1.5-.8-.4-1.3-.8-1.8-1.3-1-.8-1.9-1.6-2.6-2.2-.7-.6-1.3-1.1-1.7-1.4-.4-.3-.6-.5-.6-.5s.2.2.6.5c.4.3 1 .8 1.7 1.3.7.7 1.6 1.4 2.6 2.2 1 .8 2.1 1.8 3.3 2.8.3.3.6.5.9.8.3.3.6.6.9.9.2.1.3.3.5.5s.3.3.5.5.3.3.5.5c.1.1.2.2.2.2.1.1.2.2.2.3.3.3.6.7.9 1 .2.2.3.3.5.5s.3.4.5.5c.3.3.7.7 1 1l.1.1.1.1c.1.1.2.2.3.3.2.2.4.3.5.5.4.3.7.7 1.1 1 .2.2.4.3.6.5.2.2.4.3.6.5.2.2.4.3.6.5.2.2.4.3.6.5.2.2.4.3.6.5.2.2.4.3.6.5.2.1.4.3.6.5.2.1.4.3.7.4l.3.2c.1.1.2.1.3.2.2.1.5.3.7.4.9.5 1.8 1.1 2.8 1.6.2.1.5.2.7.4.2.1.5.2.7.4.5.2 1 .5 1.4.7.2.1.5.2.7.3l.2.1c.1 0 .1 0 .2.1.1 0 .3.1.4.1.5.1 1 .3 1.5.4 1 .2 2.1.4 3.1.6 1 .2 2 .4 3 .5 2 .4 3.9.7 5.7 1.1.9.2 1.8.4 2.6.6.2.1.4.1.6.2.1 0 .1 0 .2 0h.1c.1 0 .2.1.3.1.2.1.4.2.6.2.2.1.4.2.6.2 1.5.7 2.7 1.5 3.8 2.3 1 .8 1.9 1.6 2.5 2.2.7.7 1.1 1.2 1.4 1.6.9.4 1 .7 1 .7z"/><path fill="#666" d="M56.2 60.8s-.1-.2-.5-.6c-.3-.4-.8-.9-1.5-1.4a21.28 21.28 0 00-6.3-3.7c-.2-.1-.4-.1-.5-.2-.1 0-.2-.1-.3-.1 0 0-.1 0-.1-.1 0 0-.1 0-.1 0-.1 0-.2-.1-.3-.1-.1 0-.2-.1-.3-.1-.2-.1-.4-.1-.6-.1-.8-.2-1.6-.3-2.5-.5-1.7-.3-3.5-.5-5.4-.7-.8-.1-1.8-.3-2.8-.4-1-.1-2-.3-2.9-.4-.5-.1-1-.2-1.5-.3-.5-.1-1-.2-1.5-.4l-.2-.1c-.1 0-.1-.1-.2-.1h-.1l-.2-.1c-.2-.1-.5-.2-.7-.3-.5-.2-.9-.4-1.4-.6-.9-.4-1.8-.9-2.7-1.4-.2-.1-.4-.3-.7-.4-.2-.1-.4-.3-.6-.4-.4-.3-.9-.5-1.3-.8-1.7-1.1-3.2-2.3-4.7-3.5-.4-.3-.7-.6-1.1-.9 0-.1-.1-.1-.2-.2s-.2-.2-.3-.2c-.2-.2-.3-.3-.5-.5-.7-.6-1.3-1.2-2-1.8-.6-.6-1.3-1.2-1.9-1.7-.6-.5-1.2-1.1-1.8-1.6-.6-.5-1.1-1-1.6-1.4-.5-.5-1-.9-1.5-1.3-.4-.4-.8-.8-1.2-1.1-.4-.3-.8-.7-1.1-.9C1.7 31.3 1 30.6 1 30.6s.2.2.6.5c.4.3.9.7 1.6 1.3.3.3.7.6 1.1.9.4.3.9.7 1.3 1.1.5.4 1 .8 1.5 1.3.5.3 1.1.8 1.7 1.3.6.5 1.2 1 1.8 1.6.6.6 1.2 1.1 1.9 1.7.6.6 1.3 1.2 2 1.8.2.1.3.3.5.5.1.1.2.2.3.2.1.1.2.1.3.2.4.3.7.6 1.1.9 1.5 1.2 3.1 2.4 4.7 3.4.4.3.8.5 1.3.8.2.1.4.3.6.4.2.1.4.3.7.4.9.5 1.8.9 2.7 1.4.5.2.9.4 1.4.6.2.1.5.2.7.3l.2.1h.1c.1 0 .1.1.2.1l.2.1c.5.2 1 .3 1.4.4.5.1 1 .2 1.5.3 2 .3 3.9.6 5.8.8 1.9.2 3.7.5 5.4.8.9.1 1.7.3 2.5.5.2.1.4.1.6.2.1 0 .2.1.3.1.1 0 .2.1.3.1 0 0 .1 0 .1 0s.1 0 .1.1c.1 0 .2.1.3.1.2.1.4.1.5.2 1.4.6 2.7 1.2 3.7 1.9s1.9 1.3 2.5 1.9c.7.6 1.1 1.1 1.4 1.5.2.2.3.4.3.4z"/><path fill="#666" d="M55.2 61.4s-.1-.2-.4-.5c-.3-.3-.8-.8-1.4-1.3-.7-.5-1.5-1.1-2.5-1.7-1-.6-2.2-1.1-3.6-1.6-.1 0-.2-.1-.3-.1 0 0-.1 0-.1 0s0 0-.1 0h-.1c-.2-.1-.4-.1-.5-.2-.1 0-.2 0-.3-.1-.1 0-.2 0-.3-.1-.2 0-.4-.1-.6-.1-.8-.1-1.6-.2-2.4-.3-1.6-.2-3.4-.3-5.2-.4-.9-.1-1.8-.1-2.7-.2-.9-.1-1.9-.1-2.8-.2-.5-.1-.9-.1-1.4-.2-.5-.1-1-.2-1.4-.3-.1 0-.2-.1-.4-.1H28.4s-.1 0-.1 0c-.2-.1-.4-.2-.7-.3-.4-.2-.9-.4-1.3-.5-.4-.2-.9-.4-1.3-.5-.2-.1-.4-.2-.7-.3l-.3-.3c-.1 0-.2-.1-.3-.2-.2-.1-.4-.2-.7-.3-.2-.1-.4-.2-.6-.3-.2-.1-.4-.2-.6-.3-.2-.1-.4-.2-.6-.3-1.7-.9-3.3-1.9-4.7-3-.4-.3-.7-.5-1.1-.8a7 7 0 00-1-.8c-.1-.1-.2-.1-.3-.2l-.1-.1-.1-.1c-.2-.1-.3-.3-.5-.4-.3-.3-.6-.6-1-.8-1.2-1.1-2.4-2.2-3.4-3.2-1.1-1-2-1.9-2.9-2.7-.4-.4-.8-.8-1.2-1.1-.4-.3-.7-.6-1-.9-.6-.6-1.1-1-1.5-1.3-.3-.3-.5-.5-.5-.5s.2.2.5.4c.3.3.9.7 1.5 1.3.3.3.7.6 1.1.9.4.3.8.7 1.2 1.1.4.4.9.8 1.4 1.2.2.2.5.4.8.7.3.2.5.5.8.7 1.1 1 2.2 2 3.5 3.1.3.3.6.5 1 .8.2.1.3.3.5.4l.1.1.1.1c.1.1.2.1.3.2.3.3.7.5 1 .8.4.3.7.5 1.1.8.1.1.2.1.3.2 0 0 .1.1.1.1l.1.1c.2.1.4.3.6.4.2.1.4.3.6.4.2.1.4.2.6.4.4.2.8.5 1.2.7.4.2.8.5 1.2.7.2.1.4.2.6.3.2.1.4.2.6.3.2.1.4.2.6.3.2.1.4.2.7.3.1 0 .2.1.3.1l.3.1c.2.1.4.2.7.3l.7.3.7.3c.4.2.9.4 1.3.5.2.1.4.2.7.3 0 0 .1 0 .1 0h.1l.2.1c.1 0 .2.1.3.1.4.1.9.2 1.4.3.5.1.9.1 1.4.2 1.9.2 3.7.3 5.6.4 1.8.1 3.6.2 5.2.4.8.1 1.6.2 2.4.4.2 0 .4.1.6.1.1 0 .2 0 .3.1.1 0 .2 0 .3.1.2 0 .4.1.5.2h.1s0 0 .1 0c0 0 .1 0 .1 0 .1 0 .2.1.3.1.2.1.3.1.5.2.1 0 .2.1.2.1.1 0 .2.1.2.1.2.1.3.1.5.2s.3.1.5.2c.1.1.3.1.4.2.1 0 .1.1.2.1s.1.1.2.1c.3.1.5.3.8.4 1 .6 1.9 1.2 2.5 1.7.7.5 1.1 1 1.4 1.3 0 .6.1.8.1.8z"/><path fill="#666" d="M54.4 62.3s-.1-.2-.4-.5c-.3-.3-.8-.7-1.4-1.2-.7-.5-1.5-1-2.5-1.4-.1-.1-.3-.1-.4-.2-.1-.1-.3-.1-.4-.2a3 3 0 01-.8-.4c-.1-.1-.3-.1-.4-.2-.1-.1-.3-.1-.5-.2-.3-.1-.6-.2-.9-.3-.1 0-.2-.1-.2-.1-.1 0-.2-.1-.3-.1-.1 0-.2 0-.3-.1-.1 0-.2 0-.3-.1-.2 0-.3-.1-.5-.1s-.4-.1-.5-.1c-.7-.1-1.5-.2-2.3-.3-1.6-.1-3.2-.2-5-.3-.9 0-1.7-.1-2.6-.1-.9 0-1.8-.1-2.7-.1-.9 0-1.8-.1-2.7-.2-.5-.1-.9-.1-1.4-.2H27.6l-.5.1-.7-.2c-.9-.3-1.7-.6-2.6-1-.4-.2-.8-.4-1.2-.6-.2-.1-.4-.2-.6-.3-.2-.1-.4-.2-.6-.3-1.6-.9-3.1-1.8-4.5-2.8-.2-.1-.4-.2-.5-.4-.2-.1-.4-.2-.5-.4-.3-.3-.7-.5-1-.7-.2-.1-.3-.3-.5-.4-.2-.1-.3-.3-.5-.4-.2-.1-.3-.2-.5-.4-.2-.1-.3-.3-.5-.4-.3-.3-.6-.5-.9-.7-.1-.1-.3-.2-.4-.4-.1-.1-.3-.2-.4-.4-.6-.5-1.1-1-1.6-1.4-1-.9-2-1.8-2.8-2.5-.9-.7-1.6-1.4-2.2-1.9-.6-.5-1.1-.9-1.4-1.2-.5-.1-.7-.2-.7-.2s.2.1.5.4c.3.3.8.7 1.5 1.2.6.5 1.4 1.1 2.2 1.8.4.4.9.7 1.4 1.1.5.4 1 .8 1.5 1.3.5.4 1.1.9 1.6 1.4.1.1.3.2.4.4.1.1.3.2.4.4.3.2.6.5.9.7.2.1.3.3.5.4.2.1.3.2.5.4.2.1.3.2.5.4.2.1.3.3.5.4.3.2.7.5 1 .7.2.1.3.2.5.4.2.1.4.2.5.4 1.4 1 2.9 1.9 4.5 2.7.2.1.4.2.6.3.2.1.4.2.6.3.4.2.8.4 1.2.6.8.4 1.7.7 2.6 1l.7.2.3.1h.4c.4.1.9.1 1.3.2.9.1 1.8.2 2.7.2 1.8.1 3.6.2 5.3.2 1.7.1 3.4.2 5 .3.8.1 1.6.2 2.3.3.2 0 .4.1.5.1.2 0 .4.1.5.1.1 0 .2 0 .3.1.1 0 .2 0 .3.1.1 0 .2.1.3.1.1 0 .2.1.2.1 1.3.5 2.5 1 3.5 1.5s1.8 1 2.5 1.5 1.1.9 1.4 1.2c.1.1.1.2.2.2.1.1.1.1.1.2.1-.2.2-.1.2-.1z"/><path fill="#666" d="M53.9 63s0-.1 0 0c0-.1-.1-.1-.1-.1-.1-.1-.2-.2-.4-.3-.3-.3-.8-.6-1.5-.9a27.68 27.68 0 00-4.1-1.8c-.1-.1-.3-.1-.4-.2-.1-.1-.3-.1-.4-.2-.1-.1-.3-.1-.5-.2-.1 0-.2-.1-.2-.1-.1 0-.2 0-.2-.1-.6-.2-1.3-.3-2-.4-.7-.1-1.4-.1-2.2-.2-1.5-.1-3.1 0-4.7 0s-3.3.1-5.1 0c-.9 0-1.7 0-2.6-.1-.2 0-.4 0-.7-.1-.2 0-.4 0-.7-.1-.2 0-.4-.1-.7-.1l-.3-.1h-.4l-.3-.1H26l-.3-.1c-.1 0-.2-.1-.3-.1-.2-.1-.4-.1-.6-.2-.2-.1-.4-.1-.6-.2-.8-.3-1.6-.7-2.4-1-.8-.4-1.6-.8-2.3-1.2-.7-.4-1.5-.8-2.2-1.2-1.4-.8-2.8-1.7-4-2.6-1.2-.9-2.4-1.7-3.4-2.5s-2-1.6-2.8-2.3c-.8-.7-1.5-1.3-2.1-1.8-.3-.3-.5-.5-.7-.7-.2-.2-.4-.4-.5-.5-.3-.3-.4-.4-.4-.4s.2.2.5.4c.1.1.3.3.6.5.1.1.2.2.4.3.1.1.3.2.4.4.6.5 1.3 1.1 2.1 1.8.6.7 1.6 1.4 2.6 2.2 2.1 1.6 4.6 3.3 7.5 5 .7.4 1.4.8 2.2 1.2.4.2.7.4 1.1.6.4.2.8.4 1.2.6 1.6.7 3.2 1.4 4.9 1.7h.4l.3.1c.2 0 .4.1.6.1.2 0 .4.1.6.1.2 0 .4 0 .7.1.9.1 1.7.1 2.6.1 1.7 0 3.4 0 5.1 0 1.6 0 3.2 0 4.8.1.8 0 1.5.1 2.2.2.4 0 .7.1 1 .2.2 0 .3.1.5.1.1 0 .2 0 .2.1.1 0 .2 0 .2.1 1.3.4 2.4.9 3.4 1.3s1.8.9 2.5 1.2c.7.4 1.2.7 1.5 1 .2.1.3.2.4.3-.1 0 0 0 0 .1 0-.1 0 0 0 0z"/><path d="M33.5 59.1c.1.8-.8 1.5-2.1 1.7-1.3.2-2.4-.3-2.5-1-.1-.8.8-1.6 2-1.8 1.3-.2 2.5.3 2.6 1.1z"/><path d="M30.9 61c-1.1 0-1.9-.5-2-1.2-.1-.4.1-.8.5-1.2.4-.4 1-.6 1.6-.7.2 0 .4 0 .5 0 1.1 0 2 .5 2.1 1.2.1.8-.8 1.6-2.2 1.8-.1 0-.3.1-.5.1zm.6-3c-.2 0-.3 0-.5 0-.6.1-1.1.3-1.5.7-.3.3-.5.7-.5 1 .1.6.8 1 1.8 1 .2 0 .4 0 .6 0 1.2-.2 2.1-.9 2-1.6 0-.6-.9-1.1-1.9-1.1z"/><path d="M32 60.3c-.2 0-.4 0-.6-.1l.1-.5s1.5.3 1.8-.7c.2-.8 1.8-9.1 2-10.5l-4.9-2.3c-.3 1.6-1.6 8.8-2 10.4-.1.5-.4.9-.8 1.1-.6.3-1.2.2-1.2.1l.1-.5c.1 0 1.1.3 1.4-.9.5-1.7 2-10.6 2-10.7l.1-.3 5.8 2.8v.2c-.1.4-1.8 9.9-2.1 10.7-.1 1-1 1.2-1.7 1.2zM6.4 40.1c-.1.8-1.1 1.3-2.4 1.2-1.3-.1-2.3-.8-2.2-1.6.1-.8 1.1-1.4 2.4-1.3 1.3.1 2.3.9 2.2 1.7z"/><path d="M4.3 41.4c-.1 0-.2 0-.3 0-1.3-.1-2.4-.9-2.3-1.7.1-.8 1.1-1.4 2.3-1.4.1 0 .2 0 .3 0 .6.1 1.2.3 1.7.6.4.4.7.8.6 1.2-.2.7-1.1 1.3-2.3 1.3zm-.4-3c-1.1 0-2 .6-2.1 1.3-.1.7.9 1.4 2.1 1.5.1 0 .2 0 .3 0 1.1 0 2-.5 2-1.1 0-.3-.2-.7-.6-1-.4-.3-1-.5-1.6-.6.1-.1 0-.1-.1-.1zM11.1 43.6c-.1.8-1.1 1.3-2.4 1.2-1.3-.1-2.3-.8-2.2-1.6.1-.8 1.1-1.4 2.4-1.3 1.3.1 2.3.9 2.2 1.7z"/><path d="M9 44.9c-.1 0-.2 0-.3 0-.7 0-1.2-.2-1.7-.5-.4-.3-.7-.7-.6-1.1.1-.8 1-1.4 2.2-1.4.1 0 .2 0 .3 0 1.3.1 2.4.9 2.3 1.8-.1.7-1 1.2-2.2 1.2zM8.6 42c-1.1 0-2 .6-2 1.2 0 .3.2.7.6 1 .4.3 1 .5 1.6.5.1 0 .2 0 .3 0 1.1 0 2-.5 2-1.1.1-.7-1-1.5-2.1-1.6-.2 0-.3 0-.4 0z"/><path d="M10 44.5c-.5 0-.9-.1-1.2-.3l.2-.4s1.4.6 1.9-.2c.4-.7 3.8-8.5 4.4-9.7l-4.2-3.4c-.7 1.5-3.6 8.2-4.4 9.6-.3.5-.6.8-1.1.9-.6.2-1.2-.1-1.2-.1l.2-.4c.1.1 1 .5 1.6-.6.9-1.6 4.4-9.8 4.5-9.9l.1-.3 5 4.1-.1.2c-.2.4-4.1 9.2-4.5 9.9-.1.5-.7.6-1.2.6zM16.8 53.1c-.1.8-1.3 1.4-2.7 1.3-1.4-.1-2.5-.9-2.4-1.8.1-.8 1.3-1.6 2.7-1.5 1.3.3 2.4 1.2 2.4 2z"/><path d="M14.4 54.6c-.1 0-.2 0-.4 0-1.5-.1-2.6-1-2.5-1.9.1-.9 1.2-1.6 2.5-1.6.1 0 .2 0 .3 0 .7.1 1.3.3 1.8.7.5.4.7.9.7 1.3 0 .9-1 1.5-2.4 1.5zm-.4-3.3c-1.2 0-2.2.6-2.3 1.4-.1.8 1 1.5 2.3 1.7.1 0 .2 0 .4 0 1.2 0 2.2-.5 2.2-1.2 0-.4-.2-.8-.6-1.1-.5-.4-1.1-.6-1.7-.7-.1-.1-.2-.1-.3-.1z"/><path d="M15.5 54.2c-.5 0-.9-.2-.9-.2l.2-.4-.1.2.1-.2s.3.2.6.2c.5 0 .9-.3 1.1-.8 1-1.7 4.9-10.8 5-10.9l.5.2c-.2.4-4 9.2-5 10.9-.3.5-.7.9-1.2 1 0-.1-.2 0-.3 0z"/><path fill="#7c201e" d="M83.7 46.2s-1-.6-.8-2.3c.2-1.5 8.6-11.6 8.6-11.6l-.1-.6-10.8 13.7 1.9 1.7 1.2-.9z"/><path fill="#74260c" d="M81.7 47.6c1.5.4 4.4-.1 4.4-.1s2.2 3.5 2.6 4.6c1.1 3-.5 6.5-3.1 8.3-1.4.9-2.2 1.7-2.6 2.6-.4.9.2 1.4-.2 1.6-.4.3-1.1-.6-3.2 0-2.1.7-4.9 4.8-5.2 8.2l1.2-.7s2.2 3.6 1.8 3.7c-.4.1-1.9.9-1.9 2.7.2 3.7-1.7 9.5-7.9 12.1-4.8 2-9.4 2-15-.4-5.8-2.5-9.6-7.1-8.4-11 1.1-3.6 6-6.9 7.8-7.9 1.7-1 1.7-2.8 2-3 .4-.1.5.7 2 .5 2.1-.3 4.9-2.9 6.1-4.4 2.1-2.5 2.1-3.7 2.1-4.2 0-1.2-1.7-.6-1.6-1.3 0-.4 1.3-.6 2-1.9.7-1.3 1.1-5.3 6-8 3.3-1.5 8.3-2.1 11.1-1.4z"/><path fill="#74260c" d="M73.4 66.6c-.8 1.8-1.8 3.2-.9 4.6.8 1.3 2 .9 2 .9l.7-2.3c-2.1-1.2.1-6.5.1-6.5s-1.3 2.1-1.9 3.3z" opacity=".5"/><path fill="#74260c" d="M76 62.6c2.1-1 4.6.5 4.6 1.9h.4l-1-3.3s-1.4-.2-2.1.1c-.8.3-1.9 1.3-1.9 1.3z"/><path fill="#d65d0b" d="M79.7 44.2c2.6.7 6.1 1.9 7 4.6 1.1 3-.2 6.3-3.1 8.3-1.4.9-2.3 1.7-2.7 2.6-.4.9.3 1.3-.1 1.6-.4.3-1.1-.6-3.1.1-2.1.7-5 5.7-5.2 8.6-.2 2.3 2.2 2 2.8 2 .6 0 .5.5.2.6-.4.1-1.8.4-1.9 2.7-.1 3.7-1.8 9.3-7.9 12.1-5.1 2.3-9.6 2.1-15.1-.2-8.1-3.4-8.8-7.2-7.7-11.1 1.1-3.6 5.4-6.9 7.2-8 1.7-1 1.7-2.8 2-3 .4-.1.5.7 2 .5 2.1-.3 4.9-2.9 6.1-4.4 2.1-2.5 2.1-3.7 2.1-4.2 0-1.2-1.7-.6-1.6-1.3 0-.4 1.3-.6 2-1.9.7-1.3 1.1-5.3 6-8 3.2-1.7 8.2-2.3 11-1.6z"/><path fill="#74260c" d="M58.5 88.5c-2.4 0-5-.6-7.8-1.8-3.6-1.5-5.9-3.2-7-5.2-.9-1.6-1-3.4-.4-5.5 1.1-3.6 5.5-6.8 6.9-7.6 1.1-.6 1.4-1.6 1.6-2.2.1-.3.2-.6.3-.6 0 0 .1 0 .1 0 .1 0 .2.1.3.2.2.2.5.4 1.1.4.1 0 .3 0 .4 0 1.9-.3 3.9-2.2 5.7-4l.2-.2c2.2-2.2 2.7-4.6 2.7-5 0-.6-.4-.7-.9-.7-.3-.1-.7-.1-.7-.5 0-.2.2-.3.5-.5.4-.2 1-.6 1.4-1.3.1-.2.2-.6.4-1 .6-1.7 1.5-4.7 5.3-6.8 2.1-1.1 5.2-1.9 7.9-1.9 1 0 1.9.1 2.7.3 1.1.3 2.7.8 4 1.5 1.5.8 2.5 1.8 2.9 2.9 1 2.9-.1 6-3 8-1.2.8-2.3 1.6-2.7 2.5-.2.4-.1.7 0 1 .1.2.1.4-.1.6-.1 0-.1.1-.2.1s-.3 0-.4-.1c-.2-.1-.5-.1-1-.1-.4 0-.9.1-1.4.3-2.6.9-5.9 7.5-5.5 9.3.4 1.9 1.7 1.9 2.3 1.9 0 0 .1 0 .1 0 .4 0 .5.2.5.3 0 .2-.1.3-.3.4 0 0-.1 0-.1 0-.4.1-1.2.4-1.3 2.5 0 1.2-.3 3.7-1.7 6.1-1.3 2.4-3.3 4.3-5.9 5.5-2.2.7-4.5 1.2-6.9 1.2zm-6.2-22.7c-.1 0-.2.3-.3.5-.2.6-.6 1.7-1.7 2.3-1.4.8-5.8 4-6.8 7.5-.6 2.1-.5 3.9.4 5.4 1.1 1.9 3.3 3.6 6.9 5.1 2.8 1.2 5.3 1.8 7.8 1.8 2.3 0 4.6-.5 6.9-1.6 6.7-3.1 7.4-9.5 7.5-11.5.1-2.1 1-2.5 1.4-2.6 0 0 .1 0 .1 0 .1-.1.2-.1.2-.2s-.1-.1-.3-.1c0 0-.1 0-.1 0-.6 0-2 0-2.5-2-.2-.9.5-3 1.7-5.1 1.3-2.3 2.8-4 4-4.4.5-.2 1-.3 1.5-.3.4 0 .8.1 1 .2.2.1.4.1.5 0 .1-.1.1-.2.1-.4-.1-.3-.2-.6 0-1.1.4-.9 1.5-1.7 2.7-2.6 2.8-1.9 4-5 3-7.8-.9-2.4-4.3-3.6-6.8-4.2-.7-.2-1.6-.3-2.6-.3-2.7 0-5.8.7-7.8 1.9-3.7 2.1-4.6 4.9-5.2 6.6-.1.4-.3.8-.4 1.1-.4.8-1 1.2-1.5 1.4-.2.1-.4.3-.4.4 0 .2.1.2.5.3.4.1 1 .2 1 .9 0 .6-.7 3.1-2.8 5.1l-.3.1c-1.9 1.9-3.9 3.8-5.9 4.1-.2 0-.3 0-.5 0-.6 0-1-.2-1.2-.4 0-.1 0-.1-.1-.1z"/><path fill="#ed8707" d="M63.9 54.2c.6-.5 1.8-4.6 3.9-6.5 2.1-1.9 5-2.6 5.9-2.2 0 0-4.7 2.8-6.3 4.3-1.5 1.6-3.5 4.4-3.5 4.4z"/><path fill="#ed8707" d="M66.6 83.7c3.2-2.1 4.6-6.8 4.9-8.7 0 0-3.6.6-5.5.5-2.9-.1-4.6-1.3-4.6-1.3s-1.5 1.7-2.5 3.2c-1.3 2-3.5 5.1-2.2 7.1 1.6 2.2 7.1 1 9.9-.8zM53.9 71.4c-3.2 2.9-4.3 7.8-4.8 10.9-3-.5-4.5-3.6-3.9-6.1.6-2.5 4-6.4 6.1-7.6l2.6 2.8z" opacity=".5"/><path fill="#43405a" d="M42.9 81.2c.2-3 5.2-3.7 7.2-2.5 1.6.9 2.1 2.5 2.1 4.3 0 1.6-.8 2.3-1.4 3.7-1.9 0-4.6-1.6-6-2.9-1-.9-1.9-2.6-1.9-2.6z"/><path fill="#7c7091" d="M43.2 81.2c.2-2.8 4.8-3.4 6.7-2.3 1.5.8 2 2.3 2 4 0 1.5-.8 2.1-1.3 3.4-1.7 0-4.2-1.4-5.5-2.6-1-.9-1.9-2.5-1.9-2.5z"/><path fill="#74260c" d="M55 67.5s-.1.8.5.7c1-.3 2.9-2.5 3.7-4 .8-1.3 2.9-3.6 4.1-3.7 1.5-.2.5 1 .5 1s.3-.9-.6-.7c-.6.1-1.8 1.4-2.6 2.6s-2.9 4.4-4.7 5.2c-1.3.5-1.4-.7-1.4-.7l.5-.4z"/><path fill="#74260c" d="M55.2 67.5c-.3.3-.6.5-.8.3-.2-.1-.1-.5.2-.8.3-.3.6-.5.8-.3.2.1.1.5-.2.8zM63.6 61.8c-.2.2-.5.2-.6.1-.1-.1 0-.3.3-.5.2-.2.5-.2.6-.1.1.1 0 .3-.3.5z"/><path fill="#ffdbbb" d="M60 66.8l-.9-3.5.5-.3s2 .2 2.7.4c1.3.4 3 1.2 3 1.2l-.3 3.1-5-.9z"/><path fill="#f7c699" d="M60 66.8l-.9-3.5s1.5 0 2.8.4c1.3.4 2.9 1.3 2.9 1.3l-.2 3.1-4.6-1.3z"/><path fill="#eaaf7f" d="M64.7 68.1l.2-3.1.3-.4-.2 3.1z"/><path fill="#7c7091" d="M55.6 84.9l-.9 3.1s-2.7-.8-4.3-1.4c-1.6-.7-3-1.5-3-1.5l1-2s1.2.5 2.9 1.2c1.5.4 4.3.6 4.3.6z"/><path fill="#43405a" d="M55.6 84.9l.1.9-.6 2.9-.4-.7z"/><path fill="#43405a" d="M47.5 85s1.3.9 3.3 1.7c1.5.6 3.9 1.2 3.9 1.2l.4.7s-2.7-.7-4.4-1.4c-1.3-.5-3-1.6-3-1.6l-.2-.6z"/><path fill="#7c7091" d="M51.4 86.9l9.1-14.1s-.7-1.7-2.3-2.1c-1.4-.3-2.9.4-2.9.4s-1.4 4.4-2.7 7.4c-1.4 3.5-3.3 7.4-3.3 7.4l2.1 1z"/><path fill="#c9bed1" d="M50.7 83.9l5.2-13s.5-.4 1.4-.2c.8.2 1.5.7 1.5.7l-7.7 12.8-.4-.3z" opacity=".5"/><path fill="#43405a" d="M52.6 84.2l7.6-11.9.3.6-7.6 11.7z"/><g><path fill="#43405a" d="M54.5 87.6c-.1 0-2.2-.6-3.6-1.1-1.5-.5-3.1-1.5-3.1-1.5h-.1l.8-1.6h.1s.6.3 2.7 1c1.7.6 3.8.7 3.8.7h.1l-.7 2.5zm-6.6-2.7c.3.2 1.7 1 3 1.5 1.2.4 3.1 1 3.4 1.1l.7-2.2c-.4 0-2.2-.2-3.8-.7-1.7-.6-2.4-.9-2.6-1l-.7 1.3z"/></g><path fill="#43405a" d="M49.7 86.2s0 3.2.4 3.8c.3.6 1 .9 1.7.8.5-.1.9-.4.9-.4l-1.3-3.5-1.7-.7z"/><path fill="#363549" d="M50.9 86.7l.8 4.1.9-.4-1.2-3.5z"/><path fill="#43405a" d="M90.9 30.2c.1.6-.3 1.1-.9 1.2-.6.1-1.1-.3-1.2-.9-.1-.6.3-1.1.9-1.2.6-.1 1.1.3 1.2.9z"/><path fill="#43405a" d="M90.7 30.3c.1.5-.3.9-.7 1-.5.1-.9-.3-1-.7-.1-.5.3-.9.7-1 .5-.1.9.2 1 .7zM92.9 29.7c.1.5-.3 1-.8 1.1-.5.1-1-.3-1.1-.8-.1-.5.3-1 .8-1.1.5 0 1 .3 1.1.8z"/><path fill="#43405a" d="M92.7 29.8c.1.4-.2.8-.6.8-.4.1-.8-.2-.8-.6-.1-.4.2-.8.6-.8.3-.1.7.2.8.6z"/><path fill="#a03a17" d="M90.1 33.5s1.9-2.9 3.8-3.5c1.5-.5 2.9.1 3.4-.5.4-.6-.2-1.3-.2-1.3l1.6-1.4s.6 1.9-.2 3.3c-1.1 2-2.8 1.9-4.4 3-1.9 1.3-2.8 2.4-2.8 2.4l-1.2-2z"/><path fill="#702a0d" d="M87.9 32.4c.4.9 2.1 3.5 3.5 3.2-.4-.8-.9-2-1.5-2.5l-2-.7z"/><path fill="#dd731d" d="M94.8 24.8c-1.4.6-1.5 2.3-1.2 3.6.3 1.3 2.5 2.1 3.6.8-1.2-2.7.2-4.2.2-4.2l-2.6-.2z"/><path fill="#dd731d" d="M87.9 32.4c1.1-1.1 1.8-2.1 3.4-2.6.9-.3 1.7-.2 2.6-.2.4 0 2.4 0 1.6-.9.6-.1 1.1-.3 1.6-.4.7 2.4-1.5 1.4-3 1.9-1.2.4-3.4 2-3.8 3.3l-2.4-1.1z"/><path fill="#a03a17" d="M96 29.7c-.1 0-.1 0-.2 0 0 0-.1 0-.1 0s-.1 0-.1 0c-.1 0-.1 0-.2-.1-.1 0-.2-.1-.3-.2-.1 0-.1-.1-.2-.2s-.1-.1-.2-.2-.2-.3-.3-.5c-.1-.2-.1-.3-.2-.5s-.1-.4-.1-.6c0-.2 0-.4 0-.6 0-.2.1-.4.1-.6 0-.2.1-.3.2-.5 0-.1.1-.1.1-.2s.1-.1.1-.2.1-.1.1-.2.1-.1.1-.1 0 0 .1-.1c0 0 0 0 .1-.1 0 0 .1-.1.1-.1.1-.1.1-.1.2-.1 0 0 .1 0 .1 0s-.1.1-.2.2c0 0-.1.1-.1.1s0 0-.1.1c0 0 0 0-.1.1 0 0-.1.1-.1.1 0 .1-.1.1-.1.2s-.1.1-.1.2-.1.1-.1.2c-.1.2-.1.3-.2.5 0 .2-.1.4-.1.5 0 .2 0 .4 0 .6 0 .2 0 .4.1.6 0 .2.1.4.2.5.1.2.1.3.2.4 0 .1.1.1.1.2.1.1.1.1.2.2s.2.2.3.2c.1 0 .1 0 .1.1 0 0 .1 0 .1 0s.1 0 .1 0c.3.1.3.1.4.1z"/><path fill="#a03a17" d="M98.8 26.9c.3 1.3-.4 2.6-1.4 2.8-1 .2-2.1-.7-2.3-2.1-.3-1.3.4-2.6 1.4-2.8 1-.2 2 .7 2.3 2.1z"/><path fill="#74260c" d="M98.2 27c.1.8-.2 1.5-.8 1.6-.6.1-1.2-.4-1.3-1.2-.1-.8.2-1.5.8-1.6.6-.1 1.2.5 1.3 1.2z" opacity=".5"/><path fill="#7c7091" d="M95.4 31.4l2.4.7.3-.9-2.6-.5z"/><path fill="#7c7091" d="M95.8 31c0 .2-.1.4-.3.4-.2 0-.4-.1-.4-.3 0-.2.1-.4.3-.4.2 0 .4.1.4.3z"/><path fill="#43405a" d="M99.9 31.5c.1.7-.4 1.4-1.1 1.5-.7.1-1.4-.4-1.5-1.1-.1-.7.4-1.4 1.1-1.5.7-.1 1.4.4 1.5 1.1z"/><path fill="#9795b2" d="M99.6 31.6c.1.6-.3 1.1-.9 1.2-.6.1-1.1-.3-1.2-.9-.1-.6.3-1.1.9-1.2.6-.1 1.1.3 1.2.9z"/><path fill="#7c7091" d="M93 32.4l2.5.8.3-1-2.7-.5z"/><path fill="#7c7091" d="M93.4 32c0 .2-.1.4-.3.4-.2 0-.4-.1-.4-.3 0-.2.1-.4.3-.4.2 0 .4.1.4.3z"/><path fill="#43405a" d="M97.7 32.5c.1.7-.4 1.4-1.2 1.5s-1.4-.4-1.5-1.2c-.1-.7.4-1.4 1.2-1.5.7 0 1.4.5 1.5 1.2z"/><path fill="#9795b2" d="M97.4 32.6c.1.6-.3 1.1-.9 1.2-.6.1-1.1-.3-1.2-.9-.1-.6.3-1.1.9-1.2.6-.1 1.1.3 1.2.9z"/><path fill="#7c7091" d="M65 56.4l23.6-25.6 2.7.4L70 58.1s-.7-.9-2.2-1.5c-1.1-.5-2.8-.2-2.8-.2z"/><path fill="#43405a" d="M91.4 31.1v.6l-21.3 27-.1-.6zM65.1 57s1.1-.3 2.5 0c1.6.4 2.5 1.7 2.5 1.7l-.1-.6s-1.3-1.5-2.6-1.6c-1.2-.2-2.4-.1-2.4-.1l.1.6zM56 72c0 .2-.1.4-.3.4-.2 0-.4-.1-.4-.3 0-.2.1-.4.3-.4.2-.1.4.1.4.3zM57.1 72c0 .2-.1.4-.3.4-.2 0-.4-.1-.4-.3 0-.2.1-.4.3-.4.1 0 .3.1.4.3zM58.2 72.3c0 .2-.1.4-.3.4-.2 0-.4-.1-.4-.3 0-.2.1-.4.3-.4.2 0 .4.1.4.3zM59.4 73c0 .2-.1.4-.3.4-.2 0-.4-.1-.4-.3 0-.2.1-.4.3-.4.2-.1.4.1.4.3z"/><g><path fill="#fff" d="M55.7 72.1l-.2-.1 4.3-8.9 29.1-32.4.1.1-29 32.5z"/></g><g><path fill="#fff" d="M56.5 72.4l-.2-.1 5.1-9.2 27.9-32.3.2.2-28 32.3z"/></g><g><path fill="#fff" d="M57.9 72.6l-.2-.1 5.2-9L90 30.9l.1.1-27 32.6z"/></g><g><path fill="#fff" d="M59 73.1l-.2-.1 5.6-8.8 26.4-33.1.2.1-26.5 33.1z"/></g><path fill="#74260c" d="M69.2 63.3s.9-1.1 1.4-.5c.6.6 0 1.9-.6 2.8-.8 1.2-3.8 5-3 6.6.9 1.9 3.4 0 3.4 0l-.4-.3s-1.5 1.6-2.3.6c-.8-1 1.6-4 2.3-5 .8-1 2-3.6 1.1-4.8-1-1.2-2.2.3-2.2.3l.3.3z"/><path fill="#74260c" d="M69.7 63.3c0 .3-.2.5-.5.5s-.6-.1-.6-.4c0-.3.2-.5.5-.5s.6.1.6.4zM70.5 71.6c.2.3.1.7-.3 1-.3.3-.8.2-1 0-.2-.3-.1-.7.3-1 .3-.3.8-.3 1 0z"/></svg>