<svg xmlns="http://www.w3.org/2000/svg" viewBox="0 0 100 100"><path fill-rule="evenodd" d="M55.3 16.8a8.74 8.74 0 01-10 1.7c.4.9 1 1.7 1.7 2.4 3.4 3.4 9 3.4 12.5 0 3.4-3.4 3.4-9 0-12.5a8.93 8.93 0 00-12.5 0c-1.1 1.2-1.1 3 0 4.2 1.1 1.1 3 1.1 4.2 0l4.1 4.2zM20 44.8h21.3c2.4 0 4.6-1 6.2-2.6l9.3-9.3v23.6h5.9V27.2a2.9 2.9 0 015.8 0v29.4c0 3.2-2.7 5.8-5.9 5.8H45.1c-2.3 0-4.5.9-6.2 2.6-3.4 3.4-3.4 9 0 12.5l16.6 16.6h-9.3v5.9h17.6c3.5 0 6.7-1.6 8.8-4 2.2 2.4 5.3 4 8.8 4h5.9v-5.9h-5.9c-3.1 0-5.9-2.6-5.9-5.8V80c6-.5 10.8-5.6 10.7-11.7V41.9c0-3.2 2.7-5.9 5.9-5.9v-5.9c-6.4 0-11.8 5.3-11.8 11.8v26.4c0 3.2-2.7 5.9-5.9 5.9H52.2l5.9 5.9h11.6v8.1c0 3.2-2.7 5.9-5.9 5.9L43 73.4c-1.2-1.1-1.1-3 0-4.2.6-.6 1.3-.9 2.1-.9h17.6c6.4 0 11.8-5.3 11.8-11.8V27.2c0-4.2-3.1-7.8-7.1-8.7 1.3-4.9.1-10.4-3.8-14.2-5.7-5.7-15.1-5.7-20.8 0-5.8 5.7-5.8 15 0 20.8 2.6 2.6 5.9 4 9.3 4.3l-8.7 8.7c-.5.5-1.3.9-2.1.9h-7.1l5.9-5.9-4.1-4.2-16 15.9zm-6.3 49.3h18c.8 0 1.5-.3 2.1-.9 1.1-1.1 1.1-3 0-4.2L10.4 65.8c-3.4-3.4-3.4-9 0-12.5 1.7-1.7 4-2.6 6.2-2.6H51v5.9H16.7c-.7 0-1.5.3-2.1.9-1.1 1.1-1.1 3 0 4.2L38 85c3.4 3.4 3.4 9 0 12.5-1.7 1.7-4 2.6-6.2 2.6h-18v-6h-.1z" clip-rule="evenodd"/></svg>