<svg xmlns="http://www.w3.org/2000/svg" xmlns:xlink="http://www.w3.org/1999/xlink" x="0px" y="0px" viewBox="0 0 100 100" style="enable-background:new 0 0 100 100;" xml:space="preserve">
<path style="fill-rule:evenodd; clip-rule:evenodd;" d="M40,30.1v10c-0.1,5.4,4.6,10,10,10c5.3,0,10.1-4.5,10-9.9v-15  c-2.7,0-5.1-1.1-6.9-2.8C50.6,26.9,45.6,30,40,30.1L40,30.1z M75,85h-5v10H30V85h-5v10h-5V79.5c0-9.9,7.4-18.1,17-19.4l12.4,18.6  l13.6-18.6C72.5,61.4,80,69.6,80,79.5V95h-5V85L75,85z M60.5,50.7V55C74,55,85,66,85,79.5V100H15V79.5C15,66,26,55,39.5,55v-4.3  c-2.8-2.7-4.5-6.5-4.5-10.7v-9.9v-5h5c5.5,0,10-4.5,10-10v-5h5v5c0,2.8,2.3,5,5,5h5V25v15C65.1,44.2,63.3,47.9,60.5,50.7L60.5,50.7z   M55.5,61.8v-7.9C53.8,54.6,51.9,55,50,55c-1.9,0-3.8-0.4-5.5-1.1v8.6l5,7.5L55.5,61.8L55.5,61.8z M45,40h10v0.2  c0,2.6-2.5,4.9-5,4.9c-2.6,0-5-2.3-5-4.9V40L45,40z M22.5,55c4.1,0,7.5-3.4,7.5-7.5V25C29.9,14,39.1,5,50,5C60.9,5,70.2,14,70,25  v22.5c0,4.1,3.4,7.5,7.5,7.5v-5c-1.4,0-2.5-1.1-2.5-2.5V25.1C75.2,11.3,63.7,0,50,0C36.3,0,24.8,11.3,25,25.1v22.4  c0,1.4-1.1,2.5-2.5,2.5V55L22.5,55z"></path>
</svg>