<svg xmlns="http://www.w3.org/2000/svg" xmlns:xlink="http://www.w3.org/1999/xlink" x="0px" y="0px" viewBox="0 0 100 100" style="enable-background:new 0 0 100 100;" xml:space="preserve">
<path style="fill-rule:evenodd; clip-rule:evenodd;" d="M22.2,94.4h55.6v-5.6H61.1v-5.6H100V5.6H0v77.8h38.9v5.6H22.2  V94.4L22.2,94.4z M22.2,22.2h44.4v16.7v16.7H22.2V22.2L22.2,22.2z M72.2,33.3h5.6v33.3H33.3v-5.6h38.9V33.3L72.2,33.3z M27.8,33.3  h33.3v-5.6H27.8V33.3L27.8,33.3z M61.1,38.9H27.8V50h33.3V38.9L61.1,38.9z M55.6,88.9H44.4v-5.6h11.1V88.9L55.6,88.9z M5.6,11.1  v66.7h88.9V11.1H5.6L5.6,11.1z"></path>
</svg>