<svg xmlns="http://www.w3.org/2000/svg" viewBox="0 0 100 100"><path fill-rule="evenodd" d="M18.4 0h63.2v84.2H68.4V100l-5.3-5.3v-16c1.9-.3 3.7-1 5.3-1.9V79h7.9V5.3H23.7V79h28.9v-2.1c1.6.9 3.4 1.6 5.3 1.9v16l-5.3 5.3V84.2H18.4V0zm21.1 31.6h21.1v-5.3H39.5v5.3zm21 21a10.5 10.5 0 110 21C54.7 73.7 50 69 50 63.2c0-5.9 4.7-10.6 10.5-10.6zm0 5.3c2.9 0 5.3 2.4 5.3 5.3s-2.4 5.3-5.3 5.3-5.3-2.4-5.3-5.3c.1-3 2.4-5.3 5.3-5.3zM28.9 10.5H71v40.9c-1.5-1.4-3.3-2.4-5.3-3.1V15.8H34.2v52.6h11.4c.7 2 1.8 3.7 3.1 5.3H28.9V10.5z" clip-rule="evenodd"/></svg>