<svg xmlns="http://www.w3.org/2000/svg" xmlns:xlink="http://www.w3.org/1999/xlink" x="0px" y="0px" viewBox="0 0 100 100" style="enable-background:new 0 0 100 100;" xml:space="preserve">
<path style="fill-rule:evenodd; clip-rule:evenodd;" d="M87.8,14.2c4.3,2.6,7.1,7.4,7.1,12.7c0,4.9-2.4,9.3-6,12  c3.6,2.7,6,7.1,6,12v20.9h-6V44.9c0-4-1.1-7.8-3.2-11.1c2-1.6,3.2-4.1,3.2-6.9c0-0.8-0.1-1.6-0.3-2.4c0.2-1.2,0.3-2.4,0.3-3.6  C88.9,18.6,88.5,16.3,87.8,14.2L87.8,14.2z M50,0c8.3,0,15,6.7,15,15c0,4.9-2.4,9.2-6,12c3.6,2.7,6,7.1,6,12v32.9h-6V100h-6V65.8h6  c0-11,0-16,0-26.9c0-4.9-4.1-9-9-9c-4.9,0-9,4.1-9,9v26.9h6V100h-6V71.8h-6c0-13,0-20,0-32.9c0-4.9,2.4-9.2,6-12  c-3.6-2.7-6-7.1-6-12C35,6.7,41.7,0,50,0L50,0z M50,6c5,0,9,4,9,9c0,5-4,9-9,9c-4.9,0-9-4-9-9C41,10,45,6,50,6L50,6z M29.2,36.4  c-3.6,1.2-6.1,4.6-6.1,8.5v20.9h6V100h-6V71.8h-6c0-13,0-14,0-26.9c0-4.9,2.4-9.2,6-12c-3.6-2.7-6-7.1-6-12c0-7.9,6.2-14.4,14-14.9  c-0.9,2-1.6,4.1-1.8,6.4c-3.6,1.2-6.1,4.6-6.1,8.5c0,4.6,3.5,8.5,8,8.9C30.1,31.9,29.5,34.1,29.2,36.4L29.2,36.4z M68.9,6  c7.8,0.5,14,7,14,14.9c0,4.9-2.4,9.2-6,12c3.6,2.7,6,7.1,6,12v26.9h-6V100h-6V65.8h6c0-11,0-10,0-20.9c0-3.9-2.6-7.3-6.1-8.5  c-0.3-2.3-0.9-4.5-1.9-6.5c4.5-0.5,8-4.3,8-8.9c0-4-2.6-7.3-6.1-8.5C70.5,10.2,69.9,8,68.9,6L68.9,6z M88.9,77.8V100h-6V77.8H88.9  L88.9,77.8z M17.1,100h-6V77.8h6V100L17.1,100z M11.1,71.8h-6c0-13,0-8,0-20.9c0-4.9,2.4-9.2,6-12c-3.6-2.7-6-7.1-6-12  c0-5.4,2.8-10.1,7.1-12.7c-0.7,2.1-1.1,4.4-1.1,6.7c0,1.2,0.1,2.4,0.3,3.6c-0.2,0.7-0.3,1.5-0.3,2.4c0,2.8,1.2,5.2,3.2,6.9  c-2.1,3.3-3.2,7.1-3.2,11.1V71.8L11.1,71.8z"></path>
</svg>