<svg xmlns="http://www.w3.org/2000/svg" xmlns:xlink="http://www.w3.org/1999/xlink" x="0px" y="0px" viewBox="0 0 100 100" style="enable-background:new 0 0 100 100;" xml:space="preserve">
<path style="fill-rule:evenodd; clip-rule:evenodd;" d="M16.8,70.9h18.5v4.8H16.8v4.8h18.5v5.6  c-0.7-0.3-1.6-0.4-2.4-0.4c-4,0-7.2,3.2-7.2,7.2c0,4,3.2,7.2,7.2,7.2c4,0,7.2-3.2,7.2-7.2V80.5h43v-4.8h-43v-4.8h43v-4.8H67  c1.1-1.3,1.8-2.9,1.8-4.8h14.3v-4.8H68.8v-4.8h14.3V47H68.8v-9.6L44.9,13.5v6.8v19.9c-0.7-0.3-1.6-0.4-2.4-0.4c-4,0-7.2,3.2-7.2,7.2  H16.8v4.8h20.4c1.3,1.5,3.2,2.4,5.3,2.4c2.1,0,4-0.9,5.3-2.4h16.2v2.8c-0.8-0.3-1.6-0.4-2.4-0.4c-2.1,0-4,0.9-5.3,2.4H16.8v4.8h37.7  c0,1.8,0.7,3.5,1.8,4.8H40.2h-4.8H16.8V70.9L16.8,70.9z M33,90.4c1.3,0,2.4,1.1,2.4,2.4c0,1.3-1.1,2.4-2.4,2.4  c-1.3,0-2.4-1.1-2.4-2.4C30.6,91.5,31.7,90.4,33,90.4L33,90.4z M44.9,0l23.9,23.9v6.8L44.9,6.8V0L44.9,0z M61.7,58.9  c1.3,0,2.4,1.1,2.4,2.4c0,1.3-1.1,2.4-2.4,2.4c-1.3,0-2.4-1.1-2.4-2.4C59.3,60,60.3,58.9,61.7,58.9L61.7,58.9z M42.5,44.6  c1.3,0,2.4,1.1,2.4,2.4c0,1.3-1.1,2.4-2.4,2.4c-1.3,0-2.4-1.1-2.4-2.4C40.2,45.7,41.2,44.6,42.5,44.6L42.5,44.6z M64.1,39.4  L49.7,25.1V47h14.3V39.4L64.1,39.4z"></path>
</svg>