<svg xmlns="http://www.w3.org/2000/svg" viewBox="0 0 100 100"><path d="M91.4 84.9h-44v5h44v-5zM54.1 7.1c2-.4 4-.6 6-.6 8.2 0 15.8 2.8 21.3 9-2.3 2.7-5 4.7-8 6.2 13.7 14.5-1.1 54.6-24.3 47.2C20.9 77.9 5 16.5 38 16.5c4.1 0 7.9 1.3 11 3.6V0h5l.1 7.1zm19.8 8.4c-4-2.8-8.7-4-13.8-4-2 0-4 .3-6 .8v5.3c1.9-.6 3.9-1 6-1 3.3 0 6 .6 8.4 1.7 1.9-.7 3.7-1.6 5.4-2.8zm-17 43.8c5.1-1.7 8.7-8.4 10.2-13.2 1.5-4.7 2.6-13.3-.9-17.4L62.4 32c2.1 2.4.8 9.8-.1 12.5-1 3-3.8 8.9-7 9.9l1.6 4.9zM38 21.6c-3.7 0-7.3 1-9.9 3.9-4.9 5.6-4 15.7-1.9 22.2 2.8 8.8 10.5 19.8 21.3 16.4l1.5-.5 1.5.5c2.6.8 5.2.9 7.8 0 6.8-2.3 11.4-10 13.4-16.4 2.1-6.6 3-16.6-1.9-22.2-2.5-2.9-6.1-3.9-9.9-3.9-2.9 0-5.7.9-8 2.6l-3 2.2-3-2.2a12.5 12.5 0 00-7.9-2.6zM26 95c-.8-2.4-1.3-4.9-1.3-7.6 0-2.6.5-5.2 1.3-7.6h-8.9a7.6 7.6 0 100 15.2H26zm5.4-15.2c-1.1 2.3-1.7 4.9-1.7 7.6s.6 5.3 1.7 7.6h5.9c-1.6-2.1-2.5-4.7-2.5-7.6 0-2.7.9-5.4 2.5-7.6h-5.9zm-14.3-5h79.3v5H47.3a7.6 7.6 0 100 15.2h49.1v5H17.1c-6.9 0-12.6-5.7-12.6-12.6s5.7-12.6 12.6-12.6z"/></svg>