<svg xmlns="http://www.w3.org/2000/svg" xmlns:xlink="http://www.w3.org/1999/xlink" x="0px" y="0px" viewBox="0 0 100 100" style="enable-background:new 0 0 100 100;" xml:space="preserve">
<path fill-rule="evenodd" clip-rule="evenodd" d="M5.3,8.3h68.4v20.4l15.1-15.1h7.4L45,64.9l-2.5,6.2l6.2-2.5L100,17.3v7.4L73.7,51v41.5H5.3V76.7H0v-5.3h5.3  V60.9H0v-5.3h5.3V45.1H0v-5.3h5.3V29.3H0v-5.3h5.3V8.3L5.3,8.3z M31.6,34.6h15.8v5.3H31.6V34.6L31.6,34.6z M31.6,24.1h26.3v5.3H31.6  V24.1L31.6,24.1z M68.4,34V13.6H10.5v10.5h6c0.9-1.6,2.6-2.6,4.6-2.6c2.9,0,5.3,2.4,5.3,5.3c0,2.9-2.4,5.3-5.3,5.3  c-1.9,0-3.7-1.1-4.6-2.6h-6v10.5h6c0.9-1.6,2.6-2.6,4.6-2.6c2.9,0,5.3,2.4,5.3,5.3c0,2.9-2.4,5.3-5.3,5.3c-1.9,0-3.7-1.1-4.6-2.6h-6  v10.5h6c0.9-1.6,2.6-2.6,4.6-2.6c2.9,0,5.3,2.4,5.3,5.3s-2.4,5.3-5.3,5.3c-1.9,0-3.7-1.1-4.6-2.6h-6v10.5h6c0.9-1.6,2.6-2.6,4.6-2.6  c2.9,0,5.3,2.4,5.3,5.3c0,2.9-2.4,5.3-5.3,5.3c-1.9,0-3.7-1.1-4.6-2.6h-6v10.5h57.9V56.3L51.6,73.1L33,80.5l7.4-18.6L68.4,34  L68.4,34z"></path>
</svg>