<svg xmlns="http://www.w3.org/2000/svg" xmlns:xlink="http://www.w3.org/1999/xlink" x="0px" y="0px" viewBox="0 0 100 100" style="enable-background:new 0 0 100 100;" xml:space="preserve">
<path style="fill-rule:evenodd; clip-rule:evenodd;" d="M50.4,51.2v19.9h15.2c1.1-4.3,5-7.4,9.6-7.4  c4.6,0,8.5,3.2,9.6,7.4h5.3V51.2H50.4L50.4,51.2z M25.5,68.6c2.7,0,5,2.2,5,5c0,2.7-2.2,5-5,5s-5-2.2-5-5  C20.6,70.8,22.8,68.6,25.5,68.6L25.5,68.6z M75.2,68.6c2.7,0,5,2.2,5,5c0,2.7-2.2,5-5,5s-5-2.2-5-5C70.2,70.8,72.4,68.6,75.2,68.6  L75.2,68.6z M80.1,26.4c8.2,0,14.9,6.7,14.9,14.9v9.9v19.9h5v5H84.8c-1.1,4.3-5,7.5-9.6,7.5c-4.6,0-8.5-3.2-9.6-7.5H35.2  c-1.1,4.3-5,7.5-9.6,7.5c-4.6,0-8.5-3.2-9.6-7.5H0.7v-5h3.7L0,46.3h10.7l5-14.9h-5v-5h14.9v-9.9h14.9v9.9h24.8H80.1L80.1,26.4z   M90.1,41.3c0-5.4-4.5-9.9-9.9-9.9h-9.9v14.9h19.9V41.3L90.1,41.3z M30.5,46.3h14.9V31.4H30.5V46.3L30.5,46.3z M45.4,51.2H30.5V65  c2.3,1.3,4,3.5,4.7,6.1h10.2V51.2L45.4,51.2z M25.5,46.3V31.4h-5l-5,14.9H25.5L25.5,46.3z M65.3,46.3V31.4H50.4v14.9H65.3L65.3,46.3  z M25.5,63.7V51.2H5.9l3.5,19.9h6.5C17,66.8,20.9,63.7,25.5,63.7L25.5,63.7z M30.5,26.4v-5h5v5H30.5L30.5,26.4z"></path>
</svg>