<svg xmlns="http://www.w3.org/2000/svg" xmlns:xlink="http://www.w3.org/1999/xlink" x="0px" y="0px" viewBox="0 0 100 100" style="enable-background:new 0 0 100 100;" xml:space="preserve">
<path style="fill-rule:evenodd; clip-rule:evenodd;" d="M13.4,57h46.2l32.5-32.5H45.9L13.4,57L13.4,57z M49.7,33.7V43  h-9.3L49.7,33.7L49.7,33.7z M49.7,47.7v4.6h4.6V29.1h-6.6L24.6,52.3h6.6l4.6-4.6H49.7L49.7,47.7z M96.7,19.8l3.3,3.3L61.5,61.6H11.6  c-3.8,0-7,3.1-7,7c0,3.8,3.1,7,7,7h47.9l37.2-37.2l3.3,3.3L61.5,80.2H11.6C5.2,80.2,0,75,0,68.6c0-3.2,1.3-6.1,3.4-8.2L44,19.8H96.7  L96.7,19.8z M96.7,35.7v-6.6L59.6,66.3H11.6v4.6h49.9L96.7,35.7L96.7,35.7z"></path>
</svg>