<svg xmlns="http://www.w3.org/2000/svg" viewBox="0 0 100 100"><path fill="#f6f0fc" d="M26.49 17.06l50.67-14.1 20.38 73.22-50.68 14.1z"/><path fill="#a19ba7" d="M46.9 90.3L26.5 17h.1L77.2 2.8v.1l20.4 73.3h-.1L46.9 90.3zM26.6 17l20.3 73.1L97.5 76 77.2 3 26.6 17z"/><path fill="#c42535" d="M76.8 77.8l-3.1-3.1-3.2 2.7.9-18.2 6.3.3z"/><path fill="#c42535" d="M83.7 75.8l1.1-4.1 4.1.6-10.2-15.2-5.2 3.6z"/><path fill="#efab18" d="M81.7 57.9c1 3.5-1.1 7.1-4.5 8-3.5 1-7.1-1.1-8-4.5-1-3.5 1.1-7.1 4.5-8 3.5-1 7.1 1.1 8 4.5z"/><path fill="#ffc600" d="M80.3 58.4c.7 2.7-.8 5.4-3.5 6.2-2.7.7-5.4-.8-6.2-3.5-.7-2.7.8-5.4 3.5-6.2 2.7-.8 5.4.8 6.2 3.5z"/><path fill="#a19ba7" d="M34.77 28.69l40.65-11.32.22.77-40.66 11.32zM35.77 31.87l40.66-11.32.21.77-40.66 11.32zM36.67 35.07l40.66-11.3.21.76L36.9 35.85zM37.56 38.18L78.2 26.87l.22.77-40.66 11.31zM38.55 41.37l40.66-11.32.21.78-40.65 11.3zM39.46 44.58L80.1 33.26l.22.77-40.66 11.32zM40.36 47.79l40.66-11.32.21.77-40.65 11.32zM41.36 50.97l40.66-11.32.21.77-40.65 11.32zM42.27 54.18l40.65-11.32.22.77-40.66 11.32zM44.7 62.87l16.19-4.5.21.76-16.18 4.5zM45.5 65.77l16.19-4.5.21.77-16.18 4.5zM47.3 72.27l16.18-4.5.22.77-16.19 4.5zM48.21 75.57l16.19-4.5.21.77-16.18 4.5zM57.49 14.48l16.19-4.5.21.77-16.19 4.5zM58.4 17.36l16.18-4.5.21.76-16.18 4.5zM33.09 21.28l16.18-4.5.22.77-16.19 4.5z"/><ellipse cx="45.1" cy="63.5" fill="#43405a" rx="21.6" ry="6.7"/><path fill="#43405a" d="M26.4 45.7l-2.9 17.8h43.3l-2.5-17.8z"/><path fill="#2a2237" d="M25 56.8C37 57.3 46.1 60 56 69c3.4-.6 7.6-2.3 10.7-3.9l-2.4-15.7c-13 .5-25.4-.2-37.9-3.6l-1.4 11z" opacity=".5"/><path fill="#7c7091" d="M11.6 44.2l32.2-9.1L79 44.2 43.8 55.9z"/><path fill="#65567b" d="M43.8 58.8v-2.9L79 44.2v2.3z"/><path fill="#5a4f71" d="M11.5 46.6l32.3 12.2v-2.9L11.5 43.8z"/><path fill="#9795b2" d="M27.2 48.2c14.1 6.8 29 3 37.4-.8-5.9 3.1-16.3 6.4-21.1 7l-16.3-6.2z"/><path fill="#ed8707" d="M11.7 52.6c0 1.1-.9 2-2 2s-2-.9-2-2 .9-2 2-2 2 .9 2 2z"/><path fill="#efab18" d="M10.1 55c-2.7-.5-4.4 2.5-4.9 4.7-.2 1.3.2 2.9-.2 4.2-.4 1.2-1.7 2.3-2.4 3.4 1.8.8 4.2.7 5.6-1-.5.4-.8 1.1-1.1 1.6 2.2.1 3.8-2.6 3.8-4.6-.1.7.1 1.3.3 1.9 2.8-.3 1.7-6.1 1.1-7.8-.8-1.5-2.2-2.4-2.2-2.4zM9.8 52.3l-.5-.3c1.8-3 4.2-5.1 7.3-6.6 2.6-1.2 5.8-1.9 9.6-2.1 1.4-.1 3.8.3 6.3.6 4.6.7 10.4 1.6 12.1-.2l.4.4c-1.9 2-7.6 1.1-12.6.4-2.4-.4-4.8-.7-6.1-.6-8.1.4-13.3 3.1-16.5 8.4z"/><path fill="#43405a" d="M46.1 44.2c0 .5-1 .9-2.3.9-1.3 0-2.3-.4-2.3-.9s1-.9 2.3-.9c1.3 0 2.3.4 2.3.9z"/><path fill="#ed8707" d="M2.3 67.2c2-.4 4.2-1.7 4.9-3.4 0 .1 0 .5 0 .7 1.5-.1 2.2-1.9 2.4-3.1-.1-.2.4.4.4.5 1.3-1.2 1.5-4.4.9-6.1 1.4 1.9 3.6 7.5.2 9.3-.1-.3-.5-.6-.6-1-.2 1.9-1.6 3.7-3.5 4.2.4-.6.4-1.3.6-1.9-.6 1-1.7 1.2-2.8 1l-2.5-.2z"/><path fill="#efab18" d="M10.8 52.1c0 .7-.6 1.3-1.3 1.3-.7 0-1.3-.6-1.3-1.3 0-.7.6-1.3 1.3-1.3.8.1 1.3.6 1.3 1.3z"/><path fill="#ffd833" d="M8.5 56.1c-1.4-.6-1.9 2.2-2 3.5 1.3.5 2.9-.9 2.5-2.3 0-.4-.2-1.1-.5-1.2z"/><path fill="#c42535" d="M32.4 82.2c.5 4.4-7.4 5.9-10.9 6.3 1.3.4 2.9.9 4.5 1-.7.4-1.1 1.7-1.6 2.1 4.2.6 11.2-3.3 11.3-8l-3.3-1.4z"/><path fill="#c42535" d="M33.8 84c3.2 1.3 1.4 7.3.4 9.9.8-.8 2.8-1.6 2.8-1.6s1.5.2 1.6.7c2-2.7.2-8-3.1-9.8l-1.7.8z"/><path fill="#ffdbbb" d="M65.6 76.8s2.7 6.6-.6 12.3c-3.3 5.7-8.3 8.2-10.4 8-2.1-.2-3.1-1.4-3.1-1.4s-11.9-9.1-16-11.8c-3.3-2.2-13.3-7.6-13.3-7.6s3.3-2.2 4.8-5.8c1.5-3.7 1.4-9.6 1.4-9.6s5.6 7.2 13.9 10.4 23.3 5.5 23.3 5.5z"/><path fill="#f9d0af" d="M55.8 77.2c1.4-.3 4.2 0 5.9 1.9 1.5 1.7 2 4 1.1 7.1-1.2 4.1-4.2 7.4-8 6.5-4.6-1.1-6.7-6.5-5-10.7 1-2.7 4-4.5 6-4.8z" opacity=".4"/><path fill="#913916" d="M49 79.6c2.7-.4 4.6 0 7.4 2.5 2.2 2 3.5 6.7.7 10.7 4.7-2.5 5.9-6.9 5.5-10-.6-5-5.4-6.8-8.2-6.6L49 79.6z" opacity=".2"/><path fill="#f9d0af" d="M59 82.4s-2.6-1-4.3 1.6c-3.4 5.2 0 8.7 0 8.7s-2.2-1-5.9-3-5.2-4.5-5.2-4.5l3.2-8L59 82.4z"/><path fill="#913916" d="M54.4 84.7c-2 2.3-1.6 5.9 0 8.1-3.6-1.8-7.2-4.4-10.9-6.4.8-1.4 1.7-3.7 1.8-5.3l9.1 3.6z" opacity=".2"/><path fill="#f2e7db" d="M59.1 77.5s-5.5 1.7-7.9 6.6c-3.3 6.9.2 11.8.2 11.8s-12.3-9.6-20-14.4c-6.6-4.2-15.5-7.6-15.5-7.6s-3.4-3.1-.7-8.5c2.2-4.4 7.3-4.2 7.3-4.2s11 7.2 17.6 9.6c6.6 2.2 19 6.7 19 6.7z"/><path fill="#f9d0af" d="M15.9 73.7c12.9 6.1 24 13.7 35.5 21.9-.2-1.7-1.3-3.4-1.5-5.1-.2-1.8.2-3.6.2-5.3-3.3-.6-6.9-3.2-9.7-4.9-2.3-1.4-10.2-4.8-16.8-7.9-2.5-1.2-4.9-3.8-5.5-5.3-.9-2.4.1-5.3.3-5.2 0 0-3.6 3.1-4 5.6-.6 3.8 1.5 6.2 1.5 6.2z" opacity=".4"/><path fill="#c42535" d="M32.3 82.6c-1.5-2.4-1.5-6.3-.1-8.6 2.5-3.9 6.1-4.2 6.1-4.2s1.7.7 6.3 2.4c-6.2-3-13.5 5.5-8.7 12.6l-3.6-2.2z"/><path fill="#e5393b" d="M38.4 70.5c-2.1.8-5 2-6 4.3.2.2 1.7.8 1.9.9 2.4-3 3.8-4.6 6.4-4.3l-2.3-.9zM32.7 85.1c-1.8 1.4-3.6 2.7-5.4 4 2.6 1.3 5-1.4 6.8-3.2l-1.4-.8z"/></svg>