<svg xmlns="http://www.w3.org/2000/svg" viewBox="0 0 100 100"><path fill="#6ea5ba" d="M16.2 79.9c-.9.2-1.8-.6-2-1.6L4.8 20.8c-.2-1 .4-2 1.3-2.2l60.1-9.9c.9-.2 1.8.6 2 1.6l9.5 57.5c.2 1-.4 2-1.3 2.2l-60.2 9.9z"/><path fill="#fafaff" d="M21.7 71.5c-.9.1-1.8-.7-2-1.9L12 22.7c-.2-1.2.4-2.3 1.3-2.4l46.6-7.7c.9-.1 1.8.7 2 1.9l7.7 46.9c.2 1.2-.4 2.3-1.3 2.4l-46.6 7.7z"/><g fill="#fafaff"><path d="M61.7 13.5c-1 .2-1.9-.5-2.1-1.5s.5-1.9 1.5-2.1c1-.2 1.9.5 2.1 1.5s-.5 1.9-1.5 2.1zM54.6 14.6c-1 .2-1.9-.5-2.1-1.5-.2-1 .5-1.9 1.5-2.1 1-.2 1.9.5 2.1 1.5.1 1-.5 1.9-1.5 2.1zM47.4 15.8c-1 .2-1.9-.5-2.1-1.5-.2-1 .5-1.9 1.5-2.1 1-.2 1.9.5 2.1 1.5.2 1-.5 1.9-1.5 2.1zM40.3 16.9c-1 .2-1.9-.5-2.1-1.5-.2-1 .5-1.9 1.5-2.1 1-.2 1.9.5 2.1 1.5s-.5 1.9-1.5 2.1zM33.2 18.1c-1 .2-1.9-.5-2.1-1.5-.2-1 .5-1.9 1.5-2.1 1-.2 1.9.5 2.1 1.5.1 1-.5 1.9-1.5 2.1zM26 19.2c-1 .2-1.9-.5-2.1-1.5-.2-1 .5-1.9 1.5-2.1 1-.2 1.9.5 2.1 1.5.2 1-.5 1.9-1.5 2.1zM18.9 20.4c-1 .2-1.9-.5-2.1-1.5-.2-1 .5-1.9 1.5-2.1 1-.2 1.9.5 2.1 1.5.2 1-.5 1.9-1.5 2.1zM11.8 21.5c-1 .2-1.9-.5-2.1-1.5-.2-1 .5-1.9 1.5-2.1 1-.2 1.9.5 2.1 1.5.1 1-.5 1.9-1.5 2.1z"/></g><g fill="#1e2222"><path d="M61.5 12.3c-.7.1-1.3-.3-1.4-.8l-.7-4c-.1-.6.4-1.1 1-1.2.7-.1 1.3.3 1.4.8l.7 4c.2.6-.3 1.1-1 1.2zM54.4 13.5c-.7.1-1.3-.3-1.4-.8l-.7-4c-.1-.6.4-1.1 1-1.2.7-.1 1.3.3 1.4.8l.7 4c.1.5-.3 1.1-1 1.2zM47.3 14.7c-.7.1-1.3-.3-1.4-.8l-.7-4c-.1-.6.4-1.1 1-1.2.7-.1 1.3.3 1.4.8l.7 4c.1.5-.4 1.1-1 1.2zM40.1 15.9c-.7.1-1.3-.3-1.4-.8l-.7-4c-.1-.6.4-1.1 1-1.2.7-.1 1.3.3 1.4.8l.7 4c.2.5-.3 1.1-1 1.2zM33 17c-.7.1-1.3-.3-1.4-.8l-.7-4c-.1-.6.4-1.1 1-1.2.7-.1 1.3.3 1.4.8l.7 4c.1.6-.3 1.1-1 1.2zM25.9 18.2c-.7.1-1.3-.3-1.4-.8l-.7-4c-.1-.6.4-1.1 1-1.2.7-.1 1.3.3 1.4.8l.7 4c.1.5-.4 1.1-1 1.2zM18.7 19.4c-.7.1-1.3-.3-1.4-.8l-.7-4c-.1-.6.4-1.1 1-1.2.7-.1 1.3.3 1.4.8l.7 4c.2.5-.3 1.1-1 1.2zM11.6 20.6c-.7.1-1.3-.3-1.4-.8l-.7-4c-.1-.6.4-1.1 1-1.2.7-.1 1.3.3 1.4.8l.7 4c.1.5-.3 1-1 1.2z"/></g><path fill="#913916" d="M74.2 46.6L37.1 83.1c-.4.4-5.4 4.6-5.9 4.1s3.7-5.5 4.1-5.9l36.6-37 2.3 2.3z"/><path fill="#b0abba" d="M83.5 37.3l-2-3-9.6 9.9 2.3 2.4z"/><path d="M81.9 35.4s1.9 3.5 5 2.4c3.9-1.4 4.5-5.9 9.4-7.5 2.4-.8 3.6 1.7 3.6 1.7s-1.1-3.4-4.8-4.6c-9-2.9-13.4 2.3-13.6 4.7-.3 2.9.4 3.3.4 3.3z"/><path fill="#fff" d="M82 35.7l-.2-.2-9.4 9 .6.9z" opacity=".5"/><path fill="#ff0" d="M93.8 28.8s-9.1-2.6-9.3 1.5c-.1 1.8 1.3 2.2 3.9-.2 2.3-2 5.4-1.3 5.4-1.3zM92.9 31.2c.2.3.8.2 1.3-.2s.8-.9.5-1.2c-.2-.3-.8-.2-1.3.2-.5.3-.7.9-.5 1.2z"/><path d="M65.5 42.1l-8.3 45.7c-.1.5-1.6 6.1-2.2 6-.6-.1-.1-5.9 0-6.4l7.6-45.8 2.9.5z"/><path fill="#b0abba" d="M67.5 30.5l-3-1.1-1.9 12.2 2.9.5z"/><path d="M65.3 30s3.1 1.6 4.8-.8c2.1-3 .2-6.6 3-10.3 1.3-1.8 3.6-.6 3.6-.6s-2.5-1.9-5.9-.9c-8 2.5-8.6 8.6-7.5 10.5 1.3 2.1 2 2.1 2 2.1z"/><path fill="#fff" d="M65.6 30.2h-.3l-2.2 11.4.9.2z" opacity=".5"/><path fill="#399a9a" d="M70.6 19s-8 2.8-6 5.9c.9 1.4 2.1 1 2.8-2.2.6-2.5 3.2-3.7 3.2-3.7zM69.8 22.7c.3.1.7-.3.9-.8.2-.5.1-1.1-.2-1.2-.3-.1-.7.3-.9.8-.2.6-.1 1.1.2 1.2z"/><path fill="#914f2c" d="M76.9 56c1.4-1.9 5.9-3.2 2.9-8.7-2.1-3.8-10-7.9-19.4-6.3-11 1.8-20 11.8-22.8 19.2-4 10.5 1.4 21.8 11.5 23.4 13.1 2 25.5-7.3 28.9-11.6 3.6-4.7 3.7-7.7.9-10.5-2.9-2.8-2.8-4.4-2-5.5zm-5.5 9.8c-2.3 1.7-5.1 1.7-6.3.1-1.2-1.6-.3-4.3 2-5.9 2.3-1.7 5.1-1.7 6.3-.1 1.2 1.6.3 4.3-2 5.9z"/><path fill="#eec182" d="M75.5 55.6c1.4-1.8 5.7-3.1 2.8-8.4-2-3.7-9.7-7.6-18.7-6.1C49 42.8 40.3 52.5 37.5 59.7c-3.9 10.2 1.3 21.1 11.1 22.6 12.6 1.9 24.7-7.1 27.9-11.3 3.5-4.5 3.6-7.5.9-10.1-2.7-2.6-2.6-4.2-1.9-5.3zm-5.3 9.6c-2.2 1.6-4.9 1.6-6.1.1-1.1-1.6-.3-4.1 1.9-5.7 2.2-1.6 4.9-1.6 6.1-.1 1.2 1.5.3 4-1.9 5.7z"/><path fill="#c42535" d="M50.9 47.6c.6 2.4 2.5 2.9 3.4 2.5.6-.2.8-2.3.8-2.3s4.5-.1 4.2-2c-.4-2.8-9-.6-8.4 1.8z"/><path fill="#e57700" d="M42.8 55.3c-.8 1.2-.4 3.2 1.7 3.7.7.1 1.8-.5 1.8-.5s.8.5 2.1.4c2.1-.3 3-2.3 2.5-3-.5-.7-2-1.4-2-1.4S52 53 50 52.4c-2.5-.7-6.1 1.3-7.2 2.9z"/><path fill="#2d4b91" d="M41.1 71.2c.7 1.3 2.7 1.8 4.1 0 .4-.6.4-1.8.4-1.8s.8-.5 1.2-1.7c.7-2.1-.8-3.7-1.6-3.5-.8.1-2.1 1.2-2.1 1.2s0-3.4-1.4-1.9c-1.8 1.9-1.5 6-.6 7.7z"/><path fill="#7db538" d="M52.1 72.8c2 1.4 1.9 3.3 1.2 4.1-.4.5-2.4 0-2.4 0s-1.6 4.2-3.3 3.2c-2.6-1.4 2.4-8.7 4.5-7.3z"/><path fill="#ffec66" d="M63.3 78.3c.9-.9.8-2.7-1-3.3-.6-.2-1.6.2-1.6.2s-.6-.6-1.7-.6c-1.8 0-2.8 1.5-2.5 2.2.3.6 1.5 1.4 1.5 1.4s-2.8.8-1.2 1.6c2.1.9 5.4-.3 6.5-1.5z"/><path fill="#bfd856" d="M49 77.1c.4-.1 1.9-1.3 2.3-1.5.7-.2.7.6 1.2-.3.3-.5.1-1.9-1.5-2.1-1.1-.1-4.6 4.6-2 3.9z" opacity=".5"/><path fill="#3c62af" d="M41.9 64c-.7.8-1.8 4.1-.6 4.8 1.8 1.2.9-3.4.9-4.2l-.3-.6z"/><path fill="#ffbd33" d="M43.8 55.6c-.5-1.6 4.4-3 5.6-2.8-.4.3-.9.6-1.2 1-.3.5-.1.8-.4 1.2-.7.8-2.5.8-3.4.8l-.6-.2z" opacity=".7"/><path fill="#e53e56" d="M58.1 45c-.4-.9-5.6-.2-5.5 1.6.1 1.2 1.8.2 2.4 0 .8-.3 3.6-.5 3.1-1.6z"/><path fill="#a44aa0" d="M19.7 71.9h12.9v2.8H19.7z"/><path fill="#cc75cc" d="M34.3 89.4c0 1.4-1.1 2.5-2.5 2.5 0 0-2.8 0-5.5 0-2.9 0-5.7 0-5.7 0-1.4 0-2.5-1.1-2.5-2.5V76.2c0-1.4 1.1-2.5 2.5-2.5h11.2c1.4 0 2.5 1.1 2.5 2.5v13.2z"/><path fill="#a44aa0" d="M33.7 88.8V76.6c0-1.3-1-2.3-2.3-2.3H21c-1.3 0-2.3 1-2.3 2.3v12.1c0 .6.2 1.1.6 1.6v1.4s0 .1 0 .1c0 .8 3.1 1.4 6.9 1.4 3.8 0 6.9-.6 6.9-1.4 0 0 0-.1 0-.1v-1.4c.3-.4.6-.9.6-1.5z"/><path fill="#f07c94" d="M33.1 75.2c0 .8-3.2 1.5-7 1.5-3.9 0-7-.7-7-1.5s3.2-1.5 7-1.5c3.9.1 7 .7 7 1.5z" opacity=".5"/><path fill="#530254" d="M33.6 89V76.2c0-1.3-1.2-2.3-2.4-2.3 0 0 .9 9.3-.6 12.4-1.2 2.5-4.1 4.6-7.9 4.6-1.3 0-2.3-.1-3.4-.2 0 0 .1.4.1.5 0 .8 2.8 1.1 6.6 1.1s6.9-.7 6.9-1.5c0 0 0-.2 0-.2.3-.4.7-1 .7-1.6z" opacity=".4"/><path fill="#fff" d="M20.2 74.8c-.8.6-1 1-1 2.2-.1 1.6-.6 11.7.4 12.9 1.2 1.4 3.5.9 4.5.8-.7-.4-1-15.1-.3-16.1.1-.1-2.8-.5-3.6.2z" opacity=".3"/><path fill="#fff" d="M19.8 75.3c-.3.6-.1 2.9 0 3.8-.1-1-.1-4.3 2.2-4.3-1.3-.3-2.1.3-2.2.5z"/><linearGradient id="a" x1="19.163" x2="32.989" y1="72.311" y2="72.311" gradientUnits="userSpaceOnUse"><stop offset="0" stop-color="#ff9c08"/><stop offset="1" stop-color="#d93317"/></linearGradient><path fill="url(#a)" d="M33 70.6H19.2s0 2 0 2c0 .8 3.1 1.4 6.9 1.4 3.8 0 6.9-.6 6.9-1.4 0 0 0-2 0-2z"/><path fill="#ad682d" d="M33 70.6h-1.3s.3 1.1-.3 1.7c-1.1 1.1-3.5 1.1-7.3 1.1-1.9 0-4.1-.1-4.8-.6.3.7 3.3 1.3 6.9 1.3 3.8 0 6.9-.6 6.9-1.4-.1-.1-.1-2.1-.1-2.1z" opacity=".5"/><linearGradient id="b" x1="29.601" x2="22.552" y1="73.971" y2="66.922" gradientUnits="userSpaceOnUse"><stop offset="0" stop-color="#ff9c08"/><stop offset="1" stop-color="#d96317"/></linearGradient><path fill="url(#b)" d="M33 70.4c0 .8-3.1 1.4-6.9 1.4-3.8 0-6.9-.6-6.9-1.4 0-.8 3.1-1.4 6.9-1.4 3.8.1 6.9.7 6.9 1.4z"/><path fill="#61d0d8" d="M1.7 68.7h12.9v2.8H1.7z"/><path fill="#61d0d8" d="M16.3 86.2c0 1.4-1.1 2.5-2.5 2.5 0 0-2.8 0-5.5 0-2.9 0-5.7 0-5.7 0-1.4 0-2.5-1.1-2.5-2.5V73.1c0-1.4 1.1-2.5 2.5-2.5h11.2c1.4 0 2.5 1.1 2.5 2.5v13.1z"/><path fill="#50aeba" d="M15.6 85.6V73.5c0-1.3-1-2.3-2.3-2.3H3c-1.3 0-2.3 1-2.3 2.3v12.1c0 .6.2 1.1.6 1.6v1.4s0 .1 0 .1c0 .8 3.1 1.4 6.9 1.4s6.9-.6 6.9-1.4c0 0 0-.1 0-.1v-1.4c.3-.5.5-1 .5-1.6z"/><path fill="#61d0d8" d="M15.1 72.1c0 .8-3.2 1.5-7 1.5-3.9 0-7-.7-7-1.5s3.2-1.5 7-1.5c3.9 0 7 .6 7 1.5z"/><path fill="#2b4f68" d="M15.6 85.2V73c0-1.3-1.2-2.3-2.4-2.3 0 0 .9 9.3-.6 12.4-1.2 2.5-4.1 4.6-7.9 4.6-1.3 0-3.4-.3-3.4-.3s0 .5 0 .5c0 .8 2.9 1.1 6.7 1.1 3.8 0 6.9-.7 6.9-1.5 0 0 0-.1 0-.1l.2-.4c.3-.3.5-1.3.5-1.8z" opacity=".2"/><path fill="#fff" d="M2.2 71.6c-.8.6-1 1-1 2.2-.1 1.6-.6 11.7.4 12.9 1.2 1.4 3.5.9 4.5.8-.7-.4-1-15.1-.3-16.1.1 0-2.8-.4-3.6.2z" opacity=".3"/><path fill="#fff" d="M1.8 72.1c-.3.6-.1 2.9 0 3.8-.1-1-.1-4.3 2.2-4.3-1.3-.3-2.1.4-2.2.5z"/><linearGradient id="c" x1="1.156" x2="14.983" y1="69.132" y2="69.132" gradientUnits="userSpaceOnUse"><stop offset="0" stop-color="#ff9c08"/><stop offset="1" stop-color="#d93317"/></linearGradient><path fill="url(#c)" d="M15 67.4H1.2s0 2 0 2c0 .8 3.1 1.4 6.9 1.4 3.8 0 6.9-.6 6.9-1.4 0 0 0-2 0-2z"/><path fill="#ad682d" d="M15 67.4h-1.3s.3 1.1-.3 1.7c-1.1 1.1-3.5 1.1-7.3 1.1-1.9 0-4.1-.1-4.8-.6.3.7 3.3 1.3 6.9 1.3 3.8 0 6.9-.6 6.9-1.4-.1-.1-.1-2.1-.1-2.1z" opacity=".5"/><linearGradient id="d" x1="11.594" x2="4.545" y1="70.792" y2="63.743" gradientUnits="userSpaceOnUse"><stop offset="0" stop-color="#ff9c08"/><stop offset="1" stop-color="#d96317"/></linearGradient><path fill="url(#d)" d="M15 67.3c0 .8-3.1 1.4-6.9 1.4-3.8 0-6.9-.6-6.9-1.4 0-.8 3.1-1.4 6.9-1.4 3.8 0 6.9.6 6.9 1.4z"/><path fill="#bfd856" d="M15.7 50.5h11.8v2.6H15.7z"/><path fill="#dce869" d="M28.9 66.4c0 1.3-1 2.3-2.3 2.3 0 0-2.6 0-5 0-2.6 0-5.2 0-5.2 0-1.3 0-2.3-1-2.3-2.3V54.5c0-1.3 1-2.3 2.3-2.3h10.2c1.3 0 2.3 1 2.3 2.3v11.9z"/><path fill="#bfd856" d="M28.4 65.9v-11c0-1.2-.9-2.1-2.1-2.1h-9.4c-1.2 0-2.1.9-2.1 2.1v11c0 .5.2 1 .5 1.4v1.3s0 .1 0 .1c0 .7 2.8 1.2 6.3 1.2s6.3-.6 6.3-1.2c0 0 0-.1 0-.1v-1.3c.3-.4.5-.9.5-1.4z"/><path fill="#f07c94" d="M27.9 53.6c0 .7-2.9 1.3-6.4 1.3-3.5 0-6.4-.6-6.4-1.3 0-.7 2.9-1.3 6.4-1.3 3.5-.1 6.4.5 6.4 1.3z" opacity=".5"/><path fill="#2b4f68" d="M28.3 66V54.5c0-1.2-1-2.1-2.2-2.1 0 0 .8 8.4-.5 11.3-1.1 2.3-3.7 4.2-7.2 4.2-1.2 0-2.3-.1-3.2-.2v-.1s0 .4 0 .5c0 .7 2.8 1 6.3 1s6.3-.6 6.3-1.3c0 0 0-.1 0-.1l.1-.2c.2-.5.4-1 .4-1.5z" opacity=".2"/><path fill="#fff" d="M16.2 53.1c-.7.5-.9.9-.9 2-.1 1.5-.6 10.7.4 11.7 1.1 1.3 3.2.8 4.1.7-.6-.3-.9-13.7-.2-14.7-.1.2-2.7-.2-3.4.3z" opacity=".3"/><path fill="#fff" d="M15.8 53.6c-.3.5-.1 2.6 0 3.5-.1-.9-.1-3.9 2-3.9-1.3-.3-1.9.3-2 .4z"/><linearGradient id="e" x1="15.18" x2="27.755" y1="50.919" y2="50.919" gradientUnits="userSpaceOnUse"><stop offset="0" stop-color="#ff9c08"/><stop offset="1" stop-color="#d93317"/></linearGradient><path fill="url(#e)" d="M27.7 49.4H15.2s0 1.8 0 1.8c0 .7 2.8 1.2 6.3 1.2s6.3-.6 6.3-1.2c0 0-.1-1.8-.1-1.8z"/><path fill="#ad682d" d="M27.7 49.4h-1.2s.3 1-.3 1.5c-1 1-3.2 1-6.7 1-1.7 0-3.8-.1-4.4-.6.3.6 3 1.1 6.3 1.1 3.5 0 6.3-.6 6.3-1.2.1 0 0-1.8 0-1.8z" opacity=".5"/><linearGradient id="f" x1="24.673" x2="18.262" y1="52.429" y2="46.018" gradientUnits="userSpaceOnUse"><stop offset="0" stop-color="#ff9c08"/><stop offset="1" stop-color="#d96317"/></linearGradient><ellipse cx="21.5" cy="49.2" fill="url(#f)" rx="6.3" ry="1.2"/></svg>