<svg xmlns="http://www.w3.org/2000/svg" viewBox="0 0 100 100"><path fill-rule="evenodd" d="M67.3 94.5H47.8V83.3C59 82.6 69.9 78 78.5 69.5a47.32 47.32 0 000-66.8l-3.9 3.9a41.58 41.58 0 010 58.9 41.58 41.58 0 01-58.9 0l-3.9 3.9c8.5 8.5 19.5 13.1 30.6 13.7v11.2H22.8v5.5h44.3v-5.3h.2zm10.5-73.6a36.12 36.12 0 10-65.5 30.5 36.12 36.12 0 0065.5-30.5zm-5.8.8l-8.6 8.1.7 1.4 5.2 1.9 5.2 11.2a30.4 30.4 0 00-1.8-21.1c-.2-.5-.4-1-.7-1.5zM46.3 5.6c-4.7-.2-9.6.7-14.1 2.9-1.6.7-3 1.6-4.4 2.5l1.3 12-1.6 4.3 1.5 3.2 12.6-9.2.5-1.5-4.6-10.1 8.8-4.1zm-27.6 46c1.1 1.9 2.5 3.7 4 5.3l4.7-13-7.1 3.3-1.6 4.4zm39 12.3c.1 0 .2-.1.3-.1 5.8-2.7 10.4-7 13.4-12.2L53.2 45l-2.9 1.4-.3.9 1.4 2.9 8.3 3-3 8.3 1 2.4zM23.5 22.3l-.8-7c-7.1 7.6-9.9 18.5-7.1 28.7l.3-.9 7.1-3.3 1.9-5.2-3.3-7.1 1.9-5.2zm28.9 43.5l-1.9-4 1.9-5.2-5.2-1.9-3.3-7.1 1.9-5.2 7.1-3.3 15.7 5.7-3.3-7.1-5.3-2.1-3.3-7.1 9-8.5-3.3-7.1L52 9.1l-7.1 3.3 3.3 7.1-1.9 5.2-16.2 11.9 3.3 7.1-1.9 5.2-4.4 12c7.2 5.1 16.5 7.1 25.3 4.9z" class="st0" clip-rule="evenodd"/></svg>