<svg xmlns="http://www.w3.org/2000/svg" viewBox="0 0 100 100" enable-background="new 0 0 100 100"><path fill="#E8E1EF" d="M39.2 47.5c-2.6 0-5-2.5-6.7-7.1-1.6-4.3-2.5-10-2.5-16s.9-11.7 2.5-16c1.7-4.6 4.1-7.1 6.7-7.1s5 2.5 6.7 7.1c1.6 4.3 2.5 10 2.5 16s-.9 11.7-2.5 16c-1.7 4.6-4.1 7.1-6.7 7.1zm0-44.2c-1.8 0-3.6 2.1-5 5.9-1.5 4.1-2.4 9.5-2.4 15.3 0 5.8.8 11.2 2.4 15.3 1.4 3.7 3.2 5.9 5 5.9s3.6-2.1 5-5.9c1.5-4.1 2.4-9.5 2.4-15.3 0-5.8-.8-11.2-2.4-15.3-1.4-3.8-3.2-5.9-5-5.9zM25.6 37.9c-3.5 0-5.9-1-6.9-2.9-1.2-2.3 0-5.6 3.2-9.2C25 22.4 29.6 19 35 16.3c6.5-3.3 13-5.2 17.8-5.2 3.5 0 5.9 1 6.9 2.9 1.2 2.3 0 5.6-3.2 9.2-3.1 3.4-7.7 6.7-13.1 9.5-6.4 3.3-12.9 5.2-17.8 5.2zm27.3-25c-4.5 0-10.9 1.9-17 5-5.2 2.6-9.6 5.9-12.6 9.1-2.7 3-3.8 5.6-3 7.1.6 1.2 2.5 1.9 5.3 1.9 4.5 0 10.9-1.9 17-5 5.2-2.6 9.6-5.9 12.6-9.1 2.7-3 3.8-5.6 3-7.1-.7-1.2-2.6-1.9-5.3-1.9zM52.9 37.9C48 37.9 41.5 36 35 32.7c-5.4-2.7-10-6.1-13.1-9.5-3.3-3.6-4.4-6.9-3.2-9.2 1-1.9 3.4-2.9 6.9-2.9 4.9 0 11.4 1.9 17.8 5.2 5.4 2.7 10 6.1 13.1 9.5 3.3 3.6 4.4 6.9 3.2 9.2-.9 1.9-3.3 2.9-6.8 2.9zm-27.3-25c-2.8 0-4.6.7-5.3 1.9-.8 1.6.3 4.2 3 7.1 2.9 3.2 7.4 6.4 12.6 9.1 6.1 3.1 12.5 5 17 5 2.8 0 4.6-.7 5.3-1.9.8-1.6-.3-4.2-3-7.1-2.9-3.2-7.4-6.4-12.6-9.1-6.1-3.1-12.5-5-17-5zM43.2 24.5c0 2.2-1.8 4-4 4s-4-1.8-4-4 1.8-4 4-4 4 1.8 4 4z"/><path fill="#7C7091" d="M91.1 25.2h2v67.9h-2zM62.9 89.2h28.3v3.9H57.9z"/><path fill="#C9BED1" d="M91 25.2h.8v63.9H91zM66.7 82.9h19.2v6.3H66.7zM72.3 79.7h7.8v3.4h-7.8z"/><path fill="#7C7091" d="M72.3 81.6h7.8v1.2h-7.8z"/><path fill="#7C7091" d="M79.9 82.9h4.7v6.3h-4.7z" opacity=".3"/><path fill="#fff" d="M68.8 82.9h2.4v6.3h-2.4z" opacity=".3"/><path fill="#F2A718" d="M76.2 79.3c2.4-.6 5.2-4 3.7-6.6-.2.3-.5.4-.7.7-.1-2.7-1.5-4-3.1-6 1.2 2-1 2.8-2.1 3.9-2 1.8-1.5 3.6-.4 5.5.8 1.2 2.6 2.5 2.6 2.5z"/><path fill="#FCC107" d="M74.2 75.6c-2.4-3.5 2.2-4.3 2.7-6.3.7 1.2 1 2.7.5 3.9.5-.1.7-.5.6-1 .6 1.9-.7 3.8-1.9 5.3.1-.1-1-.6-1.9-1.9z"/><path fill="#B7C1E2" d="M30.8 79.2c-.1 1.6-1.5 2.9-3.2 2.9-1.7 0-3.2-1.3-3.2-2.9v-26h6.5v26z"/><path fill="#E8EDF9" d="M30.3 79c-.1 1.4-1.3 2.5-2.8 2.5-1.5 0-2.7-1.1-2.8-2.5V52.4h5.6V79z"/><path fill="#44B4A6" d="M30 78.8c-.1 1.2-1.2 2.2-2.5 2.2s-2.4-1-2.4-2.2V60H30v18.8z"/><path fill="#5CCCBC" d="M30 59.8c0 .3-1.1.5-2.5.5s-2.5-.2-2.5-.5 1.1-.5 2.5-.5c1.4.1 2.5.3 2.5.5z"/><path fill="#B7C1E2" d="M28.4 53.2v23.2c-.1 1.6-1.5 2.9-3.2 2.9-.3 0-.6 0-.9-.1.1 1.6 1.5 2.9 3.2 2.9 1.7 0 3.2-1.3 3.2-2.9v-26h-2.3z" opacity=".5"/><path fill="#fff" d="M25.3 54.3v22.1s0 .7 1.1.7c.8 0 1.1-.7 1.1-.7v-22l-2.2-.1z" opacity=".3"/><path fill="#B7C1E2" d="M31.6 52.5c0 .4-1.8.6-4.1.6s-4.1-.3-4.1-.6c0-.4 1.8-.6 4.1-.6 2.3-.1 4.1.2 4.1.6zM31.6 52.3h-8.2s0 1.1 0 1.2c0 .4 1.8.6 4.1.6s4.1-.3 4.1-.6c0-.1 0-1.2 0-1.2z"/><path fill="#E8EDF9" d="M31.4 52.3h-7.7s0 1 0 1.1c0 .3 1.7.6 3.9.6s3.9-.3 3.9-.6c-.1-.1-.1-1.1-.1-1.1z"/><path fill="#B7C1E2" d="M29.9 52.3c.5 1.1-1.5 1.4-3.7 1.4-.9 0-2.3-.1-2.6-.4 0 .1 0 .1 0 .1 0 .3 1.7.6 3.9.6s3.9-.3 3.9-.6c0 0 0-1.1 0-1.1h-1.5z" opacity=".3"/><path fill="#E8EDF9" d="M31.3 52.7c0 .2-1.7.3-3.7.3-2.1 0-3.7-.1-3.7-.3 0-.2 1.7-.5 3.7-.5s3.7.3 3.7.5z"/><path fill="#B7C1E2" d="M20.1 79.3c-.1 1.6-1.5 2.9-3.2 2.9-1.7 0-3.2-1.3-3.2-2.9v-26h6.5v26z"/><path fill="#E8EDF9" d="M19.6 79.1c-.1 1.4-1.3 2.5-2.8 2.5-1.5 0-2.7-1.1-2.8-2.5V52.5h5.6v26.6z"/><path fill="#CC75CC" d="M19.3 78.8c-.1 1.2-1.1 2.2-2.4 2.2-1.3 0-2.4-1-2.4-2.2V60.1h4.9l-.1 18.7z"/><path fill="#E3B0EA" d="M19.3 59.9c0 .3-1.1.5-2.5.5s-2.5-.2-2.5-.5 1.1-.5 2.5-.5 2.5.3 2.5.5z"/><path fill="#B7C1E2" d="M17.8 53.3v23.2c-.1 1.6-1.5 2.9-3.2 2.9-.3 0-.6 0-.9-.1.1 1.6 1.5 2.9 3.2 2.9 1.7 0 3.2-1.3 3.2-2.9v-26h-2.3z" opacity=".5"/><path fill="#fff" d="M14.6 54.4v22.1s0 .7 1.1.7c.8 0 1.1-.7 1.1-.7v-22l-2.2-.1z" opacity=".3"/><path fill="#B7C1E2" d="M20.9 52.5c0 .4-1.8.6-4.1.6s-4.1-.3-4.1-.6c0-.4 1.8-.6 4.1-.6s4.1.3 4.1.6zM21 52.4h-8.2s0 1.1 0 1.2c0 .4 1.8.6 4.1.6s4.1-.3 4.1-.6c0-.1 0-1.2 0-1.2z"/><path fill="#E8EDF9" d="M20.7 52.4H13s0 1 0 1.1c0 .3 1.7.6 3.9.6 2.1 0 3.9-.3 3.9-.6-.1-.1-.1-1.1-.1-1.1z"/><path fill="#B7C1E2" d="M19.3 52.4c.5 1.1-1.5 1.4-3.7 1.4-.9 0-2.3-.1-2.6-.4 0 .1 0 .1 0 .1 0 .3 1.7.6 3.9.6 2.1 0 3.9-.3 3.9-.6 0 0 0-1.1 0-1.1h-1.5z" opacity=".3"/><path fill="#E8EDF9" d="M20.6 52.8c0 .2-1.7.3-3.7.3-2.1 0-3.7-.1-3.7-.3 0-.2 1.7-.5 3.7-.5 2-.1 3.7.3 3.7.5z"/><path fill="#7C7091" d="M3.6 69.3v23.6h34.8V69.3h-7.6s-1.4.7-3.2.7c-1.8 0-3.3-.7-3.3-.7h-4.2s-1.4.8-3.2.7c-1.6-.1-3.2-.7-3.2-.7H3.6zm33 20H5.3V71h8.3s1.6.7 3.2.7c2 0 3.2-.7 3.2-.7h4.2s1.7.7 3.3.7c1.8 0 3.2-.7 3.2-.7h5.8v18.3z"/><path fill="#C9BED1" d="M3.6 69.3h10s1.1.6 3.3.7c1.6 0 3.2-.7 3.2-.7h4.2s1.4.6 3.3.7c1.4 0 3.2-.7 3.2-.7h7.5v.4h-7.5s-1.5.6-3.2.6c-1.6 0-3.3-.7-3.3-.7h-4.2s-1.8.6-3.1.7c-1.7.1-3.4-.7-3.4-.7h-10v-.3z" opacity=".7"/><path fill="#B7C1E2" d="M79.2 42.5v-15H73v15c-4.2 1.1-8.6 5.6-8.6 11.1 0 3.9 1.9 7.3 4.8 9.5.9 1.2 3.7 1.9 6.9 1.9 3.1 0 5.8-.7 6.8-1.8 3-2.1 5-5.6 5-9.6 0-5.5-4.3-10-8.7-11.1z"/><path fill="#E8EDF9" d="M78.9 42.7V27.5h-5.5v15.2c-5 1.2-8.7 5.7-8.7 11.1 0 3.8 1.8 7.1 4.6 9.2.9 1.1 3.6 1.9 6.7 1.9 3 0 5.6-.7 6.6-1.7 2.9-2.1 4.8-5.5 4.8-9.3.1-5.4-3.6-9.9-8.5-11.2z"/><path fill="#83B520" d="M65.5 51.8c-.1.7-.2 1.4-.2 2.1 0 3.6 1.7 6.8 4.4 8.7.8 1.1 3.4 1.8 6.4 1.8 2.9 0 5.3-.7 6.3-1.7 2.8-2 4.6-5.2 4.6-8.9 0-.7-.1-1.4-.2-2.1H65.5z"/><path fill="#BBDF67" d="M86.8 51.9c0 1.3-4.8 2.4-10.7 2.4-5.9 0-10.7-1.1-10.7-2.4 0-1.3 4.8-2.4 10.7-2.4 5.9-.1 10.7 1 10.7 2.4z"/><path fill="#C9BED1" d="M78.9 42.6V27.8l-1.8.1v15.7c4.4 1.1 6.6 5.1 6.6 9.9 0 3.4-1.7 6.5-4.3 8.3-.9.9-3.2 1.6-5.9 1.6-1.8 0-3.4-.3-4.5-.7.1.1.2.2.3.2.9 1.1 3.6 1.9 6.7 1.9 3 0 5.6-.7 6.6-1.7 2.9-2.1 4.8-5.5 4.8-9.3.1-5.4-3.5-9.9-8.5-11.2z" opacity=".4"/><path fill="#44B4A6" d="M82.6 62.6c0 1-2.9 1.8-6.5 1.8s-6.5-.8-6.5-1.8 2.9-1.8 6.5-1.8 6.5.8 6.5 1.8z" opacity=".3"/><path fill="#B7C1E2" d="M80.5 25.4c0 .6-2 1.2-4.4 1.2s-4.4-.5-4.4-1.2c0-.6 2-1.2 4.4-1.2s4.4.5 4.4 1.2zM80.5 25.1h-8.7s0 2 0 2.1c0 .6 2 1.2 4.4 1.2 2.4 0 4.4-.5 4.4-1.2-.1-.1-.1-2.1-.1-2.1z"/><path fill="#E8EDF9" d="M80.3 25.1H72s0 1.9 0 2c0 .6 1.9 1.1 4.1 1.1 2.3 0 4.1-.5 4.1-1.1.1-.1.1-2 .1-2z"/><path fill="#B7C1E2" d="M78.7 25.1c.5 2-1.6 2.4-3.9 2.4-1 0-2.4-.2-2.8-.7 0 .1 0 .2 0 .2 0 .6 1.9 1.1 4.1 1.1 2.3 0 4.1-.5 4.1-1.1 0-.1 0-2 0-2h-1.5z" opacity=".3"/><path fill="#E8EDF9" d="M80.1 25.2c0 .5-1.8.8-4 .8s-4-.4-4-.8c0-.5 1.8-.8 4-.8s4 .4 4 .8z"/><path fill="#B7C1E2" d="M79.6 25.2c0 .3-1.6.6-3.5.6s-3.5-.3-3.5-.6 1.6-.6 3.5-.6 3.5.3 3.5.6z" opacity=".5"/><path fill="#BBDF67" d="M78.8 53.4c0 .6-.5 1.1-1.1 1.1-.6 0-1.1-.5-1.1-1.1s.5-1.1 1.1-1.1c.6 0 1.1.5 1.1 1.1z"/><path fill="#fff" d="M77.7 54.1c-.3 0-.6-.1-.9-.3.1.4.5.6.9.6s.8-.3.9-.6c-.3.2-.6.3-.9.3zM77.7 52.6c.2 0 .4.3.5.1.1-.1-.3-.3-.6-.3s-.5.2-.6.4c.3-.1.5-.2.7-.2z" opacity=".5"/><path fill="#BBDF67" d="M81 51c0 .4-.3.7-.7.7-.4 0-.7-.3-.7-.7 0-.4.3-.7.7-.7.4 0 .7.3.7.7z"/><path fill="#fff" d="M80.4 51.4c-.2 0-.4-.1-.5-.2.1.2.3.4.5.4s.5-.2.5-.4c-.1.1-.3.2-.5.2zM80.4 50.5c.1 0 .2.2.3.1.1-.1-.2-.2-.3-.2-.2 0-.3.1-.4.3.1-.1.2-.2.4-.2z" opacity=".5"/><path fill="#BBDF67" d="M76.1 48.8c0 .5-.4.9-.9.9s-.9-.4-.9-.9.4-.9.9-.9.9.5.9.9z"/><path fill="#fff" d="M75.2 49.4c-.2 0-.5-.1-.7-.2.1.3.4.5.7.5s.6-.2.7-.5c-.2.1-.4.2-.7.2zM75.3 48.2c.2 0 .3.2.4.1.1-.1-.2-.3-.4-.3s-.4.1-.5.3c.1 0 .3-.1.5-.1z" opacity=".5"/><path fill="#BBDF67" d="M73.8 56.3c0 .5-.4.9-.9.9s-.9-.4-.9-.9.4-.9.9-.9c.6 0 .9.4.9.9z"/><path fill="#fff" d="M72.9 56.8c-.2 0-.5-.1-.7-.2.1.3.4.5.7.5s.6-.2.7-.5c-.1.2-.4.2-.7.2zM73 55.7c.2 0 .3.2.4.1.1-.1-.2-.3-.4-.3s-.4.1-.5.3c.1 0 .3-.1.5-.1z" opacity=".5"/><path fill="#BBDF67" d="M76.4 59c0 .3-.2.5-.5.5s-.5-.2-.5-.5.2-.5.5-.5.5.3.5.5z"/><path fill="#fff" d="M75.9 59.3c-.1 0-.3 0-.4-.1.1.2.2.3.4.3s.3-.1.4-.3c-.2.1-.3.1-.4.1zM75.9 58.7c.1 0 .2.1.2.1.1-.1-.1-.2-.2-.1-.1-.1-.3 0-.3.1.1-.1.2-.1.3-.1z" opacity=".5"/><path fill="#BBDF67" d="M77.4 45.8c0 .3-.3.6-.6.6s-.6-.3-.6-.6.3-.6.6-.6.6.3.6.6z"/><path fill="#D2FCEE" d="M76.8 46.2c-.2 0-.3-.1-.5-.1.1.2.3.3.5.3s.4-.1.5-.3c-.2 0-.4.1-.5.1z" opacity=".5"/><path fill="#fff" d="M76.8 45.4c.1 0 .2.2.3.1.1-.1-.1-.2-.3-.2-.2 0-.3.1-.3.2 0-.1.2-.1.3-.1z" opacity=".5"/><path fill="#BBDF67" d="M76 40.9c0 .3-.3.6-.6.6s-.6-.3-.6-.6.3-.6.6-.6c.4 0 .6.2.6.6z"/><path fill="#D2FCEE" d="M75.4 41.2c-.2 0-.3-.1-.5-.1.1.2.3.3.5.3s.4-.1.5-.3c-.1.1-.3.1-.5.1z" opacity=".5"/><path fill="#fff" d="M75.4 40.4c.1 0 .2.2.3.1.1-.1-.1-.2-.3-.2-.2 0-.3.1-.3.2.1 0 .2-.1.3-.1z" opacity=".5"/><path fill="#fff" d="M71.4 44.7c-2.9 1.7-4.6 4.1-5.2 7.3-.3 1.3-.5 3.8.2 5.1 0 0 3.1 1.8 4.8 1.9-1.3-4.1-2.3-8.2 2.3-13.6l-2.1-.7z" opacity=".6"/><path fill="#7C7091" d="M71.8 30.3h24.7v1.2H71.8z"/><path fill="#B7C1E2" d="M53.2 69.7V58h-8.4v11.6c-5.7 1.5-11.6 7.6-11.6 15 0 5.2 2.5 9.9 6.4 12.7 1.2 1.6 4.9 2.6 9.3 2.6 4.2 0 7.8-1 9.2-2.4 4.1-2.9 6.7-7.6 6.7-12.9 0-7.4-5.8-13.5-11.6-14.9z"/><path fill="#E8EDF9" d="M52.7 70V59.1h-7.4V70c-6.7 1.7-11.7 7.7-11.7 14.9 0 5.1 2.5 9.6 6.2 12.4 1.2 1.5 4.8 2.5 9.1 2.5 4.1 0 7.6-.9 8.9-2.3 3.9-2.8 6.5-7.4 6.5-12.6 0-7.2-4.9-13.3-11.6-14.9z"/><path fill="#A44AA0" d="M34.7 82.2c-.2.9-.3 1.9-.3 2.8 0 4.8 2.3 9.1 5.9 11.7 1.1 1.4 4.5 2.4 8.6 2.4 3.9 0 7.2-.9 8.4-2.2 3.7-2.6 6.2-7 6.2-11.9 0-1-.1-1.9-.3-2.8H34.7z"/><path fill="#CC75CC" d="M63.3 82.2c0 1.8-6.4 3.3-14.3 3.3S34.7 84 34.7 82.2c0-1.8 6.4-3.3 14.3-3.3s14.3 1.5 14.3 3.3z"/><path fill="#C9BED1" d="M52.7 69.8V59.2l-2.4.1v11.8c6 1.5 8.9 6.9 8.9 13.3 0 4.6-2.3 8.7-5.8 11.2-1.2 1.3-4.3 2.1-7.9 2.1-2.4 0-4.6-.4-6.1-1 .1.1.3.2.4.3 1.2 1.5 4.8 2.5 9.1 2.5 4.1 0 7.6-.9 8.9-2.3 3.9-2.8 6.5-7.4 6.5-12.6 0-7.1-4.9-13.1-11.6-14.8z" opacity=".4"/><path fill="#44B4A6" d="M57.7 96.7c0 1.3-3.9 2.4-8.7 2.4-4.8 0-8.7-1.1-8.7-2.4 0-1.3 3.9-2.4 8.7-2.4 4.8 0 8.7 1.1 8.7 2.4z" opacity=".3"/><path fill="#B7C1E2" d="M54.9 55.8c0 .9-2.6 1.6-5.9 1.6-3.2 0-5.9-.7-5.9-1.6 0-.9 2.6-1.6 5.9-1.6 3.3 0 5.9.7 5.9 1.6zM54.9 55.5H43.1s0 2.7 0 2.8c0 .9 2.6 1.6 5.9 1.6 3.2 0 5.9-.7 5.9-1.6 0-.2 0-2.8 0-2.8z"/><path fill="#E8EDF9" d="M54.6 55.4H43.4s0 2.5 0 2.6c0 .8 2.5 1.5 5.6 1.5 3.1 0 5.6-.7 5.6-1.5 0-.1 0-2.6 0-2.6z"/><path fill="#B7C1E2" d="M52.5 55.4c.7 2.7-2.2 3.3-5.3 3.3-1.3 0-3.3-.3-3.8-.9 0 .1 0 .2 0 .3 0 .8 2.5 1.5 5.6 1.5 3.1 0 5.6-.7 5.6-1.5 0-.1 0-2.6 0-2.6h-2.1z" opacity=".3"/><path fill="#E8EDF9" d="M54.4 55.6c0 .6-2.4 1.1-5.4 1.1s-5.4-.5-5.4-1.1c0-.6 2.4-1.1 5.4-1.1s5.4.5 5.4 1.1z"/><path fill="#B7C1E2" d="M53.7 55.6c0 .4-2.1.8-4.7.8s-4.7-.4-4.7-.8 2.1-.8 4.7-.8 4.7.3 4.7.8z" opacity=".5"/><path fill="#fff" d="M43.7 55.4s-.1.1-.1.1 0 .1 0 .1c0 .1 0 .1.1.2 0 .1.1.1.2.2.1 0 .2.1.3.1.1 0 .2.1.3.1.1 0 .2.1.4.1.3.1.6.1.9.2.3.1.6.1 1 .1.2 0 .3 0 .5.1.2 0 .4 0 .5 0 .1 0 .2 0 .3 0 .1 0 .2 0 .3 0 .2 0 .4 0 .6 0 .4 0 .7 0 1.1 0 .4 0 .7 0 1.1 0 .3 0 .7 0 1-.1.3 0 .6-.1.9-.2.3-.1.5-.2.7-.3.2-.1.4-.2.5-.3.1-.1.2-.2.3-.3 0 0 0-.1.1-.1 0 0 0 .1 0 .1 0 .1-.1.2-.2.3-.1.1-.3.3-.5.4-.2.1-.4.3-.7.4-.3.1-.6.2-.9.3-.3.1-.7.1-1 .2-.4 0-.7.1-1.1.1-.4 0-.7 0-1.1 0-.2 0-.4 0-.6 0-.1 0-.2 0-.3 0-.1 0-.2 0-.3 0-.4 0-.7-.1-1.1-.1-.4-.1-.7-.1-1-.2-.3-.1-.6-.2-.9-.3-.3-.1-.5-.2-.7-.3-.2-.1-.4-.2-.5-.4 0-.1-.1-.2-.1-.2-.1-.1-.1-.1 0-.3 0 .1 0 .1 0 0z"/><path fill="#CC75CC" d="M52.9 86.1c0 1-.8 1.8-1.8 1.8s-1.8-.8-1.8-1.8.8-1.8 1.8-1.8c1 .1 1.8.8 1.8 1.8z"/><path fill="#fff" d="M51.1 87.2c-.5 0-1-.2-1.4-.4.2.6.8 1 1.4 1 .7 0 1.2-.4 1.4-1-.3.3-.9.4-1.4.4zM51.2 84.8c.4 0 .6.5.9.2.2-.2-.4-.5-.9-.5s-.9.3-1 .7c.2-.2.6-.4 1-.4z" opacity=".5"/><path fill="#CC75CC" d="M56.4 82.2c0 .6-.5 1-1 1-.6 0-1-.5-1-1 0-.6.5-1 1-1 .6 0 1 .5 1 1z"/><path fill="#fff" d="M55.4 82.9c-.3 0-.6-.1-.8-.3.1.3.5.6.8.6s.7-.2.8-.6c-.2.2-.5.3-.8.3zM55.4 81.5c.2 0 .4.3.5.1.1-.1-.3-.3-.5-.3-.3 0-.5.2-.6.4.2-.1.4-.2.6-.2z" opacity=".5"/><path fill="#CC75CC" d="M48.6 78.8c0 .8-.6 1.4-1.4 1.4-.8 0-1.4-.6-1.4-1.4 0-.8.6-1.4 1.4-1.4.8 0 1.4.7 1.4 1.4z"/><path fill="#fff" d="M47.2 79.6c-.4 0-.8-.1-1.1-.3.2.4.6.8 1.1.8.5 0 .9-.3 1.1-.8-.3.2-.7.4-1.1.3zM47.3 77.8c.3 0 .5.4.7.2.2-.1-.3-.4-.7-.4-.4 0-.7.2-.8.5.2-.2.4-.3.8-.3z" opacity=".5"/><path fill="#CC75CC" d="M45 90.7c0 .8-.6 1.4-1.4 1.4-.8 0-1.4-.6-1.4-1.4s.6-1.4 1.4-1.4c.8 0 1.4.6 1.4 1.4z"/><path fill="#fff" d="M43.6 91.5c-.4 0-.8-.1-1.1-.3.2.4.6.8 1.1.8.5 0 .9-.3 1.1-.8-.3.2-.7.3-1.1.3zM43.6 89.7c.3 0 .5.4.7.2.2-.1-.3-.4-.7-.4-.4 0-.7.2-.8.5.3-.2.5-.3.8-.3z" opacity=".5"/><path fill="#CC75CC" d="M49 95.1c0 .4-.3.8-.8.8-.4 0-.8-.3-.8-.8 0-.4.3-.8.8-.8.4 0 .8.3.8.8z"/><path fill="#fff" d="M48.2 95.5c-.2 0-.4-.1-.6-.2.1.3.3.4.6.4s.5-.2.6-.4c-.1.2-.4.2-.6.2zM48.2 94.5c.2 0 .3.2.4.1.1-.1-.2-.2-.4-.2s-.4.1-.4.3c.1-.1.3-.2.4-.2z" opacity=".5"/><path fill="#CC75CC" d="M50.6 74c0 .5-.4.9-.9.9s-.9-.4-.9-.9.4-.9.9-.9c.5-.1.9.3.9.9z"/><path fill="#D2FCEE" d="M49.6 74.5c-.3 0-.5-.1-.7-.2.1.3.4.5.8.5.3 0 .6-.2.8-.5-.3.2-.6.2-.9.2z" opacity=".5"/><path fill="#fff" d="M49.7 73.3c.2 0 .3.2.5.1.1-.1-.2-.3-.5-.3-.2 0-.5.2-.5.4.1-.1.3-.2.5-.2z" opacity=".5"/><path fill="#CC75CC" d="M48.4 66.1c0 .5-.4.9-.9.9s-.9-.4-.9-.9.4-.9.9-.9c.5-.1.9.4.9.9z"/><path fill="#D2FCEE" d="M47.5 66.6c-.3 0-.5-.1-.7-.2.1.3.4.5.8.5.3 0 .6-.2.8-.5-.4.2-.6.2-.9.2z" opacity=".5"/><path fill="#fff" d="M47.5 65.4c.2 0 .3.2.5.1.1-.1-.2-.3-.5-.3-.2 0-.5.2-.5.4.1-.1.3-.2.5-.2z" opacity=".5"/><path fill="#fff" d="M43.2 72.1c-3.7 2.1-5.8 5.2-6.6 9.3-.3 1.7-.6 4.8.3 6.4 0 0 3.9 2.3 6.1 2.4-1.6-5.1-3-10.4 2.9-17.2l-2.7-.9z" opacity=".6"/><path fill="#C9BED1" d="M71.8 30.2h24.7v.4H71.8z"/><path fill="#7C7091" d="M71.8 29.3h8.6v3.1h-8.6z"/><path fill="#C9BED1" d="M71.8 29.3h8.6v.5h-8.6z"/><path fill="#7C7091" d="M93 30.9c0 .6-.5 1.1-1.1 1.1-.6 0-1.1-.5-1.1-1.1 0-.6.5-1.1 1.1-1.1.7.1 1.1.5 1.1 1.1z"/><path fill="#C9BED1" d="M92.5 30.9c0 .3-.2.5-.5.5s-.5-.2-.5-.5.2-.5.5-.5.5.2.5.5z"/><path fill="#E8EDF9" d="M76 21.6c-.1-1.5 1.7-2.4 2.9-3 2-1.1 4.2-2.3 5.5-4.4 2.3-3.8.7-9.6-4.3-7.9 2.2-6.7-12.4-9.1-12.5-1.9-2.6.4-4.5 2-5.1 4.6-.6 2.5.4 5.6 3.4 5.3-2.3 3.6 4.8 6.9 6.5 3.4.4 1.1 2 1.1 2.9.6-.7 1-.5 2.5.4 3.3h.3z"/><path fill="#fff" d="M76.1 19.8c-.1-1.3 1.5-2 2.5-2.6 1.7-.9 3.6-2 4.7-3.8 1.9-3.2.6-8.2-3.7-6.8C81.4 1 68.9-1.1 68.8 5.1c-2.2.4-3.9 1.7-4.4 3.9-.5 2.1.3 4.8 2.9 4.5-2 3.1 4.1 5.9 5.5 2.9.4.9 1.7 1 2.4.5-.6.8-.5 2.1.3 2.8h.6z" opacity=".6"/></svg>