<svg xmlns="http://www.w3.org/2000/svg" xmlns:xlink="http://www.w3.org/1999/xlink" x="0px" y="0px" viewBox="0 0 100 100" style="enable-background:new 0 0 100 100;" xml:space="preserve">
<path style="fill-rule:evenodd; clip-rule:evenodd; " d="M19.8,100c-8.3,0-15-6.7-15-15c0-4.1,1.7-7.9,4.4-10.6  l26.1-26.1c1.8-1.8,2.6-4.1,2.6-6.4V24h-6v-6h4.5L32,0H68l-4.5,18H68v6h-6v18c0,2.3,0.9,4.6,2.6,6.4l26.1,26.1  c2.7,2.7,4.4,6.4,4.4,10.6c0,8.3-6.7,15-15,15L50,100L19.8,100L19.8,100z M39.7,6l3,12h14.6l3-12H39.7L39.7,6z M44,24v18  c0,3.8-1.5,7.7-4.4,10.6L13.5,78.7c-1.6,1.6-2.6,3.9-2.6,6.4c0,5,4,9,9,9H50h30.2c5,0,9-4,9-9c0-2.5-1-4.7-2.6-6.4L60.4,52.5  c-2.9-2.9-4.4-6.8-4.4-10.6V24H44L44,24z M59.4,63.1c5,0,9,4,9,9c0,1.4-0.3,2.7-0.9,3.9h0.2c6.6,0,12,5.4,12,12h-6c0-3.3-2.7-6-6-6  c-0.5,0-1,0.1-1.5,0.2c1,1.7,1.5,3.7,1.5,5.8h-6c0-3.3-2.7-6-6-6c-3.3,0-6,2.7-6,6h-6c0-5-4-9-9-9c-5,0-9,4-9,9h-6  c0-8.3,6.7-15,15-15c1.2,0,2.3,0.1,3.4,0.4c1.1-3.7,4.5-6.4,8.6-6.4c1.7,0,3.2,0.5,4.5,1.2C52.8,65.2,55.9,63.1,59.4,63.1L59.4,63.1  z M59.4,69.1c1.6,0,3,1.3,3,3c0,1.7-1.3,3-3,3c-1.7,0-3-1.3-3-3C56.5,70.5,57.8,69.1,59.4,69.1L59.4,69.1z M46.8,73c1.7,0,3,1.3,3,3  c0,1-0.5,1.8-1.2,2.4c-0.5,0.4-1.1,0.6-1.8,0.6c-0.9-1.1-1.9-2.1-3-3C43.8,74.4,45.1,73,46.8,73L46.8,73z"></path>
</svg>