<svg xmlns="http://www.w3.org/2000/svg" viewBox="0 0 100 100"><path fill-rule="evenodd" d="M65 25H55c-5.5 0-10-4.5-10-10v-5h5v5c0 2.8 2.3 5 5 5h10c0-8.2-6.8-15-15-15-8.1 0-15.1 6.8-15 15v5c-1.4 0-2.5 1.1-2.5 2.5v5c0 1.4 1.1 2.5 2.5 2.5-.1 8.2 6.8 15 15 15 8 0 14.9-6.6 15-14.6V35c1.4 0 2.5-1.1 2.5-2.5v-5c0-1.3-1.1-2.5-2.5-2.5zM32.5 55H35v-6.8c-2.4-2.7-4.1-6.1-4.7-9.9a7.55 7.55 0 01-2.8-5.8v-5c0-2.2 1-4.2 2.5-5.6V20C29.9 9 39.1 0 50 0s20.1 9 20 20v1.9a7.7 7.7 0 012.5 5.6v5c0 2.3-1.1 4.4-2.8 5.8-.6 3.7-2.3 7.1-4.7 9.8V55h2.5C79.9 55 90 65.1 90 77.5V100H10V77.5C10 65.1 20.1 55 32.5 55zm3.4 5h-3.4C22.9 60 15 67.9 15 77.5V95h10V85h5v10h40V85h5v10h10V77.5C85 67.9 77.1 60 67.5 60h-3.4C62 65.8 56.5 70 50 70s-12.1-4.2-14.1-10zm5.4-20h17.3c-1.8 3-5.1 5-8.7 5-3.5 0-6.8-2-8.6-5zM40 52.3C43 54 46.4 55 50 55s7-1 10-2.7V55c0 5.5-4.5 10-10 10s-10-4.5-10-10v-2.7z" clip-rule="evenodd"/></svg>