<svg xmlns="http://www.w3.org/2000/svg" xmlns:xlink="http://www.w3.org/1999/xlink" x="0px" y="0px" viewBox="0 0 100 100" style="enable-background:new 0 0 100 100;" xml:space="preserve">
<path style="fill-rule:evenodd; clip-rule:evenodd; " d="M38.3,41.2V17.7C38.2,11.3,43.7,6,50,6  c6.3,0,11.8,5.3,11.7,11.6v23.6v6c0.1,6.3-5.5,11.6-11.7,11.6c-6.3,0-11.8-5.3-11.7-11.7V41.2L38.3,41.2z M50,39.4V11.9  c3,0,5.9,2.6,5.9,5.7l0,21.9H50L50,39.4z M73.5,94H52.9V76.3C67.7,74.8,79.5,62.1,79.3,47v-7.6h-5.9V47C73.6,59.9,62.8,70.5,50,70.5  c-12.8,0-23.6-10.6-23.5-23.5v-7.8h-5.9V47c-0.1,15.1,11.7,27.8,26.4,29.3V94H26.5v5.9h20.5h5.9h20.5V94L73.5,94z M67.6,41.2V17.7  C67.7,8.1,59.5,0.1,50,0.1c-9.6,0-17.7,8-17.6,17.6v23.5v5.9c-0.1,9.6,8,17.6,17.6,17.6c9.5,0,17.7-8,17.6-17.6V41.2L67.6,41.2z"></path>
</svg>