<svg xmlns="http://www.w3.org/2000/svg" viewBox="0 0 100 100"><path fill="#ffb901" d="M48.7 59.9c-.3.4-1 .4-1.4 0L22.6 38c-.4-.4-.5-1-.2-1.4l22.8-25.8c.3-.4 1-.4 1.4 0l24.7 21.8c.4.4.5 1 .2 1.4L48.7 59.9z"/><path fill="#bbdf67" d="M45.5 65.9c-.5.3-1.2.1-1.5-.5L24.3 33.7c-.4-.6-.2-1.3.3-1.6l33.1-20.6c.5-.3 1.2-.1 1.6.5L79 43.7c.4.6.2 1.3-.3 1.6L45.5 65.9z"/><path fill="#cc75cc" d="M39.5 65.9c-.6.2-1.2-.2-1.4-.8L26.6 29.6c-.2-.6.1-1.3.6-1.5l37.1-11.9c.6-.2 1.2.2 1.4.8l11.4 35.5c.2.6-.1 1.3-.6 1.5l-37 11.9z"/><path fill="#a44aa0" d="M24.3 59c0 .3-.3.6-.7.6H2.5c-.4 0-.7-.3-.7-.6V36.9c0-.3.3-.6.7-.6h21.1c.4 0 .7.3.7.6V59z"/><path fill="#fafaff" d="M21.6 56.6c0 .3-.4.6-.8.6H3.6c-.4 0-.8-.3-.8-.6V39.4c0-.3.4-.6.8-.6h17.2c.4 0 .8.3.8.6v17.2z"/><g fill="#fafaff"><path d="M3.2 38.8c0 .4-.3.7-.7.7-.4 0-.7-.3-.7-.7 0-.4.3-.7.7-.7.4.1.7.4.7.7zM3.2 41.5c0 .4-.3.7-.7.7-.4 0-.7-.3-.7-.7 0-.4.3-.7.7-.7.4 0 .7.3.7.7zM3.2 44.1c0 .4-.3.7-.7.7-.4 0-.7-.3-.7-.7 0-.4.3-.7.7-.7.4 0 .7.3.7.7zM3.2 46.7c0 .4-.3.7-.7.7-.4 0-.7-.3-.7-.7 0-.4.3-.7.7-.7.4 0 .7.3.7.7zM3.2 49.3c0 .4-.3.7-.7.7-.4 0-.7-.3-.7-.7 0-.4.3-.7.7-.7.4 0 .7.3.7.7zM3.1 51.9c0 .4-.3.7-.7.7-.4 0-.7-.3-.7-.7 0-.4.3-.7.7-.7.5.1.7.4.7.7zM3.1 54.5c0 .4-.3.7-.7.7-.4 0-.7-.3-.7-.7 0-.4.3-.7.7-.7.4.1.7.4.7.7zM3.1 57.2c0 .4-.3.7-.7.7-.4 0-.7-.3-.7-.7 0-.4.3-.7.7-.7.4 0 .7.3.7.7z"/></g><g fill="#1e2222"><path d="M2.8 38.8c0 .2-.2.4-.4.4H.9c-.2 0-.4-.2-.4-.4s.2-.4.4-.4h1.5c.2 0 .4.2.4.4zM2.8 41.5c0 .2-.2.4-.4.4H.9c-.2 0-.4-.2-.4-.4s.2-.4.4-.4h1.5c.2-.1.4.1.4.4zM2.8 44.1c0 .2-.2.4-.4.4H.9c-.2 0-.4-.2-.4-.4s.2-.4.4-.4h1.5c.2-.1.4.1.4.4zM2.8 46.7c0 .2-.2.4-.4.4H.9c-.2 0-.4-.2-.4-.4s.2-.4.4-.4h1.5c.2-.1.4.1.4.4zM2.8 49.3c0 .2-.2.4-.4.4H.9c-.2 0-.4-.2-.4-.4s.2-.4.4-.4h1.5c.2 0 .4.2.4.4zM2.8 51.9c0 .2-.2.4-.4.4H.9c-.2 0-.4-.2-.4-.4s.2-.4.4-.4h1.5c.2 0 .4.2.4.4zM2.8 54.5c0 .2-.2.4-.4.4H.9c-.2 0-.4-.2-.4-.4s.2-.4.4-.4h1.5c.2 0 .4.2.4.4zM2.8 57.2c0 .2-.2.4-.4.4H.9c-.2 0-.4-.2-.4-.4s.2-.4.4-.4h1.5c.2-.1.4.1.4.4z"/></g><path d="M8.8 46.6l.1-.2s-.1 0-.2.1c-.2.1-.4.1-.4.1-.1 0-.1 0-.1-.1s-.1-.1-.1-.2 0-.2.1-.3c0-.1.1-.2.1-.2.1-.1.5-.3 1.1-.6l.1-.1s.1 0 .1-.1c.4-.2.7-.3.8-.3.1 0 .2 0 .3.1.1.1.1.2.1.3 0 .2-.1.7-.3 1.3-.1.2-.1.3-.1.4 0 .1-.1.2-.1.4 0 .1 0 .1-.1.2-.1.4-.2.7-.3.9 0 0 0 .1-.1.2 0 .1-.1.2-.1.3 0 .1 0 .1-.1.2-.2.8-.4 1.4-.6 1.6 0 .1-.1.1-.2.2s-.3.2-.4.3c.1-.1 0-.1-.1 0-.1 0-.2 0-.3 0-.2 0-.3-.1-.5-.2-.1-.1-.2-.2-.2-.3 0 0 0-.1 0-.1.5-1.2 1-2.5 1.5-3.9zM13.5 45.9l-.4.6c.2-.1.4-.2.6-.2.2 0 .4-.1.5-.1.5 0 .8.1 1.1.3.3.2.4.5.4.9 0 .2 0 .4-.1.6-.1.2-.1.4-.2.6-.1.2-.2.4-.4.6-.2.2-.3.4-.6.6-.3.3-.6.6-1 .8-.3.2-.6.3-.9.3-.2 0-.4 0-.6-.1-.2-.1-.3-.2-.5-.3-.2-.2-.4-.6-.4-1 0-.6.2-1.1.5-1.4.2-.2.4-.3.6-.4.2-.1.4-.2.6-.2.2 0 .3 0 .3.1-.1.2-.2.3-.3.4-.1.1-.1.3-.2.5-.1.3-.2.7-.2 1.2 0 .3.1.5.2.5.2 0 .4-.1.6-.3.2-.2.4-.5.6-.9.2-.3.2-.6.2-.9 0-.3-.1-.6-.2-.7-.1-.2-.4-.2-.7-.2-.2 0-.4 0-.7.1-.2 0-.2 0-.3 0-.1 0-.2 0-.2-.1-.1-.1-.1-.1-.1-.2s0-.3.1-.5c.1-.5.3-.9.4-1.2v-.1s0-.1.1-.2c.1-.2.2-.4.3-.4.1-.1.2-.1.4-.1.6 0 1.1 0 1.4 0 .1 0 .1 0 .2 0h.1c.2 0 .4 0 .5.1.1 0 .1.1.1.1 0 .1 0 .1-.1.3-.1.1-.2.2-.3.3-.2.2-.4.3-.6.4.1.2-.1.3-.3.3-.1 0-.2 0-.4 0-.1-.1-.1-.1-.1-.1z"/><path fill="#c9bed1" d="M41.1 50.8l.1-.7-.1.1-.6.6-2.3 2.7L33 64.7l-.2.5-.2-.2-5 10.7h.1l-.3-.1c-.2-.1-.2-.3-.1-.6l4.3-9.3-.4-.2-4.6 9.7c-.1.2-.1.5.1.6l.5.2c-.3.7 0 1.5.7 1.8.7.3 1.6.1 1.9-.6l.2-.5L35 66l-.2-.1.2-.5 5.2-11.2.6-3.5.3.1z"/><path fill="#2b4f68" d="M84.2 66.9c0 .7-.6 1.3-1.3 1.3H21c-.7 0-1.3-.6-1.3-1.3v-40c0-.7.6-1.3 1.3-1.3h61.9c.7 0 1.3.6 1.3 1.3v40z"/><path fill="#ffdbbb" d="M21.6 27.2h61v39.1h-61z"/><path fill="#fff2e9" d="M78.9 66.3h-27s-8-1-13.1-1.1c-6-.1-13.7 1.1-13.7 1.1V27.2s5.7-.8 13.7-.8c8.6 0 13 .8 13 .8h27v39.1z"/><path fill="#682d21" d="M57.4 44.8s2.4-.2 4.8-.2c2.5 0 5.8.9 5.8.9l-.3.3s-4-.8-6-.8c-2.6.1-3.9.8-3.9.8l-.4-1z"/><path fill="#ed8707" d="M67.9 45.6s15.9-6.2 19.2-4.8c2.5 1.1 3 2.6 3.6 3.6 1.1 2.1 2.1 2.3 2.1 2.3s-1.9 1.1-2.7 2.4c-.8 1.4-2.8 3.3-6.2 2.6-3.4-.7-16-6.1-16-6.1z"/><path fill="#f6af22" d="M90.1 49.2c.8-1.4 2.7-2.5 2.7-2.5s-.1 0-.2 0l-24.8-1.3s12.6 5.7 16 6.4c3.5.7 5.5-1.2 6.3-2.6z"/><path fill="#f6a803" d="M67.9 45.4s2.3 2.8 7.4 4.5c3.9 1.4 8.2 2.8 9.3 5 1 2.2.5 3.5.3 4.5-.5 2.1.1 2.8.1 2.8s-2-.2-3.3.2c-1.3.4-3.9.5-5.7-1.9-1.9-2.5-8.1-15.1-8.1-15.1z"/><path fill="#f69624" d="M81.6 62.5c1.3-.4 3.3-.1 3.3-.1s0 0-.1-.1L67.9 45.4C73.3 56.5 73 55.7 75.6 60c1.3 2.1 3.9 3.2 6 2.5z"/><path fill="#df6409" d="M67.9 45.6s2.4-2.7 7.6-4.2c4-1.2 8.3-2.4 9.5-4.6 1.1-2.1.7-3.5.5-4.5-.4-2.1.2-2.8.2-2.8s-1.9.3-3.2-.2c-1.3-.5-3.8-.7-5.8 1.7-2 2.3-8.8 14.6-8.8 14.6z"/><path fill="#cc5605" d="M82.4 29.2c1.3.5 3.3.2 3.3.2s0 0-.1.1l-17.7 16c5.9-10.8 5.6-10 8.4-14.1 1.4-2 4-3 6.1-2.2z"/><path fill="#d1c018" d="M68.1 45.5s.1-2.8 2.3-6.3c1.7-2.7 3.6-5.6 3.2-7.5-.4-1.8-1.2-2.4-1.8-2.9-1.2-1-1.2-1.8-1.2-1.8s-.9 1.1-1.9 1.5c-1 .4-2.5 1.5-2.5 3.9 0 2.5 1.9 13.1 1.9 13.1z"/><path fill="#bfa90c" d="M68.6 28.6c1-.4 2-1.5 2-1.5s0 0 0 .1l-2.5 18.3c-1.7-9.4-1.6-8.7-1.9-12.6-.2-1.9.8-3.8 2.4-4.3z"/><path fill="#e07f12" d="M68 45.5s-.1 2.8 1.7 6.5c1.4 2.8 3 5.9 2.5 7.7-.5 1.8-1.5 2.3-2.1 2.8-1.3.9-1.3 1.7-1.3 1.7S68 63 67 62.5c-.9-.5-2.3-1.7-2.1-4.1.2-2.5 3.1-12.9 3.1-12.9z"/><path fill="#ca6d4a" d="M66.9 62.5c.9.5 1.8 1.7 1.8 1.7s0 0 0-.1L68 45.5c-2.6 9.2-2.4 8.6-3.1 12.4-.3 1.9.5 3.8 2 4.6z"/><path fill="#cbb61f" d="M68.1 45.6s-.4-1.5-.9-4.1c-.4-2-1-4-3.7-4.8-1.8-.5-3.3-1.3-3.3-1.3s.6 1 .8 2c.1.7.7 3.1 1.8 4.9.7 1.4 5.3 3.3 5.3 3.3z"/><path fill="#b59d0f" d="M61.3 38.6c-.2-.6-1.1-3.3-1.1-3.3l7.9 10.2c-2.9-1.4-2.9-1.4-4.8-2.7-1-.5-1.7-3-2-4.2z"/><path fill="#ba5d3a" d="M68.1 45.5s-.7 1.4-1.7 3.8c-.8 1.9-1.8 3.7-4.6 4-1.8.2-3.4.7-3.4.7s.8-.9 1.2-1.8c.2-.6 1.3-2.9 2.7-4.5 1-1.2 5.8-2.2 5.8-2.2z"/><path fill="#a84633" d="M60.1 51c-.3.6-1.7 3-1.7 3l9.7-8.5c-3.1.8-3.1.8-5.2 1.7-1.2.4-2.3 2.7-2.8 3.8z"/><path fill="#c14f03" d="M68.3 45.5s.1 0 .2 0c.2 0 .4 0 .7 0 .3 0 .6 0 1.1 0 .4 0 .9 0 1.4 0 .3 0 .5 0 .8 0 .3 0 .6 0 .8 0 .6 0 1.2 0 1.8.1.3 0 .6 0 1 0 .3 0 .6 0 1 0 .7 0 1.3.1 2 .1s1.3.1 2 .1c.2 0 .3 0 .5 0s.3 0 .5 0c.3 0 .6 0 1 .1.6 0 1.2.1 1.8.1.3 0 .6 0 .8.1.3 0 .5 0 .8.1.5 0 1 .1 1.4.1.4 0 .8.1 1.1.1.3 0 .5 0 .7.1.1 0 .1 0 .2 0 0 0-.1 0-.2 0-.2 0-.4 0-.7 0-.6 0-1.4-.1-2.4-.1-.3 0-.5 0-.8 0-.3 0-.6 0-.8 0-.6 0-1.2 0-1.8-.1-.3 0-.6 0-1 0-.2 0-.3 0-.5 0s-.3 0-.5 0c-.7 0-1.3-.1-2-.1s-1.3-.1-2-.1c-.3 0-.7 0-1-.1-.3 0-.6 0-1-.1-.6 0-1.2-.1-1.8-.1-.3 0-.6 0-.8 0-.3 0-.5 0-.8 0-.5 0-1-.1-1.4-.1-.4 0-.8-.1-1.1-.1-.3 0-.5 0-.7 0-.2-.1-.3-.1-.3-.1z"/><path fill="#c14f03" d="M75.6 46c0 .1 0 .1 0 .2s0 .1.1.2c0 .1.1.2.1.2 0 .1.1.2.1.3 0 0 .1.1.1.1s.1.1.1.2c0 0 0 .1 0 .1s0 .1.1.1c0 .1.1.1.1.2 0 0 .1.1.1.1s0 0 .1.1c0 0 0 0 .1.1 0 0 .1.1.1.1s0 0 .1.1c0 0 0 0 .1.1 0 0 0 0 .1.1 0 0 0 0 .1.1 0 0 .1.1.1.1s0 0 .1.1c0 0 0 0 .1 0 0 0 0 0 .1 0 0 0 0 0 .1 0 .1.1.2.1.3.1 0 0 .1 0 .1.1 0 0 0 0 .1 0 0 0 0 0 .1 0 0 0 .1 0 .1 0 .1 0 .2.1.2.1s-.1 0-.2 0c0 0-.1 0-.1 0s0 0-.1 0c0 0 0 0-.1 0 0 0-.1 0-.1-.1-.1 0-.2-.1-.3-.1 0 0 0 0-.1 0 0 0 0 0-.1 0 0 0-.1 0-.1 0s-.1 0-.1 0c-.1 0-.1-.1-.2-.1 0 0-.1 0-.1-.1 0 0 0 0-.1-.1 0 0 0 0-.1-.1 0 0 0 0-.1-.1 0 0-.1-.1-.1-.1s0 0-.1-.1c0 0 0 0-.1-.1 0 0-.1-.1-.1-.1s-.1-.1-.1-.1 0 0-.1-.1c0 0 0-.1-.1-.1 0 0-.1-.1-.1-.2s-.1-.1-.1-.1c-.1-.1-.1-.2-.1-.3 0-.1-.1-.2-.1-.2 0-.1-.1-.1-.1-.2s0-.1 0-.1l.2-.4zM78.2 45.9s0 .1 0 0c0 .1 0 .2 0 .2 0 .1 0 .2 0 .3 0 .1.1.2.1.3 0 .1.1.3.2.4 0 0 0 .1.1.1 0 0 0 .1.1.1 0 0 0 0 0 .1 0 0 0 0 0 .1 0 0 0 .1.1.1.1.1.2.3.3.4 0 0 .1.1.1.1s.1.1.1.1l.1.1s.1.1.1.1.1.1.1.1c.1.1.1.1.2.2s.1.1.2.2c0 0 .1 0 .1.1 0 0 .1 0 .1.1.1 0 .1.1.2.1s.1.1.2.1.1.1.2.1.1.1.2.1c0 0 .1 0 .1 0s.1 0 .1 0c.1 0 .1.1.2.1 0 0 .1 0 .1.1 0 0 .1 0 .1.1.1.1.2.1.2.1s-.1 0-.2-.1c0 0-.1 0-.1 0s-.1 0-.1-.1c0 0-.1 0-.2-.1 0 0-.1 0-.1 0s-.1 0-.1 0c-.1 0-.1-.1-.2-.1s-.1-.1-.2-.1-.1-.1-.2-.1-.1-.1-.2-.1c0 0-.1 0-.1-.1 0 0-.1 0-.1-.1-.1 0-.1-.1-.2-.1-.1-.1-.1-.1-.2-.2 0 0-.1-.1-.1-.1s-.1-.1-.1-.1l-.1-.1s-.1-.1-.1-.1-.1-.1-.1-.1c-.1-.1-.2-.3-.3-.4 0 0 0-.1-.1-.1 0 0 0 0 0-.1 0 0 0 0 0-.1 0 0 0-.1-.1-.1 0 0 0-.1-.1-.1-.1-.1-.1-.3-.2-.4-.1-.1-.1-.2-.1-.4 0-.1 0-.2-.1-.3 0-.1 0-.1 0-.2 0 0 0-.1 0-.1h.1zM80.8 46.2c0 .1 0 .2.1.3 0 .1.1.2.1.3.1.1.1.2.2.4.1.1.2.3.3.4.1.1.2.3.4.4.1.1.1.1.2.2 0 0 .1.1.1.1s.1.1.1.1c.2.1.3.3.5.4l.1.1s.1.1.1.1.1.1.1.1.1.1.1.1.1.1.1.1.1.1.1.1.1.1.1.1.1 0 .1.1c.2.1.4.2.5.2.2.1.3.1.5.2.1 0 .1.1.2.1s.1 0 .2.1c.1 0 .1 0 .2.1.1 0 .1 0 .1 0 .2.1.3.1.3.1s-.1 0-.3-.1c0 0-.1 0-.2 0s-.1 0-.2-.1c-.1 0-.1 0-.2-.1-.1 0-.1 0-.2-.1-.2 0-.3-.1-.5-.2s-.4-.1-.5-.2c0 0-.1 0-.1-.1 0 0-.1 0-.1-.1 0 0-.1 0-.1-.1 0 0-.1-.1-.1-.1s-.1-.1-.1-.1-.1-.1-.1-.1-.1-.1-.1-.1l-.1.1c-.2-.1-.3-.3-.5-.4 0 0-.1-.1-.1-.1s-.1-.1-.1-.1c-.1-.1-.2-.1-.2-.2-.1-.1-.3-.3-.4-.4-.1-.1-.2-.3-.3-.4-.1-.1-.2-.3-.2-.4-.1-.1-.1-.2-.1-.3 0-.1-.1-.2-.1-.2s0 0 0-.1l.1-.2zM83.2 46.1s0 .1 0 0c.1.1.1.1.1.2.1.1.2.3.4.5.1.1.2.2.3.3.1.1.2.2.4.3.1.1.3.2.4.3.1.1.3.2.5.3l.1.1s.1 0 .1.1c0 0 .1 0 .1.1 0 0 .1 0 .1.1.1 0 .2.1.2.1.1 0 .2.1.2.1.1 0 .2.1.2.1s.1 0 .1 0 .1 0 .1 0c.1.1.3.1.4.2.1 0 .1 0 .2.1 0 0 .1 0 .1 0s.1 0 .1 0c.1 0 .1 0 .2 0 0 0 0 0 .1 0 0 0 0 0 .1 0 .2 0 .3.1.3.1s-.1 0-.3-.1c0 0 0 0-.1 0 0 0 0 0-.1 0 0 0-.1 0-.2 0 0 0-.1 0-.1 0s-.1 0-.1 0c-.1 0-.1 0-.2-.1-.1 0-.3-.1-.4-.1 0 0-.1 0-.1 0s-.1 0-.1 0c-.1 0-.2-.1-.2-.1-.1 0-.2-.1-.2-.1-.1 0-.2-.1-.2-.1s-.1 0-.1-.1c0 0-.1 0-.1-.1 0 0-.1 0-.1-.1l-.1-.1c-.2-.1-.3-.2-.5-.3-.2-.1-.3-.2-.4-.3-.1-.1-.3-.2-.4-.3-.1-.1-.2-.2-.3-.3-.2-.2-.4-.4-.5-.5-.1-.1-.1-.1-.1-.2l.1-.1zM85.8 46.3s0 .1 0 0c0 .1.1.1.1.1s.1.1.1.1c.1.1.1.1.2.2 0 0 .1.1.1.1s.1.1.1.1c.1.1.2.1.3.2 0 0 .1.1.1.1s.1 0 .1 0 .1 0 .1 0c.1.1.2.1.3.2.1 0 .1.1.2.1s.1 0 .2.1c.1 0 .1 0 .2.1.1 0 .1 0 .2.1.1 0 .1 0 .2 0s.1 0 .2 0 .1 0 .2 0c0 0 .1 0 .1 0 .1 0 .2 0 .3 0 .1 0 .1 0 .2 0s.2 0 .2 0-.1 0-.2 0-.1 0-.2 0-.2 0-.3 0c0 0-.1 0-.1 0-.1 0-.1 0-.2 0s-.1 0-.2 0-.1 0-.2 0-.1 0-.2 0-.1 0-.2-.1c-.1 0-.1 0-.2-.1-.1 0-.1 0-.2-.1-.1 0-.2-.1-.3-.2 0 0-.1 0-.1 0s-.1 0-.1 0c-.1 0-.1-.1-.2-.1-.1-.1-.2-.1-.3-.2 0 0-.1-.1-.1-.1s-.1-.1-.1-.1c-.1-.1-.1-.1-.2-.2s-.1-.1-.1-.1-.1-.1-.1-.1l.1-.1zM72.9 45.9c0 .1 0 .2 0 .2s0 .1 0 .1c0 .1 0 .1.1.2 0 .1.1.1.1.2 0 0 0 .1.1.1 0 0 0 .1.1.1 0 0 0 .1.1.1 0 0 .1.1.1.1s.1.1.1.1.1 0 .1.1c0 0 .1 0 .1.1 0 0 .1 0 .1.1 0 0 .1 0 .1.1 0 0 .1 0 .1 0s.1 0 .1 0c.1 0 .1 0 .1.1 0 0 .1 0 .1 0 .1 0 .1 0 .1 0s0 0-.1 0c0 0-.1 0-.1 0s-.1 0-.2-.1c0 0-.1 0-.1 0s-.1 0-.1 0-.1 0-.1 0-.1 0-.1-.1c0 0-.1 0-.1-.1 0 0-.1 0-.1-.1 0 0-.1 0-.1-.1 0 0-.1-.1-.1-.1s-.1-.1-.1-.1 0-.1-.1-.1c0 0 0-.1-.1-.1 0-.1-.1-.1-.1-.2s-.1-.1-.1-.2 0-.1 0-.2c0 0 0-.1 0-.1s0-.1 0-.1h.1zM74.8 45.8s0-.1 0 0c0-.1.1-.1.1-.2s.1-.1.1-.2.1-.2.1-.2c.1-.1.1-.2.2-.3 0 0 .1-.1.1-.2s.1-.1.1-.2.1-.1.1-.2.1-.1.1-.2.1-.1.1-.2c0 0 0-.1.1-.1l.1-.1s.1-.1.2-.1.1-.1.2-.1.1-.1.2-.1.1-.1.2-.1.1-.1.2-.1.1-.1.2-.1.1-.1.2-.1c0 0 .1-.1.1-.1s0 0 .1 0c0 0 0 0 .1 0 0 0 .1 0 .1-.1.1 0 .1-.1.2-.1s.2-.1.2-.1-.1 0-.2.1c-.1 0-.1.1-.2.1 0 0-.1 0-.1.1 0 0 0 0-.1 0 0 0 0 0-.1 0 0 0-.1 0-.1.1s-.1.1-.1.1-.1.1-.1.1-.1.1-.2.1-.1.1-.2.1c0 0-.1.1-.1.1s-.1.1-.1.1-.1.1-.1.1l-.1.1s0 .1-.1.1c0 .1-.1.1-.1.2s-.1.1-.1.2-.1.1-.1.2-.1.1-.1.2-.1.1-.1.2c-.1.1-.1.2-.2.3 0 .1-.1.2-.1.2 0 .1-.1.1-.1.2s0 .1-.1.1l-.5.1zM77.5 45.9c0-.1.1-.2.1-.3 0-.1.1-.2.1-.3.1-.1.1-.2.2-.4 0 0 0-.1.1-.1 0 0 0-.1.1-.1 0 0 0-.1.1-.1 0 0 0-.1.1-.1 0-.1.1-.1.2-.2 0 0 .1-.1.1-.1s.1-.1.1-.1.1-.1.1-.1.1-.1.1-.1c.1-.1.1-.1.2-.2 0 0 .1-.1.1-.1s.1-.1.1-.1.1-.1.1-.1.1-.1.1-.1c.1-.1.2-.1.2-.2 0 0 .1-.1.1-.1s.1-.1.1-.1.1-.1.1-.1.1-.1.1-.1.1-.1.1-.1.1 0 .1-.1c0 0 .1 0 .1-.1 0 0 .1 0 .1-.1 0 0 .1 0 .1-.1 0 0 .1 0 .1-.1 0 0 .1 0 .1-.1 0 0 0 0 .1 0 0 0 0 0 .1 0s.1-.1.2-.1.1 0 .2-.1c0 0 .1 0 .1 0s.1 0 .1 0c.1 0 .1 0 .2 0 0 0 0 0 .1 0 0 0 0 0 .1 0 .2 0 .3-.1.3-.1s-.1 0-.3.1c0 0 0 0-.1 0 0 0 0 0-.1 0 0 0-.1 0-.2.1 0 0-.1 0-.1 0s-.1 0-.1 0c-.1 0-.1 0-.2.1-.1 0-.1.1-.2.1 0 0 0 0-.1 0 0 0 0 0-.1 0 0 0-.1 0-.1.1 0 0-.1 0-.1.1 0 0-.1 0-.1.1 0 0-.1 0-.1.1 0 0-.1 0-.1.1 0 0-.1 0-.1.1 0 0-.1.1-.1.1s-.1.1-.1.1-.1.1-.1.1-.1.1-.1.1-.1.1-.1.1c-.1.1-.1.1-.2.2 0 0-.1.1-.1.1s-.1.1-.1.1-.1.1-.1.1-.1.1-.1.1c-.1.1-.1.1-.2.2 0 0-.1.1-.1.1s-.1.1-.1.1-.1.1-.1.1-.1.1-.1.1c0 .1-.1.1-.1.2 0 0 0 .1-.1.1 0 0 0 .1-.1.1 0 0 0 .1-.1.1 0 0 0 .1-.1.1-.1.1-.1.2-.2.4-.1.1-.1.2-.1.3 0 .1-.1.1-.1.2h-.1zM80.2 46.1s0-.1 0 0c0-.1 0-.1 0 0 .1-.1.1-.2.1-.3 0-.1.1-.2.2-.3.1-.1.2-.2.3-.4 0 0 .1-.1.1-.1s.1-.1.1-.1.1-.1.1-.1.1-.1.1-.1 0 0 0-.1c0 0 0 0 .1-.1 0 0 .1-.1.1-.1s.1-.1.1-.1 0 0 .1-.1c0 0 0 0 .1-.1 0 0 .1-.1.1-.1s.1-.1.1-.1 0 0 .1-.1c0 0 0 0 .1-.1 0 0 .1-.1.1-.1s.1-.1.1-.1.1-.1.1-.1.1-.1.1-.1h.1s0 0 .1 0c.1-.1.2-.1.3-.2.1-.1.2-.1.3-.2.1-.1.2-.1.3-.1.1 0 .2-.1.3-.1 0 0 .1 0 .1-.1 0 0 .1 0 .1-.1.1 0 .2-.1.3-.1.1 0 .2-.1.3-.1 0 0 .1 0 .1 0s.1 0 .1 0c.1 0 .2 0 .2-.1.1 0 .1 0 .2-.1.1 0 .1 0 .2 0s.1 0 .2 0c.2 0 .3-.1.3-.1s-.1 0-.3.1c0 0-.1 0-.2 0s-.1 0-.2.1c-.1 0-.1 0-.2.1-.1 0-.1 0-.2.1 0 0-.1 0-.1 0s-.1 0-.1 0c-.1 0-.2.1-.3.1-.1 0-.2.1-.3.1 0 0-.1 0-.1.1 0 0-.1 0-.1.1-.1 0-.2.1-.3.1-.1 0-.2.1-.3.2-.1.1-.2.1-.3.2-.1.1-.2.1-.3.2 0 0 0 0-.1 0h-.1s-.1.1-.1.1-.1.1-.1.1-.1.1-.1.1-.1.1-.1.1 0 0-.1.1c0 0 0 0-.1.1 0 0-.1.1-.1.1s-.1.1-.1.1 0 0-.1.1c0 0 0 0-.1.1 0 0-.1.1-.1.1s-.1.1-.1.1 0 0 0 .1c0 0 0 0 0 .1 0 0-.1.1-.1.1s-.1.1-.1.1-.1.1-.1.1-.1.1-.1.1c-.1.1-.2.3-.2.4-.1.1-.1.2-.2.3 0 .1-.1.2-.1.2s0 0 0 .1l-.2-.2zM82.7 46.2s.1 0 0 0c.1 0 .1 0 0 0 .1-.1.1-.1.1-.2.1-.1.2-.3.4-.5.1-.1.2-.2.3-.3.1-.1.2-.2.3-.3.1-.1.2-.2.4-.3.1-.1.3-.2.4-.3.1 0 .1-.1.2-.1 0 0 .1 0 .1-.1 0 0 .1 0 .1-.1.1-.1.3-.1.4-.2.1-.1.3-.1.4-.2.1 0 .1 0 .2-.1.1 0 .1 0 .2 0 0 0 .1 0 .1 0s.1 0 .1 0 .1 0 .1 0 .1 0 .1 0c.1 0 .2 0 .2 0s-.1 0-.2 0c0 0-.1 0-.1 0s-.1 0-.1 0 0 0-.1 0c0 0-.1 0-.1 0-.1 0-.1 0-.2.1-.1 0-.1 0-.2.1-.1 0-.3.1-.4.2-.1.1-.3.1-.4.2 0 0-.1 0-.1.1 0 0-.1 0-.1.1-.1 0-.1.1-.2.1-.1.1-.3.2-.4.3-.1.1-.2.2-.3.3-.1.1-.2.2-.3.3-.1.1-.2.2-.2.3-.1.2-.3.3-.3.5 0 .1-.1.1-.1.1h-.3zM85.2 46.3c.1-.1.1-.1.1-.1s.1-.1.1-.1c.1-.1.1-.1.2-.2s.2-.1.2-.2c.1-.1.2-.1.3-.2 0 0 .1-.1.2-.1s.1-.1.2-.1.1-.1.2-.1c0 0 .1 0 .1 0h.1c0-.2.1-.2.1-.2.1 0 .1 0 .2-.1.1 0 .1 0 .2-.1.1 0 .1 0 .2-.1.1 0 .1 0 .2 0s.1 0 .2 0 .1 0 .2 0 .1 0 .1 0 .1 0 .1 0 .1 0 .1 0c.1 0 .1 0 .2 0s.2 0 .2 0-.1 0-.2 0-.1 0-.2 0c0 0-.1 0-.1 0s-.1 0-.1 0-.1 0-.1 0-.1 0-.2 0-.1 0-.2 0-.1 0-.2.1c-.1 0-.1 0-.2.1-.1 0-.1 0-.2.1-.1 0-.1.1-.2.1s-.1.1-.2.1h-.1s-.1 0-.1 0c-.1 0-.1.1-.2.1s-.1.1-.2.1c0 0-.1.1-.1.1-.1.1-.2.1-.3.2-.1.1-.2.1-.2.2-.1.1-.1.1-.2.2s-.1.1-.1.1-.1.1-.1.1zM71.9 45.7s0-.1 0 0c0-.1.1-.1.1-.1 0-.1.1-.2.2-.3 0-.1.1-.1.2-.2s.1-.1.2-.2c0 0 0 0 .1-.1 0 0 0 0 .1-.1 0 0 .1-.1.1-.1s.1-.1.1-.1.1-.1.1-.1.1-.1.1-.1 0 0 .1 0c0 0 0 0 .1 0 0 0 .1-.1.1-.1s.1-.1.1-.1c.1 0 .2-.1.2-.1s.1 0 .1-.1c0 0 0 0 .1 0 0 0 0 0 .1 0s.1 0 .2-.1c.1 0 .1 0 .2 0s.1 0 .1 0-.1 0-.1 0-.1 0-.2 0-.1 0-.2.1c0 0 0 0-.1 0 0 0 0 0-.1 0 0 0-.1 0-.1.1-.1 0-.2.1-.2.1s-.1.1-.1.1-.1.1-.1.1 0 0-.1 0c0 0 0 0-.1 0 0 0-.1.1-.1.1s-.1.1-.1.1-.1.1-.1.1-.1.1-.1.1 0 0 0 .1c0 0 0 0 0 .1-.1.1-.1.1-.2.2s-.1.1-.1.2c-.1.1-.1.2-.2.3 0 0 0 .1 0 .1h-.4zM68.1 46s.1.1.2.2.3.3.5.5.5.4.8.7c.3.3.6.6 1 .9.2.2.4.4.6.5.2.2.4.4.6.6.4.4.9.8 1.3 1.3.2.2.5.4.7.7.2.2.5.5.7.7.5.5 1 .9 1.4 1.4.5.5 1 .9 1.4 1.4.1.1.2.2.4.3.1.1.2.2.3.3.2.2.5.5.7.7.4.4.9.9 1.3 1.3.2.2.4.4.6.6.2.2.4.4.5.6.4.4.7.7 1 1 .3.3.5.5.7.8.2.2.4.4.5.5.1.1.1.1.1.1s-.1-.1-.1-.1c-.1-.1-.3-.3-.5-.5-.4-.4-1-1-1.8-1.7-.2-.2-.4-.4-.6-.5-.2-.2-.4-.4-.6-.6-.4-.4-.9-.8-1.3-1.3-.2-.2-.5-.4-.7-.7-.1-.1-.2-.2-.3-.3-.1-.1-.2-.2-.4-.3-.5-.5-1-.9-1.4-1.4-.5-.5-1-.9-1.4-1.4-.2-.2-.5-.5-.7-.7-.2-.2-.5-.5-.7-.7-.4-.4-.9-.9-1.3-1.3-.2-.2-.4-.4-.6-.6-.2-.2-.4-.4-.6-.6-.4-.4-.7-.7-1-1-.3-.3-.5-.5-.7-.8-.2-.2-.4-.4-.5-.5-.1-.1-.1-.1-.1-.1z"/><path fill="#c14f03" d="M73.6 51.3c0 .1-.1.1-.1.1 0 .1-.1.2-.2.4 0 .1-.1.2-.1.3 0 .1 0 .2-.1.3 0 .1 0 .1 0 .2 0 0 0 .1 0 .1s0 .1 0 .1 0 .1 0 .1 0 .1 0 .1c0 .1 0 .1 0 .2s0 .1 0 .2c0 0 0 .1 0 .1s0 .1 0 .1 0 .1 0 .1 0 .1 0 .1 0 .1 0 .1 0 .1 0 .1 0 .1 0 .1 0 .1 0 .1 0 .1 0 .1 0 .1 0 .1c0 .1.1.2.1.3 0 0 0 .1.1.1 0 0 0 0 0 .1 0 0 0 0 0 .1 0 0 0 .1.1.1.1.1.1.1.1.1s0-.1-.1-.1c0 0 0-.1-.1-.1 0 0 0 0 0-.1 0 0 0 0 0-.1 0 0 0-.1-.1-.1 0-.1-.1-.2-.1-.3 0 0 0-.1 0-.1s0-.1 0-.1 0-.1 0-.1 0-.1 0-.1 0-.1 0-.1 0-.1 0-.1 0-.1 0-.1 0-.1 0-.1 0-.1 0-.1 0-.1 0-.1c0-.1 0-.1 0-.2s0-.1 0-.2c0 0 0-.1 0-.1s0-.1 0-.1 0-.1 0-.1 0-.1 0-.1c0-.1 0-.1 0-.2s0-.2.1-.3c0-.1 0-.2.1-.3.1-.2.1-.3.2-.4 0-.1 0-.1.1-.1zM75.4 53.2c-.1.1-.1.1-.1.2s-.1.1-.1.2-.1.2-.1.3c0 0 0 .1 0 .1s0 .1 0 .1c0 .1 0 .1 0 .2s0 .1 0 .2c0 0 0 .1 0 .1s0 .1 0 .1 0 .1 0 .1 0 .1 0 .1c0 .1 0 .2 0 .2s0 .1 0 .1 0 .1 0 .1c0 .1 0 .2 0 .2 0 .1 0 .2 0 .2 0 .1 0 .2.1.2 0 .1 0 .2.1.2 0 .1 0 .2.1.2 0 .1 0 .1.1.2 0 0 0 .1 0 .1s0 .1 0 .1c0 .1.1.1.1.2s.1.1.1.2.1.2.1.3c0 0 0 .1.1.1 0 0 0 .1.1.1.1.1.1.2.1.2s0-.1-.1-.2c0 0 0-.1-.1-.1 0 0 0-.1-.1-.1 0-.1-.1-.2-.1-.3 0-.1-.1-.1-.1-.2s-.1-.1-.1-.2c0 0 0-.1 0-.1s0-.1 0-.1c0-.1-.1-.1-.1-.2s-.1-.1-.1-.2 0-.2-.1-.2c0-.1 0-.2-.1-.2 0-.1 0-.2-.1-.2 0-.1 0-.2 0-.2s0-.1 0-.1 0-.1 0-.1c0-.1 0-.2 0-.2s0-.1 0-.1 0-.1 0-.1 0-.1 0-.1 0-.1 0-.1c0-.1 0-.1 0-.2s0-.1 0-.2c0 0 0-.1 0-.1s0-.1 0-.1c0-.1.1-.2.1-.3 0-.1.1-.2.1-.2 0-.1.1-.1.1-.1s0-.1 0-.1h.1zM77.1 55c0 .1-.1.2-.1.3 0 .1-.1.2-.1.3 0 .1 0 .1 0 .2s0 .1 0 .2 0 .2 0 .2 0 .1 0 .1 0 0 0 .1c0 0 0 0 0 .1 0 .2 0 .4 0 .6 0 0 0 .1 0 .1s0 .1 0 .1 0 .1 0 .1c0 .1 0 .1 0 .2s0 .1 0 .2c0 .2.1.4.1.6 0 .1 0 .1 0 .2s0 .1 0 .2.1.2.1.3c0 .1 0 .1 0 .1s0 .1 0 .1 0 0 0 .1c0 0 0 0 0 .1 0 0 0 .1 0 .1s0 .1 0 .1 0 .1.1.1c0 .1.1.2.1.3 0 .1.1.2.1.2 0 .1.1.2.1.2 0 .1.1.1.1.2s.1.1.1.2c.3 0 .3.1.3.1s0 .1.1.1c.1.2.1.3.1.3s-.1-.1-.1-.3c0 0 0-.1-.1-.1 0 0-.1-.1-.1-.2s-.1-.1-.1-.2-.1-.1-.1-.2-.1-.1-.1-.2-.1-.2-.1-.2c0-.1-.1-.2-.1-.3 0 0 0-.1-.1-.1 0 0 0-.1-.1-.1 0 0 0-.1-.1-.1 0 0 0 0 0-.1 0 0 0 0 0-.1 0 0 0-.1 0-.1s0-.1 0-.1c0-.1-.1-.2-.1-.3 0-.1 0-.1 0-.2s0-.1 0-.2c0-.2-.1-.4-.1-.6 0-.1 0-.1 0-.2s0-.1 0-.2c0 0 0-.1 0-.1s0-.1 0-.1c0-.1 0-.1 0-.2 0-.2 0-.4 0-.6 0 0 0 0 0-.1 0 0 0 0 0-.1 0 0 0-.1 0-.1 0-.1 0-.2 0-.2 0-.1 0-.2 0-.2 0-.1 0-.1 0-.2s.1-.2.1-.3c0-.1.1-.2.1-.2s0 0 0-.1v.2zM78.9 56.5c0 .1 0 .2-.1.2 0 .1-.1.4-.1.6 0 .1 0 .3 0 .4 0 .1 0 .3 0 .5 0 .1 0 .2 0 .2s0 .1 0 .1 0 .1 0 .1 0 .1 0 .1 0 0 0 .1v.1s0 .1 0 .1 0 .1 0 .1 0 .1 0 .1 0 .1 0 .1c0 .1 0 .2.1.2.1.2.1.3.2.5 0 0 0 0 0 .1 0 0 0 0 0 .1 0 0 0 .1 0 .1 0 .1.1.1.1.2 0 0 0 .1 0 .1s0 .1.1.1c0 .1.1.1.1.2s.1.1.1.2c0 0 0 .1 0 .1s0 0 0 .1c0 0 .1.1.1.1s0 0 0 .1c.1.1.1.2.1.2s-.1-.1-.1-.2c0 0 0 0 0-.1 0 0-.1-.1-.1-.1s0 0 0-.1c0 0 0 0 0-.1s-.1-.1-.1-.2-.1-.1-.1-.2c0 0 0-.1-.1-.1 0 0 0-.1-.1-.1 0-.1-.1-.1-.1-.2 0 0 0-.1-.1-.1 0 0 0 0 0-.1 0 0 0 0 0-.1-.1-.2-.1-.3-.2-.5 0-.1-.1-.2-.1-.2s0-.1 0-.1 0-.1 0-.1 0-.1 0-.1 0-.1 0-.1v-.1s0 0 0-.1c0 0 0-.1 0-.1s0-.1 0-.1 0-.1 0-.1c0-.1 0-.2 0-.3 0-.2 0-.3 0-.5s0-.3 0-.4c0-.3.1-.5.1-.6 0-.1 0-.1 0-.2l.3.1zM80.6 58.3c0 .1 0 .1 0 .2s0 .2 0 .4c0 .1 0 .2.1.3 0 0 0 .1 0 .2s0 .1 0 .2 0 .1.1.2c0 .1 0 .1.1.2 0 .1 0 .1.1.2 0 .1 0 .1.1.2 0 .1.1.1.1.2s.1.1.1.2c.1.1.1.2.2.3 0 0 .1.1.1.1s.1.1.1.1.1.1.1.1.1.1.1.1.1.1.1.1.1.1.1.1c0 .1.1.1.1.1.1.1.1.1.1.1s0 0-.1-.1c0 0-.1-.1-.1-.1s-.1-.1-.1-.1-.1-.1-.1-.1-.1-.1-.1-.1-.1-.1-.1-.1-.1-.1-.1-.1-.1-.1-.1-.1c-.1-.1-.1-.2-.2-.3 0 0-.1-.1-.1-.2s-.1-.1-.1-.2-.1-.1-.1-.2-.1-.1-.1-.2 0-.1-.1-.2c0-.1 0-.1-.1-.2 0-.1 0-.1-.1-.2 0-.1 0-.1 0-.2s0-.2-.1-.3c0-.2 0-.3-.1-.4 0-.1 0-.1 0-.1l.2-.1zM73 50.8c.1 0 .1 0 0 0 .1 0 .1-.1.2-.1s.3-.1.6-.1c.1 0 .2 0 .4-.1.1 0 .1 0 .2 0 0 0 .1 0 .1 0s.1 0 .1 0c.1 0 .1 0 .2 0s.2 0 .2 0c.1 0 .2 0 .2 0s.1 0 .1 0 .1 0 .1 0 .1 0 .1 0 .1 0 .1 0c.1 0 .2 0 .2 0 .2 0 .3.1.4.1 0 0 0 0 .1 0 0 0 0 0 .1 0 0 0 .1 0 .1 0 .1 0 .1 0 .2.1 0 0 .1 0 .1 0s.1 0 .1 0c.1 0 .1 0 .2.1.1 0 .1 0 .2.1 0 0 0 0 .1 0 0 0 0 0 .1 0 0 0 .1 0 .1.1 0 0 0 0 .1 0 .1.1.2.1.2.1s-.1 0-.2-.1c0 0 0 0-.1 0 0 0-.1 0-.1-.1 0 0 0 0-.1 0 0 0 0 0-.1 0s-.1 0-.2-.1c-.1 0-.1 0-.2-.1 0 0-.1 0-.1 0s-.1 0-.1 0c-.1 0-.1 0-.2-.1 0 0-.1 0-.1 0s0 0-.1 0c0 0 0 0-.1 0s-.3-.1-.4-.1c-.1 0-.2 0-.2 0s-.1 0-.1 0-.1 0-.1 0-.1 0-.1 0-.1 0-.1 0c-.1 0-.2 0-.2 0-.1 0-.2 0-.2 0-.1 0-.1 0-.2 0 0 0-.1 0-.1 0s-.1 0-.1 0c-.1 0-.1 0-.2 0s-.3 0-.4.1c-.2 0-.4.1-.5.1-.1 0-.1 0-.1.1H73zM74.9 52.7c.1-.1.2-.1.2-.1.1 0 .2-.1.3-.1.1 0 .2-.1.4-.1.1 0 .3-.1.4-.1.2 0 .3-.1.5-.1s.4 0 .5 0c.2 0 .4 0 .6 0h.1s.1 0 .1 0c.1 0 .2 0 .3 0 .2 0 .4.1.5.1 0 0 0 0 .1 0s0 0 .1 0c0 0 .1 0 .1 0s.1 0 .1 0 .1 0 .1 0 .1 0 .1 0 .1 0 .1 0c.1 0 .1.1.2.1s.1.1.2.1c0 0 .1 0 .1 0s.1 0 .1 0c.1 0 .1 0 .1.1 0 0 0 0 .1 0 0 0 0 0 .1 0 .1.1.2.1.2.1s-.1 0-.2-.1c0 0 0 0-.1 0 0 0 0 0-.1 0 0 0-.1 0-.1-.1 0 0-.1 0-.1 0s-.1 0-.1 0c-.1 0-.1 0-.2-.1-.1 0-.1 0-.2-.1 0 0-.1 0-.1 0s-.1 0-.1 0-.1 0-.1 0-.1 0-.1 0-.1 0-.1 0 0 0-.1 0c0 0 0 0-.1 0-.2 0-.3-.1-.5-.1-.1 0-.2 0-.3 0 0 0-.1 0-.1 0h-.1c-.2 0-.4 0-.5 0-.2 0-.4 0-.5.1-.2 0-.3.1-.5.1s-.3.1-.4.1c-.1 0-.2.1-.4.1-.1 0-.2.1-.3.1-.1 0-.1.1-.2.1l-.1-.1zM76.8 54.5c.1-.1.2-.1.3-.1.1 0 .2-.1.3-.1.1 0 .3-.1.4-.1.2 0 .3 0 .5-.1.2 0 .4 0 .6 0 .1 0 .2 0 .3 0 .1 0 .1 0 .2 0s.1 0 .2 0 .1 0 .2 0h.2c.1 0 .1 0 .2 0s.1 0 .2 0h.2c.1 0 .1 0 .2 0s.1 0 .2 0c0 0 .1 0 .1 0s.1 0 .1 0 .1 0 .1 0 .1 0 .1 0 .1 0 .1.1c.2.1.4.1.5.2.2.1.3.1.5.2.1 0 .1.1.2.1s.1.1.2.1.1.1.2.1c0 0 .1.1.1.1.2.1.2.1.2.1s-.1 0-.3-.1c0 0-.1 0-.1-.1 0 0-.1-.1-.2-.1s-.1-.1-.2-.1-.1-.1-.2-.1c-.1-.1-.3-.1-.5-.2s-.3-.1-.5-.2c0 0-.1 0-.1 0s-.1 0-.1 0-.1 0-.1 0-.1 0-.1 0-.1 0-.1 0c-.1 0-.1 0-.2 0s-.1 0-.2 0h-.2c-.1 0-.1 0-.2 0s-.1 0-.2 0h-.2c-.1 0-.1 0-.2 0s-.1 0-.2 0-.1 0-.2 0-.2 0-.3 0c-.2 0-.4 0-.6 0-.2 0-.3 0-.5.1-.2 0-.3.1-.4.1-.1 0-.2.1-.3.1-.1 0-.1.1-.2.1 0 0-.1 0-.1 0l.1-.1zM78.5 56.2c.1 0 .1 0 0 0 .1 0 .1 0 .2 0s.1 0 .2 0 .2 0 .3 0c.1 0 .2 0 .4 0 .1 0 .1 0 .2 0s.1 0 .2 0 .1 0 .2 0c0 0 .1 0 .1 0s.1 0 .1 0 .1 0 .1 0 .1 0 .1 0c.1 0 .1 0 .2 0s.3.1.4.1c0 0 .1 0 .1 0s.1 0 .1 0 .1 0 .1 0 .1 0 .1 0 .1 0 .1 0 .1 0 .1 0c.1 0 .1 0 .2.1.1 0 .1.1.2.1s.1.1.2.1c0 0 .1.1.1.1s.1 0 .1.1c0 0 .1 0 .1.1 0 0 .1 0 .1.1.1.1.2.1.2.1s-.1 0-.2-.1c0 0-.1 0-.1-.1 0 0-.1 0-.1-.1 0 0-.1 0-.1-.1 0 0-.1 0-.1-.1 0 0-.1 0-.2-.1-.1 0-.1 0-.2-.1-.1 0-.1 0-.2-.1 0 0-.1 0-.1 0s-.1 0-.1 0-.1 0-.1 0-.1 0-.1 0-.1 0-.1 0-.1 0-.1 0c-.1 0-.3-.1-.4-.1-.1 0-.1 0-.2 0 0 0-.1 0-.1 0s-.1 0-.1 0-.1 0-.1 0-.1 0-.1 0c-.1 0-.1 0-.2 0s-.1 0-.2 0-.1 0-.2 0-.2 0-.4 0c-.1 0-.2 0-.3 0-.1 0-.2 0-.2 0-.1 0-.1 0-.1 0h-.1zM80.3 57.9c.1 0 .1 0 .2 0s.3 0 .4 0c.1 0 .2 0 .3 0 .1 0 .2 0 .3 0 .1 0 .2 0 .3.1.1 0 .2.1.4.1.1 0 .1 0 .2.1.1 0 .1 0 .2.1.1 0 .2.1.3.1.1.1.2.1.3.2 0 0 .1.1.1.1s.1.1.1.1.1.1.1.1.1 0 .1.1c.1 0 .1.1.1.1.1.1.1.1.1.1s0 0-.1-.1c0 0-.1-.1-.1-.1s-.1 0-.1-.1c0 0-.1 0-.1-.1 0 0-.1 0-.1-.1 0 0-.1 0-.1-.1-.1 0-.2-.1-.3-.1-.1 0-.2-.1-.3-.1-.1 0-.1 0-.2-.1-.1 0-.1 0-.2 0s-.2-.1-.3-.1c-.1 0-.2 0-.3-.1-.1 0-.2 0-.3 0-.1 0-.2 0-.3 0-.2 0-.3 0-.4 0-.1 0-.1 0-.1 0l-.2-.2zM68 46.3s0 .1 0 .2 0 .3 0 .5 0 .5.1.8c0 .3 0 .6.1 1 0 .2 0 .4 0 .6 0 .2 0 .4 0 .6 0 .4 0 .9.1 1.3 0 .2 0 .5 0 .7 0 .2 0 .5 0 .7 0 .5 0 1 .1 1.5 0 .5 0 1 .1 1.5 0 .1 0 .2 0 .4 0 .1 0 .2 0 .4s0 .5 0 .7c0 .5 0 .9 0 1.3 0 .2 0 .4 0 .6 0 .2 0 .4 0 .6 0 .4 0 .7 0 1 0 .3 0 .6 0 .8 0 .2 0 .4 0 .5 0 .1 0 .1 0 .1s0-.1 0-.1c0-.1 0-.3 0-.5s0-.5 0-.8c0-.3 0-.6-.1-1 0-.2 0-.4 0-.6 0-.2 0-.4 0-.6 0-.4 0-.9-.1-1.3 0-.2 0-.5 0-.7 0-.1 0-.2 0-.4 0-.1 0-.2 0-.4 0-.5 0-1-.1-1.5 0-.5 0-1-.1-1.5 0-.2 0-.5 0-.7 0-.2 0-.5 0-.7 0-.5 0-.9 0-1.3 0-.2 0-.4 0-.6 0-.2 0-.4 0-.6 0-.4 0-.7 0-1 0-.3 0-.6 0-.8 0-.2 0-.4 0-.5-.1-.1-.1-.2-.1-.2z"/><path fill="#c14f03" d="M68.2 52.1s-.1 0-.1 0c-.1 0-.2.1-.3.1-.1 0-.1.1-.2.1s-.1.1-.2.1c0 0-.1.1-.1.1s-.1.1-.1.1-.1.1-.1.1-.1.1-.1.1-.1.1-.1.1 0 0 0 .1c0 0 0 0 0 .1 0 0 0 0 0 .1 0 0 0 0 0 .1 0 0 0 0 0 .1 0 0 0 0 0 .1 0 0 0 0 0 .1 0 0 0 0 0 .1 0 0 0 0 0 .1 0 0 0 0 0 .1s-.1.1-.1.2c0 0 0 .1 0 .1s0 .1 0 .1 0 .1 0 .1c0 .1 0 .1 0 .1s0 0 0-.1c0 0 0-.1 0-.1s0-.1 0-.1 0-.1 0-.1c0-.1 0-.1.1-.2 0 0 0 0 0-.1 0 0 0 0 0-.1 0 0 0 0 0-.1 0 0 0 0 0-.1 0 0 0 0 0-.1 0 0 0 0 0-.1 0 0 0 0 0-.1 0 0 0 0 0-.1 0 0 0 0 0-.1 0 0 0 0 0-.1 0 0 .1-.1.1-.1s.1-.1.1-.1.1-.1.1-.1.1-.1.1-.1.1-.1.1-.1c.1-.1.1-.1.2-.2.1 0 .1-.1.2-.1.1-.1.2-.1.2-.2 0 0 .1 0 .1 0l.1.2zM68.3 54s-.1 0 0 0c-.1 0-.1 0-.2 0 0 0-.1 0-.2.1-.1 0-.1.1-.2.1 0 0-.1 0-.1.1 0 0-.1.1-.1.1s-.1.1-.1.1 0 0-.1.1c0 0 0 0-.1.1 0 0 0 0-.1.1 0 0 0 0-.1.1 0 0-.1.1-.1.1s-.1.1-.1.1-.1.1-.1.1c0 .1-.1.1-.1.2s-.1.1-.1.2-.1.1-.1.2-.1.1-.1.2 0 .1-.1.2c0 0 0 .1 0 .1s0 0 0 .1c0 0 0 .1-.1.1 0 0 0 .1-.1.1 0 .1-.1.2-.1.2s0 .1 0 .1 0 .1 0 .1c0 .1 0 .2 0 .2s0-.1 0-.2c0 0 0-.1 0-.1s0-.1 0-.1c0-.1 0-.2.1-.2 0 0 0-.1 0-.1s0-.1.1-.1c0 0 0-.1 0-.1s0-.1 0-.1c0-.1 0-.1.1-.2 0-.1 0-.1.1-.2 0-.1.1-.1.1-.2s.1-.1.1-.2.1-.1.1-.2.1-.1.1-.2c0 0 .1-.1.1-.1s.1-.1.1-.1 0 0 .1-.1c0 0 0 0 .1-.1 0 0 0 0 .1-.1 0 0 0 0 .1-.1 0 0 .1-.1.1-.1s.1-.1.1-.1.1-.1.1-.1c.1 0 .2-.1.2-.1.1 0 .1-.1.2-.1s.1 0 .1 0 .1 0 .1 0l.1.1zM68.3 55.9c-.1 0-.1.1-.2.1s-.1 0-.2.1-.2.1-.3.2c0 0-.1.1-.1.1s-.1.1-.1.1c-.1.1-.2.2-.3.3 0 0 0 .1-.1.1 0 0 0 .1-.1.1 0 0 0 .1-.1.1-.1.1-.2.3-.3.4 0 .1-.1.1-.1.2s-.1.1-.1.2c-.1.1-.1.3-.2.4 0 0 0 .1 0 .1s0 .1 0 .1c0 .1-.1.1-.1.2s0 .1-.1.2c0 .1 0 .1-.1.2 0 .1 0 .1-.1.2 0 .1 0 .1 0 .1s0 .1 0 .1 0 .1 0 .1c0 .1-.1.2-.1.2s0-.1.1-.2c0 0 0-.1 0-.1s0-.1 0-.1 0-.1 0-.1c0-.1 0-.1 0-.2s0-.1.1-.2c0-.1 0-.1.1-.2 0-.1 0-.1.1-.2 0 0 0-.1 0-.1s0-.1 0-.1c.1-.1.1-.3.2-.4 0-.1.1-.1.1-.2s.1-.1.1-.2c.1-.1.2-.3.2-.4 0 0 0-.1.1-.1 0 0 0-.1.1-.1 0 0 0-.1.1-.1.1-.1.2-.2.3-.3 0-.1.1-.1.1-.1s.1-.1.1-.1c.1-.1.2-.1.3-.2.1-.1.2-.1.2-.1.1 0 .1-.1.1-.1s.1 0 .1 0h.2zM68.5 57.6c-.1 0-.1.1-.1.1-.1.1-.2.2-.4.3-.1.1-.2.1-.2.2-.1.1-.2.2-.2.3 0 0-.1.1-.1.1s-.1.1-.1.2-.1.1-.1.2c0 0 0 .1-.1.1 0 0 0 .1-.1.1 0 0 0 .1 0 .1s0 .1 0 .1c0 .1-.1.1-.1.2-.1.1-.1.2-.2.3 0 0 0 .1 0 .1 0 .1 0 .1-.1.2 0 0 0 .1 0 .1s0 .1 0 .1c0 .1 0 .1 0 .1s0 .1 0 .1 0 0 0 .1c0 0 0 0 0 .1s0 .1 0 .2 0 .2 0 .2 0-.1 0-.2 0-.1 0-.2c0 0 0 0 0-.1 0 0 0 0 0-.1 0 0 0-.1 0-.1s0-.1 0-.2c0 0 0-.1 0-.1s0-.1 0-.1c0-.1 0-.1 0-.2 0 0 0-.1 0-.1 0-.1.1-.2.1-.4 0-.1.1-.1.1-.2 0 0 0-.1 0-.1s0-.1 0-.1 0-.1 0-.1 0-.1.1-.1c0-.1.1-.1.1-.2s.1-.1.1-.2.1-.1.1-.2c.1-.1.2-.2.2-.3.1-.1.2-.2.2-.2.1-.1.3-.2.4-.3 0 0 .1-.1.1-.1l.3.3zM68.5 59.4c0 .1 0 .1 0 0-.1.1-.2.2-.3.3 0 .1-.1.1-.1.2s-.1.1-.1.2c0 0 0 .1-.1.1 0 0 0 .1-.1.1 0 0 0 .1 0 .1s0 .1 0 .1c0 .1-.1.2-.1.3 0 .1 0 .2-.1.2 0 0 0 .1 0 .1s0 .1 0 .1 0 .1 0 .1 0 .1 0 .1c0 .1 0 .1 0 .2s0 .1 0 .1c0 .1 0 .1 0 .1s0 0 0-.1c0 0 0-.1 0-.1 0-.1 0-.1 0-.2 0 0 0-.1 0-.1s0-.1 0-.1 0-.1 0-.1 0-.1 0-.1c0-.1 0-.2 0-.3 0-.1 0-.2.1-.3 0 0 0-.1 0-.1s0-.1 0-.1 0-.1 0-.1 0-.1 0-.1c0-.1.1-.2.1-.2 0-.1.1-.1.1-.2.1-.1.1-.2.2-.3 0 0 0-.1.1-.1l.3.2zM68.2 51.5c.1 0 .1 0 .2.1.1 0 .2.1.4.2.1 0 .2.1.2.2.1.1.2.1.2.2 0 0 .1.1.1.1s.1.1.1.1.1.1.1.1 0 0 .1.1l.1.1s.1.1.1.1.1.1.1.1c.1.1.1.2.2.3 0 0 .1.1.1.1s.1.1.1.1 0 .1.1.1c0 0 0 .1.1.1 0 0 0 .1.1.1 0 0 0 0 0 .1 0 0 0 0 0 .1s.1.1.1.2.1.2.1.2 0-.1-.1-.1c0 0 0-.1-.1-.2 0 0 0 0 0-.1 0 0 0-.1-.1-.1 0 0 0-.1-.1-.1 0 0 0-.1-.1-.1 0 0-.1-.1-.1-.1s-.1-.1-.1-.1c-.1-.1-.1-.2-.2-.3 0 0-.1-.1-.1-.1s-.1-.1-.1-.1l-.1-.1s0 0-.1-.1c0 0-.1-.1-.1-.1s-.1-.1-.1-.1-.1-.1-.1-.1c-.1-.1-.2-.1-.2-.2-.1-.1-.2-.1-.2-.1-.1-.1-.3-.2-.4-.2 0 0-.1 0-.1 0l-.1-.4zM68.2 53.4c.1 0 .1 0 0 0 .1 0 .1 0 .2.1.1 0 .1 0 .2.1.1 0 .2.1.3.1.1 0 .2.1.3.2.1.1.2.1.3.2.1.1.2.2.3.3.1.1.2.2.3.3l.1.1s0 .1.1.1c0 .1.1.1.1.2.1.1.2.2.2.3 0 .1.1.1.1.2s.1.1.1.2c0 0 0 .1 0 .1s0 .1 0 .1c0 .1 0 .1.1.1 0 0 0 .1.1.1 0 0 0 0 0 .1 0 0 0 0 0 .1 0 0 0 .1 0 .1 0 .1.1.2.1.2s0-.1-.1-.2c0 0 0-.1 0-.1s0 0 0-.1c0 0 0 0 0-.1 0 0 0-.1-.1-.1 0 0 0-.1-.1-.1 0 0 0 0 0-.1 0 0 0 0 0-.1s-.1-.1-.1-.2-.1-.1-.1-.2c-.1-.1-.2-.2-.2-.3 0-.1-.1-.1-.1-.2 0 0 0 0-.1-.1l-.2-.1c-.1-.1-.2-.2-.3-.3-.1-.1-.2-.2-.3-.2-.1-.1-.2-.1-.3-.2-.1-.1-.2-.1-.3-.2-.1 0-.2-.1-.3-.1-.1 0-.1-.1-.2-.1s-.1 0-.1 0v-.2zM68.3 55.4c.1 0 .1.1.2.1s.1.1.2.1.2.1.3.2c.1.1.2.1.3.2.1.1.2.2.3.3.1.1.1.1.2.2 0 0 0 .1.1.1 0 0 .1.1.1.1.1.1.2.2.3.4l.1.1s0 .1.1.1c0 0 0 .1.1.1 0 0 0 .1.1.1 0 0 0 .1.1.1 0 0 0 .1.1.1s0 .1.1.1c0 0 0 .1 0 .1.1.1.1.3.2.4.1.1.1.2.1.4 0 .1 0 .1.1.2 0 .1 0 .1 0 .1s0 .1 0 .1 0 .1 0 .1c0 .1.1.2.1.2s0-.1-.1-.2c0 0 0-.1 0-.1s0-.1 0-.1 0-.1-.1-.1c0 0 0-.1-.1-.2 0-.1-.1-.2-.2-.3-.1-.1-.1-.2-.2-.4 0 0 0-.1-.1-.1 0 0 0-.1-.1-.1 0 0 0-.1-.1-.1 0 0 0-.1-.1-.1 0 0 0-.1-.1-.1 0 0 0-.1-.1-.1 0 0 0-.1-.1-.1l.1-.3c-.1-.1-.2-.2-.3-.4 0 0-.1-.1-.1-.1s-.1-.1-.1-.1c-.1-.1-.1-.1-.2-.2s-.2-.2-.3-.3c-.1-.1-.2-.2-.3-.2-.1-.1-.2-.1-.3-.2-.1 0-.2-.1-.2-.1-.1 0-.1 0-.1-.1v.1zM68.4 57.2c.1 0 .1.1.1.1s.1.1.1.1c.1 0 .1.1.2.1.1.1.1.1.2.2s.1.1.2.2c0 0 .1.1.1.1s.1.1.1.1.1.1.1.1.1.1.1.1c.1.1.1.2.2.3 0 0 0 0 0 .1 0 0 0 0 0 .1 0 0 0 0 0 .1 0 0 0 0 0 .1 0 0 0 0 0 .1 0 0 0 0 0 .1 0 0 0 .1.1.1 0 0 0 .1 0 .1s0 .1 0 .1 0 .1 0 .1 0 .1 0 .1c0 .1 0 .1 0 .2s0 .1 0 .1 0-.1 0-.1 0-.1 0-.2c0 0 0-.1 0-.1s0-.1 0-.1 0-.1 0-.1 0-.1-.1-.1c0 0 0-.1-.1-.1 0 0 0 0 0-.1 0 0 0 0 0-.1 0 0 0 0 0-.1 0 0 0 0 0-.1 0 0 0 0 0-.1 0 0 0 0 0-.1-.1-.1-.1-.2-.2-.3 0 0-.1-.1-.1-.1s-.1-.1-.1-.1-.1-.1-.1-.1-.1-.1-.1-.1c-.1-.1-.1-.1-.2-.2s-.1-.1-.2-.2c-.1 0-.1-.1-.2-.1s-.1-.1-.1-.1-.1 0-.1-.1h.1z"/><path fill="#c14f03" d="M68.5 59s.1.1.1.1c.1.1.1.1.2.2 0 0 .1.1.1.2.1.1.1.1.2.2s.1.1.2.2c0 .1.1.2.1.2s0 .1.1.1c0 0 0 .1.1.1 0 .1.1.2.1.2 0 .1.1.2.1.2s0 .1 0 .1 0 .1 0 .1 0 .1 0 .1 0 .1 0 .1c0 .1 0 .1 0 .1 0 .1 0 .1 0 .1s0 0 0-.1c0 0 0-.1 0-.1s0-.1 0-.1 0-.1 0-.1 0-.1 0-.1 0-.1 0-.1c0-.1-.1-.1-.1-.2s-.1-.2-.1-.2 0-.1-.1-.1c0 0 0-.1-.1-.1 0-.1-.1-.1-.2-.2s-.1-.1-.2-.2-.1-.1-.2-.2-.1-.1-.2-.1c-.1-.1-.2-.2-.2-.2s-.1 0-.1-.1l.2-.1z"/><path fill="#7f3706" d="M67.8 45.7c-.1.1-.2.2-.3.3-.1.1-.2.2-.4.4-.1.1-.3.3-.5.5s-.4.3-.6.5c-.2.2-.4.4-.7.6-.2.2-.5.4-.7.6-.2.2-.5.4-.7.7-.2.2-.5.4-.7.6-.2.2-.5.4-.7.6-.2.2-.5.4-.7.6-.2.2-.4.4-.6.5-.2.2-.4.3-.5.4-.2.1-.3.2-.4.3-.1.1-.2.2-.3.2-.1 0-.1.1-.1.1s0 0 .1-.1.1-.1.2-.2.2-.2.4-.4c.1-.1.3-.3.5-.5s.4-.3.6-.5c.2-.2.4-.4.7-.6.2-.2.5-.4.7-.6.2-.2.5-.4.7-.7.2-.2.5-.4.7-.6.2-.2.5-.4.7-.6.2-.2.5-.4.7-.6.2-.2.4-.4.6-.5.2-.2.4-.3.5-.4.2-.1.3-.2.4-.3.2-.1.3-.2.4-.3z"/><path fill="#7f3706" d="M66.2 47.3c0-.1 0-.1 0 0-.1-.1-.2-.1-.3-.1 0 0-.1 0-.1 0-.1 0-.1 0-.2 0s-.1 0-.2 0c0 0-.1 0-.1 0s-.1 0-.1 0c-.1 0-.1 0-.2 0s-.1 0-.1 0 0 0-.1 0c0 0 0 0-.1 0 0 0-.1 0-.1 0s-.1 0-.1 0 0 0 .1 0c0 0 .1 0 .1 0s0 0 .1 0c0 0 0 0 .1 0 0 0 .1 0 .1-.1.1 0 .1 0 .2 0 0 0 .1 0 .1 0s.1 0 .1 0c.1 0 .1 0 .2 0s.1 0 .2 0 .1 0 .2 0 .2.1.2.1 0 0 .1 0l-.1.1zM64.5 48.6s0-.1 0 0c-.1-.1-.2-.2-.3-.2-.1 0-.1 0-.2-.1-.1 0-.1 0-.2 0 0 0 0 0-.1 0 0 0 0 0-.1 0 0 0-.1 0-.1 0s-.1 0-.1 0-.1 0-.1 0-.1 0-.1 0-.1 0-.1 0-.1 0-.1 0-.1 0-.1 0-.1 0-.1 0 0 0-.1 0c0 0 0 0-.1 0 0 0-.1 0-.1 0s-.1 0-.1 0c-.1 0-.1 0-.2.1 0 0-.1 0-.1.1-.1 0-.1 0-.1 0s0 0 .1-.1c0 0 .1 0 .1-.1 0 0 .1 0 .2-.1 0 0 .1 0 .1 0s.1 0 .1 0 0 0 .1 0c0 0 0 0 .1 0 0 0 .1 0 .1 0s.1 0 .1 0 .1 0 .1 0 .1 0 .1 0 .1 0 .1 0 .1 0 .1 0 .1 0 .1 0 .1 0 .1 0 0 0 .1 0c0 0 0 0 .1 0s.2 0 .2 0c.1 0 .1 0 .2.1.1 0 .2.1.3.1 0 0 .1 0 .1.1 0 0 0 0-.1.1zM63.4 49.6c-.1-.1-.1-.1-.1-.1s0 0-.1 0c0 0 0 0-.1 0 0 0-.1 0-.1 0-.1 0-.1 0-.2 0 0 0-.1 0-.1 0s-.1 0-.1 0c-.1 0-.1 0-.2 0h-.2s-.1 0-.1 0c-.1 0-.1 0-.2 0 0 0-.1 0-.1 0s-.1 0-.1 0c-.1 0-.1 0-.2.1 0 0 0 0-.1 0 0 0-.1 0-.1 0-.1 0-.1 0-.1 0s0 0 .1 0c0 0 .1 0 .1 0s0 0 .1 0 .1 0 .2-.1c0 0 .1 0 .1 0s.1 0 .1 0c.1 0 .1 0 .2-.1 0 0 .1 0 .1 0h.2c.1 0 .2 0 .2 0s.1 0 .1 0 .1 0 .1 0c.1 0 .1 0 .2 0 0 0 .1 0 .1 0s0 0 .1 0c0 0 0 0 .1 0 0 0 0 0 .1 0 .1.1.1.1 0 .2zM62.2 50.7c0-.1 0-.1 0 0 0-.1 0-.1 0 0 0-.1-.1-.1 0 0-.1-.1-.1-.1 0 0-.1-.1-.1-.1-.1-.1s0 0-.1 0c0 0 0 0-.1 0 0 0 0 0-.1 0 0 0-.1 0-.1 0s-.1 0-.1 0-.1 0-.1 0c-.1 0-.1 0-.2 0s-.1 0-.2 0-.1 0-.2 0-.1 0-.1 0-.1 0-.1 0-.1 0-.1 0-.1 0-.1 0-.1 0-.1 0 0 0 .1 0c0 0 .1 0 .1 0s.1 0 .1 0 .1 0 .1 0 .1 0 .1 0c.1 0 .1 0 .2 0s.1 0 .2 0 .1 0 .2 0c0 0 .1 0 .1 0s.1 0 .1 0 .1 0 .1 0 .1 0 .1 0 0 0 .1 0c0 0 0 0 .1 0 0 0 0 0 .1 0s.1 0 0 .1c.1-.1.1-.1.1-.1l-.1.1zM61.6 51.3s-.1 0 0 0c-.1 0-.1 0 0 0-.1 0-.1 0-.2 0 0 0-.1 0-.1 0s0 0-.1 0c0 0 0 0-.1 0 0 0-.1 0-.1 0s-.1 0-.1 0c-.1 0-.1 0-.2 0 0 0-.1 0-.1 0s-.1 0-.1 0c-.1 0-.1 0-.2.1-.1 0-.1.1-.2.1 0 0-.1.1-.1.1s-.1.1-.1.1 0 0-.1 0c0 0-.1 0-.1.1 0 0-.1.1-.1.1s0 0 .1-.1c0 0 0 0 .1-.1 0 0 0 0 .1 0 0 0 .1-.1.1-.1s.1-.1.1-.1.1-.1.1-.1c.1 0 .1-.1.2-.1 0 0 .1 0 .1 0s.1 0 .1 0c.1 0 .1 0 .2-.1 0 0 .1 0 .1 0s.1 0 .1 0 .1 0 .1 0 0 0 .1 0c0 0 .1 0 .1 0s.1 0 .1 0 0 0 .1 0l.1.1zM65.9 47.3s0 .1 0 0c0 0 0 .1 0 .1 0 .1 0 .2.1.3 0 .1 0 .1 0 .2s0 .1 0 .2 0 .2 0 .2c0 .1 0 .2 0 .2 0 .1 0 .2 0 .2 0 .1 0 .1-.1.2 0 0 0 .1 0 .1s0 .1 0 .1c0 .1 0 .1-.1.2 0 .1 0 .1-.1.1 0 0 0 .1-.1.1 0 .1-.1.1-.1.1s0 0 0-.1c0 0 0-.1.1-.1 0 0 0-.1.1-.1 0-.1 0-.1.1-.2 0 0 0-.1 0-.1s0-.1 0-.1c0-.1 0-.1 0-.2s0-.2 0-.2c0-.1 0-.2 0-.2 0-.1 0-.2 0-.2 0-.1 0-.1 0-.2s0-.1 0-.2 0-.2-.1-.3c0 0 0-.1 0-.1h.2zM64.5 48.6s0 .1 0 0c0 .1 0 .1 0 .1 0 .1.1.2.1.3 0 .1 0 .1 0 .2s0 .2 0 .3c0 .1 0 .2 0 .3 0 .1 0 .2 0 .3v.2s0 .1 0 .1c0 .1 0 .2-.1.3 0 0 0 .1 0 .1s0 .1 0 .1 0 .1 0 .1 0 .1 0 .1 0 .1 0 .1-.1.1-.1.1c0 .1-.1.1-.1.1s0 0 .1-.1c0 0 0-.1.1-.1 0 0 0-.1 0-.1s0-.1 0-.1 0-.1 0-.1 0-.1 0-.1 0-.1 0-.1c0-.1 0-.2.1-.3 0 0 0-.1 0-.1v-.2c0-.1 0-.2 0-.3 0-.1 0-.2 0-.3 0-.1 0-.2 0-.2 0-.1 0-.1 0-.2s-.1-.2-.1-.3c-.1 0-.1-.1 0-.2-.1.1-.1.1-.1.1l.1-.1zM63.4 49.7c0 .1 0 .1 0 .1s0 .1 0 .2 0 .1 0 .2 0 .2 0 .3c0 .1 0 .2 0 .3 0 0 0 .1 0 .2s0 .1 0 .2 0 .2-.1.3v.1s0 .1 0 .1 0 .1 0 .1 0 0 0 .1c0 0 0 0 0 .1 0 0 0 0 0 .1 0 0 0 0 0 .1 0 0 0 0 0 .1s-.1.2-.1.3c0 .1-.1.2-.1.2s0 .1-.1.1c0 0 0 .1-.1.1 0 0 0 .1 0 .1s0 0 0 .1-.1.1-.1.1 0 0 .1-.1c0 0 0 0 0-.1 0 0 0-.1 0-.1s0-.1 0-.1 0-.1.1-.1c0-.1.1-.1.1-.2s.1-.2.1-.3c0 0 0 0 0-.1 0 0 0 0 0-.1 0 0 0 0 0-.1 0 0 0 0 0-.1 0 0 0 0 0-.1 0 0 0-.1 0-.1v-.2c0-.1 0-.2.1-.3 0-.1 0-.1 0-.2s0-.1 0-.1c0-.1 0-.2 0-.3 0-.1 0-.2 0-.2 0-.1 0-.1 0-.2s0-.1 0-.2c0-.2 0-.2.1-.3-.1.1-.1.1-.1 0h.1zM62.5 50.4s0 .1 0 0c0 .1 0 .1 0 .1 0 .1 0 .2 0 .3 0 .1 0 .1 0 .2s0 .2 0 .2c0 .1 0 .2 0 .2 0 .1 0 .2 0 .3v.2s0 .1 0 .1c0 .1 0 .2-.1.2 0 0 0 .1 0 .1s0 .1 0 .1c0 .1-.1.1-.1.2s-.1.1-.1.1-.1.1-.1.1c0 .2-.1.2-.1.2s0 0 .1-.1c0 0 0-.1.1-.1 0 0 .1-.1.1-.2s.1-.1.1-.2c0 0 0-.1 0-.1s0-.1 0-.1c0-.1 0-.2.1-.2 0 0 0-.1 0-.1v-.2c0-.1 0-.2 0-.2 0-.1 0-.2 0-.2 0-.1 0-.2 0-.2 0-.1 0-.1 0-.2s0-.2 0-.3c0 0 0-.1 0-.1v-.1z"/><path fill="#7f3706" d="M61.6 51.2s0 .1 0 0c0 .2 0 .2 0 .3 0 .1 0 .2-.1.3 0 .1 0 .1 0 .2s0 .1-.1.2c0 0 0 .1 0 .1 0 .1-.1.1-.1.2 0 0 0 .1 0 .1s0 .1 0 .1-.1.1-.1.1-.1.1-.1.1-.1.1-.1.1-.1.1-.1.1 0 0 .1-.1c0 0 0 0 .1-.1 0 0 .1-.1.1-.1s.1-.1.1-.1 0 0 0-.1c0 0 0-.1 0-.1 0-.1.1-.1.1-.2 0 0 0-.1 0-.1 0-.1 0-.1 0-.2s0-.1 0-.2 0-.2 0-.3c0-.1 0-.2 0-.2s0-.1 0-.1h.2z"/><g opacity=".8"><path fill="#c14f03" d="M68 44.2s0-.1 0-.2 0-.3.1-.5c0-.2.1-.5.1-.8 0-.3.1-.6.1-1 0-.2 0-.4.1-.6 0-.2.1-.4.1-.6.1-.4.1-.9.2-1.3 0-.2.1-.5.1-.7 0-.2.1-.5.1-.7.1-.5.1-1 .2-1.5s.1-1 .2-1.5c0-.1 0-.2.1-.4 0-.1 0-.2.1-.4 0-.2.1-.5.1-.7.1-.5.1-.9.2-1.3 0-.2.1-.4.1-.6 0-.2.1-.4.1-.6.1-.4.1-.7.2-1 0-.3.1-.6.1-.8 0-.2.1-.4.1-.5 0-.1 0-.1 0-.1s0 .1 0 .1c0 .1 0 .3 0 .5s0 .5-.1.8c0 .3-.1.6-.1 1 0 .2 0 .4-.1.6 0 .2-.1.4-.1.6-.1.4-.1.9-.2 1.3 0 .2-.1.5-.1.7 0 .1 0 .2 0 .4 0 .1 0 .2-.1.4-.1.5-.1 1-.2 1.5s-.1 1-.2 1.5c0 .2-.1.5-.1.7 0 .2-.1.5-.1.7-.1.5-.1.9-.2 1.3 0 .2-.1.4-.1.6 0 .2-.1.4-.1.6-.1.4-.1.7-.2 1-.1.3-.1.6-.1.8 0 .2-.1.4-.1.5-.2.1-.2.2-.2.2z"/><path fill="#c14f03" d="M68.8 38.7c-.1 0-.1 0 0 0-.1 0-.1 0-.1-.1-.1 0-.2-.1-.3-.2-.1 0-.1-.1-.2-.1-.1-.1-.1-.1-.2-.2 0 0-.1-.1-.1-.1s-.1-.1-.1-.1-.1-.1-.1-.1-.1-.1-.1-.1-.1-.1-.1-.1 0-.1-.1-.1c0 0 0 0 0-.1 0 0 0 0 0-.1 0 0 0 0 0-.1 0 0 0 0 0-.1 0 0 0 0 0-.1 0 0 0 0 0-.1 0 0 0 0 0-.1 0 0 0 0 0-.1s0-.2-.1-.2c0 0 0-.1 0-.1s0-.1 0-.1 0-.1 0-.1c0-.1 0-.1 0-.1s0 0 0 .1c0 0 0 .1 0 .1s0 .1 0 .1 0 .1 0 .1c0 .1 0 .1.1.2 0 0 0 0 0 .1 0 0 0 0 0 .1 0 0 0 0 0 .1 0 0 0 0 0 .1 0 0 0 0 0 .1 0 0 0 0 0 .1 0 0 0 0 0 .1 0 0 0 0 0 .1 0 0 0 .1.1.1 0 0 .1.1.1.1s.1.1.1.1.1.1.1.1.1.1.1.1.1.1.1.1c.1.1.1.1.2.2.1 0 .1.1.2.1.1.1.2.1.3.2 0 0 .1 0 .1 0v.1zM69 36.8c-.1 0-.1 0-.2-.1-.1 0-.1 0-.2-.1-.1 0-.1-.1-.2-.1 0 0-.1-.1-.1-.1s-.1-.1-.1-.1-.1-.1-.1-.1 0 0-.1-.1c0 0 0 0-.1-.1 0 0 0 0-.1-.1 0 0 0 0-.1-.1 0 0-.1-.1-.1-.2s-.1-.1-.1-.2-.1-.1-.1-.2-.1-.1-.1-.2 0-.1-.1-.2c0-.1 0-.1-.1-.2 0-.1 0-.1-.1-.2 0-.1 0-.1 0-.2 0 0 0-.1 0-.1s0-.1 0-.1c0-.1 0-.1 0-.2 0 0 0-.1 0-.1 0-.1 0-.2 0-.2s0-.1 0-.1 0-.1 0-.1c0-.1 0-.2 0-.2s0 .1 0 .2c0 0 0 .1 0 .1s0 .1 0 .1c0 .1 0 .2.1.2 0 0 0 .1 0 .1s0 .1 0 .1 0 .1 0 .1 0 .1 0 .1c0 .1 0 .1.1.2 0 .1 0 .1.1.2 0 .1 0 .1.1.2 0 .1.1.1.1.2s.1.1.1.2.1.1.1.2.1.1.1.2c0 0 .1.1.1.1s0 0 .1.1c0 0 0 0 .1.1 0 0 0 0 .1.1 0 0 0 0 .1.1 0 0 .1.1.1.1s.1.1.1.1.1.1.1.1c.1.1.1.1.2.1s.1.1.2.1c0 0 .1 0 .1 0l-.1.3zM69.2 34.9c-.1 0-.1-.1-.2-.1s-.1-.1-.2-.2-.2-.1-.2-.2c0 0-.1-.1-.1-.1 0-.1-.1-.1-.1-.2-.1-.1-.2-.2-.2-.4 0 0 0-.1-.1-.1 0 0 0-.1-.1-.1 0 0 0-.1-.1-.1-.1-.1-.1-.3-.2-.4 0-.1-.1-.1-.1-.2s-.1-.1-.1-.2c-.1-.1-.1-.3-.1-.4 0 0 0-.1 0-.1s0-.1 0-.1c0-.1 0-.1-.1-.2 0-.1 0-.1 0-.2s0-.1 0-.2 0-.1 0-.2 0-.1 0-.2c0 0 0-.1 0-.1s0-.1 0-.1c0-.1 0-.2 0-.2s0 .1 0 .2c0 0 0 .1 0 .1s0 .1 0 .1 0 .1 0 .2 0 .1 0 .2 0 .1 0 .2 0 .1.1.2c0 .1 0 .1.1.2 0 0 0 .1 0 .1s0 .1 0 .1c0 .1.1.3.2.4 0 .1.1.1.1.2s.1.1.1.2c.1.1.1.3.2.4 0 0 0 .1.1.1 0 0 0 .1.1.1 0 0 0 .1.1.1.1.1.2.2.3.3 0 .1.1.1.1.1s.1.1.1.1c.1.1.2.2.2.2.1.1.1.1.2.1s.1.1.1.1l-.2.3zM69.6 33.2s-.1 0 0 0c-.1-.1-.1-.1-.1-.1-.1-.1-.2-.2-.3-.3-.1-.1-.1-.2-.2-.3-.1-.1-.1-.2-.2-.3 0-.1-.1-.1-.1-.2s-.1-.1-.1-.2-.1-.1-.1-.2c0 0 0-.1 0-.1s0-.1 0-.1 0-.1 0-.1 0-.1 0-.1c0-.1 0-.1-.1-.2 0-.1-.1-.2-.1-.4 0 0 0-.1 0-.1 0-.1 0-.1 0-.2 0 0 0-.1 0-.1s0-.1 0-.1c0-.1 0-.1 0-.2 0 0 0-.1 0-.1s0 0 0-.1c0 0 0 0 0-.1s0-.1 0-.2 0-.2 0-.2 0 .1 0 .2 0 .1 0 .2c0 0 0 0 0 .1 0 0 0 0 0 .1 0 0 0 .1 0 .1s0 .1 0 .2c0 0 0 .1 0 .1s0 .1 0 .1c0 .1 0 .1 0 .2 0 0 0 .1 0 .1 0 .1.1.2.1.4 0 .1 0 .1.1.2 0 0 0 .1 0 .1s0 .1 0 .1 0 .1 0 .1 0 .1 0 .1c0 .1.1.1.1.2s.1.1.1.2.1.1.1.2c.1.1.1.2.2.3.1.1.1.2.2.2.1.1.3.2.3.3 0 0 .1.1.1.1v.1zM69.7 31.3s-.1-.1-.1-.1c0-.1-.1-.2-.2-.3 0-.1-.1-.1-.1-.2s-.1-.1-.1-.2c0 0 0-.1 0-.1s0-.1 0-.1 0-.1 0-.1 0-.1 0-.1c0-.1 0-.2 0-.3 0-.1 0-.2 0-.3 0 0 0-.1 0-.1s0-.1 0-.1 0-.1 0-.1 0-.1 0-.1c0-.1 0-.1 0-.2s0-.1 0-.1c0-.1 0-.1 0-.1s0 0 0 .1c0 0 0 .1 0 .1 0 .1 0 .1 0 .2 0 0 0 .1 0 .1s0 .1 0 .1 0 .1 0 .1 0 .1 0 .1c0 .1 0 .2 0 .3 0 .1 0 .2 0 .3 0 0 0 .1 0 .1s0 .1 0 .1 0 .1 0 .1 0 .1 0 .1c0 .1.1.1.1.2s.1.1.1.2c.1.1.1.2.2.3 0 0 0 .1.1.1zM68.7 38.9c.1 0 .1 0 .1 0 .1 0 .2-.1.4-.2.1 0 .2-.1.2-.1.1 0 .2-.1.3-.2 0 0 .1-.1.1-.1s.1-.1.1-.1.1-.1.1-.1 0 0 .1-.1l.1-.1s.1-.1.1-.1.1-.1.1-.1c.1-.1.2-.2.2-.2s.1-.1.1-.1.1-.1.1-.1.1-.1.1-.1.1-.1.1-.1 0-.1.1-.1c0-.1.1-.1.1-.2s.1-.1.1-.1 0 .1-.1.1c0 0-.1.1-.1.2 0 0 0 0 0 .1 0 0 0 .1-.1.1 0 0 0 .1-.1.1 0 0-.1.1-.1.1s-.1.1-.1.1-.1.1-.1.1c-.1.1-.1.2-.2.3 0 0-.1.1-.1.1s-.1.1-.1.1l-.1.1s0 0-.1.1c0 0-.1.1-.1.1s-.1.1-.1.1-.1.1-.1.1c-.1.1-.2.1-.3.2-.1.1-.2.1-.2.1-.1 0-.2.1-.3.1 0 0-.1 0-.1 0l-.1-.1zM69 37c.1 0 .1 0 .2 0s.1 0 .2-.1c.1 0 .2-.1.3-.1.1 0 .2-.1.3-.1.1 0 .2-.1.3-.2.1-.1.2-.1.3-.2.1-.1.2-.2.3-.2l.1-.1s.1 0 .1-.1c.1 0 .1-.1.1-.1.1-.1.2-.2.3-.3 0 0 .1-.1.1-.1s.1-.1.1-.1 0 0 .1-.1c0 0 0 0 0-.1 0 0 .1-.1.1-.1s.1-.1.1-.1 0 0 0-.1c0 0 0 0 0-.1 0 0 0-.1.1-.1.1-.1.1-.2.1-.2s0 .1-.1.2c0 0 0 .1-.1.1 0 0 0 0 0 .1 0 0 0 0 0 .1 0 0 0 .1-.1.1 0 0-.1.1-.1.1s0 0 0 .1c0 0 0 0 0 .1 0 0-.1.1-.1.1s-.1.1-.1.2c-.1.1-.2.2-.3.3 0 0-.1.1-.1.1s0 0-.1.1l-.1.1c-.1.1-.2.2-.3.3-.1.1-.2.2-.3.2-.1.1-.2.1-.3.2-.1.1-.2.1-.3.1-.1 0-.2.1-.3.1-.1 0-.2 0-.2.1-.1 0-.1 0-.1 0L69 37zM69.2 35.1s.1 0 0 0c.1 0 .1 0 .2-.1.1 0 .1 0 .2-.1.1 0 .2-.1.3-.1.1-.1.2-.1.3-.2.1-.1.2-.1.3-.2.1 0 .1-.1.2-.1 0 0 .1 0 .1-.1 0 0 .1 0 .1-.1.1-.1.2-.2.3-.3l.1-.1s.1-.1.1-.1 0-.1.1-.1c0 0 0-.1.1-.1 0 0 0-.1.1-.1 0 0 0-.1.1-.1 0 0 0-.1.1-.1 0 0 0-.1.1-.1.1-.1.2-.2.2-.4.1-.1.1-.2.2-.3 0-.1.1-.1.1-.1s0-.1.1-.1c0 0 0-.1.1-.1 0 0 0-.1 0-.1.1-.1.1-.2.1-.2s0 .1-.1.2c0 0 0 .1 0 .1s0 .1-.1.1c0 0 0 .1-.1.1 0 0 0 .1-.1.2s-.1.2-.2.3c-.2.1-.2.3-.3.4 0 0 0 .1-.1.1 0 0 0 .1-.1.1 0 0 0 .1-.1.1 0 0 0 .1-.1.1 0 0 0 .1-.1.1 0 0 0 .1-.1.1 0 0 0 .1-.1.1l-.1.1c-.1.1-.2.2-.3.3 0 0-.1.1-.1.1s-.1.1-.1.1c-.1 0-.1.1-.2.1-.1.1-.2.2-.3.3-.1.1-.2.1-.3.2-.1.1-.2.1-.3.1-.1 0-.2.1-.2.1-.1 0-.1 0-.2 0 0 0-.1 0-.1 0l.2-.1z"/><path fill="#c14f03" d="M69.5 33.3s0-.1 0 0c.1 0 .1 0 .1-.1 0 0 .1 0 .2-.1.1 0 .1-.1.2-.1s.1-.1.2-.1c.1-.1.2-.1.2-.2 0 0 .1-.1.1-.1s.1-.1.1-.1.1-.1.1-.1.1-.1.1-.1c.1-.1.1-.2.2-.2 0 0 0 0 .1-.1 0 0 0 0 0-.1 0 0 0 0 0-.1 0 0 0 0 0-.1 0 0 0 0 0-.1 0 0 0 0 0-.1 0 0 .1-.1.1-.1s0-.1.1-.1c0 0 0-.1.1-.1 0 0 0-.1.1-.1 0 0 0-.1 0-.1 0-.1 0-.1.1-.2 0-.1.1-.1.1-.1s0 .1 0 .1 0 .1-.1.2c0 0 0 .1 0 .1s0 .1 0 .1 0 .1-.1.1c0 0 0 .1-.1.1 0 0 0 .1-.1.1 0 0 0 0 0 .1 0 0 0 0 0 .1 0 0 0 0 0 .1 0 0 0 0 0 .1 0 0 0 0 0 .1 0 0 0 0 0 .1-.1.1-.1.2-.2.3 0 0-.1.1-.1.1s-.1.1-.1.1-.1.1-.1.1-.1.1-.1.1c-.1.1-.2.1-.2.2-.1.1-.2.1-.2.2-.1 0-.1.1-.2.1s-.1.1-.2.1c0 0-.1 0-.1 0l-.3-.1zM69.7 31.5s.1 0 .1-.1c.1 0 .2-.1.3-.2.1 0 .1-.1.2-.1s.1-.1.2-.2.1-.1.2-.2.1-.1.2-.2c0 0 .1-.1.1-.1s.1-.1.1-.1c0-.1.1-.1.1-.2s.1-.1.1-.2c0 0 0-.1 0-.1s0-.1 0-.1 0-.1 0-.1 0-.1 0-.1c0-.1 0-.1 0-.1 0-.1 0-.1 0-.1s0 0 0 .1c0 0 0 .1 0 .1s0 .1 0 .1 0 .1 0 .1 0 .1 0 .1 0 .1 0 .1c0 .1-.1.1-.1.2s-.1.2-.1.2 0 .1-.1.1c0 0 0 .1-.1.1-.1.1-.1.1-.2.2s-.1.1-.2.2-.1.1-.2.2-.1.1-.2.1c-.1.1-.2.2-.3.2 0 0-.1 0-.1.1z"/></g><path fill="#a04507" d="M68.9 44.3s.1-.1.2-.2.3-.3.5-.4c.2-.2.5-.4.7-.7.3-.3.6-.6 1-.9.4-.3.7-.7 1.2-1.1.4-.4.8-.8 1.3-1.2.4-.4.9-.8 1.4-1.2.5-.4.9-.9 1.4-1.3.5-.4 1-.9 1.4-1.3.5-.4.9-.8 1.4-1.2.5-.4.9-.8 1.3-1.2.4-.4.8-.7 1.2-1 .4-.3.7-.6 1-.9.3-.3.5-.5.8-.7.2-.2.4-.3.5-.4.1-.1.1-.1.1-.1s-.1.1-.1.1c-.1.1-.3.3-.5.5s-.5.4-.7.7c-.3.3-.6.6-1 .9-.4.3-.7.7-1.1 1.1-.4.4-.8.8-1.3 1.2-.4.4-.9.8-1.4 1.3-.5.4-.9.9-1.4 1.3-.5.4-1 .9-1.4 1.3-.5.4-.9.8-1.4 1.2-.5.4-.9.8-1.3 1.2-.4.4-.8.7-1.2 1-.4.3-.7.6-1 .9-.3.3-.6.5-.8.7-.2.2-.4.3-.5.4-.2-.1-.3 0-.3 0z"/><path fill="#a04507" d="M73.9 39.7c-.1 0-.1 0 0 0 0-.1 0-.1-.1-.2 0-.1-.1-.3-.1-.4 0-.1 0-.2-.1-.3 0-.1 0-.2 0-.3 0-.1 0-.1 0-.2 0 0 0-.1 0-.1s0-.1 0-.1 0-.1 0-.1 0-.1 0-.1c0-.1 0-.1 0-.2s0-.1 0-.2c0 0 0-.1 0-.1s0-.1 0-.1 0-.1 0-.1 0-.1 0-.1 0-.1 0-.1 0-.1 0-.1 0-.1 0-.1 0-.1 0-.1 0-.1 0-.1 0-.1 0-.1c0-.1.1-.2.1-.3 0 0 0-.1.1-.1 0 0 0 0 0-.1 0 0 0-.1.1-.1.1-.1.1-.1.1-.1s0 .1-.1.1c0 0 0 .1-.1.1 0 0 0 0 0 .1 0 0 0 0 0 .1 0 0 0 .1-.1.1 0 .1-.1.2-.1.3 0 0 0 0 0 .1 0 0 0 .1 0 .1s0 .1 0 .1 0 .1 0 .1 0 .1 0 .1 0 .1 0 .1 0 .1 0 .1 0 .1 0 .1 0 .1 0 .1 0 .1 0 .1c0 .1 0 .1 0 .2s0 .1 0 .2c0 0 0 .1 0 .1s0 .1 0 .1 0 .1 0 .1 0 .1 0 .1c0 .1 0 .1 0 .2s0 .2 0 .3c0 .1 0 .2.1.3 0 .2.1.3.1.4 0 0 0 .1 0 .1h.1zM75.8 38c-.1-.1-.1-.1-.1-.2s-.1-.1-.1-.2-.1-.2-.1-.3c0 0 0-.1 0-.1s0-.1 0-.1c0-.1 0-.1 0-.2s0-.1 0-.2c0 0 0-.1 0-.1s0-.1 0-.1 0-.1 0-.1 0-.1 0-.1c0-.1 0-.2 0-.2s0-.1 0-.1 0-.1 0-.1c0-.1 0-.2.1-.2 0-.1 0-.2.1-.2 0-.1 0-.2.1-.2 0-.1.1-.2.1-.2 0-.1.1-.1.1-.2s.1-.1.1-.2c0 0 0-.1 0-.1s0-.1 0-.1c0-.1.1-.1.1-.2s.1-.1.1-.2c.1-.1.1-.2.2-.3 0 0 0-.1.1-.1 0 0 0-.1.1-.1.1-.1.1-.2.1-.2s0 .1-.1.2c0 0 0 .1-.1.1 0 0 0 .1-.1.1 0 .1-.1.2-.2.3 0 .1-.1.1-.1.2s-.1.1-.1.2c0 0 0 .1 0 .1s0 .1 0 .1c0 .1-.1.1-.1.2s-.1.1-.1.2 0 .2-.1.2c0 .1 0 .2-.1.2 0 .1 0 .2-.1.2 0 .1 0 .2 0 .2s0 .1 0 .1 0 .1 0 .1c0 .1 0 .2 0 .2s0 .1 0 .1 0 .1 0 .1 0 .1 0 .1 0 .1 0 .1c0 .1 0 .1 0 .2s0 .1 0 .2c0 0 0 .1 0 .1s0 .1 0 .1c0 .1.1.2.1.3 0 .1.1.2.1.2 0 .1.1.1.1.1l-.1.1zM77.6 36.2c0-.1-.1-.2-.1-.3 0-.1 0-.2-.1-.3 0-.1 0-.1 0-.2s0-.1 0-.2 0-.2 0-.3c0 0 0-.1 0-.1s0 0 0-.1c0 0 0 0 0-.1 0-.2 0-.4 0-.6 0 0 0-.1 0-.1s0-.1 0-.1 0-.1 0-.1c0-.1 0-.1 0-.2s0-.1 0-.2c0-.2.1-.4.2-.6 0-.1 0-.1 0-.2s0-.1 0-.2.1-.2.1-.3c0 0 0-.1.1-.1 0 0 0-.1.1-.1 0 0 0 0 0-.1 0 0 0 0 0-.1 0 0 0-.1.1-.1 0 0 0-.1.1-.1 0 0 0-.1.1-.1 0-.1.1-.2.1-.3 0-.1.1-.2.1-.2 0-.1.1-.1.1-.2s.1-.1.1-.2.1-.1.1-.2.1-.1.1-.2c0 0 .1-.1.1-.1.1-.2.2-.2.2-.2s0 .2-.1.3c0 0 0 .1-.1.1 0 0-.1.1-.1.2s-.1.1-.1.2-.1.1-.1.2-.1.1-.1.2-.1.2-.1.2c0 .1-.1.2-.1.3 0 0 0 .1-.1.1 0 0 0 .1-.1.1 0 0 0 .1-.1.1 0 0 0 0 0 .1 0 0 0 0 0 .1 0 0 0 .1-.1.1 0 0 0 .1-.1.1 0 .1-.1.2-.1.3 0 .1 0 .1 0 .2s0 .1 0 .2c-.1.2-.1.4-.1.6 0 .1 0 .1 0 .2s0 .1 0 .2c0 0 0 .1 0 .1s0 0 0 .1c0 0 0 .1 0 .1 0 .2 0 .4 0 .6 0 0 0 0 0 .1 0 0 0 0 0 .1 0 0 0 .1 0 .1 0 .1 0 .2 0 .2 0 .1 0 .2 0 .2 0 .1 0 .1 0 .2s0 .2.1.3c0 .1 0 .2.1.2 0 0 0 .1 0 .1h-.2zM79.4 34.8s0-.1 0 0c0-.1 0-.2 0-.2 0-.2 0-.4-.1-.6 0-.1 0-.3 0-.4 0-.2 0-.3 0-.5 0-.1 0-.2 0-.3 0 0 0-.1 0-.1s0-.1 0-.1 0-.1 0-.1 0 0 0-.1v-.1s0-.1 0-.1 0-.1 0-.1 0-.1 0-.1 0-.1 0-.1c0-.1.1-.2.1-.2.1-.2.1-.3.2-.5 0 0 0 0 0-.1 0 0 0 0 0-.1 0 0 0-.1.1-.1 0-.1.1-.1.1-.2 0 0 0-.1.1-.1 0 0 0-.1.1-.1 0-.1.1-.1.1-.2s.1-.1.1-.2c0 0 0 0 .1-.1 0 0 0 0 .1-.1 0 0 .1-.1.1-.1s0 0 0-.1c.1-.1.2-.2.2-.2s-.1.1-.2.2c0 0 0 0 0 .1 0 0-.1.1-.1.1s0 0 0 .1c0 0 0 0 0 .1 0 0-.1.1-.1.2s-.1.1-.1.2c0 0 0 .1-.1.1 0 0 0 .1-.1.1 0 .1-.1.1-.1.2 0 0 0 .1-.1.1 0 0 0 0 0 .1 0 0 0 0 0 .1-.1.1-.1.3-.2.5 0 .1-.1.2-.1.2s0 .1 0 .1 0 .1 0 .1 0 .1 0 .1 0 .1 0 .1v.1s0 0 0 .1c0 0 0 .1 0 .1s0 .1 0 .1 0 .1 0 .1c0 .1 0 .2 0 .2 0 .2 0 .3 0 .5 0 .1 0 .3 0 .4 0 .3 0 .5.1.6 0 .1 0 .1 0 .2l-.2.1zM81.2 33c0 .1 0 0 0 0 0-.1 0-.1 0-.2s0-.3.1-.4c0-.1 0-.2.1-.3 0-.1 0-.1.1-.2 0-.1 0-.1.1-.2 0-.1 0-.1.1-.2 0-.1 0-.1.1-.2 0-.1.1-.1.1-.2s.1-.1.1-.2.1-.1.1-.2c0 0 .1-.1.1-.1.1-.1.1-.2.2-.3 0 0 .1-.1.1-.1s.1-.1.1-.1.1-.1.1-.1.1-.1.1-.1.1-.1.1-.1.1-.1.1-.1c.1 0 .1-.1.1-.1.1-.1.1-.1.1-.1s0 0-.1.1c0 0-.1.1-.1.1s-.1.1-.1.1-.1.1-.1.1-.1.1-.1.1-.1.1-.1.1-.1.1-.1.1-.1.1-.1.1c-.1.1-.1.2-.2.3 0 0-.1.1-.1.2s-.1.1-.1.2-.1.1-.1.2-.1.1-.1.2 0 .1-.1.2c0 .1 0 .1-.1.2 0 .1 0 .1-.1.2 0 .1 0 .1 0 .1 0 .1 0 .2-.1.3 0 .2 0 .3-.1.4 0 .1 0 .1 0 .1l-.1.1zM73.7 39.9s.1 0 0 0c.1 0 .1.1.2.1s.1.1.2.1.2.1.3.1c.1 0 .2.1.3.1.1 0 .3 0 .4.1.1 0 .3 0 .4 0 0 0 .1 0 .1 0s.1 0 .1 0c.1 0 .1 0 .2 0s.1 0 .2 0 .1 0 .2 0 .1 0 .2 0 .1 0 .2 0 .1 0 .2 0 .1 0 .2 0 .1 0 .2 0c0 0 .1 0 .1 0 .1 0 .2-.1.3-.1.1 0 .2-.1.2-.1.1 0 .2-.1.2-.1s-.1 0-.2.1c.2-.2.1-.2 0-.2s-.2.1-.3.1c0 0-.1 0-.1 0-.1 0-.1 0-.2.1-.1 0-.1 0-.2.1-.1 0-.1 0-.2 0s-.1 0-.2 0-.1 0-.2 0-.1 0-.2 0-.1 0-.2 0-.2 0-.2 0-.1 0-.1 0-.1 0-.1 0c-.1 0-.3 0-.4 0-.1 0-.3 0-.4-.1-.1 0-.2 0-.4-.1-.1 0-.2-.1-.3-.1-.1 0-.2-.1-.2-.1-.1 0-.1 0-.1-.1l-.2.1zM75.5 38.2c.1.1.1.1.2.1s.2.1.3.1c.1 0 .2.1.3.1.1 0 .3.1.4.1.2 0 .3.1.5.1s.3.1.5.1.4 0 .5 0h.1s.1 0 .1 0c.1 0 .2 0 .3 0 .2 0 .4 0 .5-.1 0 0 0 0 .1 0 0 0 0 0 .1 0 0 0 .1 0 .1 0s.1 0 .1 0 .1 0 .1 0 .1 0 .1 0 .1 0 .1 0c.1 0 .1 0 .2-.1.1 0 .1 0 .2-.1 0 0 .1 0 .1 0s.1 0 .1 0c.1 0 .1 0 .1-.1 0 0 0 0 .1 0 0 0 0 0 .1 0 .1-.1.2-.1.2-.1s-.1 0-.2.1c0 0 0 0-.1 0 0 0 0 0-.1 0 0 0-.1 0-.1.1 0 0-.1 0-.1 0s-.1 0-.1 0c-.1 0-.1 0-.2.1-.1 0-.1 0-.2.1 0 0-.1 0-.1 0s-.1 0-.1 0-.1 0-.1 0-.1 0-.1 0-.1 0-.1 0 0 0-.1 0c0 0 0 0-.1 0-.2 0-.3.1-.5.1-.1 0-.2 0-.3 0 0 0-.1 0-.1 0h-.1c-.2 0-.4 0-.6 0-.2 0-.4 0-.5-.1-.2 0-.3-.1-.5-.1s-.3-.1-.4-.1c-.1 0-.3-.1-.4-.1-.1 0-.2-.1-.3-.1-.1 0-.1-.1-.2-.1h.2zM77.4 36.5s.1 0 0 0c.1.1.2.1.2.1.1 0 .2.1.3.1.1 0 .3.1.4.1.2 0 .3.1.5.1s.4 0 .6 0c.1 0 .2 0 .3 0 0 0 .1 0 .2 0s.1 0 .2 0 .1 0 .2 0h.2c.1 0 .1 0 .2 0s.1 0 .2 0h.2c.1 0 .1 0 .2 0s.1 0 .2 0 .1 0 .2 0 .1 0 .1 0 .1 0 .1 0 .1 0 .1 0 .1 0 .1 0c.2-.1.4-.1.5-.2.2-.1.3-.1.5-.2.1 0 .1-.1.2-.1s.1-.1.2-.1.1 0 .2-.1c.1 0 .1 0 .1-.1.2-.1.3-.1.3-.1s-.1 0-.3.1c0 0-.1 0-.1.1 0 0-.1 0-.2.1-.1 0-.1.1-.2.1s-.1.1-.2.1c-.1.1-.3.1-.5.2s-.3.1-.5.2c0 0-.1 0-.1 0s-.1 0-.1 0-.1 0-.1 0-.1 0-.1 0c-.1 0-.1 0-.2 0s-.1 0-.2 0-.1 0-.2 0h-.2c-.1 0-.1 0-.2 0s-.1 0-.2 0h-.2c-.1 0-.1 0-.2 0s-.1 0-.2 0-.1 0-.2 0-.2 0-.3 0c-.2 0-.4 0-.6 0-.2 0-.3 0-.5-.1-.2 0-.3-.1-.4-.1-.1 0-.2-.1-.3-.1-.1 0-.2-.1-.2-.1s0 0-.1 0h.1z"/><path fill="#a04507" d="M79.3 34.8c.1 0 .1 0 .2.1.1 0 .1 0 .2.1.1 0 .2 0 .3.1.1 0 .2 0 .3.1.1 0 .1 0 .2 0s.1 0 .2 0 .1 0 .2 0c0 0 .1 0 .1 0s.1 0 .1 0 .1 0 .1 0 .1 0 .1 0c.1 0 .1 0 .2 0s.3 0 .4-.1c0 0 .1 0 .1 0s.1 0 .1 0 .1 0 .1 0 .1 0 .1 0 .1 0 .1 0 .1 0 .1 0c.1 0 .1 0 .2-.1.1 0 .1 0 .2-.1.1 0 .1 0 .2-.1.1 0 .1 0 .1-.1 0 0 .1 0 .1-.1 0 0 .1 0 .1-.1 0 0 .1 0 .1-.1.1-.1.2-.1.2-.1s-.1 0-.2.1c0 0-.1 0-.1.1 0 0-.1 0-.1.1 0 0-.1 0-.1.1 0 0-.1 0-.1.1-.1 0-.1 0-.2.1-.1 0-.1 0-.2.1-.1 0-.1 0-.2.1 0 0-.1 0-.1 0s-.1 0-.1 0-.1 0-.1 0-.1 0-.1 0-.1 0-.1 0-.1 0-.1 0c-.1 0-.3.1-.4.1-.1 0-.1 0-.2 0 0 0-.1 0-.1 0s-.1 0-.1 0-.1 0-.1 0-.1 0-.1 0c-.1 0-.1 0-.2 0s-.1 0-.2 0-.1 0-.2 0-.2 0-.4 0c-.1 0-.2 0-.3-.1-.1 0-.2 0-.2-.1-.1 0-.1 0-.1 0v-.2zM81.1 33.2c.1 0 .1 0 .2 0s.2 0 .4 0c.1 0 .2 0 .3 0 .1 0 .2 0 .3 0 .1 0 .1 0 .2 0 0 0 .1 0 .1 0s.1 0 .1 0c.1 0 .1 0 .2 0s.1 0 .2 0 .1 0 .2 0 .1 0 .2 0 .1 0 .2-.1c.1 0 .1 0 .2-.1.1 0 .1 0 .1-.1 0 0 .1 0 .1-.1 0 0 .1 0 .1-.1 0 0 .1 0 .1-.1 0 0 .1 0 .1-.1 0 0 .1 0 .1-.1.1 0 .1-.1.2-.1.1-.1.1-.1.1-.1s0 0-.1.1c0 0-.1.1-.1.1s-.1 0-.1.1c0 0-.1 0-.1.1 0 0-.1 0-.1.1 0 0-.1 0-.1.1 0 0-.1 0-.1.1 0 0-.1 0-.1.1 0 0-.1 0-.2.1-.1 0-.1 0-.2.1-.1 0-.1 0-.2.1-.1 0-.1 0-.2.1-.1 0-.1 0-.2 0s-.1 0-.2 0c0 0-.1 0-.1 0s-.1 0-.1 0c-.1 0-.1 0-.2 0s-.2 0-.3 0c-.1 0-.2 0-.3 0-.2 0-.3 0-.4 0-.1 0-.1 0-.1 0l-.2-.2z"/><path fill="#c14f03" d="M67.9 45.3c-.1-.2-.2-.3-.3-.4-.1-.1-.2-.3-.4-.4-.1-.2-.3-.4-.5-.6-.1-.1-.2-.2-.3-.3-.1-.1-.2-.2-.3-.4-.2-.2-.4-.5-.6-.8-.2-.3-.4-.5-.6-.8-.2-.3-.4-.6-.7-.9-.2-.3-.4-.6-.7-.9-.1-.1-.1-.1-.2-.2s-.1-.1-.2-.2-.2-.3-.3-.4c-.2-.3-.4-.5-.6-.8-.1-.1-.2-.2-.3-.4-.1-.1-.2-.2-.2-.3-.2-.2-.3-.4-.4-.6-.1-.2-.2-.3-.3-.5-.1-.1-.2-.2-.2-.3 0-.1-.1-.1-.1-.1s0 0 .1.1.1.2.2.3c.1.1.2.3.4.4.1.2.3.4.5.6.1.1.2.2.3.3.1.1.2.2.3.4.2.2.4.5.6.8.1.1.2.3.3.4.1.1.1.1.2.2s.1.1.2.2c.2.3.4.6.7.9.2.3.4.6.7.9.2.3.4.6.6.8.2.3.4.5.6.8.1.1.2.2.3.4.1.1.2.2.2.3.2.2.3.4.4.6.1.2.2.3.3.5.1.1.2.2.2.3.1.1.1.1.1.1z"/><g><path fill="#c14f03" d="M66.5 43.5c-.2 0-.2.1-.3.1-.1 0-.1 0-.2 0s-.1 0-.2 0-.1 0-.2 0c0 0-.1 0-.1 0s-.1 0-.1 0c-.1 0-.1 0-.2-.1-.1 0-.1-.1-.1-.1s0 0-.1 0c0 0 0 0-.1 0 0 0-.1 0-.1-.1 0 0-.1-.1-.1-.1s0 0 .1.1c0 0 .1 0 .1.1 0 0 0 0 .1 0 0 0 0 0 .1 0 0 0 .1.1.1.1.1 0 .1 0 .2 0 0 0 .1 0 .1 0s.1 0 .1 0c.1 0 .1 0 .2 0s.1 0 .2 0 .1 0 .2 0 .2 0 .2-.1c0 0 0 0 .1 0v.1z"/></g><g><path fill="#c14f03" d="M65.7 42.4c-.1 0-.1 0-.1.1 0 0-.1 0-.1.1-.1 0-.1 0-.2 0s-.1 0-.2 0c0 0-.1 0-.1 0s0 0-.1 0c0 0 0 0-.1 0 0 0 0 0-.1 0 0 0 0 0-.1 0 0 0-.1 0-.1 0s-.1 0-.1 0-.1 0-.1 0-.1 0-.1 0-.1 0-.1 0-.1 0-.1-.1c0 0-.1 0-.1-.1 0 0-.1 0-.1-.1 0 0 0 0-.1 0 0 0 0 0-.1 0 0 0-.1 0-.1-.1 0 0-.1 0-.1-.1-.1 0-.1-.1-.2-.1 0 0 0 0-.1 0 0 0 0 0-.1 0s-.1-.1-.1-.1 0 0 .1.1c0 0 0 0 .1 0 0 0 0 0 .1 0 0 0 .1.1.2.1 0 0 .1 0 .1.1 0 0 .1 0 .1.1 0 0 0 0 .1 0 0 0 0 0 .1 0 0 0 .1 0 .1.1 0 0 .1 0 .1.1 0 0 .1 0 .1 0s.1 0 .1 0 .1 0 .1 0 .1 0 .1 0 .1 0 .1 0 .1 0 .1 0 0 0 .1 0c0 0 0 0 .1 0 0 0 0 0 .1 0 0 0 0 0 .1 0 0 0 .1 0 .1 0 .1 0 .1 0 .2 0s.1 0 .2 0c0 0 .1 0 .1-.1-.1-.1 0-.1.1 0-.1-.1-.1-.1 0 0z"/></g><g><path fill="#c14f03" d="M64.8 41.3c-.1 0-.1 0-.1.1 0 0-.1 0-.1 0s-.1 0-.1 0-.1 0-.1 0-.1 0-.1 0 0 0-.1 0c0 0 0 0-.1 0 0 0-.1 0-.1 0s-.1 0-.1 0 0 0-.1 0c0 0 0 0-.1 0 0 0-.1 0-.1 0s0 0-.1 0c0 0-.1 0-.1 0-.1 0-.2-.1-.2-.1s-.1 0-.1-.1c0 0-.1 0-.1-.1 0 0-.1 0-.1-.1 0 0-.1 0-.1-.1-.1 0-.1-.1-.2-.1s-.1-.1-.2-.1c0 0-.1-.1-.1-.1-.1 0-.1-.1-.1-.1s0 0 .1.1c0 0 .1 0 .1.1 0 0 .1.1.2.1s.1.1.2.1c0 0 .1 0 .1.1 0 0 .1 0 .1 0s.1 0 .1 0 .1 0 .1 0c.1 0 .2.1.2.1s.1 0 .1 0 0 0 .1 0c0 0 .1 0 .1 0s0 0 .1 0c0 0 0 0 .1 0 0 0 .1 0 .1 0s.1 0 .1 0 0 0 .1 0c0 0 0 0 .1 0 0 0 .1 0 .1 0s.1 0 .1 0 .1 0 .1 0 0 0 .1 0c0 .2 0 .2.1.2-.1-.1-.1-.1 0 0-.1-.1-.1-.1 0 0z"/></g><g><path fill="#c14f03" d="M64.1 40.3s-.1 0-.1 0c-.1 0-.2 0-.3 0-.1 0-.1 0-.2 0s-.1 0-.2 0-.1 0-.2-.1c-.1 0-.1-.1-.2-.1 0 0-.1 0-.1-.1 0 0-.1 0-.1-.1 0 0-.1 0-.1-.1 0 0-.1 0-.1-.1 0 0-.1 0-.1-.1 0 0-.1 0-.1-.1 0 0-.1 0-.1-.1 0 0 0 0-.1-.1 0 0-.1-.1-.1-.1s-.1-.1-.1-.1 0 0 .1.1c0 0 .1.1.1.1s0 0 .1.1c0 0 .1 0 .1.1 0 0 .1 0 .1.1 0 0 .1 0 .1.1 0 0 .1 0 .1.1 0 0 .1 0 .1.1 0 0 .1 0 .1.1 0 0 .1 0 .1 0 .1 0 .1.1.2.1s.1 0 .2.1c.1 0 .1 0 .2 0s.1 0 .2 0 .2 0 .3 0c0 0 0 0 .1.1-.1-.1-.1-.1-.1-.1l.1.1z"/></g><g><path fill="#c14f03" d="M63.2 39.2c-.1 0-.2 0-.2 0s-.1 0-.1 0 0 0-.1 0c0 0-.1 0-.1 0s-.1 0-.1 0-.1 0-.1 0c-.1 0-.1-.1-.2-.1 0 0-.1 0-.1-.1 0 0-.1 0-.1-.1-.1 0-.1-.1-.2-.1 0 0-.1-.1-.1-.1s-.1-.1-.1-.1-.1-.1-.1-.1 0 0 0-.1c0 0 0-.1-.1-.1 0 0-.1-.1-.1-.1s0 0 .1.1c0 0 0 0 .1.1 0 0 .1.1.1.1s.1.1.1.1.1.1.1.1c.1 0 .1.1.2.1 0 0 .1 0 .1 0s.1 0 .1 0c.1 0 .1.1.2.1 0 0 .1 0 .1 0s.1 0 .1 0 .1 0 .1 0 0 0 .1 0c0 0 .1 0 .1 0s.1 0 .1 0 0 0 .1 0v.3z"/></g><g><path fill="#c14f03" d="M66.6 43.7c0-.1 0-.1 0 0 .1-.2.1-.3.2-.4 0-.1 0-.1.1-.2 0-.1 0-.1.1-.2 0-.1 0-.2 0-.2 0-.1 0-.2 0-.2s0-.1 0-.1 0-.1 0-.1c0-.1 0-.2 0-.2s0-.1 0-.1 0-.1 0-.1c0-.1 0-.1 0-.2s0-.1 0-.2c0 0 0-.1 0-.1 0-.1 0-.1 0-.1s0 0 0 .1c0 0 0 .1 0 .1s0 .1 0 .2 0 .1 0 .2c0 0 0 .1 0 .1s0 .1 0 .1c0 .1 0 .2 0 .2s0 .1 0 .1 0 .1 0 .1c0 .1 0 .2 0 .3 0 .1 0 .2 0 .2 0 .1 0 .2 0 .2 0 .1 0 .1-.1.2 0 .1-.1.2-.1.3 0 0 0 .1 0 .1l-.2-.1z"/></g><g><path fill="#c14f03" d="M65.7 42.5s.1 0 0 0c0 0 .1-.1.1-.1 0-.1.1-.2.2-.3 0-.1.1-.1.1-.2s.1-.2.1-.3c0-.1 0-.2.1-.3 0-.1 0-.2 0-.3v-.2s0-.1 0-.1c0-.1 0-.2 0-.3 0 0 0-.1 0-.1s0-.1 0-.1 0-.1 0-.1 0-.1 0-.1 0-.1 0-.1c0-.1 0-.1 0-.1 0-.1 0-.1 0-.1s0 0 .1.1c0 0 0 .1.1.1 0 0 0 .1 0 .1s0 .1 0 .1 0 .1 0 .1 0 .1 0 .1 0 .1 0 .1c0 .1 0 .2 0 .3 0 0 0 .1 0 .1v.2c0 .1 0 .2 0 .3 0 .1 0 .2-.1.3 0 .1 0 .2-.1.3 0 .1-.1.2-.1.2-.1.1-.1.3-.2.3 0 0 0 .1-.1.1 0 .1-.1.1-.2 0z"/></g><g><path fill="#c14f03" d="M64.9 41.4c0-.1.1-.1.1-.1s0-.1.1-.2c0-.1.1-.1.1-.2s0-.2.1-.3c0-.1 0-.2 0-.3 0-.1 0-.1 0-.2s0-.1 0-.2 0-.2 0-.3v-.2s0-.1 0-.1 0-.1 0-.1 0-.1 0-.1 0-.1 0-.1 0-.1 0-.1 0-.1 0-.1c0-.1 0-.2-.1-.3 0-.1 0-.2-.1-.3 0 0 0-.1 0-.1s0-.1 0-.1 0-.1 0-.1 0-.1 0-.1c0-.1-.1-.1-.1-.1s0 .1.1.1c0 0 0 0 0 .1 0 0 0 .1 0 .1s0 .1 0 .1 0 .1 0 .1c0 .1.1.2.1.3 0 .1.1.2.1.3 0 0 0 .1 0 .1s0 .1 0 .1 0 .1 0 .1 0 .1 0 .1 0 .1 0 .1 0 .1 0 .1v.2c0 .1 0 .2 0 .3 0 .1 0 .1 0 .2s0 .1 0 .2 0 .2 0 .3c0 .1 0 .2-.1.3 0 .1 0 .2-.1.2 0 .1 0 .1-.1.2 0 0 0 .1-.1.1.1.1.1.1 0 0z"/></g><g><path fill="#c14f03" d="M64.1 40.4c0-.1 0-.1 0 0 .1-.2.1-.3.1-.4 0-.1 0-.1 0-.2s0-.1 0-.2 0-.1 0-.2c0 0 0-.1 0-.1s0-.1 0-.1c0-.1 0-.2 0-.2s0-.1 0-.1 0 0 0-.1c0 0 0 0 0-.1 0 0 0-.1 0-.1s0-.1 0-.1 0-.1 0-.1 0-.1 0-.1 0-.1 0-.1 0 0 0-.1c0 0 0-.1-.1-.1 0-.1 0-.1 0-.1s0 0 .1.1c0 0 0 .1.1.1 0 0 0 0 0 .1 0 0 0 .1 0 .1s0 .1 0 .1 0 .1 0 .1 0 .1 0 .1 0 .1 0 .1 0 0 0 .1c0 0 0 0 0 .1 0 0 0 .1 0 .1 0 .1 0 .2 0 .2s0 .1 0 .1 0 .1 0 .1c0 .1 0 .2 0 .2 0 .1 0 .1 0 .2s0 .1 0 .2-.1.2-.1.3c0 0 0 .1 0 .1h-.1z"/></g><g><path fill="#c14f03" d="M63.3 39.3c0-.1.1-.2.1-.3 0 0 0-.1 0-.2s0-.1 0-.2 0-.1 0-.2 0-.1 0-.2c0 0 0-.1 0-.1s0-.1 0-.1c0-.1 0-.1 0-.2s0-.1-.1-.2c0 0 0-.1 0-.1s0 0 0-.1c0 0 0 0 0-.1 0 0 0 0 0-.1 0 0 0-.1-.1-.1 0 0 0-.1 0-.1s0 0 .1.1c0 0 0 .1.1.1 0 0 0 0 0 .1 0 0 0 0 0 .1 0 0 0 0 0 .1 0 0 0 0 0 .1s0 .1.1.2c0 .1 0 .1.1.2 0 0 0 .1 0 .1s0 .1 0 .1c0 .1 0 .1 0 .2s0 .1 0 .2 0 .1 0 .2 0 .1 0 .2 0 .2 0 .2 0 .1 0 .1h-.3z"/></g><path fill="#ffdbbb" d="M52.3 27.2h22.2v39.1l-22.2-.1z"/><path fill="#fffbf8" d="M73.3 72l-21.4-5.7V27.2l21.4-5.3z"/><path fill="#2fafb7" d="M34 36.9c0 .3-.3.6-.6.6h-5c-.3 0-.6-.3-.6-.6v-5c0-.3.3-.6.6-.6h5c.3 0 .6.3.6.6v5z"/><path fill="#e5393b" d="M34 45.4c0 .3-.3.6-.6.6h-5c-.3 0-.6-.3-.6-.6v-5c0-.3.3-.6.6-.6h5c.3 0 .6.3.6.6v5z"/><path fill="#7db538" d="M34 54.2c0 .3-.3.6-.6.6h-5c-.3 0-.6-.3-.6-.6v-5c0-.3.3-.6.6-.6h5c.3 0 .6.3.6.6v5z"/><path fill="#ffdbbb" d="M35.2 32.7h13.3v1.1H35.2zM35.2 34.4h13.3v1.1H35.2zM35.2 40.6h13.3v1.1H35.2zM35.2 42.3h13.3v1.1H35.2zM35.2 44h13.3v1.1H35.2zM35.2 49.4h13.3v1.1H35.2zM35.2 51.1h13.3v1.1H35.2zM35.2 52.8h13.3v1.1H35.2z"/><path fill="#fafaff" d="M27.7 61h20.8v2.1H27.7z"/><g fill="#c9bed1"><path d="M35.2 66.3l.1-.1-.2-.1.2-.5 5.2-11.2.6-3.5v.1-.3l.2-.7-.1.1-.6.6-2.3 2.7-5.2 11.1-.3.5-.2-.1-.6 1.4zM31.4 66.3l.3-.6-.4-.2-.3.8z"/></g><g><path fill="#c9bed1" d="M29.6 76.4c-.3.7-1.2.9-1.9.6-.7-.3-1.1-1.2-.7-1.8.3-.7 1.2-.9 1.9-.6.6.3 1 1.1.7 1.8z"/><path fill="#797085" d="M28.8 74.6L27.7 77c.7.3 1.6.1 1.9-.6.3-.7-.1-1.5-.8-1.8z"/><path fill="#1e2222" d="M27.14 74.66l5-10.7 2.62 1.24-5 10.69z"/><path fill="#1e2222" d="M27.08 75.23L37.76 52.4l2.26 1.06-10.67 22.83z"/><path fill="#797085" d="M27.1 75.28l10.68-22.82 1.08.5L28.2 75.8z"/><path fill="#1e2222" d="M27.09 75.22l.2-.45 2.45 1.14-.2.46z"/><path fill="#c9bed1" d="M40 53.5l.8-4.5-3 3.5z"/><path fill="#797085" d="M38.9 53l1.1.5.8-4.5z"/><path d="M40.6 50l-.5-.2.6-.7zM32.3 64.08l.2-.45 2.27 1.05-.21.46zM28.4 75.3l-1.4-.7c-.2-.1-.2-.3-.1-.6l4.3-9.3-.4-.2-4.6 9.7c-.1.2-.1.5.1.6l1.7.8.4-.3z" opacity=".9"/><path fill="#797085" d="M27.1 74.69l5-10.7 1.27.6-5 10.7z"/></g><g fill="#e8e1ef"><path d="M89.3 77l-.7 3.8c-.1.4.2.7.6.8l1.7.3c.4.1.7-.2.8-.6l.5-2.9.1-.8v-.1s0-.1 0-.1l7.1-40.5-1.5-.3-1.5-.3-7.1 40.5c0 .1 0 .2 0 .2z" opacity=".9"/><path d="M97.9 33.7l-1.5 2.7 3.1.5-.8-4.5z" opacity=".9"/></g><g><path fill="#fafaff" d="M91.1 76.3c.4.1.6.4.6.8l-.7 3.8c-.1.4-.4.6-.8.6l-1.7-.3c-.4-.1-.6-.4-.6-.8l.7-3.8c.1-.4.4-.6.8-.6l1.7.3z"/><path fill="#2fafb7" d="M88.05 79.67l7.64-43.64 3.06.54L91.1 80.2z"/><path fill="#fafaff" d="M95.7 35.9L98 32l.8 4.5z" opacity=".9"/><path d="M97.2 33.3l1 .2L98 32z" opacity=".9"/><path fill="#14737c" d="M89.56 79.89l7.65-43.64 1.48.26-7.65 43.64z"/><path d="M88.46 77.5l.14-.79 3.06.54-.14.78z" opacity=".9"/></g><path fill="#ffcf9c" d="M48.6 73.1l-1 2.8-.2.3-2.1-1.8.3-.3 2.6-1.4z"/><path fill="#ecba84" d="M48.6 73.1l-1.7 2.7-1.1-1 2.4-2.1z"/><path fill="#c6794d" d="M46.9 75.6l1.3-2.2.5-.3-1.2 2.9-.1.1z"/><path fill="#f3597f" d="M48.4 73.7l.7-1.5-1.8 1 .6.3z"/><path fill="#ed013d" d="M49 72.3l-.9 1.3.3.1z"/><path fill="#f8b1bb" d="M49 72.2l-1.4 1.2-.3-.2zM47.4 76.1l-.4-.4-1.2-1s.4-.4.1-.6c-.2-.2-.6.2-.6.2L34.7 86.4l.1.8 1 .9.9.1 10.7-12.1z"/><path fill="#f4789b" d="M34.8 87.2l1 .9 11-12.5s.3-.5-.1-.9-.9 0-.9 0l-11 12.5z"/><path fill="#ef4576" d="M36.8 88.2l-.9-.1 11-12.5s.3-.4.6-.1c.3.2 0 .7 0 .7l-10.7 12z"/><path fill="#ffcf9c" d="M64 75.7l1.8 2.2.4.2 1.2-2.4-.3-.1-2.8-.5z"/><path fill="#ecba84" d="M64 75.7l2.4 1.9.8-1.3-3-1.1z"/><path fill="#c6794d" d="M66.4 77.4l-1.9-1.6-.6-.1L66 78h.1z"/><path fill="#83b520" d="M64.4 76.1L63.3 75l2 .3-.5.4z"/><path fill="#43771e" d="M63.3 75l1.3.9-.2.3z"/><path fill="#bbdf67" d="M63.3 75l1.7.5.2-.2zM66.1 78l.3-.5.7-1.3s-.5-.2-.3-.5c.1-.3.6 0 .6 0l13.9 7.5.1.8-.6 1.2-.8.4L66.1 78z"/><path fill="#83b520" d="M81.4 84l-.6 1.2-14.4-7.8s-.5-.4-.2-.8c.3-.5.8-.3.8-.3L81.4 84z"/><path fill="#43771e" d="M80 85.6l.8-.4-14.4-7.8s-.4-.3-.6.1c-.2.3.3.6.3.6L80 85.6z"/><path fill="#ffcf9c" d="M61 79.9l-2.5 2.4-.5.2-1.2-3 .5-.2 3.5-.1z"/><path fill="#ecba84" d="M61 79.9l-3.2 2-.7-1.7 3.7-.9z"/><path fill="#c6794d" d="M57.8 81.6l2.6-1.6.6-.1-2.7 2.5h-.2z"/><path fill="#a44aa0" d="M60.5 80.4l1.5-1.3-2.5.2.5.6z"/><path fill="#530254" d="M61.9 79.2l-1.6.9.2.3z"/><path fill="#c499c8" d="M61.9 79.1l-2.1.5-.3-.3zM58.2 82.4l-.2-.6-.7-1.7s.6-.2.4-.6c-.1-.3-.7-.1-.7-.1l-17.7 7.1-.3.9.6 1.5.9.6 17.7-7.1z"/><path fill="#a44aa0" d="M38.9 87.4l.6 1.5 18.3-7.3s.6-.4.4-1c-.2-.6-1-.5-1-.5l-18.3 7.3z"/><path fill="#530254" d="M40.5 89.6l-.9-.6 18.3-7.3s.5-.3.7.2c.2.4-.4.7-.4.7l-17.7 7z"/></svg>