<svg xmlns="http://www.w3.org/2000/svg" xmlns:xlink="http://www.w3.org/1999/xlink" x="0px" y="0px" viewBox="0 0 100 100" style="enable-background:new 0 0 100 100;" xml:space="preserve">
<path style="fill-rule:evenodd; clip-rule:evenodd;" d="M52.9,32.4V22.1h22.4v10.3H52.9L52.9,32.4z M79.8,15.4v2.2v19.2  h4.4c-0.2-0.7-0.4-1.5-0.4-2.2c0-3.7,3-6.7,6.7-6.7c3.7,0,6.7,3,6.7,6.7c0,3.7-3,6.7-6.7,6.7H79.8c0,4.8,0,9.6,0,14.4  c2.8,2.8,4.5,6.7,4.5,11c0,5.2,0,10.5,0,15.7c0,1.9,0,3.7,0,5.6c0,4.3-3.5,7.8-7.8,7.8c-0.7,0-1.5,0-2.2,0c-4.3,0-7.8-3.5-7.8-7.8  v-5.6H34.2c0,1.9,0,3.7,0,5.6c0,4.3-3.5,7.8-7.8,7.8c-0.7,0-1.5,0-2.2,0c-4.3,0-7.8-3.5-7.8-7.8c0-1.9,0-3.7,0-5.6  c0-5.2,0-10.5,0-15.7c0-4.3,1.7-8.1,4.5-11c0-4.8,0-9.6,0-14.4H9.5c-3.7,0-6.7-3-6.7-6.7c0-3.7,3-6.7,6.7-6.7c3.7,0,6.7,3,6.7,6.7  c0,0.8-0.1,1.5-0.4,2.2h4.9V17.6v-2.2c0-6.2,5-11.2,11.2-11.2h36.6C74.7,4.2,79.8,9.2,79.8,15.4L79.8,15.4z M75.3,17.6v-2.2  c0-3.7-3-6.7-6.7-6.7H31.9c-3.7,0-6.7,3-6.7,6.7v2.2H75.3L75.3,17.6z M31.9,60c0.8,0,1.5,0.1,2.2,0.4v-4.9c-0.7,0-1.5,0-2.2,0  c-6.2,0-11.2,5-11.2,11.2c0,3.7,0,7.5,0,11.2c1.3,0,2.5,0,3.8,0c3.2,0,6.4,0,9.6,0V73c-0.7,0.2-1.5,0.4-2.2,0.4  c-3.7,0-6.7-3-6.7-6.7C25.2,63,28.2,60,31.9,60L31.9,60z M31.9,64.4c1.2,0,2.2,1,2.2,2.2c0,1.2-1,2.2-2.2,2.2c-1.2,0-2.2-1-2.2-2.2  C29.7,65.4,30.7,64.4,31.9,64.4L31.9,64.4z M90.5,32.4c1.2,0,2.2,1,2.2,2.2c0,1.2-1,2.2-2.2,2.2c-1.2,0-2.2-1-2.2-2.2  C88.2,33.4,89.2,32.4,90.5,32.4L90.5,32.4z M9.5,32.4c1.2,0,2.2,1,2.2,2.2c0,1.2-1,2.2-2.2,2.2c-1.2,0-2.2-1-2.2-2.2  C7.3,33.4,8.3,32.4,9.5,32.4L9.5,32.4z M43.1,73.4V51h4.5v22.4H43.1L43.1,73.4z M52.1,73.4V51h4.5v22.4H52.1L52.1,73.4z M25.2,32.4  V22.1h23.2v10.3H25.2L25.2,32.4z M68.6,64.4c-1.2,0-2.2,1-2.2,2.2c0,1.2,1,2.2,2.2,2.2c1.2,0,2.2-1,2.2-2.2  C70.8,65.4,69.8,64.4,68.6,64.4L68.6,64.4z M29.7,82.4c0,1.9,0,3.7,0,5.6c0,1.8-1.5,3.4-3.4,3.4c-0.7,0-1.5,0-2.2,0  c-1.8,0-3.4-1.5-3.4-3.4c0-1.9,0-3.7,0-5.6C23.7,82.4,26.7,82.4,29.7,82.4L29.7,82.4z M79.8,82.4c0,1.9,0,3.7,0,5.6  c0,1.8-1.5,3.4-3.4,3.4c-0.7,0-1.5,0-2.2,0c-1.8,0-3.4-1.5-3.4-3.4c0-1.9,0-3.7,0-5.6C73.8,82.4,76.8,82.4,79.8,82.4L79.8,82.4z   M38.7,86.8c0,1.5,0,3,0,4.5c9.2,0,14,0,23.2,0c0-1.5,0-3,0-4.5C52.6,86.8,47.9,86.8,38.7,86.8L38.7,86.8z M43.1,46.5  c-2.5,0-4.5,2-4.5,4.5v15.7c0,3.7,0,7.5,0,11.2c9,0,13.4,0,22.4,0c0-9,0-17.9,0-26.9c0-2.5-2-4.5-4.5-4.5h-4.5H43.1L43.1,46.5z   M65.5,55.5c1,0,2,0,3,0c6.2,0,11.2,5,11.2,11.2c0,3.7,0,7.5,0,11.2c-2.8,0-5.7,0-8.5,0c-1.9,0-3.8,0-5.7,0c0-1.7,0-3.5,0-5.2  c0.9,0.5,1.9,0.7,3,0.7c3.7,0,6.7-3,6.7-6.7c0-3.7-3-6.7-6.7-6.7c-1.1,0-2.1,0.3-3,0.7C65.5,59,65.5,57.2,65.5,55.5L65.5,55.5z   M43.1,42c-4.9,0-9,4-9,9c-0.7,0-1.5,0-2.2,0c-2.4,0-4.7,0.5-6.7,1.5c0-3.7,0-7.5,0-11.2v-4.5h50.1c0,5.2,0,10.4,0,15.7  c-2-1-4.3-1.5-6.7-1.5c-1,0-2,0-3,0c0-4.9-4-9-9-9C50.6,42,49.1,42,43.1,42L43.1,42z"></path>
</svg>